mtllib 115.mtl
v -193.7548039506832 1001.1553560000001 -66.7386803574807
v -193.73927800000004 1001.1553560000001 -66.84863784984846
v -193.73927800000004 1001.1700949807406 -66.7439949284741
v -193.7548039506832 1001.1553560000001 -66.7386803574807
v -193.9180871964486 1001.1553560000001 -64.38048749990897
v -193.73927800000004 1001.1700949807406 -66.7439949284741
v -193.73927800000004 1001.1553560000001 -61.60716947567634
v -193.73927800000004 1001.3354957780791 -64.28731401282992
vt 0.4276638562653856 0.6341533834985082
vt 0.3125 0.6875
vt 0.31756115034276455 0.6860972177808784
vt 0.3174173408022669 0.6850426144839326
vt 0.43681405442005017 0.6436303744444121
vt 0.4276638562653745 0.6341533834984971
vt 0.31741734080227796 0.6850426144839548
vt 0.5625 0.5859439609339069
vn -0.7027 0.7045 -0.0992
vn -0.7209 0.6915 0.0465
vn -0.6963 0.7161 -0.0482
usemtl e9f63745-5e92-400e-abf7-9c6ac1eac14d
g 091_W_Aya_100K_01
f 3/3/1 2/2/1 1/4/1
usemtl e9f63745-5e92-400e-abf7-9c6ac1eac14d
g 091_W_Aya_100K_01
f 8/5/3 6/3/3 4/7/3
usemtl e9f63745-5e92-400e-abf7-9c6ac1eac14d
g 091_W_Aya_100K_01
f 8/5/2 5/1/2 7/8/2
usemtl e9f63745-5e92-400e-abf7-9c6ac1eac14d
g 091_W_Aya_100K_01
f 8/5/3 4/7/3 5/6/3
