mtllib 250.mtl
v -13.4772 489.4803 398.6871
v -22.256200000000035 487.6742094403237 395.33886729295654
v -22.256200000000035 489.71382861706894 395.35211296436984
v -22.256200000000035 493.6918074539407 397.65957740590187
v -22.256200000000035 493.88648799789945 397.83184963108835
v -22.256200000000035 490.8303266376016 395.6768056300124
v -22.256200000000035 491.13792842132847 395.8183893279182
v -21.9138 493.909 397.9164
v -19.6617 488.5717 396.4758
v -22.256200000000035 489.32276456235763 395.4024329585262
v -21.8859 491.0984 395.8983
v -22.256200000000035 497.42379264048685 396.83917329323947
v -18.6317 494.8419 398.4258
v -22.256200000000035 496.07418738916255 397.6836553219949
v -22.256200000000035 500.9382583875986 394.42992724058746
v -20.6415 495.7942 397.9101
v -22.256200000000035 496.5587457929956 397.42512417889174
v -22.256200000000035 495.83149722340085 397.76555006453094
v -22.256200000000035 493.88648799789945 397.83184963108835
v -14.2052 496.9747 396.9167
v -21.9138 493.909 397.9164
v -22.256200000000035 504.37610108743036 391.9175404413957
v -22.256200000000035 493.95064971548857 397.8757267766687
v -22.256200000000035 495.60918579749415 397.74772876861437
v -22.256200000000035 494.8292345419704 397.95455643928005
v -2.0884 489.7064 399.2911
v -13.4772 489.4803 398.6871
v -2.6353368756599536 486.70612200000005 399.5181723679789
v 14.017688326266692 486.70612200000005 391.78342799999996
v -14.585 491.988 399.2064
v -9.696 488.9454 399.4262
v -8.5048 492.8055 398.9894
v 13.355123217031972 487.83048639717026 391.78342799999996
v -14.4957 488.3737 398.3347
v -9.796 487.2621 399.4978
v -0.6871639318214307 486.70612200000005 399.32590198894025
v 10.434167008553368 491.9414160317518 391.78342799999996
v -13.588068126814942 486.70612200000005 399.2048875840046
v -1.291680792956908 486.70612200000005 399.4602833373811
v 5.3522 493.6721 393.7858
v -4.704336706315881 486.70612200000005 399.53789569687063
v 12.547693689583248 488.9720710764183 391.78342799999996
v -21.9138 493.909 397.9164
v 9.581943723508521 486.70612200000005 394.9994139902498
v -19.6617 488.5717 396.4758
v -22.256200000000035 489.32276456235763 395.4024329585262
v 2.7936068405404852 486.70612200000005 398.4505561082517
v -22.256200000000035 487.14854551826056 395.4539367109985
v 13.318577111057495 486.70612200000005 392.3695802585482
v -21.8859 491.0984 395.8983
v -21.252707706132114 486.70612200000005 396.06651117087495
v -15.038700135800932 486.70612200000005 398.7651684773952
v -17.979295640719997 486.70612200000005 397.7488217793631
v 6.299114927215652 486.70612200000005 396.8528767225615
v 0.34259247924334857 500.6622802983675 391.78342799999996
v -18.6317 494.8419 398.4258
v 9.6379 492.3785 392.1242
v -3.8967 493.4552 397.6884
v -22.256200000000035 487.6742094403237 395.33886729295654
v 3.2655282143067224 486.70612200000005 398.32485530910526
v -1.051202004166294 486.70612200000005 399.399442239432
v -9.583973076692118 486.70612200000005 399.7313301262386
v -10.24358922230272 486.70612200000005 399.6811045505173
v -22.256200000000035 489.71382861706894 395.35211296436984
v -6.945881754572512 486.70612200000005 399.4963775224107
v 7.857367072444896 495.08283706735864 391.78342799999996
v -5.354322382093156 486.70612200000005 399.482537637552
v 10.10784748463788 492.4644453507941 391.78342799999996
v -14.2052 496.9747 396.9167
v 0.9181484896198878 500.3135733095583 391.78342799999996
v 11.026513578821563 486.70612200000005 393.98475793575767
v -6.8416 490.0606 399.8254
v 9.88337385627707 492.82054471774893 391.78342799999996
v 3.76246448209916 498.6307174213008 391.78342799999996
v 4.191839604825387 498.30511398063055 391.78342799999996
v -22.256200000000035 486.70612200000005 395.5389617185535
v -8.636436250590432 486.70612200000005 399.5530871244294
v 3.2268 488.7635 397.5561
v -1.4646 487.04 399.5336
v 3.3399342406208303 486.70612200000005 398.29553756055986
v 4.5797041670241745 497.9618180164214 391.78342799999996
v -9.138906008332313 503.23461733388103 391.78342799999996
v -2.0884 489.7064 399.2911
v -13.4772 489.4803 398.6871
v 0.34259247924334857 500.6622802983675 391.78342799999996
v -22.256200000000035 497.42379264048685 396.83917329323947
v -18.6317 494.8419 398.4258
v -3.377897741931627 502.33485559838573 391.78342799999996
v -22.256200000000035 504.55044731612276 391.78342799999996
v -22.256200000000035 500.9382583875986 394.42992724058746
v -3.8967 493.4552 397.6884
v -14.585 491.988 399.2064
v -20.6415 495.7942 397.9101
v -6.9258 499.3172 394.412
v -8.5048 492.8055 398.9894
v -22.256200000000035 493.6918074539407 397.65957740590187
v 7.857367072444896 495.08283706735864 391.78342799999996
v -11.6831712909795 503.17972380826643 391.78342799999996
v -2.7584763259004617 502.15474235798905 391.78342799999996
v 5.3522 493.6721 393.7858
v -14.2052 496.9747 396.9167
v -10.8885 501.5953 393.0764
v -6.565978192074194 502.9738738857505 391.78342799999996
v -21.9138 493.909 397.9164
v -22.256200000000035 491.13792842132847 395.8183893279182
v 0.9181484896198878 500.3135733095583 391.78342799999996
v -20.78122778561915 504.38510759972036 391.78342799999996
v 3.76246448209916 498.6307174213008 391.78342799999996
v -22.256200000000035 504.37610108743036 391.9175404413957
v -3.9019829675360103 502.478060064771 391.78342799999996
v -21.8859 491.0984 395.8983
v 4.5797041670241745 497.9618180164214 391.78342799999996
vt 0.447836959341181 0.43871083037309466
vt 0.7794078987063795 0.4469962072468755
vt 0.7710890101497428 0.42273278229002287
vt 0.07434797001366351 0.2914598188419737
vt 0.3748914843343776 0.4509302081965708
vt 0.06885002257838324 0.7050709881286187
vt 0.18446729033285408 0.956545017194737
vt 0.15229018267859928 0.10661145625839552
vt 0.3714359880167326 0.8641068413453977
vt 0.09186268388224339 0.7505760667162219
vt 0.45521006411424914 0.43813601652004897
vt 0.0806721560472241 0.7297355385269506
vt 0.527950957753456 0.7866012460206997
vt 0.7153511865047009 0.4200997367915602
vt 0.18959758005677357 0.1260872736537677
vt 0.43988143798412294 0.4464970853183061
vt 0.5286183551465151 0.4306512072535902
vt 0.08870321498892932 0.7456427936771242
vt 0.1308854474475008 0.0975064007361982
vt 0.1575965672193835 0.11031972126744582
vt 0.1302293234724895 0.23208546370339567
vt 0.5868456452481706 0.7342698337569645
vt 0.0723946703550078 0.7113173854550234
vt 0.7274324505155837 0.5524730987074129
vt 0.5777950083006066 0.7437192144354142
vt 0.2124656459927709 0.9479586988276887
vt 0.08067215604722433 0.7297355385269466
vt 0.07981602731640175 0.2258431312091087
vt 0.09186268388224264 0.750576066716218
vt 0.15759656721938048 0.11031972126744582
vt 0.18612249876118134 0.1446210405635424
vt 0.08870321498892882 0.7456427936771242
vt 0.36210385376819126 0.45499681939781234
vt 0.7274324505155803 0.5524730987074089
vt 0.7890625 0.4228848299007626
vt 0.7153511865046994 0.4200997367915641
vt 0.05247574080270751 0.277789675585125
vt 0.05418229490570106 0.3317911690579016
vt 0.18239355437537813 0.12158601927121881
vt 0.09447782063310656 0.7558027707672458
vt 0.07131297410518149 0.7099090411144893
vt 0.7673169976774725 0.4706610665812867
vt 0.3325552030853028 0.5967538141766535
vt 0.6044758920501843 0.42294865719824437
vt 0.41718749181820797 0.8470612112758572
vt 0.08586888709505838 0.2919607282802972
vt 0.5080935722215076 0.7988953510310569
vt 0.1953125000000006 0.13017294334074636
vt 0.6397158484384091 0.6788857841891296
vt 0.15229018267860234 0.10661145625839552
vt 0.15010060375730863 0.700502507912176
vt 0.632921032045602 0.6869617654130886
vt 0.2109188035333067 0.6182190611564151
vt 0.21246564599277187 0.9479586988276887
vt 0.3468653677384789 0.5287805320740671
vt 0.04635191002178259 0.6432618492994744
vt 0.6044758920501853 0.42294865719824837
vt 0.21449634469660078 0.5574008613804158
vt 0.3748914843343783 0.45093020819656693
vt 0.05418229490570106 0.3317911690578986
vt 0.4171874918182077 0.8470612112758612
vt 0.6463158836998231 0.6706685720612249
vt 0.43988143798412294 0.5037377439310118
vt 0.6801839940450058 0.4191046017638843
vt 0.1471716016960677 0.8713165290074162
vt 0.09975105534797861 0.7660126404228744
vt 0.10442228517872686 0.22310910255773964
vt 0.415510507949549 0.44362991707894606
vt 0.07016080707067554 0.3111993012874784
vt 0.5401991464275488 0.4294887147289974
vt 0.07131297410518223 0.7099090411144893
vt 0.07982533394927745 0.2996758647453901
vt 0.1361125306210251 0.0995423091682669
vt 0.4636211173161191 0.8250924874409877
vt 0.18446729033285383 0.956545017194737
vt 0.09975105534797886 0.7660126404228744
vt 0.4429895886177902 0.43924473383975104
vt 0.6397158484384087 0.6788857841891296
vt 0.09447782063310656 0.7558027707672538
vt 0.4219937321676529 0.7398554607084137
vt 0.5286183551465146 0.4306512072535902
vt 0.5166934499029165 0.7931679441154416
vt 0.1302293234724865 0.23208546370339567
vt 0.4478369593411827 0.43871083037309466
vt 0.415510507949547 0.44362991707894206
vt 0.1214802744509568 0.7362779195451201
vt 0.547207672882943 0.4715398734613613
vt 0.07239467035500656 0.7113173854550155
vt 0.5166934499029175 0.7931679441154416
vt 0.7710890101497438 0.42273278229002287
vt 0.1550082786568019 0.19272050337915425
vt 0.4552100641142504 0.43813601652005685
vt 0.4429895886177897 0.43924473383974705
vt 0.5777950083006059 0.7437192144354142
vt 0.5386365082358584 0.4296714412422087
vt 0.03906250000000061 0.35156249999999933
vt 0.06885002257838224 0.7050709881286187
vt 0.18959758005677357 0.1260872736537646
vt 0.10912173555028731 0.7863986606422781
vt 0.2538492974928347 0.7219677548919456
vt 0.10912173555028633 0.7863986606422781
vt 0.6463158836998226 0.6706685720612249
vt 0.5386365082358572 0.4296714412422087
vt 0.0390625 0.6467329969288937
vt 0.3714359880167321 0.8641068413453938
vt 0.7308011942909298 0.5447281512886077
vt 0.7308011942909298 0.5447281512886037
vt 0.28604716796248086 0.5252029909107734
vt 0.7354337216153761 0.5340884751485233
vt 0.14543271494926668 0.1520243576221334
vt 0.129028543041052 0.10281184189748327
vt 0.18641992459244652 0.9609375000000002
vt 0.5868456452481702 0.7342698337569645
vt 0.432726355657535 0.5931762730133598
vt 0.11761761400143834 0.2516989816736095
vt 0.698308388184303 0.6036001470043022
vt 0.7354337216153741 0.5340884751485233
vt 0.767316997677473 0.4706610665812827
vt 0.5401991464275486 0.4294887147289974
vt 0.5080935722215082 0.7988953510310569
vt 0.18612249876118742 0.1446210405635454
vt 0.07982533394927441 0.2996758647453901
vt 0.7189296487210549 0.5430906967272414
vt 0.5279509577534562 0.7866012460206997
vt 0.08586888709506142 0.2919607282802942
vt 0.3683306147182428 0.818561366300881
vt 0.07854978049142879 0.7076575902387672
vt 0.4636211173161199 0.8250924874409877
vt 0.632921032045601 0.6869617654130966
vt 0.6330686608019989 0.5752885671968879
vt 0.7794078987063785 0.4469962072468755
vt 0.1361125306210251 0.0995423091682699
vn -0.3488 -0.2617 0.8999
vn -0.3908 -0.0355 0.9198
vn -0.14 -0.6562 0.7415
vn -0.234 -0.4065 0.8832
vn 0.0411 0.5895 0.8067
vn -0.0907 -0.0796 0.9927
vn -0.1645 -0.5568 0.8142
vn -0.1281 -0.0886 0.9878
vn -0.0421 0.4703 0.8815
vn 0.0169 0.5607 0.8278
vn -0.0772 0.3188 0.9447
vn -0.1256 0.2543 0.9589
vn -0.3498 0.1196 0.9292
vn 0.5155 0.325 0.7929
vn -0.3565 -0.5473 0.7572
vn -0.3083 0.3306 0.892
vn 0.5164 0.3222 0.7934
vn -0.3382 0.0115 0.941
vn 0.1196 0.1176 0.9858
vn 0.6009 0.3541 0.7167
vn -0.223 -0.2912 0.9303
vn 0.532 0.3787 0.7574
vn -0.084 -0.1381 0.9868
vn 0.3948 0.446 0.8032
vn -0.2067 -0.1191 0.9711
vn -0.4587 0.1677 0.8726
vn 0.0422 -0.1934 0.9802
vn 0.0087 0.042 0.9991
vn 0.1808 0.4591 0.8698
vn 0.414 0.3279 0.8492
vn -0.1023 -0.0928 0.9904
vn 0.4326 0.3874 0.8141
vn -0.2276 0.0549 0.9722
vn 0.0061 0.2947 0.9556
vn 0.0095 -0.0794 0.9968
vn 0.2444 -0.0855 0.9659
vn 0.1307 0.3605 0.9236
vn 0.2546 0.1465 0.9559
vn 0.0331 0.1669 0.9854
vn 0.3482 0.4592 0.8172
vn 0.3455 0.3342 0.8769
vn 0.2989 0.4934 0.8168
vn 0.2437 -0.0354 0.9692
vn 0.4506 0.4001 0.7981
vn -0.129 0.4027 0.9062
vn 0.5335 0.3773 0.757
vn -0.2745 0.3232 0.9056
vn 0.0528 0.5015 0.8636
vn 0.1959 -0.1471 0.9695
vn -0.0178 0.2402 0.9706
vn 0.1665 0.4351 0.8848
vn 0.4356 0.4221 0.795
vn -0.4487 0.1911 0.873
vn -0.0707 0.3632 0.929
vn -0.2406 -0.2976 0.9239
vn 0.1055 0.5546 0.8254
vn 0.0336 0.5299 0.8474
vn 0.3919 0.4461 0.8046
vn 0.2932 0.4956 0.8176
vn 0.1572 0.5405 0.8266
vn 0.0587 0.5789 0.8133
vn 0.0682 0.6083 0.7908
vn 0.1067 0.5734 0.8123
vn 0.2507 0.521 0.8159
vn -0.1637 0.0375 0.9858
vn 0.0791 0.603 0.7938
vn -0.0135 0.6281 0.778
vn -0.231 -0.569 0.7892
vn 0.0236 0.5653 0.8246
vn 0.0869 0.6556 0.7501
vn 0.1488 0.5443 0.8256
usemtl 56922a76-f2d6-4865-87cf-8d42ee67e7b8
g 091_W_Aya_100K_01
f 6/73/4 11/111/4 7/19/4
usemtl 56922a76-f2d6-4865-87cf-8d42ee67e7b8
g 091_W_Aya_100K_01
f 10/30/2 2/39/2 9/110/2
usemtl 56922a76-f2d6-4865-87cf-8d42ee67e7b8
g 091_W_Aya_100K_01
f 6/132/1 3/8/1 1/28/1
usemtl 56922a76-f2d6-4865-87cf-8d42ee67e7b8
g 091_W_Aya_100K_01
f 6/132/1 1/28/1 11/111/1
usemtl 56922a76-f2d6-4865-87cf-8d42ee67e7b8
g 091_W_Aya_100K_01
f 4/97/3 8/127/3 5/41/3
usemtl 56922a76-f2d6-4865-87cf-8d42ee67e7b8
g 091_W_Aya_100K_01
f 12/101/10 17/66/10 16/86/10
usemtl 56922a76-f2d6-4865-87cf-8d42ee67e7b8
g 091_W_Aya_100K_01
f 24/32/12 25/27/12 13/51/12
usemtl 56922a76-f2d6-4865-87cf-8d42ee67e7b8
g 091_W_Aya_100K_01
f 17/76/9 14/40/9 16/86/9
usemtl 56922a76-f2d6-4865-87cf-8d42ee67e7b8
g 091_W_Aya_100K_01
f 18/10/11 16/86/11 14/79/11
usemtl 56922a76-f2d6-4865-87cf-8d42ee67e7b8
g 091_W_Aya_100K_01
f 22/75/5 15/65/5 20/100/5
usemtl 56922a76-f2d6-4865-87cf-8d42ee67e7b8
g 091_W_Aya_100K_01
f 25/12/8 21/127/8 13/51/8
usemtl 56922a76-f2d6-4865-87cf-8d42ee67e7b8
g 091_W_Aya_100K_01
f 24/32/12 13/51/12 16/86/12
usemtl 56922a76-f2d6-4865-87cf-8d42ee67e7b8
g 091_W_Aya_100K_01
f 19/71/7 21/127/7 23/88/7
usemtl 56922a76-f2d6-4865-87cf-8d42ee67e7b8
g 091_W_Aya_100K_01
f 24/18/6 16/86/6 18/29/6
usemtl 56922a76-f2d6-4865-87cf-8d42ee67e7b8
g 091_W_Aya_100K_01
f 25/12/8 23/23/8 21/127/8
usemtl 56922a76-f2d6-4865-87cf-8d42ee67e7b8
g 091_W_Aya_100K_01
f 26/63/42 55/25/42 58/114/42
usemtl 56922a76-f2d6-4865-87cf-8d42ee67e7b8
g 091_W_Aya_100K_01
f 60/95/41 80/70/41 78/87/41
usemtl 56922a76-f2d6-4865-87cf-8d42ee67e7b8
g 091_W_Aya_100K_01
f 68/106/14 73/24/14 57/123/14
usemtl 56922a76-f2d6-4865-87cf-8d42ee67e7b8
g 091_W_Aya_100K_01
f 79/16/38 47/81/38 60/103/38
usemtl 56922a76-f2d6-4865-87cf-8d42ee67e7b8
g 091_W_Aya_100K_01
f 35/4/28 65/60/28 67/96/28
usemtl 56922a76-f2d6-4865-87cf-8d42ee67e7b8
g 091_W_Aya_100K_01
f 38/115/45 35/4/45 34/67/45
usemtl 56922a76-f2d6-4865-87cf-8d42ee67e7b8
g 091_W_Aya_100K_01
f 26/63/42 70/113/42 55/25/42
usemtl 56922a76-f2d6-4865-87cf-8d42ee67e7b8
g 091_W_Aya_100K_01
f 33/2/20 49/90/20 29/35/20
usemtl 56922a76-f2d6-4865-87cf-8d42ee67e7b8
g 091_W_Aya_100K_01
f 45/110/13 27/28/13 64/50/13
usemtl 56922a76-f2d6-4865-87cf-8d42ee67e7b8
g 091_W_Aya_100K_01
f 77/69/39 65/38/39 35/4/39
usemtl 56922a76-f2d6-4865-87cf-8d42ee67e7b8
g 091_W_Aya_100K_01
f 37/109/17 68/107/17 57/123/17
usemtl 56922a76-f2d6-4865-87cf-8d42ee67e7b8
g 091_W_Aya_100K_01
f 39/77/36 61/1/36 79/16/36
usemtl 56922a76-f2d6-4865-87cf-8d42ee67e7b8
g 091_W_Aya_100K_01
f 30/53/21 27/58/21 31/108/21
usemtl 56922a76-f2d6-4865-87cf-8d42ee67e7b8
g 091_W_Aya_100K_01
f 31/37/33 34/67/33 35/4/33
usemtl 56922a76-f2d6-4865-87cf-8d42ee67e7b8
g 091_W_Aya_100K_01
f 79/16/19 26/63/19 72/55/19
usemtl 56922a76-f2d6-4865-87cf-8d42ee67e7b8
g 091_W_Aya_100K_01
f 34/67/16 53/91/16 52/83/16
usemtl 56922a76-f2d6-4865-87cf-8d42ee67e7b8
g 091_W_Aya_100K_01
f 28/68/27 39/93/27 79/16/27
usemtl 56922a76-f2d6-4865-87cf-8d42ee67e7b8
g 091_W_Aya_100K_01
f 79/16/43 36/92/43 47/17/43
usemtl 56922a76-f2d6-4865-87cf-8d42ee67e7b8
g 091_W_Aya_100K_01
f 35/4/54 63/46/54 62/72/54
usemtl 56922a76-f2d6-4865-87cf-8d42ee67e7b8
g 091_W_Aya_100K_01
f 27/28/18 45/110/18 34/67/18
usemtl 56922a76-f2d6-4865-87cf-8d42ee67e7b8
g 091_W_Aya_100K_01
f 31/108/31 72/55/31 30/53/31
usemtl 56922a76-f2d6-4865-87cf-8d42ee67e7b8
g 091_W_Aya_100K_01
f 49/3/46 33/131/46 42/42/46
usemtl 56922a76-f2d6-4865-87cf-8d42ee67e7b8
g 091_W_Aya_100K_01
f 51/31/26 48/15/26 76/48/26
usemtl 56922a76-f2d6-4865-87cf-8d42ee67e7b8
g 091_W_Aya_100K_01
f 60/95/41 78/87/41 26/63/41
usemtl 56922a76-f2d6-4865-87cf-8d42ee67e7b8
g 091_W_Aya_100K_01
f 32/43/48 69/100/48 56/51/48
usemtl 56922a76-f2d6-4865-87cf-8d42ee67e7b8
g 091_W_Aya_100K_01
f 79/16/38 60/103/38 26/63/38
usemtl 56922a76-f2d6-4865-87cf-8d42ee67e7b8
g 091_W_Aya_100K_01
f 30/53/50 72/55/50 56/51/50
usemtl 56922a76-f2d6-4865-87cf-8d42ee67e7b8
g 091_W_Aya_100K_01
f 78/87/40 75/49/40 74/52/40
usemtl 56922a76-f2d6-4865-87cf-8d42ee67e7b8
g 091_W_Aya_100K_01
f 72/55/34 32/43/34 56/51/34
usemtl 56922a76-f2d6-4865-87cf-8d42ee67e7b8
g 091_W_Aya_100K_01
f 77/69/51 35/4/51 62/122/51
usemtl 56922a76-f2d6-4865-87cf-8d42ee67e7b8
g 091_W_Aya_100K_01
f 26/63/29 58/114/29 32/43/29
usemtl 56922a76-f2d6-4865-87cf-8d42ee67e7b8
g 091_W_Aya_100K_01
f 42/118/22 37/117/22 57/123/22
usemtl 56922a76-f2d6-4865-87cf-8d42ee67e7b8
g 091_W_Aya_100K_01
f 42/118/22 57/123/22 44/64/22
usemtl 56922a76-f2d6-4865-87cf-8d42ee67e7b8
g 091_W_Aya_100K_01
f 38/115/45 63/125/45 35/4/45
usemtl 56922a76-f2d6-4865-87cf-8d42ee67e7b8
g 091_W_Aya_100K_01
f 27/28/25 34/67/25 31/37/25
usemtl 56922a76-f2d6-4865-87cf-8d42ee67e7b8
g 091_W_Aya_100K_01
f 45/110/13 64/50/13 46/20/13
usemtl 56922a76-f2d6-4865-87cf-8d42ee67e7b8
g 091_W_Aya_100K_01
f 57/123/32 73/34/32 66/116/32
usemtl 56922a76-f2d6-4865-87cf-8d42ee67e7b8
g 091_W_Aya_100K_01
f 50/56/15 27/58/15 43/127/15
usemtl 56922a76-f2d6-4865-87cf-8d42ee67e7b8
g 091_W_Aya_100K_01
f 72/55/37 26/63/37 32/43/37
usemtl 56922a76-f2d6-4865-87cf-8d42ee67e7b8
g 091_W_Aya_100K_01
f 67/33/23 72/55/23 31/108/23
usemtl 56922a76-f2d6-4865-87cf-8d42ee67e7b8
g 091_W_Aya_100K_01
f 42/118/22 44/64/22 71/36/22
usemtl 56922a76-f2d6-4865-87cf-8d42ee67e7b8
g 091_W_Aya_100K_01
f 34/67/16 45/110/16 53/91/16
usemtl 56922a76-f2d6-4865-87cf-8d42ee67e7b8
g 091_W_Aya_100K_01
f 78/87/24 81/102/24 75/78/24
usemtl 56922a76-f2d6-4865-87cf-8d42ee67e7b8
g 091_W_Aya_100K_01
f 67/33/23 41/5/23 72/55/23
usemtl 56922a76-f2d6-4865-87cf-8d42ee67e7b8
g 091_W_Aya_100K_01
f 45/110/53 51/121/53 53/91/53
usemtl 56922a76-f2d6-4865-87cf-8d42ee67e7b8
g 091_W_Aya_100K_01
f 57/123/32 66/116/32 40/130/32
usemtl 56922a76-f2d6-4865-87cf-8d42ee67e7b8
g 091_W_Aya_100K_01
f 61/84/49 36/11/49 79/16/49
usemtl 56922a76-f2d6-4865-87cf-8d42ee67e7b8
g 091_W_Aya_100K_01
f 57/123/52 40/130/52 78/87/52
usemtl 56922a76-f2d6-4865-87cf-8d42ee67e7b8
g 091_W_Aya_100K_01
f 78/87/40 74/52/40 26/63/40
usemtl 56922a76-f2d6-4865-87cf-8d42ee67e7b8
g 091_W_Aya_100K_01
f 35/4/28 67/96/28 31/37/28
usemtl 56922a76-f2d6-4865-87cf-8d42ee67e7b8
g 091_W_Aya_100K_01
f 49/3/46 42/42/46 71/14/46
usemtl 56922a76-f2d6-4865-87cf-8d42ee67e7b8
g 091_W_Aya_100K_01
f 41/59/35 28/85/35 79/16/35
usemtl 56922a76-f2d6-4865-87cf-8d42ee67e7b8
g 091_W_Aya_100K_01
f 78/87/24 40/130/24 81/102/24
usemtl 56922a76-f2d6-4865-87cf-8d42ee67e7b8
g 091_W_Aya_100K_01
f 54/57/44 57/123/44 78/87/44
usemtl 56922a76-f2d6-4865-87cf-8d42ee67e7b8
g 091_W_Aya_100K_01
f 54/57/44 44/64/44 57/123/44
usemtl 56922a76-f2d6-4865-87cf-8d42ee67e7b8
g 091_W_Aya_100K_01
f 45/110/53 48/98/53 51/121/53
usemtl 56922a76-f2d6-4865-87cf-8d42ee67e7b8
g 091_W_Aya_100K_01
f 34/67/47 52/21/47 38/115/47
usemtl 56922a76-f2d6-4865-87cf-8d42ee67e7b8
g 091_W_Aya_100K_01
f 41/59/35 79/16/35 72/55/35
usemtl 56922a76-f2d6-4865-87cf-8d42ee67e7b8
g 091_W_Aya_100K_01
f 54/44/30 78/87/30 80/119/30
usemtl 56922a76-f2d6-4865-87cf-8d42ee67e7b8
g 091_W_Aya_100K_01
f 45/110/53 59/39/53 48/98/53
usemtl 56922a76-f2d6-4865-87cf-8d42ee67e7b8
g 091_W_Aya_100K_01
f 103/74/61 82/45/61 102/126/61
usemtl 56922a76-f2d6-4865-87cf-8d42ee67e7b8
g 091_W_Aya_100K_01
f 108/129/59 106/22/59 83/63/59
usemtl 56922a76-f2d6-4865-87cf-8d42ee67e7b8
g 091_W_Aya_100K_01
f 82/61/67 98/105/67 102/126/67
usemtl 56922a76-f2d6-4865-87cf-8d42ee67e7b8
g 091_W_Aya_100K_01
f 94/80/71 95/43/71 88/82/71
usemtl 56922a76-f2d6-4865-87cf-8d42ee67e7b8
g 091_W_Aya_100K_01
f 91/114/60 88/89/60 95/43/60
usemtl 56922a76-f2d6-4865-87cf-8d42ee67e7b8
g 091_W_Aya_100K_01
f 85/94/64 99/124/64 91/114/64
usemtl 56922a76-f2d6-4865-87cf-8d42ee67e7b8
g 091_W_Aya_100K_01
f 101/100/69 86/99/69 93/86/69
usemtl 56922a76-f2d6-4865-87cf-8d42ee67e7b8
g 091_W_Aya_100K_01
f 87/51/57 101/100/57 93/86/57
usemtl 56922a76-f2d6-4865-87cf-8d42ee67e7b8
g 091_W_Aya_100K_01
f 94/80/66 102/126/66 101/100/66
usemtl 56922a76-f2d6-4865-87cf-8d42ee67e7b8
g 091_W_Aya_100K_01
f 103/74/61 102/126/61 94/80/61
usemtl 56922a76-f2d6-4865-87cf-8d42ee67e7b8
g 091_W_Aya_100K_01
f 101/100/62 107/26/62 89/112/62
usemtl 56922a76-f2d6-4865-87cf-8d42ee67e7b8
g 091_W_Aya_100K_01
f 104/127/55 84/58/55 92/53/55
usemtl 56922a76-f2d6-4865-87cf-8d42ee67e7b8
g 091_W_Aya_100K_01
f 91/114/60 99/13/60 88/89/60
usemtl 56922a76-f2d6-4865-87cf-8d42ee67e7b8
g 091_W_Aya_100K_01
f 104/127/68 96/6/68 105/104/68
usemtl 56922a76-f2d6-4865-87cf-8d42ee67e7b8
g 091_W_Aya_100K_01
f 101/100/69 90/65/69 86/99/69
usemtl 56922a76-f2d6-4865-87cf-8d42ee67e7b8
g 091_W_Aya_100K_01
f 101/100/62 89/112/62 109/7/62
usemtl 56922a76-f2d6-4865-87cf-8d42ee67e7b8
g 091_W_Aya_100K_01
f 104/127/65 92/53/65 87/51/65
usemtl 56922a76-f2d6-4865-87cf-8d42ee67e7b8
g 091_W_Aya_100K_01
f 94/80/56 101/100/56 95/43/56
usemtl 56922a76-f2d6-4865-87cf-8d42ee67e7b8
g 091_W_Aya_100K_01
f 110/47/63 103/128/63 94/80/63
usemtl 56922a76-f2d6-4865-87cf-8d42ee67e7b8
g 091_W_Aya_100K_01
f 98/9/70 107/54/70 102/126/70
usemtl 56922a76-f2d6-4865-87cf-8d42ee67e7b8
g 091_W_Aya_100K_01
f 94/80/71 88/82/71 110/120/71
usemtl 56922a76-f2d6-4865-87cf-8d42ee67e7b8
g 091_W_Aya_100K_01
f 101/100/62 102/126/62 107/26/62
usemtl 56922a76-f2d6-4865-87cf-8d42ee67e7b8
g 091_W_Aya_100K_01
f 100/130/58 97/116/58 112/62/58
usemtl 56922a76-f2d6-4865-87cf-8d42ee67e7b8
g 091_W_Aya_100K_01
f 104/127/68 105/104/68 111/56/68
