mtllib 283.mtl
v 150.959062906857 829.6722780000001 28.052679830287136
v 150.9287 829.1505 28.4735
v 151.05355440018138 829.6722780000001 28.218431556323313
v 149.22687799999997 826.5399483970077 28.359757243654823
v 149.22687799999997 829.6722780000001 25.548421922101273
v 150.8503252605171 829.6722780000001 27.892049949042814
v 155.1074 823.0966 40.912
v 154.6161290815607 812.4360874560593 48.817271999999974
v 151.0374 819.8852 37.3502
v 153.05056885524874 809.8763720617088 48.817271999999974
v 157.842024028568 818.1340812140386 48.817271999999974
v 157.9573 821.1556 46.6201
v 150.31340306793828 805.7415101410786 48.817271999999974
v 150.9287 829.1505 28.4735
v 149.22687799999997 805.9236128654504 47.332706931122175
v 151.18311699925692 806.957317967234 48.817271999999974
v 149.22687799999997 826.5399483970077 28.359757243654823
v 160.5040498537221 822.4618729029735 48.817271999999974
v 149.22687799999997 807.4738614925221 45.95234185839002
v 149.22687799999997 824.3607919289021 30.408930095731506
v 150.2195 807.4186 47.1111
v 149.22687799999997 804.3605010364073 48.817271999999974
v 149.22687799999997 811.0329539600264 42.66043273368268
v 152.2089 811.9189 45.9052
v 149.22687799999997 808.9968032063725 44.483233664739785
v 149.22687799999997 819.251921987855 35.51460138840795
v 160.95300832812651 829.6722780000001 44.433188039436814
v 153.70870839521282 829.6722780000001 32.690976449349236
v 155.1074 823.0966 40.912
v 157.9573 821.1556 46.6201
v 163.44303554626921 827.6786239896237 48.817271999999974
v 150.9287 829.1505 28.4735
v 151.05355440018138 829.6722780000001 28.218431556323313
v 156.8199934380606 829.6722780000001 38.371608537666226
v 159.4783339738806 829.6722780000001 42.45400786892101
v 163.11661874728748 829.6722780000001 47.05840829277315
v 164.39764423004308 829.6722780000001 48.817271999999974
v 160.5040498537221 822.4618729029735 48.817271999999974
v 157.8013330156803 829.6722780000001 39.95750059957924
vt 0.8333134177696058 0.18686632766254263
vt 0.10114337363302582 0.3271707000535472
vt 0.1011433736330205 0.3271707000535472
vt 0.25228771477701634 0.3679733609757496
vt 0.6188905105794669 0.8966587007847993
vt 0.7424555804075107 0.5915863949898179
vt 0.6832248121686313 0.7271833341375481
vt 0.905259543252446 0.2630413597216953
vt 0.8324737556583176 0.4131520988977504
vt 0.5675607174436194 0.5065024076019851
vt 0.7552577003263778 0.19457363961958174
vt 0.03906249999999964 0.24581962996496487
vt 0.5525142141906695 0.9095376836662165
vt 0.593020291781166 0.9609375000000003
vt 0.20640033932782909 0.23385832764995507
vt 0.20640033932782909 0.23385832764996572
vt 0.5532301264133208 0.3010972695010177
vt 0.9024186027783115 0.26833794603104744
vt 0.07209683288316411 0.2904692506043688
vt 0.742455580407508 0.5915863949898179
vt 0.09442291685662425 0.24179919033812447
vt 0.8876105837869913 0.2628823600868828
vt 0.07209683288315351 0.2904692506043529
vt 0.9024186027783089 0.26833794603105277
vt 0.6545529686122458 0.7970018408014943
vt 0.2789055323587034 0.22916704965533408
vt 0.8333134177696058 0.18686632766254796
vt 0.4433622618476852 0.6498083179049867
vt 0.15086452851830326 0.2387936412088727
vt 0.1508645285182953 0.2387936412088727
vt 0.1689754003128505 0.4096295182078392
vt 0.5666391810831334 0.21617325659217024
vt 0.348544676275615 0.6426522737108669
vt 0.5525142141906668 0.9095376836662112
vt 0.7552577003263752 0.19457363961958696
vt 0.9080653656679437 0.257847336854651
vt 0.683224812168626 0.7271833341375428
vt 0.9052595432524645 0.26304135972170584
vt 0.5666391810831387 0.2161732565921809
vt 0.9453124999999997 0.17938085313219732
vt 0.9080653656679384 0.257847336854651
vt 0.7197034563895293 0.642749636508773
vt 0.16897540031284783 0.40962951820782856
vt 0.8324737556583229 0.4131520988977556
vt 0.2248115049660147 0.4842188640222884
vt 0.09442291685662955 0.24179919033812447
vt 0.44135010887546133 0.7685253432660959
vt 0.13286612285784832 0.2819898147939476
vt 0.7197034563895267 0.6427496365087677
vt 0.2789055323587034 0.2291670496553394
vn 0.7922 -0.4104 -0.4516
vn 0.7406 -0.4474 -0.5013
vn 0.732 -0.4551 -0.5071
vn 0.7052 -0.4652 -0.5351
vn 0.7624 -0.443 -0.4717
vn 0.6409 -0.5105 -0.5733
vn 0.7177 -0.4579 -0.5246
vn 0.7398 -0.4609 -0.4902
vn 0.7357 -0.4165 -0.5342
vn 0.7614 -0.3946 -0.5143
vn 0.6739 -0.4928 -0.5505
vn 0.6586 -0.5182 -0.5456
vn 0.7057 -0.4341 -0.5599
vn 0.7275 -0.4449 -0.5223
vn 0.6254 -0.5417 -0.5616
vn 0.6942 -0.5088 -0.5091
vn 0.7512 -0.4286 -0.502
vn 0.6923 -0.4952 -0.5249
vn 0.7155 -0.4577 -0.5278
vn 0.7538 -0.361 -0.549
vn 0.7651 -0.388 -0.5139
vn 0.7352 -0.3993 -0.5478
vn 0.8104 -0.3825 -0.4438
vn 0.7827 -0.391 -0.4843
vn 0.7077 -0.3987 -0.5833
vn 0.7826 -0.4144 -0.4646
usemtl cfe991e3-048a-4f05-af80-adf1b0533508
g 091_W_Aya_100K_01
f 2/22/1 1/8/1 3/18/1
usemtl cfe991e3-048a-4f05-af80-adf1b0533508
g 091_W_Aya_100K_01
f 4/27/3 6/41/3 2/22/3
usemtl cfe991e3-048a-4f05-af80-adf1b0533508
g 091_W_Aya_100K_01
f 2/22/2 6/36/2 1/38/2
usemtl cfe991e3-048a-4f05-af80-adf1b0533508
g 091_W_Aya_100K_01
f 4/27/3 5/40/3 6/41/3
usemtl cfe991e3-048a-4f05-af80-adf1b0533508
g 091_W_Aya_100K_01
f 12/28/10 9/17/10 7/10/10
usemtl cfe991e3-048a-4f05-af80-adf1b0533508
g 091_W_Aya_100K_01
f 24/4/7 21/48/7 9/17/7
usemtl cfe991e3-048a-4f05-af80-adf1b0533508
g 091_W_Aya_100K_01
f 9/17/5 14/22/5 7/10/5
usemtl cfe991e3-048a-4f05-af80-adf1b0533508
g 091_W_Aya_100K_01
f 9/17/8 20/35/8 17/1/8
usemtl cfe991e3-048a-4f05-af80-adf1b0533508
g 091_W_Aya_100K_01
f 9/17/8 17/1/8 14/22/8
usemtl cfe991e3-048a-4f05-af80-adf1b0533508
g 091_W_Aya_100K_01
f 10/31/19 21/48/19 24/4/19
usemtl cfe991e3-048a-4f05-af80-adf1b0533508
g 091_W_Aya_100K_01
f 21/48/4 26/32/4 9/17/4
usemtl cfe991e3-048a-4f05-af80-adf1b0533508
g 091_W_Aya_100K_01
f 10/31/19 16/2/19 21/48/19
usemtl cfe991e3-048a-4f05-af80-adf1b0533508
g 091_W_Aya_100K_01
f 26/39/16 20/11/16 9/17/16
usemtl cfe991e3-048a-4f05-af80-adf1b0533508
g 091_W_Aya_100K_01
f 15/46/6 19/30/6 21/48/6
usemtl cfe991e3-048a-4f05-af80-adf1b0533508
g 091_W_Aya_100K_01
f 11/33/13 12/28/13 18/47/13
usemtl cfe991e3-048a-4f05-af80-adf1b0533508
g 091_W_Aya_100K_01
f 13/23/18 21/48/18 16/3/18
usemtl cfe991e3-048a-4f05-af80-adf1b0533508
g 091_W_Aya_100K_01
f 13/19/12 15/21/12 21/48/12
usemtl cfe991e3-048a-4f05-af80-adf1b0533508
g 091_W_Aya_100K_01
f 13/19/12 22/12/12 15/21/12
usemtl cfe991e3-048a-4f05-af80-adf1b0533508
g 091_W_Aya_100K_01
f 12/28/17 24/4/17 9/17/17
usemtl cfe991e3-048a-4f05-af80-adf1b0533508
g 091_W_Aya_100K_01
f 11/33/9 8/45/9 24/4/9
usemtl cfe991e3-048a-4f05-af80-adf1b0533508
g 091_W_Aya_100K_01
f 10/43/14 24/4/14 8/45/14
usemtl cfe991e3-048a-4f05-af80-adf1b0533508
g 091_W_Aya_100K_01
f 21/48/11 25/16/11 23/26/11
usemtl cfe991e3-048a-4f05-af80-adf1b0533508
g 091_W_Aya_100K_01
f 11/33/9 24/4/9 12/28/9
usemtl cfe991e3-048a-4f05-af80-adf1b0533508
g 091_W_Aya_100K_01
f 21/48/15 19/29/15 25/15/15
usemtl cfe991e3-048a-4f05-af80-adf1b0533508
g 091_W_Aya_100K_01
f 21/48/4 23/50/4 26/32/4
usemtl cfe991e3-048a-4f05-af80-adf1b0533508
g 091_W_Aya_100K_01
f 31/34/25 30/28/25 27/25/25
usemtl cfe991e3-048a-4f05-af80-adf1b0533508
g 091_W_Aya_100K_01
f 29/10/26 32/22/26 33/24/26
usemtl cfe991e3-048a-4f05-af80-adf1b0533508
g 091_W_Aya_100K_01
f 27/25/22 30/28/22 35/7/22
usemtl cfe991e3-048a-4f05-af80-adf1b0533508
g 091_W_Aya_100K_01
f 29/10/26 33/24/26 28/9/26
usemtl cfe991e3-048a-4f05-af80-adf1b0533508
g 091_W_Aya_100K_01
f 31/13/20 36/5/20 37/14/20
usemtl cfe991e3-048a-4f05-af80-adf1b0533508
g 091_W_Aya_100K_01
f 31/34/25 27/25/25 36/5/25
usemtl cfe991e3-048a-4f05-af80-adf1b0533508
g 091_W_Aya_100K_01
f 29/10/21 39/42/21 35/37/21
usemtl cfe991e3-048a-4f05-af80-adf1b0533508
g 091_W_Aya_100K_01
f 29/10/23 28/44/23 34/20/23
usemtl cfe991e3-048a-4f05-af80-adf1b0533508
g 091_W_Aya_100K_01
f 39/49/24 29/10/24 34/6/24
usemtl cfe991e3-048a-4f05-af80-adf1b0533508
g 091_W_Aya_100K_01
f 29/10/21 35/37/21 30/28/21
usemtl cfe991e3-048a-4f05-af80-adf1b0533508
g 091_W_Aya_100K_01
f 31/34/25 38/47/25 30/28/25
