mtllib 354.mtl
v 160.5121451494161 1001.1553560000001 -9.441802495151514
v 149.22687799999997 1012.8953667932898 -5.693996778617421
v 156.89438782393026 1001.1553560000001 -28.166403740184776
v 155.2594 1005.562 -3.9837
v 156.55391227305645 1001.1553560000001 0.4096132717761017
v 160.52341180198852 1001.1553560000001 -9.54880796305856
v 150.2466 1009.6017 3.4185
v 155.854 1001.9987 0.336
v 149.22687799999997 1012.9726478115215 -7.02680106078884
v 149.22687799999997 1011.5639487915038 -25.632544368907926
v 150.83857950468524 1001.1553560000001 9.292281833461463
v 149.22687799999997 1007.9373446175257 7.258525596799683
v 149.22687799999997 1007.9221764321007 -35.006917784830385
v 152.24555390373152 1001.1553560000001 6.548318745297321
v 149.5823226174058 1001.1553560000001 12.265548212175347
v 150.2961 1011.9528 -3.1736
v 154.3391 1004.3678 -0.1323
v 158.8568846543613 1001.1553560000001 -22.312823686040986
v 151.982389185113 1001.1553560000001 -38.38020304685891
v 149.22687799999997 1001.1553560000001 -43.35738114608514
v 149.22687799999997 1006.9377921311083 -36.37274761414647
v 149.3048 1006.4739 8.4898
v 160.51362358050335 1001.1553560000001 -9.699853217401085
v 152.8976241419571 1001.1553560000001 -36.56784052764204
v 149.22687799999997 1009.7088838554725 4.908985615219221
v 149.5825 1001.3351 12.1251
v 151.53027837337672 1001.1553560000001 7.743683060504903
v 149.22687799999997 1006.4347535900276 8.698848360110881
v 149.22687799999997 1011.3600949943781 2.123086071650736
v 151.8378 1002.6282 5.3967
v 150.5735 1003.9472 6.742
v 149.22687799999997 1011.1319972487091 2.5929056041075595
v 159.08878144776568 1001.1553560000001 -4.366207150803834
v 151.9746 1006.3859 -30.6208
v 149.69020740382575 1001.1553560000001 12.07004288384211
v 155.923 1006.2196 -13.9971
v 149.22687799999997 1012.5313650562686 -2.2762737946692746
v 157.40979755632205 1001.1553560000001 -26.570464570354556
v 151.6937 1010.8235 -12.3233
v 155.33186621940305 1001.1553560000001 2.0875318705221524
v 149.22687799999997 1012.8421580449631 -18.11121084674313
v 152.2106 1007.5347 1.0331
v 160.5199714353604 1001.1553560000001 -9.484400121330832
v 157.7636374759642 1001.1553560000001 -1.642888442953217
v 150.0034 1010.2148 -27.3696
v 149.22687799999997 1010.1048686001118 -30.836897550023185
v 149.22687799999997 1001.1553560000001 13.023662922708105
v 149.22687799999997 1013.0950072892725 -15.545693103290839
v 149.22687799999997 1002.2700423902469 12.155016468675845
v 149.22687799999997 1011.1258167342039 -27.84139267215331
v 152.043 1003.8742 -34.7507
v 160.48646962991023 1001.1553560000001 -9.328793674830067
v 155.2004 1006.9529 -8.6626
v 151.4292 1010.0742 -0.503
v 154.44457339946297 1001.1553560000001 -33.72647440561671
v 158.98480040487712 1001.1553560000001 -21.73343782968796
v 156.31986449267157 1001.1553560000001 0.7808769340045787
v 149.413 1011.2847 2.0405
v 159.87220770361026 1001.1553560000001 -17.34876827023492
v 160.4692 1001.2357 -9.5084
v 159.1832 1002.0814 -17.2526
v 149.22687799999997 1012.2037470191565 -22.925262666666715
v 155.50330396884442 1001.1553560000001 -31.385376277735286
v 149.22687799999997 1005.329063680239 -38.44929236475737
v 149.22687799999997 1011.5568372306705 1.5275799601349185
v 149.22687799999997 1009.3522533001676 -32.55600888260505
vt 0.5416061680779722 0.4613817273740132
vt 0.10994350325911058 0.7329922417848526
vt 0.28242703993226853 0.38841503387972864
vt 0.15873006675075946 0.7517563046662585
vt 0.2735521845423288 0.8578390914678361
vt 0.08558667140558725 0.7580871594521227
vt 0.1532761767492163 0.5561597654988508
vt 0.04285120573237033 0.944431695835388
vt 0.36102281696624167 0.3043492197928538
vt 0.15497725417447908 0.5566100506996547
vt 0.571266856679911 0.3706720675661571
vt 0.055061491445659264 0.8962680101654937
vt 0.2735521845423288 0.8578390914678402
vt 0.15212160295624202 0.5585138181784767
vt 0.23175477259878377 0.44767505972788046
vt 0.06759364179356084 0.8448150396587031
vt 0.5712668566799152 0.3706720675661571
vt 0.15873006675075946 0.9168800580226111
vt 0.06264232542136978 0.8675491810949216
vt 0.1532761767492163 0.5561597654988466
vt 0.323853820107112 0.7780259927002211
vt 0.04285120573237033 0.9444316958353838
vt 0.15532821122220566 0.5531004802223847
vt 0.1529159032222293 0.5567727889327232
vt 0.5238274464145722 0.5056622832034958
vt 0.5039888237685901 0.24887941944463177
vt 0.23753913085265538 0.8530822442258366
vt 0.15385701153512216 0.5552230836223542
vt 0.15706843361449252 0.920203324295145
vt 0.21126944281868867 0.796790055581627
vt 0.34153707160682334 0.32655483325268997
vt 0.12120194098795166 0.8755991196835229
vt 0.10121026958313088 0.6863075492289199
vt 0.3838988213276061 0.6316663022252702
vt 0.4873170290153121 0.581841147375201
vt 0.06356430580551245 0.9532366009394693
vt 0.5059284705393277 0.16937394504043324
vt 0.48731702901530793 0.581841147375201
vt 0.4663571413343326 0.618173122587804
vt 0.046145689462336104 0.9469025586328581
vt 0.20376381766612794 0.6954641160220447
vt 0.2892264381696317 0.3807113169186802
vt 0.03906249999999904 0.9609374999999999
vt 0.1529159032222293 0.5567727889327274
vt 0.09021497024482354 0.7314746623222144
vt 0.28922643816962756 0.3807113169186802
vt 0.15706843361449252 0.9202033242951491
vt 0.2804910763264863 0.8526714459190419
vt 0.1178373388530431 0.6373373803543732
vt 0.33328499993233035 0.8025470602457837
vt 0.47926504829237637 0.1937263818438455
vt 0.5858346161206125 0.26171797510769756
vt 0.19030844573055694 0.9068275066061591
vt 0.5858346161206125 0.26171797510769346
vt 0.585937499999999 0.2156291651973803
vt 0.24879756858149646 0.45903692371635696
vt 0.2675616314629024 0.796790055581627
vt 0.3834899822018443 0.7377085873403941
vt 0.2824270399322727 0.38841503387973275
vt 0.06356430580550829 0.953236600939465
vt 0.5570895116015117 0.4251289057531843
vt 0.5340113243788372 0.42150879795354923
vt 0.5570895116015075 0.4251289057531843
vt 0.08558667140558308 0.7580871594521185
vt 0.15385701153512216 0.55522308362235
vt 0.2675616314629024 0.6391719273778351
vt 0.3699721579929347 0.7564386856047283
vt 0.5790513011378761 0.33908649080075814
vt 0.2883636929656427 0.845961093847006
vt 0.04219319290695287 0.9481507154398217
vt 0.15532821122220566 0.5531004802223931
vt 0.30133694464942984 0.5528572381233743
vt 0.04219319290694871 0.9481507154398259
vt 0.0919972308886602 0.7243085616056041
vt 0.055061491445659264 0.8962680101654896
vt 0.10121026958312672 0.6863075492289199
vt 0.47926504829238054 0.19372638184384972
vt 0.43732269276191893 0.23190985882475623
vt 0.40501789430820145 0.2621740219094604
vt 0.28836369296564685 0.845961093847006
vt 0.43732269276191477 0.23190985882475623
vt 0.5846599126831913 0.2907663309964458
vt 0.49648319861602946 0.33144129612280804
vt 0.36102281696624167 0.3043492197928497
vt 0.09021497024481938 0.7314746623222144
vt 0.10243787810654569 0.8380709939207152
vt 0.06759364179356502 0.8448150396587114
vt 0.3834899822018485 0.7377085873403983
vt 0.5818606093234308 0.1008374741148309
vt 0.23175477259878377 0.4476750597278847
vt 0.5416061680779765 0.4613817273740174
vt 0.2788200691917435 0.8493294316495562
vt 0.23454626685866856 0.8830108841656965
vt 0.11783733885303893 0.6373373803543689
vt 0.4663571413343326 0.6181731225878124
vn 0.8297 0.4173 0.3706
vn 0.8675 0.3177 0.3829
vn 0.8193 0.3525 0.4521
vn 0.6918 0.5376 0.4821
vn 0.7371 0.6758 0.0038
vn 0.7231 0.5385 0.4327
vn 0.694 0.5749 0.4335
vn 0.797 0.5761 0.1811
vn 0.7361 0.6768 0.0105
vn 0.8488 0.3649 0.3827
vn 0.5909 0.7815 0.2002
vn 0.8463 0.3686 0.3845
vn 0.7499 0.6405 -0.1656
vn 0.7375 0.6073 0.2956
vn 0.7362 0.6512 0.1843
vn 0.8469 0.4002 0.3501
vn 0.6498 0.6477 0.3979
vn 0.8008 0.3629 0.4765
vn 0.6772 0.5993 0.4269
vn 0.7223 0.6882 -0.0678
vn 0.6861 0.6047 0.4044
vn 0.7842 0.5999 -0.1587
vn 0.4874 0.7855 0.3813
vn 0.6354 0.6045 0.4805
vn 0.7972 0.6001 -0.0668
vn 0.76 0.5608 -0.3285
vn 0.8384 0.5432 0.0448
vn 0.5967 0.8011 0.0464
vn 0.7854 0.6071 -0.1204
vn 0.7281 0.6849 0.0267
vn 0.8298 0.4527 0.3263
vn 0.7732 0.5144 -0.3708
vn 0.905 0.1916 0.3799
vn 0.8096 0.5654 0.1579
vn 0.7216 0.5966 0.3511
vn 0.8281 0.3361 0.4487
vn 0.761 0.6004 -0.2458
vn 0.7941 0.5753 -0.1961
vn 0.786 0.5663 -0.2479
vn 0.7602 0.4949 -0.4209
vn 0.9201 0.2582 0.2946
vn 0.7695 0.6281 0.1154
vn 0.7619 0.6303 -0.149
vn 0.8413 0.4447 0.3073
vn 0.7641 0.5448 -0.3455
vn 0.7304 0.6719 -0.1226
vn 0.7623 0.6448 -0.0562
vn 0.7546 0.5117 -0.4108
vn 0.7555 0.5526 0.3519
vn 0.6698 0.7425 0.0107
vn 0.464 0.8411 0.2779
vn 0.8153 0.5767 -0.0528
vn 0.815 0.5598 0.1497
vn 0.7897 0.5298 -0.3092
vn 0.759 0.5978 -0.258
vn 0.6811 0.7028 0.2054
vn 0.7469 0.6308 0.2104
vn 0.8344 0.4375 0.3351
vn 0.7278 0.6799 -0.0902
vn 0.8596 0.3141 0.403
vn 0.7715 0.5029 -0.3896
vn 0.5312 0.8425 0.0897
vn 0.6824 0.5581 0.4721
usemtl d7d64799-8db0-4e0a-a379-cc6640ffac34
g 091_W_Aya_100K_01
f 41/38/20 39/34/20 36/72/20
usemtl d7d64799-8db0-4e0a-a379-cc6640ffac34
g 091_W_Aya_100K_01
f 34/83/37 38/31/37 3/84/37
usemtl d7d64799-8db0-4e0a-a379-cc6640ffac34
g 091_W_Aya_100K_01
f 58/92/17 25/93/17 7/27/17
usemtl d7d64799-8db0-4e0a-a379-cc6640ffac34
g 091_W_Aya_100K_01
f 42/30/36 31/32/36 30/86/36
usemtl d7d64799-8db0-4e0a-a379-cc6640ffac34
g 091_W_Aya_100K_01
f 58/92/14 7/27/14 54/57/14
usemtl d7d64799-8db0-4e0a-a379-cc6640ffac34
g 091_W_Aya_100K_01
f 21/52/32 13/82/32 51/26/32
usemtl d7d64799-8db0-4e0a-a379-cc6640ffac34
g 091_W_Aya_100K_01
f 23/23/52 60/10/52 6/65/52
usemtl d7d64799-8db0-4e0a-a379-cc6640ffac34
g 091_W_Aya_100K_01
f 4/41/57 52/14/57 60/10/57
usemtl d7d64799-8db0-4e0a-a379-cc6640ffac34
g 091_W_Aya_100K_01
f 4/41/49 17/4/49 8/2/49
usemtl d7d64799-8db0-4e0a-a379-cc6640ffac34
g 091_W_Aya_100K_01
f 7/27/12 28/29/12 22/18/12
usemtl d7d64799-8db0-4e0a-a379-cc6640ffac34
g 091_W_Aya_100K_01
f 34/83/26 63/79/26 51/26/26
usemtl d7d64799-8db0-4e0a-a379-cc6640ffac34
g 091_W_Aya_100K_01
f 39/34/9 53/66/9 60/10/9
usemtl d7d64799-8db0-4e0a-a379-cc6640ffac34
g 091_W_Aya_100K_01
f 41/38/20 48/95/20 39/34/20
usemtl d7d64799-8db0-4e0a-a379-cc6640ffac34
g 091_W_Aya_100K_01
f 51/26/54 66/68/54 34/83/54
usemtl d7d64799-8db0-4e0a-a379-cc6640ffac34
g 091_W_Aya_100K_01
f 7/27/44 42/30/44 54/57/44
usemtl d7d64799-8db0-4e0a-a379-cc6640ffac34
g 091_W_Aya_100K_01
f 61/56/13 56/59/13 18/42/13
usemtl d7d64799-8db0-4e0a-a379-cc6640ffac34
g 091_W_Aya_100K_01
f 2/67/62 37/50/62 16/21/62
usemtl d7d64799-8db0-4e0a-a379-cc6640ffac34
g 091_W_Aya_100K_01
f 26/40/3 15/73/3 35/22/3
usemtl d7d64799-8db0-4e0a-a379-cc6640ffac34
g 091_W_Aya_100K_01
f 39/34/5 60/10/5 36/72/5
usemtl d7d64799-8db0-4e0a-a379-cc6640ffac34
g 091_W_Aya_100K_01
f 8/2/24 40/64/24 57/85/24
usemtl d7d64799-8db0-4e0a-a379-cc6640ffac34
g 091_W_Aya_100K_01
f 22/18/10 42/30/10 7/27/10
usemtl d7d64799-8db0-4e0a-a379-cc6640ffac34
g 091_W_Aya_100K_01
f 56/3/22 61/56/22 59/15/22
usemtl d7d64799-8db0-4e0a-a379-cc6640ffac34
g 091_W_Aya_100K_01
f 31/32/1 27/19/1 30/86/1
usemtl d7d64799-8db0-4e0a-a379-cc6640ffac34
g 091_W_Aya_100K_01
f 42/30/18 30/86/18 17/4/18
usemtl d7d64799-8db0-4e0a-a379-cc6640ffac34
g 091_W_Aya_100K_01
f 34/83/26 3/9/26 63/79/26
usemtl d7d64799-8db0-4e0a-a379-cc6640ffac34
g 091_W_Aya_100K_01
f 65/69/51 29/48/51 58/92/51
usemtl d7d64799-8db0-4e0a-a379-cc6640ffac34
g 091_W_Aya_100K_01
f 53/66/34 54/57/34 4/41/34
usemtl d7d64799-8db0-4e0a-a379-cc6640ffac34
g 091_W_Aya_100K_01
f 36/72/47 60/10/47 61/56/47
usemtl d7d64799-8db0-4e0a-a379-cc6640ffac34
g 091_W_Aya_100K_01
f 49/60/60 15/70/60 26/40/60
usemtl d7d64799-8db0-4e0a-a379-cc6640ffac34
g 091_W_Aya_100K_01
f 4/41/21 8/2/21 5/74/21
usemtl d7d64799-8db0-4e0a-a379-cc6640ffac34
g 091_W_Aya_100K_01
f 9/88/28 2/67/28 16/21/28
usemtl d7d64799-8db0-4e0a-a379-cc6640ffac34
g 091_W_Aya_100K_01
f 53/66/15 4/41/15 60/10/15
usemtl d7d64799-8db0-4e0a-a379-cc6640ffac34
g 091_W_Aya_100K_01
f 58/92/11 37/50/11 65/80/11
usemtl d7d64799-8db0-4e0a-a379-cc6640ffac34
g 091_W_Aya_100K_01
f 31/32/16 35/8/16 11/12/16
usemtl d7d64799-8db0-4e0a-a379-cc6640ffac34
g 091_W_Aya_100K_01
f 31/32/1 11/75/1 27/19/1
usemtl d7d64799-8db0-4e0a-a379-cc6640ffac34
g 091_W_Aya_100K_01
f 28/47/2 49/36/2 26/40/2
usemtl d7d64799-8db0-4e0a-a379-cc6640ffac34
g 091_W_Aya_100K_01
f 50/61/29 10/91/29 45/62/29
usemtl d7d64799-8db0-4e0a-a379-cc6640ffac34
g 091_W_Aya_100K_01
f 4/41/35 44/33/35 33/49/35
usemtl d7d64799-8db0-4e0a-a379-cc6640ffac34
g 091_W_Aya_100K_01
f 16/21/42 54/57/42 53/66/42
usemtl d7d64799-8db0-4e0a-a379-cc6640ffac34
g 091_W_Aya_100K_01
f 49/60/60 47/43/60 15/70/60
usemtl d7d64799-8db0-4e0a-a379-cc6640ffac34
g 091_W_Aya_100K_01
f 60/10/53 1/24/53 43/7/53
usemtl d7d64799-8db0-4e0a-a379-cc6640ffac34
g 091_W_Aya_100K_01
f 17/4/4 30/86/4 8/2/4
usemtl d7d64799-8db0-4e0a-a379-cc6640ffac34
g 091_W_Aya_100K_01
f 4/41/57 33/94/57 52/14/57
usemtl d7d64799-8db0-4e0a-a379-cc6640ffac34
g 091_W_Aya_100K_01
f 61/56/25 23/71/25 59/90/25
usemtl d7d64799-8db0-4e0a-a379-cc6640ffac34
g 091_W_Aya_100K_01
f 45/62/43 10/1/43 62/25/43
usemtl d7d64799-8db0-4e0a-a379-cc6640ffac34
g 091_W_Aya_100K_01
f 51/26/54 13/82/54 66/68/54
usemtl d7d64799-8db0-4e0a-a379-cc6640ffac34
g 091_W_Aya_100K_01
f 4/41/58 42/30/58 17/4/58
usemtl d7d64799-8db0-4e0a-a379-cc6640ffac34
g 091_W_Aya_100K_01
f 61/56/13 18/42/13 45/62/13
usemtl d7d64799-8db0-4e0a-a379-cc6640ffac34
g 091_W_Aya_100K_01
f 58/92/11 16/21/11 37/50/11
usemtl d7d64799-8db0-4e0a-a379-cc6640ffac34
g 091_W_Aya_100K_01
f 34/83/38 50/63/38 45/62/38
usemtl d7d64799-8db0-4e0a-a379-cc6640ffac34
g 091_W_Aya_100K_01
f 60/10/8 52/14/8 1/44/8
usemtl d7d64799-8db0-4e0a-a379-cc6640ffac34
g 091_W_Aya_100K_01
f 4/41/21 5/74/21 44/76/21
usemtl d7d64799-8db0-4e0a-a379-cc6640ffac34
g 091_W_Aya_100K_01
f 54/57/31 42/30/31 4/41/31
usemtl d7d64799-8db0-4e0a-a379-cc6640ffac34
g 091_W_Aya_100K_01
f 30/86/63 40/6/63 8/2/63
usemtl d7d64799-8db0-4e0a-a379-cc6640ffac34
g 091_W_Aya_100K_01
f 61/56/46 45/62/46 36/72/46
usemtl d7d64799-8db0-4e0a-a379-cc6640ffac34
g 091_W_Aya_100K_01
f 58/92/56 54/57/56 16/21/56
usemtl d7d64799-8db0-4e0a-a379-cc6640ffac34
g 091_W_Aya_100K_01
f 7/27/7 25/93/7 12/53/7
usemtl d7d64799-8db0-4e0a-a379-cc6640ffac34
g 091_W_Aya_100K_01
f 45/62/43 62/25/43 36/72/43
usemtl d7d64799-8db0-4e0a-a379-cc6640ffac34
g 091_W_Aya_100K_01
f 7/27/12 12/53/12 28/29/12
usemtl d7d64799-8db0-4e0a-a379-cc6640ffac34
g 091_W_Aya_100K_01
f 28/47/2 26/40/2 22/18/2
usemtl d7d64799-8db0-4e0a-a379-cc6640ffac34
g 091_W_Aya_100K_01
f 61/56/25 60/10/25 23/71/25
usemtl d7d64799-8db0-4e0a-a379-cc6640ffac34
g 091_W_Aya_100K_01
f 30/86/63 14/87/63 40/6/63
usemtl d7d64799-8db0-4e0a-a379-cc6640ffac34
g 091_W_Aya_100K_01
f 18/46/55 38/31/55 45/62/55
usemtl d7d64799-8db0-4e0a-a379-cc6640ffac34
g 091_W_Aya_100K_01
f 41/35/59 36/72/59 62/25/59
usemtl d7d64799-8db0-4e0a-a379-cc6640ffac34
g 091_W_Aya_100K_01
f 55/78/45 51/26/45 63/79/45
usemtl d7d64799-8db0-4e0a-a379-cc6640ffac34
g 091_W_Aya_100K_01
f 31/32/41 22/18/41 26/40/41
usemtl d7d64799-8db0-4e0a-a379-cc6640ffac34
g 091_W_Aya_100K_01
f 34/83/38 46/17/38 50/63/38
usemtl d7d64799-8db0-4e0a-a379-cc6640ffac34
g 091_W_Aya_100K_01
f 34/83/37 45/62/37 38/31/37
usemtl d7d64799-8db0-4e0a-a379-cc6640ffac34
g 091_W_Aya_100K_01
f 16/21/50 48/39/50 9/58/50
usemtl d7d64799-8db0-4e0a-a379-cc6640ffac34
g 091_W_Aya_100K_01
f 24/77/61 21/54/61 51/26/61
usemtl d7d64799-8db0-4e0a-a379-cc6640ffac34
g 091_W_Aya_100K_01
f 30/86/6 27/19/6 14/16/6
usemtl d7d64799-8db0-4e0a-a379-cc6640ffac34
g 091_W_Aya_100K_01
f 58/92/17 32/13/17 25/93/17
usemtl d7d64799-8db0-4e0a-a379-cc6640ffac34
g 091_W_Aya_100K_01
f 8/2/19 57/45/19 5/74/19
usemtl d7d64799-8db0-4e0a-a379-cc6640ffac34
g 091_W_Aya_100K_01
f 66/68/39 46/11/39 34/83/39
usemtl d7d64799-8db0-4e0a-a379-cc6640ffac34
g 091_W_Aya_100K_01
f 32/5/23 58/92/23 29/48/23
usemtl d7d64799-8db0-4e0a-a379-cc6640ffac34
g 091_W_Aya_100K_01
f 60/10/27 43/20/27 6/28/27
usemtl d7d64799-8db0-4e0a-a379-cc6640ffac34
g 091_W_Aya_100K_01
f 16/21/50 39/34/50 48/39/50
usemtl d7d64799-8db0-4e0a-a379-cc6640ffac34
g 091_W_Aya_100K_01
f 24/77/61 19/37/61 64/55/61
usemtl d7d64799-8db0-4e0a-a379-cc6640ffac34
g 091_W_Aya_100K_01
f 24/51/48 51/26/48 55/81/48
usemtl d7d64799-8db0-4e0a-a379-cc6640ffac34
g 091_W_Aya_100K_01
f 24/77/61 64/55/61 21/54/61
usemtl d7d64799-8db0-4e0a-a379-cc6640ffac34
g 091_W_Aya_100K_01
f 39/34/30 16/21/30 53/66/30
usemtl d7d64799-8db0-4e0a-a379-cc6640ffac34
g 091_W_Aya_100K_01
f 31/32/16 26/40/16 35/8/16
usemtl d7d64799-8db0-4e0a-a379-cc6640ffac34
g 091_W_Aya_100K_01
f 20/89/40 64/55/40 19/37/40
usemtl d7d64799-8db0-4e0a-a379-cc6640ffac34
g 091_W_Aya_100K_01
f 42/30/33 22/18/33 31/32/33
