mtllib 66.mtl
v -30.060207060185714 71.47798690073985 391.78342799999996
v -30.07797161210238 67.62222841006317 391.78342799999996
v -28.577655840731722 79.10124191020269 391.78342799999996
v -22.5212 85.6626 388.1733
v -29.822577700199602 73.61633776199977 391.78342799999996
v -26.1563 59.9451 391.3411
v -23.97464516462584 57.04665481658574 391.78342799999996
v -23.9561 57.1957 391.6172
v -22.256200000000035 85.4167680123806 387.89531032835424
v -29.340153172898194 64.80396480291645 391.78342799999996
v -23.082 66.3401 384.9578
v -22.256200000000035 78.2593236819108 385.90152303274937
v -28.254490414933123 80.20083752737506 391.78342799999996
v -26.393364783808337 59.765555888623915 391.78342799999996
v -26.1573 64.2032 388.2772
v -28.14484937291339 62.24605942217091 391.78342799999996
v -24.081637584932743 57.13883180043146 391.78342799999996
v -26.339201652712973 59.67543616784597 391.78342799999996
v -29.921837518764402 66.79243551890427 391.78342799999996
v -22.256200000000035 86.00691758689219 388.09160590430946
v -28.440718735595905 79.6315685641401 391.78342799999996
v -27.585799443477978 82.01122730144986 391.78342799999996
v -22.256200000000035 58.038369314363045 389.7719025182211
v -22.256200000000035 57.558883806245795 390.10460009654133
v -29.7808 67.596 391.3449
v -24.355 74.6578 386.5576
v -28.1007 70.9033 389.2593
v -24.53091351396759 89.95315488098039 391.78342799999996
v -26.21659317402811 59.49203174562555 391.78342799999996
v -25.6021 67.148 386.8394
v -25.190592020313183 88.32027259421612 391.78342799999996
v -23.5975 62.6283 386.9963
v -23.1973 69.8359 384.7403
v -30.113864895888945 68.15253703554804 391.78342799999996
v -26.671300081683132 60.08563889493948 391.78342799999996
v -24.2905 88.8845 391.0484
v -22.256200000000035 90.83950229257572 390.0061684497814
v -22.45023177585851 94.8482102293236 391.78342799999996
v -22.256200000000035 70.73640671016987 384.20598261511947
v -22.5212 85.6626 388.1733
v -22.256200000000035 73.2035943076538 384.68863270177786
v -22.256200000000035 61.55943671167628 387.0010522636013
v -23.082 66.3401 384.9578
v -22.256200000000035 78.2593236819108 385.90152303274937
v -22.256200000000035 56.002005023907174 391.78342799999996
v -22.256200000000035 66.71806328707986 384.3944837002776
v -22.256200000000035 58.038369314363045 389.7719025182211
v -22.256200000000035 59.3651195078566 388.653870560332
v -23.802264738897218 56.94747166549632 391.78342799999996
v -24.355 74.6578 386.5576
v -24.53091351396759 89.95315488098039 391.78342799999996
v -23.1973 69.8359 384.7403
v -23.86633470442459 56.9787407387065 391.78342799999996
v -22.256200000000035 95.28323146110743 391.78342799999996
v -24.2905 88.8845 391.0484
v -22.256200000000035 63.07804390743161 385.93859720532214
v -26.1563 59.9451 391.3411
v -23.97464516462584 57.04665481658574 391.78342799999996
v -23.9561 57.1957 391.6172
v -22.256200000000035 86.00691758689219 388.09160590430946
v -22.256200000000035 57.558883806245795 390.10460009654133
v -22.256200000000035 69.27221520412115 384.18132308608523
v -23.5975 62.6283 386.9963
v -22.256200000000035 65.64345590126257 384.75555203704323
vt 0.4067955556077142 0.20856216559521368
vt 0.27370053188095417 0.4072829890143227
vt 0.49175534644339897 0.26033372718435976
vt 0.320624462010806 0.6974324192860025
vt 0.13242833635770063 0.7446145271202295
vt 0.45713771438932754 0.4522207714972464
vt 0.47085473235165337 0.43850375353491156
vt 0.2595266507039247 0.4356650530171957
vt 0.48585358310218285 0.1797902995246945
vt 0.491912656770009 0.3297085012086247
vt 0.4834511885725834 0.1721933810901507
vt 0.17427918105544923 0.8509747721178024
vt 0.4921875000000012 0.252195119586361
vt 0.3798282652894236 0.501047791981395
vt 0.460576969409292 0.4684344023056507
vt 0.4021146787880713 0.5812788805765368
vt 0.3276390194711096 0.6874379556182416
vt 0.4067955556077142 0.20856216559520468
vt 0.2810293840123226 0.7395175447500395
vt 0.12680738203905595 0.7569795820793455
vt 0.3120785175472915 0.33736840380229294
vt 0.48125133704408246 0.39399887843739423
vt 0.48155122463140415 0.2609816079343258
vt 0.34724441229945213 0.28636081245579526
vt 0.4919126567700135 0.3297085012086247
vt 0.4852029261939773 0.1766088451794302
vt 0.48585358310218735 0.17979029952468994
vt 0.3206244620108105 0.6974324192860071
vt 0.3712342329854832 0.25401365329633496
vt 0.46537746574961125 0.45683503225901156
vt 0.26996746920008563 0.5376680573445077
vt 0.4265342699970101 0.5387718727067534
vt 0.31879448968423885 0.35863564890262767
vt 0.12680738203905145 0.7569795820793455
vt 0.4921874999999967 0.25219511958635643
vt 0.4605769694092965 0.46843440230565525
vt 0.47035326082897094 0.13421864474807865
vt 0.14445819764750226 0.8793689649410034
vt 0.4265342699970101 0.538771872706749
vt 0.1953402112681539 0.5891964021070341
vt 0.2991083524450325 0.35759953641633124
vt 0.04779860405598345 0.9543051606945502
vt 0.4083106939051789 0.34642889378158703
vt 0.299108352445046 0.3575995364163539
vt 0.4296073874564824 0.1813343909327797
vt 0.03906250000000124 0.9609374999999999
vt 0.2390802320538238 0.4853973483277574
vt 0.4919034766525796 0.25769517872125414
vt 0.4021146787880713 0.5812788805765322
vt 0.48155122463140415 0.17960324046074305
vt 0.3472444122994476 0.2863608124557997
vt 0.1478999179897116 0.8509747721178024
vt 0.08075980345693046 0.8631874499729906
vt 0.08075980345693046 0.8631874499729951
vt 0.48125133704408246 0.39399887843739867
vt 0.35948367342103016 0.399324832639419
vt 0.3798282652894236 0.289464036550081
vt 0.4380021501051884 0.1708934255555017
vt 0.4920698374437895 0.2696439949562893
vt 0.4852029261939728 0.1766088451794302
vt 0.13242833635770512 0.7446145271202385
vt 0.13569316286867555 0.7533207311495005
vt 0.1953402112681539 0.5891964021070295
vt 0.3276390194711051 0.6874379556182416
vt 0.47085473235165787 0.4385037535349161
vt 0.2810293840123226 0.7395175447500351
vt 0.2390802320538238 0.4853973483277618
vt 0.49175534644339897 0.2603337271843553
vt 0.28624314269480483 0.42780726125516977
vt 0.3116085368304388 0.7074297640290395
vt 0.312078517547287 0.3373684038022885
vt 0.492069837443794 0.2696439949562893
vt 0.46537746574961125 0.456835032259007
vt 0.3116085368304433 0.707429764029044
vt 0.4296073874564824 0.18133439093278425
vt 0.04779860405598345 0.9543051606945547
vt 0.37123423298548774 0.2540136532963395
vt 0.4841212294742567 0.1736779515175021
vt 0.2737005318809496 0.4072829890143227
vn -0.6059 0.2135 -0.7664
vn -0.8221 -0.1547 -0.5479
vn -0.7773 0.0864 -0.6231
vn -0.6291 -0.242 -0.7387
vn -0.6743 0.0269 -0.738
vn -0.7126 -0.4283 -0.5557
vn -0.7297 -0.1839 -0.6585
vn -0.6591 0.2156 -0.7205
vn -0.7237 0.1643 -0.6702
vn -0.7045 0.2675 -0.6574
vn -0.611 -0.0692 -0.7886
vn -0.6864 0.1772 -0.7053
vn -0.6866 -0.459 -0.5638
vn -0.5769 -0.3302 -0.7471
vn -0.6748 0.2493 -0.6946
vn -0.7884 0.0127 -0.615
vn -0.5216 -0.6055 -0.6011
vn -0.7248 -0.3387 -0.5999
vn -0.7348 -0.0532 -0.6762
vn -0.7072 0.2857 -0.6467
vn -0.5749 0.2582 -0.7764
vn -0.6271 -0.5445 -0.5571
vn -0.6581 0.122 -0.7429
vn -0.6079 -0.4639 -0.6445
vn -0.6505 -0.4437 -0.6164
vn -0.5203 -0.4868 -0.7016
vn -0.741 -0.2168 -0.6355
vn -0.5814 -0.5275 -0.6195
vn -0.8281 -0.056 -0.5578
vn -0.5286 -0.547 -0.6491
vn -0.4302 -0.5431 -0.7211
vn -0.6944 0.2952 -0.6563
vn -0.6398 0.2854 -0.7136
vn -0.6077 0.2925 -0.7383
vn -0.4092 -0.6691 -0.6205
vn -0.5401 -0.07 -0.8387
vn -0.5758 0.1907 -0.795
vn -0.5953 0.1543 -0.7885
vn -0.411 -0.6555 -0.6336
vn -0.4133 -0.522 -0.7461
vn -0.3202 -0.6561 -0.6834
vn -0.5042 0.0145 -0.8635
vn -0.4989 -0.3629 -0.787
vn -0.4478 -0.2848 -0.8476
usemtl 46bf9422-801c-48de-be1a-af31647a49ba
g 091_W_Aya_100K_01
f 3/64/12 26/31/12 27/14/12
usemtl 46bf9422-801c-48de-be1a-af31647a49ba
g 091_W_Aya_100K_01
f 14/68/6 6/23/6 18/48/6
usemtl 46bf9422-801c-48de-be1a-af31647a49ba
g 091_W_Aya_100K_01
f 11/33/11 30/56/11 33/69/11
usemtl 46bf9422-801c-48de-be1a-af31647a49ba
g 091_W_Aya_100K_01
f 6/23/28 8/50/28 17/9/28
usemtl 46bf9422-801c-48de-be1a-af31647a49ba
g 091_W_Aya_100K_01
f 8/50/17 7/60/17 17/27/17
usemtl 46bf9422-801c-48de-be1a-af31647a49ba
g 091_W_Aya_100K_01
f 29/13/13 18/48/13 6/23/13
usemtl 46bf9422-801c-48de-be1a-af31647a49ba
g 091_W_Aya_100K_01
f 4/62/15 22/19/15 36/52/15
usemtl 46bf9422-801c-48de-be1a-af31647a49ba
g 091_W_Aya_100K_01
f 4/62/1 12/63/1 26/31/1
usemtl 46bf9422-801c-48de-be1a-af31647a49ba
g 091_W_Aya_100K_01
f 8/50/26 6/23/26 23/45/26
usemtl 46bf9422-801c-48de-be1a-af31647a49ba
g 091_W_Aya_100K_01
f 6/23/25 35/59/25 16/25/25
usemtl 46bf9422-801c-48de-be1a-af31647a49ba
g 091_W_Aya_100K_01
f 6/23/22 14/3/22 35/72/22
usemtl 46bf9422-801c-48de-be1a-af31647a49ba
g 091_W_Aya_100K_01
f 33/69/5 30/56/5 27/14/5
usemtl 46bf9422-801c-48de-be1a-af31647a49ba
g 091_W_Aya_100K_01
f 6/23/25 16/25/25 15/43/25
usemtl 46bf9422-801c-48de-be1a-af31647a49ba
g 091_W_Aya_100K_01
f 4/62/1 9/5/1 12/63/1
usemtl 46bf9422-801c-48de-be1a-af31647a49ba
g 091_W_Aya_100K_01
f 25/6/2 19/65/2 2/30/2
usemtl 46bf9422-801c-48de-be1a-af31647a49ba
g 091_W_Aya_100K_01
f 27/14/16 34/36/16 1/32/16
usemtl 46bf9422-801c-48de-be1a-af31647a49ba
g 091_W_Aya_100K_01
f 3/64/12 21/4/12 26/31/12
usemtl 46bf9422-801c-48de-be1a-af31647a49ba
g 091_W_Aya_100K_01
f 8/50/26 23/45/26 24/58/26
usemtl 46bf9422-801c-48de-be1a-af31647a49ba
g 091_W_Aya_100K_01
f 4/62/8 26/31/8 21/28/8
usemtl 46bf9422-801c-48de-be1a-af31647a49ba
g 091_W_Aya_100K_01
f 15/43/18 16/10/18 10/22/18
usemtl 46bf9422-801c-48de-be1a-af31647a49ba
g 091_W_Aya_100K_01
f 34/15/29 25/6/29 2/73/29
usemtl 46bf9422-801c-48de-be1a-af31647a49ba
g 091_W_Aya_100K_01
f 4/62/8 21/28/8 13/74/8
usemtl 46bf9422-801c-48de-be1a-af31647a49ba
g 091_W_Aya_100K_01
f 4/62/15 13/70/15 22/19/15
usemtl 46bf9422-801c-48de-be1a-af31647a49ba
g 091_W_Aya_100K_01
f 4/62/21 20/20/21 9/61/21
usemtl 46bf9422-801c-48de-be1a-af31647a49ba
g 091_W_Aya_100K_01
f 25/6/27 10/55/27 19/7/27
usemtl 46bf9422-801c-48de-be1a-af31647a49ba
g 091_W_Aya_100K_01
f 6/23/28 17/9/28 29/35/28
usemtl 46bf9422-801c-48de-be1a-af31647a49ba
g 091_W_Aya_100K_01
f 30/56/7 15/43/7 25/6/7
usemtl 46bf9422-801c-48de-be1a-af31647a49ba
g 091_W_Aya_100K_01
f 25/6/27 15/43/27 10/55/27
usemtl 46bf9422-801c-48de-be1a-af31647a49ba
g 091_W_Aya_100K_01
f 32/57/24 6/23/24 15/43/24
usemtl 46bf9422-801c-48de-be1a-af31647a49ba
g 091_W_Aya_100K_01
f 5/49/3 27/14/3 1/39/3
usemtl 46bf9422-801c-48de-be1a-af31647a49ba
g 091_W_Aya_100K_01
f 3/17/9 27/14/9 5/16/9
usemtl 46bf9422-801c-48de-be1a-af31647a49ba
g 091_W_Aya_100K_01
f 11/33/4 15/43/4 30/56/4
usemtl 46bf9422-801c-48de-be1a-af31647a49ba
g 091_W_Aya_100K_01
f 36/52/10 22/66/10 31/12/10
usemtl 46bf9422-801c-48de-be1a-af31647a49ba
g 091_W_Aya_100K_01
f 27/14/19 30/56/19 25/6/19
usemtl 46bf9422-801c-48de-be1a-af31647a49ba
g 091_W_Aya_100K_01
f 11/33/14 32/57/14 15/43/14
usemtl 46bf9422-801c-48de-be1a-af31647a49ba
g 091_W_Aya_100K_01
f 26/31/23 33/69/23 27/14/23
usemtl 46bf9422-801c-48de-be1a-af31647a49ba
g 091_W_Aya_100K_01
f 27/14/16 25/6/16 34/36/16
usemtl 46bf9422-801c-48de-be1a-af31647a49ba
g 091_W_Aya_100K_01
f 28/38/20 36/52/20 31/12/20
usemtl 46bf9422-801c-48de-be1a-af31647a49ba
g 091_W_Aya_100K_01
f 38/42/33 37/54/33 40/62/33
usemtl 46bf9422-801c-48de-be1a-af31647a49ba
g 091_W_Aya_100K_01
f 38/76/32 55/52/32 51/38/32
usemtl 46bf9422-801c-48de-be1a-af31647a49ba
g 091_W_Aya_100K_01
f 41/47/38 52/69/38 50/31/38
usemtl 46bf9422-801c-48de-be1a-af31647a49ba
g 091_W_Aya_100K_01
f 64/21/43 63/57/43 43/33/43
usemtl 46bf9422-801c-48de-be1a-af31647a49ba
g 091_W_Aya_100K_01
f 45/37/35 59/50/35 61/58/35
usemtl 46bf9422-801c-48de-be1a-af31647a49ba
g 091_W_Aya_100K_01
f 44/40/37 41/67/37 50/31/37
usemtl 46bf9422-801c-48de-be1a-af31647a49ba
g 091_W_Aya_100K_01
f 39/8/42 62/2/42 52/69/42
usemtl 46bf9422-801c-48de-be1a-af31647a49ba
g 091_W_Aya_100K_01
f 42/77/40 63/57/40 56/51/40
usemtl 46bf9422-801c-48de-be1a-af31647a49ba
g 091_W_Aya_100K_01
f 41/47/38 39/8/38 52/69/38
usemtl 46bf9422-801c-48de-be1a-af31647a49ba
g 091_W_Aya_100K_01
f 38/42/33 54/46/33 37/54/33
usemtl 46bf9422-801c-48de-be1a-af31647a49ba
g 091_W_Aya_100K_01
f 38/42/33 40/62/33 55/52/33
usemtl 46bf9422-801c-48de-be1a-af31647a49ba
g 091_W_Aya_100K_01
f 62/79/36 43/33/36 52/69/36
usemtl 46bf9422-801c-48de-be1a-af31647a49ba
g 091_W_Aya_100K_01
f 48/18/30 57/23/30 63/57/30
usemtl 46bf9422-801c-48de-be1a-af31647a49ba
g 091_W_Aya_100K_01
f 53/78/39 58/26/39 59/50/39
usemtl 46bf9422-801c-48de-be1a-af31647a49ba
g 091_W_Aya_100K_01
f 45/37/35 49/11/35 59/50/35
usemtl 46bf9422-801c-48de-be1a-af31647a49ba
g 091_W_Aya_100K_01
f 49/11/41 53/78/41 59/50/41
usemtl 46bf9422-801c-48de-be1a-af31647a49ba
g 091_W_Aya_100K_01
f 48/18/30 47/75/30 57/23/30
usemtl 46bf9422-801c-48de-be1a-af31647a49ba
g 091_W_Aya_100K_01
f 64/21/43 56/24/43 63/57/43
usemtl 46bf9422-801c-48de-be1a-af31647a49ba
g 091_W_Aya_100K_01
f 37/53/34 60/34/34 40/62/34
usemtl 46bf9422-801c-48de-be1a-af31647a49ba
g 091_W_Aya_100K_01
f 48/1/31 63/57/31 42/29/31
usemtl 46bf9422-801c-48de-be1a-af31647a49ba
g 091_W_Aya_100K_01
f 62/79/36 46/41/36 43/33/36
usemtl 46bf9422-801c-48de-be1a-af31647a49ba
g 091_W_Aya_100K_01
f 46/44/44 64/71/44 43/33/44
