mtllib 67.mtl
v -195.231 377.8111 230.0429
v -197.5591542143513 403.4685996315872 220.30034999999998
v -201.2351160989217 390.2422436865702 220.30034999999998
v -198.26448119352546 402.23493466471007 220.30034999999998
v -201.0977079941435 388.28106171791114 220.30034999999998
v -196.8853 401.7969 222.3007
v -199.87337014589667 398.9384342877406 220.30034999999998
v -200.21077654559946 377.4612037857224 220.30034999999998
v -200.96876845504428 380.50263066855496 220.30034999999998
v -198.8897509475572 374.38939212571177 220.30034999999998
v -195.4778 405.241 221.3937
v -199.4136 378.542 222.9075
v -201.19999347803613 386.1566095081101 220.30034999999998
v -197.55396084286022 371.71424284335063 220.30034999999998
v -193.73927800000004 365.78720706750147 220.30034999999998
v -198.6636 385.4648 227.3047
v -196.07955677161235 405.7886697969638 220.30034999999998
v -200.5056802900186 396.7924819292087 220.30034999999998
v -200.5181 389.86 221.673
v -193.73927800000004 369.538184648306 224.9377611385791
v -199.5513 397.4554 221.6137
v -193.73927800000004 371.1755271872544 226.73633524769363
v -200.1481280866849 398.1026047943512 220.30034999999998
v -195.59317017479592 368.4257246596336 220.30034999999998
v -199.9452941591213 376.6627479664539 220.30034999999998
v -196.07955677161235 405.7886697969638 220.30034999999998
v -193.73927800000004 408.34678842313514 220.30034999999998
v -195.75807207450814 406.1872606764879 220.30034999999998
v -193.73927800000004 406.43082895025725 221.9814855657697
v -195.4778 405.241 221.3937
v -193.73927800000004 383.6059926542378 236.95141704271924
v -193.73927800000004 381.87488289708614 236.15299228898363
v -195.231 377.8111 230.0429
v -193.73927800000004 378.04697817883465 233.19907856551308
v -193.7947 392.3145 233.0308
v -201.2351160989217 390.2422436865702 220.30034999999998
v -198.26448119352546 402.23493466471007 220.30034999999998
v -201.0977079941435 388.28106171791114 220.30034999999998
v -201.22946880830514 391.32741418414105 220.30034999999998
v -193.73927800000004 403.5949133647974 224.08094001063944
v -193.73927800000004 400.78391616442224 225.6733777308265
v -198.4861 392.8871 224.7964
v -195.759 386.541 233.5034
v -193.73927800000004 371.36567015270225 226.93727631079386
v -196.8853 401.7969 222.3007
v -199.87337014589667 398.9384342877406 220.30034999999998
v -200.21077654559946 377.4612037857224 220.30034999999998
v -193.73927800000004 392.7451679961675 232.59401989056875
v -193.73927800000004 397.8379896106729 227.3142856035671
v -200.96876845504428 380.50263066855496 220.30034999999998
v -193.73927800000004 406.43082895025725 221.9814855657697
v -198.8897509475572 374.38939212571177 220.30034999999998
v -195.4778 405.241 221.3937
v -195.4697 389.8113 232.7199
v -199.4136 378.542 222.9075
v -193.73927800000004 392.25928682580866 233.15511788469482
v -201.0493551702934 394.1016417300404 220.30034999999998
v -193.73927800000004 386.6983826985948 236.73397749902503
v -201.19999347803613 386.1566095081101 220.30034999999998
v -193.73927800000004 392.3185533554778 233.0963691475385
v -197.55396084286022 371.71424284335063 220.30034999999998
v -193.73927800000004 388.59932450699773 236.00454185568432
v -193.73927800000004 379.58454338840295 234.56694096765222
v -196.26 394.9448 226.7589
v -193.73927800000004 380.66355600263176 235.4350475902857
v -197.4019 382.215 229.0786
v -200.89597940297483 380.10507199855726 220.30034999999998
v -195.5383 371.7746 224.0657
v -198.6636 385.4648 227.3047
v -193.73927800000004 396.2782455482082 228.65213086032944
v -197.68800830753406 371.9471796491635 220.30034999999998
v -193.73927800000004 383.2768317461686 236.83006022140523
v -200.5056802900186 396.7924819292087 220.30034999999998
v -200.5181 389.86 221.673
v -193.73927800000004 398.31261908885216 226.99589145636475
v -195.0913 397.3025 226.4428
v -193.73927800000004 389.6319269878049 235.32552901925538
v -193.73927800000004 404.7738303181818 223.32015237662333
v -193.73927800000004 373.89784400697556 229.46877918912227
v -194.4771 383.523 235.6641
v -200.94608146759597 380.35181348957303 220.30034999999998
v -193.73927800000004 385.394808633623 236.9943520608549
v -193.73927800000004 395.8204825046678 228.96631386180576
v -197.3865 389.1746 229.4325
v -199.5513 397.4554 221.6137
v -193.73927800000004 371.1755271872544 226.73633524769363
vt 0.6653369901768882 0.6662467806832199
vt 0.7914078649428579 0.9606580378956229
vt 0.5053149627641285 0.9316602538726719
vt 0.4610681710398591 0.9240148439804401
vt 0.9453125000000007 0.9459336242838594
vt 0.14514882504331483 0.7228021853512329
vt 0.4533121116093214 0.5646781691908601
vt 0.39952751883730836 0.5842204961852653
vt 0.7298736489226608 0.7489245060651903
vt 0.34993184740647665 0.9033831015651346
vt 0.7914078649428616 0.9606580378956229
vt 0.22631066384469756 0.864745227681759
vt 0.1706340322602239 0.8448308476127915
vt 0.34214970313079573 0.9014439764250953
vt 0.2579246968868978 0.6560907103986309
vt 0.3238891452648699 0.8375320238943605
vt 0.5659546063611087 0.9435531193294954
vt 0.18806273816001812 0.6960165126222237
vt 0.49179406421739996 0.5570332526419962
vt 0.8596975998781102 0.8605906224587073
vt 0.6569165494125722 0.657425366549176
vt 0.34700803496960164 0.9026400339074051
vt 0.717810854369519 0.9609374999999954
vt 0.5345799519705579 0.6472306500956724
vt 0.4610681710398553 0.9240148439804401
vt 0.7006871082667979 0.960072325473763
vt 0.7666728625443517 0.7856447708671144
vt 0.6070712042441354 0.6059728914386989
vt 0.4258363097998806 0.7219919040880165
vt 0.6807042211374054 0.8001513968981903
vt 0.1750560312103682 0.8458263920699285
vt 0.717810854369519 0.9609374999999992
vt 0.6942971764087424 0.9292844719758713
vt 0.8101194939789138 0.8202259583285066
vt 0.7666728625443555 0.7856447708671144
vt 0.7962443409437531 0.9122932778867009
vt 0.7215642602825982 0.7417799124050577
vt 0.6574776194706993 0.6557421563747947
vt 0.6229341612342353 0.8477267403478604
vt 0.5545762474639849 0.5718599978512188
vt 0.22631066384470133 0.864745227681759
vt 0.5286763757606547 0.5631046891045628
vt 0.4258363097998768 0.5725814647132774
vt 0.8751734057476548 0.9561436972059215
vt 0.5651641013310614 0.7389830981771832
vt 0.6563513494372984 0.6545365666755352
vt 0.8804083084356717 0.8785098190781248
vt 0.45331211160932894 0.5646781691908601
vt 0.5053149627641322 0.9316602538726719
vt 0.1006597673209598 0.8176062488310161
vt 0.8596975998781065 0.8605906224587073
vt 0.7579293467781055 0.7779756996659772
vt 0.6070712042441316 0.6059728914386989
vt 0.4258363097998806 0.5725814647132811
vt 0.18795959255152234 0.7593725310841868
vt 0.2733090061141661 0.882042546346979
vt 0.6737811411947089 0.9572608836313705
vt 0.4917940642173962 0.5570332526419924
vt 0.7350760422227459 0.8035496357160237
vt 0.48020813088522113 0.7763637251733533
vt 0.5659546063611087 0.9435531193294916
vt 0.5286763757606585 0.5631046891045666
vt 0.5887021578862154 0.5901130621438221
vt 0.8710055949360935 0.9292844719758713
vt 0.2897473497777591 0.8871928173301556
vt 0.8198415367060945 0.9602488692746884
vt 0.19253579874534626 0.6922548402414259
vt 0.39952751883731213 0.5842204961852653
vt 0.7579293467781018 0.777975699665981
vt 0.36134321122811347 0.6033272742752536
vt 0.48455987105095005 0.5580929785030246
vt 0.595748250691565 0.6676200830026761
vt 0.6210168041530766 0.9512640227304309
vt 0.5447746684240616 0.93982735016502
vt 0.910590131720895 0.9087005128477763
vt 0.721564260282602 0.7417799124050577
vt 0.8852490817748225 0.954719269902173
vt 0.3408803393540365 0.6710183218205094
vt 0.657477619470703 0.6557421563747947
vt 0.5447746684240579 0.9088950390688676
vt 0.9105901317208912 0.9087005128477763
vt 0.6563513494372947 0.6545365666755352
vt 0.48360636970305443 0.586062351374669
vt 0.257924696886894 0.6560907103986309
vt 0.7006871082667941 0.960072325473763
vt 0.03906250000000078 0.793072199359881
vt 0.7298736489226684 0.7489245060651941
vt 0.8804083084356755 0.8785098190781248
vt 0.5447746684240579 0.93982735016502
vn -0.8198 0.2695 0.5053
vn -0.6799 0.4336 0.5914
vn -0.8746 -0.2908 0.388
vn -0.8388 0.2289 0.494
vn -0.7419 -0.5213 0.4217
vn -0.8917 -0.0625 0.4484
vn -0.7088 0.4052 0.5774
vn -0.9408 -0.0385 0.3369
vn -0.7785 -0.4642 0.4226
vn -0.815 -0.3784 0.4389
vn -0.5765 0.5389 0.6142
vn -0.6248 0.5039 0.5963
vn -0.7685 0.3515 0.5346
vn -0.6121 0.3898 0.688
vn -0.6765 0.4167 0.6072
vn -0.8988 -0.233 0.3714
vn -0.8431 -0.2338 0.4842
vn -0.7543 0.4447 0.483
vn -0.7384 0.4295 0.5199
vn -0.8986 -0.1182 0.4226
vn -0.8858 0.0046 0.464
vn -0.8456 0.1046 0.5235
vn -0.6348 0.589 0.5002
vn -0.5807 0.3841 0.7178
vn -0.8491 0.2953 0.4379
vn -0.8631 -0.2575 0.4345
vn -0.9 0.2102 0.3818
vn -0.7902 -0.4333 0.4334
vn -0.603 0.4444 0.6625
vn -0.7308 0.3567 0.582
vn -0.8672 -0.012 0.4978
vn -0.9197 0.0987 0.3799
vn -0.5985 0.5215 0.6081
vn -0.8335 -0.3109 0.4567
vn -0.7865 0.4126 0.4596
vn -0.8356 0.1968 0.5128
vn -0.9082 -0.1366 0.3957
vn -0.8506 -0.3296 0.4097
vn -0.9379 0.0452 0.3441
vn -0.7838 -0.4511 0.4268
vn -0.6177 0.4264 0.6608
vn -0.8477 -0.1836 0.4977
vn -0.8984 -0.0714 0.4334
vn -0.6392 0.5866 0.4973
vn -0.6073 0.3936 0.6901
vn -0.7584 0.2442 0.6043
vn -0.8639 0.1883 0.4672
vn -0.7094 0.3378 0.6186
vn -0.5696 0.5165 0.6393
vn -0.9079 0.0761 0.4122
vn -0.8051 -0.3961 0.4415
vn -0.6655 0.5254 0.5301
vn -0.8222 -0.3806 0.4233
vn -0.8359 0.1689 0.5222
vn -0.8977 -0.1823 0.4011
vn -0.8608 0.0559 0.5059
vn -0.8278 -0.3729 0.4191
usemtl 727711f0-eee6-4e8a-89e6-3bad19915fae
g 091_W_Aya_100K_01
f 4/11/7 6/36/7 2/66/7
usemtl 727711f0-eee6-4e8a-89e6-3bad19915fae
g 091_W_Aya_100K_01
f 7/32/1 23/26/1 21/33/1
usemtl 727711f0-eee6-4e8a-89e6-3bad19915fae
g 091_W_Aya_100K_01
f 17/44/2 6/36/2 11/64/2
usemtl 727711f0-eee6-4e8a-89e6-3bad19915fae
g 091_W_Aya_100K_01
f 9/10/8 16/60/8 13/25/8
usemtl 727711f0-eee6-4e8a-89e6-3bad19915fae
g 091_W_Aya_100K_01
f 17/44/2 2/66/2 6/36/2
usemtl 727711f0-eee6-4e8a-89e6-3bad19915fae
g 091_W_Aya_100K_01
f 25/56/10 1/78/10 12/16/10
usemtl 727711f0-eee6-4e8a-89e6-3bad19915fae
g 091_W_Aya_100K_01
f 25/56/10 10/41/10 1/78/10
usemtl 727711f0-eee6-4e8a-89e6-3bad19915fae
g 091_W_Aya_100K_01
f 24/50/9 22/18/9 14/13/9
usemtl 727711f0-eee6-4e8a-89e6-3bad19915fae
g 091_W_Aya_100K_01
f 3/89/6 5/49/6 19/80/6
usemtl 727711f0-eee6-4e8a-89e6-3bad19915fae
g 091_W_Aya_100K_01
f 24/50/5 15/86/5 20/6/5
usemtl 727711f0-eee6-4e8a-89e6-3bad19915fae
g 091_W_Aya_100K_01
f 18/57/4 21/33/4 23/85/4
usemtl 727711f0-eee6-4e8a-89e6-3bad19915fae
g 091_W_Aya_100K_01
f 25/56/3 12/16/3 8/65/3
usemtl 727711f0-eee6-4e8a-89e6-3bad19915fae
g 091_W_Aya_100K_01
f 24/50/9 20/6/9 22/18/9
usemtl 727711f0-eee6-4e8a-89e6-3bad19915fae
g 091_W_Aya_100K_01
f 28/77/12 26/44/12 30/64/12
usemtl 727711f0-eee6-4e8a-89e6-3bad19915fae
g 091_W_Aya_100K_01
f 28/77/11 29/75/11 27/5/11
usemtl 727711f0-eee6-4e8a-89e6-3bad19915fae
g 091_W_Aya_100K_01
f 28/77/11 30/64/11 29/75/11
usemtl 727711f0-eee6-4e8a-89e6-3bad19915fae
g 091_W_Aya_100K_01
f 40/51/41 78/47/41 53/64/41
usemtl 727711f0-eee6-4e8a-89e6-3bad19915fae
g 091_W_Aya_100K_01
f 43/24/31 80/83/31 31/19/31
usemtl 727711f0-eee6-4e8a-89e6-3bad19915fae
g 091_W_Aya_100K_01
f 55/16/55 81/22/55 67/14/55
usemtl 727711f0-eee6-4e8a-89e6-3bad19915fae
g 091_W_Aya_100K_01
f 43/24/31 31/19/31 82/42/31
usemtl 727711f0-eee6-4e8a-89e6-3bad19915fae
g 091_W_Aya_100K_01
f 80/83/42 72/71/42 31/58/42
usemtl 727711f0-eee6-4e8a-89e6-3bad19915fae
g 091_W_Aya_100K_01
f 35/21/52 56/82/52 60/38/52
usemtl 727711f0-eee6-4e8a-89e6-3bad19915fae
g 091_W_Aya_100K_01
f 86/18/40 71/31/40 61/13/40
usemtl 727711f0-eee6-4e8a-89e6-3bad19915fae
g 091_W_Aya_100K_01
f 69/60/20 66/29/20 80/83/20
usemtl 727711f0-eee6-4e8a-89e6-3bad19915fae
g 091_W_Aya_100K_01
f 60/79/23 48/1/23 35/21/23
usemtl 727711f0-eee6-4e8a-89e6-3bad19915fae
g 091_W_Aya_100K_01
f 68/55/51 33/78/51 52/12/51
usemtl 727711f0-eee6-4e8a-89e6-3bad19915fae
g 091_W_Aya_100K_01
f 48/1/44 64/30/44 35/21/44
usemtl 727711f0-eee6-4e8a-89e6-3bad19915fae
g 091_W_Aya_100K_01
f 64/30/35 42/39/35 54/72/35
usemtl 727711f0-eee6-4e8a-89e6-3bad19915fae
g 091_W_Aya_100K_01
f 84/45/27 42/39/27 74/80/27
usemtl 727711f0-eee6-4e8a-89e6-3bad19915fae
g 091_W_Aya_100K_01
f 66/29/37 69/60/37 50/10/37
usemtl 727711f0-eee6-4e8a-89e6-3bad19915fae
g 091_W_Aya_100K_01
f 35/21/19 77/53/19 56/46/19
usemtl 727711f0-eee6-4e8a-89e6-3bad19915fae
g 091_W_Aya_100K_01
f 76/59/45 45/36/45 64/30/45
usemtl 727711f0-eee6-4e8a-89e6-3bad19915fae
g 091_W_Aya_100K_01
f 66/29/37 50/10/37 81/22/37
usemtl 727711f0-eee6-4e8a-89e6-3bad19915fae
g 091_W_Aya_100K_01
f 85/33/48 64/30/48 45/36/48
usemtl 727711f0-eee6-4e8a-89e6-3bad19915fae
g 091_W_Aya_100K_01
f 33/78/38 65/43/38 66/29/38
usemtl 727711f0-eee6-4e8a-89e6-3bad19915fae
g 091_W_Aya_100K_01
f 77/28/13 54/72/13 62/63/13
usemtl 727711f0-eee6-4e8a-89e6-3bad19915fae
g 091_W_Aya_100K_01
f 45/36/30 37/2/30 46/23/30
usemtl 727711f0-eee6-4e8a-89e6-3bad19915fae
g 091_W_Aya_100K_01
f 68/55/57 34/70/57 63/8/57
usemtl 727711f0-eee6-4e8a-89e6-3bad19915fae
g 091_W_Aya_100K_01
f 84/45/25 54/72/25 42/39/25
usemtl 727711f0-eee6-4e8a-89e6-3bad19915fae
g 091_W_Aya_100K_01
f 69/60/39 38/3/39 59/4/39
usemtl 727711f0-eee6-4e8a-89e6-3bad19915fae
g 091_W_Aya_100K_01
f 69/60/43 80/83/43 43/24/43
usemtl 727711f0-eee6-4e8a-89e6-3bad19915fae
g 091_W_Aya_100K_01
f 84/45/50 69/60/50 43/24/50
usemtl 727711f0-eee6-4e8a-89e6-3bad19915fae
g 091_W_Aya_100K_01
f 74/80/21 39/61/21 36/74/21
usemtl 727711f0-eee6-4e8a-89e6-3bad19915fae
g 091_W_Aya_100K_01
f 45/36/14 76/59/14 41/34/14
usemtl 727711f0-eee6-4e8a-89e6-3bad19915fae
g 091_W_Aya_100K_01
f 32/48/17 72/71/17 80/83/17
usemtl 727711f0-eee6-4e8a-89e6-3bad19915fae
g 091_W_Aya_100K_01
f 51/81/49 53/64/49 78/88/49
usemtl 727711f0-eee6-4e8a-89e6-3bad19915fae
g 091_W_Aya_100K_01
f 54/72/18 35/21/18 64/30/18
usemtl 727711f0-eee6-4e8a-89e6-3bad19915fae
g 091_W_Aya_100K_01
f 68/55/53 79/15/53 34/70/53
usemtl 727711f0-eee6-4e8a-89e6-3bad19915fae
g 091_W_Aya_100K_01
f 43/24/36 58/40/36 62/63/36
usemtl 727711f0-eee6-4e8a-89e6-3bad19915fae
g 091_W_Aya_100K_01
f 86/18/40 68/55/40 71/31/40
usemtl 727711f0-eee6-4e8a-89e6-3bad19915fae
g 091_W_Aya_100K_01
f 43/24/36 62/63/36 54/72/36
usemtl 727711f0-eee6-4e8a-89e6-3bad19915fae
g 091_W_Aya_100K_01
f 42/39/56 57/73/56 39/17/56
usemtl 727711f0-eee6-4e8a-89e6-3bad19915fae
g 091_W_Aya_100K_01
f 49/69/33 76/59/33 70/9/33
usemtl 727711f0-eee6-4e8a-89e6-3bad19915fae
g 091_W_Aya_100K_01
f 68/55/51 52/12/51 71/31/51
usemtl 727711f0-eee6-4e8a-89e6-3bad19915fae
g 091_W_Aya_100K_01
f 44/67/28 79/84/28 68/55/28
usemtl 727711f0-eee6-4e8a-89e6-3bad19915fae
g 091_W_Aya_100K_01
f 35/21/19 54/72/19 77/53/19
usemtl 727711f0-eee6-4e8a-89e6-3bad19915fae
g 091_W_Aya_100K_01
f 86/18/40 44/67/40 68/55/40
usemtl 727711f0-eee6-4e8a-89e6-3bad19915fae
g 091_W_Aya_100K_01
f 64/30/46 85/33/46 42/39/46
usemtl 727711f0-eee6-4e8a-89e6-3bad19915fae
g 091_W_Aya_100K_01
f 48/1/44 83/37/44 64/30/44
usemtl 727711f0-eee6-4e8a-89e6-3bad19915fae
g 091_W_Aya_100K_01
f 43/24/22 82/62/22 58/40/22
usemtl 727711f0-eee6-4e8a-89e6-3bad19915fae
g 091_W_Aya_100K_01
f 33/78/38 63/68/38 65/43/38
usemtl 727711f0-eee6-4e8a-89e6-3bad19915fae
g 091_W_Aya_100K_01
f 68/55/57 63/8/57 33/78/57
usemtl 727711f0-eee6-4e8a-89e6-3bad19915fae
g 091_W_Aya_100K_01
f 55/16/55 66/29/55 81/22/55
usemtl 727711f0-eee6-4e8a-89e6-3bad19915fae
g 091_W_Aya_100K_01
f 76/59/15 64/30/15 83/76/15
usemtl 727711f0-eee6-4e8a-89e6-3bad19915fae
g 091_W_Aya_100K_01
f 42/39/56 39/17/56 74/80/56
usemtl 727711f0-eee6-4e8a-89e6-3bad19915fae
g 091_W_Aya_100K_01
f 84/45/47 43/24/47 54/72/47
usemtl 727711f0-eee6-4e8a-89e6-3bad19915fae
g 091_W_Aya_100K_01
f 75/35/24 41/34/24 76/59/24
usemtl 727711f0-eee6-4e8a-89e6-3bad19915fae
g 091_W_Aya_100K_01
f 69/60/39 74/80/39 38/3/39
usemtl 727711f0-eee6-4e8a-89e6-3bad19915fae
g 091_W_Aya_100K_01
f 55/16/34 33/78/34 66/29/34
usemtl 727711f0-eee6-4e8a-89e6-3bad19915fae
g 091_W_Aya_100K_01
f 76/59/15 83/76/15 70/87/15
usemtl 727711f0-eee6-4e8a-89e6-3bad19915fae
g 091_W_Aya_100K_01
f 45/36/14 41/34/14 40/20/14
usemtl 727711f0-eee6-4e8a-89e6-3bad19915fae
g 091_W_Aya_100K_01
f 69/60/32 84/45/32 74/80/32
usemtl 727711f0-eee6-4e8a-89e6-3bad19915fae
g 091_W_Aya_100K_01
f 65/54/26 32/7/26 80/83/26
usemtl 727711f0-eee6-4e8a-89e6-3bad19915fae
g 091_W_Aya_100K_01
f 65/54/26 80/83/26 66/29/26
usemtl 727711f0-eee6-4e8a-89e6-3bad19915fae
g 091_W_Aya_100K_01
f 40/51/41 53/64/41 45/36/41
usemtl 727711f0-eee6-4e8a-89e6-3bad19915fae
g 091_W_Aya_100K_01
f 75/27/29 76/59/29 49/52/29
usemtl 727711f0-eee6-4e8a-89e6-3bad19915fae
g 091_W_Aya_100K_01
f 45/36/30 46/23/30 85/33/30
usemtl 727711f0-eee6-4e8a-89e6-3bad19915fae
g 091_W_Aya_100K_01
f 42/39/54 85/33/54 73/57/54
usemtl 727711f0-eee6-4e8a-89e6-3bad19915fae
g 091_W_Aya_100K_01
f 42/39/54 73/57/54 57/73/54
usemtl 727711f0-eee6-4e8a-89e6-3bad19915fae
g 091_W_Aya_100K_01
f 55/16/16 67/14/16 47/65/16
