mtllib 126.mtl
v -154.4897 1015.996 21.6732
v -153.3613 1011.1091 24.1487
v -154.877 1013.4308 28.9868
v -153.9983 1011.871 28.6684
v -155.7864 1013.3824 20.8539
v -155.9219 1014.1608 23.5407
v -155.426 1013.9169 25.7709
v -154.9241 1012.338 21.0165
v -154.2156 1015.4861 24.4989
v -152.978 1013.4652 16.0583
v -155.5791 1012.5509 24.3529
v -153.1982 1011.9972 19.5303
v -155.665 1014.3749 20.3505
v -154.6375 1014.807 27.1991
v -150.86850850000002 1016.2749957681459 15.844991533977389
v -150.86850850000002 1010.936340356335 26.09598023151322
v -150.86850850000002 1015.9067525533121 29.157067979569536
v -150.86850850000002 1013.2340465174918 14.94700114435186
v -150.86850850000002 1017.634347193597 20.657056411963765
v -150.86850850000002 1016.697966148064 27.468885641928928
v -153.9983 1011.871 28.6684
v -150.86850850000002 1017.100189410014 17.322246720625344
v -150.86850850000002 1010.9583519244472 28.432751784128396
v -152.8716 1014.5629 15.7034
v -150.86850850000002 1011.1222206000289 21.890255968100437
v -150.86850850000002 1014.5029521687994 13.947140448078772
v -154.877 1013.4308 28.9868
v -152.0979 1016.9018 25.8433
v -155.426 1013.9169 25.7709
v -152.771 1015.8899 28.2374
v -155.5791 1012.5509 24.3529
v -153.1982 1011.9972 19.5303
v -154.6375 1014.807 27.1991
v -154.4897 1015.996 21.6732
v -153.3613 1011.1091 24.1487
v -153.25 1013.8626 30.7078
v -153.3586 1015.7943 17.8384
v -155.9219 1014.1608 23.5407
v -150.86850850000002 1017.4084681749184 25.455419171491897
v -150.86850850000002 1013.4784693027491 14.397261787353429
v -150.86850850000002 1015.3783473408604 14.519006073839957
v -150.86850850000002 1013.685482641859 14.346100656338608
v -155.665 1014.3749 20.3505
v -150.86850850000002 1015.9092476902238 29.1521467341922
v -150.86850850000002 1017.0310100117395 17.168137816659506
v -150.86850850000002 1017.3538737133285 22.60421628609715
v -150.8813 1015.9019 29.1614
v -150.86850850000002 1011.0319810749736 25.093420009790645
v -150.86850850000002 1017.4060989160371 22.36935976406166
v -154.2156 1015.4861 24.4989
v -150.86850850000002 1017.4009532378338 23.115969522708127
v -152.978 1013.4652 16.0583
v -150.86850850000002 1010.9793759560883 22.610021621920062
v -150.86850850000002 1016.0850626693134 15.432048148762277
v -150.86850850000002 1016.8141581599017 27.220746561692433
v -150.86850850000002 1017.6343322263866 19.741578586785405
v -150.86850850000002 1015.9067525533121 29.157067979569536
v -150.86850850000002 1015.2008921500385 30.458067999532137
v -153.3613 1011.1091 24.1487
v -154.877 1013.4308 28.9868
v -153.25 1013.8626 30.7078
v -153.9983 1011.871 28.6684
v -150.86850850000002 1011.0885726245644 29.4434475322382
v -150.8813 1015.9019 29.1614
v -150.86850850000002 1014.3836074215756 31.53603288320589
v -155.426 1013.9169 25.7709
v -150.86850850000002 1011.2503049750372 29.984341381981285
v -150.86850850000002 1012.8469937380935 31.787702930051413
v -152.595 1012.0883 30.9159
v -150.86850850000002 1010.9583519244472 28.432751784128396
v -155.5791 1012.5509 24.3529
v -150.86850850000002 1015.9053762017702 29.166862228384687
v -150.86850850000002 1011.9379793201076 31.18209383394038
v -150.86850850000002 1013.4380775965583 31.822857921054982
v -154.6375 1014.807 27.1991
vt 0.41394011195106856 0.5370225874383152
vt 0.18631940214154852 0.46541262757386015
vt 0.193168890006649 0.4359945858296792
vt 0.45556109580185006 0.38299804172912544
vt 0.49473915464249957 0.4386703785958038
vt 0.4555610958018413 0.38299804172911667
vt 0.1670596173935814 0.6648174313909037
vt 0.4116703946471043 0.3491369650094156
vt 0.40601005161042203 0.7987145786796861
vt 0.2553389051381203 0.410141621987962
vt 0.1986137569254292 0.4214866516305037
vt 0.15624999999999706 0.6488143287694599
vt 0.2502367281340878 0.35911985194766405
vt 0.3822198705884824 0.410141621987962
vt 0.5145448161830439 0.4886619175043425
vt 0.17410538275523962 0.5322188520113963
vt 0.5255741012284613 0.7036024658150732
vt 0.4740262084611983 0.7808155900347421
vt 0.4060100516104308 0.8203971291340032
vt 0.36649549747070076 0.33836383623153843
vt 0.3265573571296417 0.3315254284158745
vt 0.1931688900066578 0.4359945858296792
vt 0.49473915464249957 0.4386703785958126
vt 0.5010413071840565 0.44992139220532723
vt 0.40601005161042203 0.820397129134012
vt 0.36623505227542563 0.33835542014961206
vt 0.22600511093341893 0.3808078277832694
vt 0.2870591465007064 0.7114839149325654
vt 0.29184900427124333 0.33571043026737957
vt 0.3822198705884824 0.6718336132293239
vt 0.5134625028851921 0.6157386736380135
vt 0.35049962922588745 0.6559734925480308
vt 0.5165686228871886 0.6242477580337771
vt 0.3609746302901051 0.8437500000000029
vt 0.5134625028852009 0.6157386736380135
vt 0.3666670078431805 0.3383870065021366
vt 0.531249999999997 0.5123983794724036
vt 0.49788069764595727 0.7433841435266448
vt 0.41854460347588307 0.3511139310459238
vt 0.5145448161830439 0.4886619175043513
vt 0.3425695688852409 0.5370225874383152
vt 0.3664954974707096 0.3383638362315472
vt 0.15625000000000586 0.6488143287694599
vt 0.43773029297300814 0.7273440356138584
vt 0.3265573571296329 0.3315254284158745
vt 0.3666670078431629 0.33838700650211906
vt 0.17410538275524845 0.5322188520113963
vt 0.36635974990718057 0.5925330098228586
vt 0.3399267789805913 0.8304360880122932
vt 0.3108493275226548 0.6639035528886774
vt 0.1650963930706996 0.5624113463789295
vt 0.36635974990718057 0.7828544579983929
vt 0.5165686228871798 0.6242477580337946
vt 0.36635974990718057 0.48944222539443616
vt 0.2502367281340967 0.35911985194766405
vt 0.41167039464709554 0.34913696500939806
vt 0.5255741012284613 0.7036024658150909
vt 0.31877938786330134 0.473582104713143
vt 0.43773029297300814 0.42600174266925506
vt 0.3108493275226548 0.4022115616473154
vt 0.5028528849512717 0.45623215085195523
vt 0.26559322568767246 0.3512984470829559
vt 0.22361866377553416 0.6083931305041517
vt 0.4298002326323616 0.6242532511854447
vt 0.18631940214153972 0.46541262757386015
vt 0.27119902581941335 0.48151216505378946
vt 0.3108493275226548 0.5846029494822033
vt 0.36635974990718057 0.3387710789221343
vt 0.1670596173935902 0.6648174313909037
vt 0.26559322568766364 0.3512984470829559
vt 0.3662350522754168 0.33835542014961206
vt 0.4740262084611983 0.7808155900347509
vt 0.35336883984809875 0.8413135532642655
vn -0.4748 -0.7994 -0.3681
vn -0.3443 -0.9196 -0.189
vn -0.9937 0.0838 -0.0744
vn -0.6732 -0.6188 -0.4049
vn -0.7584 -0.6429 -0.1079
vn -0.6675 0.7188 0.1945
vn -0.5478 -0.8349 -0.0543
vn -0.9732 -0.1038 0.205
vn -0.7766 0.6289 0.0368
vn -0.852 -0.1502 -0.5015
vn -0.979 -0.2036 0.0096
vn -0.8292 -0.5126 0.223
vn -0.5397 -0.8393 0.0654
vn -0.7999 0.5996 -0.0241
vn -0.5645 0.6528 -0.5052
vn -0.1688 -0.9668 -0.1919
vn -0.8525 -0.0841 -0.5159
vn -0.3805 0.9167 0.1222
vn -0.4918 0.756 -0.432
vn -0.2785 0.9103 0.3064
vn -0.5984 0.7942 0.1062
vn -0.6837 0.6899 -0.238
vn -0.4542 0.8094 -0.3722
vn -0.2997 -0.8717 -0.3876
vn -0.3818 0.9242 -0.003
vn -0.5831 0.4443 -0.6802
vn -0.1821 0.877 0.4446
vn -0.6065 -0.1908 -0.7718
vn -0.4908 0.7948 -0.3569
vn -0.4865 0.8531 -0.1884
vn 0.0052 -0.9955 -0.095
vn -0.2856 0.7672 0.5742
vn -0.0389 -0.999 0.0212
vn -0.6213 0.6605 0.4216
vn -0.7675 0.4638 -0.4426
vn -0.5192 0.851 -0.0783
vn -0.6252 -0.3423 -0.7014
vn -0.0644 -0.9547 -0.2904
vn -0.0764 -0.997 0.0094
vn -0.5668 0.8039 0.1804
vn -0.4122 0.9111 -0.0
vn -0.2087 0.8857 0.4147
vn -0.3887 0.8994 0.2
vn -0.6194 0.66 0.4251
vn -0.2085 0.8856 0.415
vn -0.6737 0.7034 0.2267
vn -0.4313 -0.0536 0.9006
vn -0.4051 0.8026 0.4379
vn -0.3684 0.2699 0.8896
vn -0.1505 -0.8573 0.4922
vn -0.2965 -0.915 0.2736
vn -0.6934 -0.174 0.6992
vn -0.8762 0.4315 0.2148
vn -0.3121 0.9408 0.1322
vn -0.1739 -0.546 0.8195
vn -0.2693 -0.9552 0.1231
vn -0.7114 -0.5013 0.4926
vn -0.9856 -0.0555 0.1599
vn -0.3588 0.7438 0.5639
usemtl 38c3b3a6-3002-410d-8173-2867a5fcd6b0
g 091_W_Aya_100K_01
f 6/48/6 9/1/6 1/64/6
usemtl 38c3b3a6-3002-410d-8173-2867a5fcd6b0
g 091_W_Aya_100K_01
f 11/67/7 8/50/7 2/63/7
usemtl 38c3b3a6-3002-410d-8173-2867a5fcd6b0
g 091_W_Aya_100K_01
f 8/50/2 12/28/2 2/63/2
usemtl 38c3b3a6-3002-410d-8173-2867a5fcd6b0
g 091_W_Aya_100K_01
f 5/32/4 10/52/4 8/50/4
usemtl 38c3b3a6-3002-410d-8173-2867a5fcd6b0
g 091_W_Aya_100K_01
f 5/32/10 13/30/10 10/52/10
usemtl 38c3b3a6-3002-410d-8173-2867a5fcd6b0
g 091_W_Aya_100K_01
f 8/50/5 11/67/5 5/32/5
usemtl 38c3b3a6-3002-410d-8173-2867a5fcd6b0
g 091_W_Aya_100K_01
f 11/67/12 4/66/12 3/58/12
usemtl 38c3b3a6-3002-410d-8173-2867a5fcd6b0
g 091_W_Aya_100K_01
f 11/67/8 7/41/8 6/48/8
usemtl 38c3b3a6-3002-410d-8173-2867a5fcd6b0
g 091_W_Aya_100K_01
f 5/32/11 11/67/11 6/48/11
usemtl 38c3b3a6-3002-410d-8173-2867a5fcd6b0
g 091_W_Aya_100K_01
f 8/50/1 10/52/1 12/28/1
usemtl 38c3b3a6-3002-410d-8173-2867a5fcd6b0
g 091_W_Aya_100K_01
f 6/48/3 13/30/3 5/32/3
usemtl 38c3b3a6-3002-410d-8173-2867a5fcd6b0
g 091_W_Aya_100K_01
f 7/41/9 14/54/9 9/1/9
usemtl 38c3b3a6-3002-410d-8173-2867a5fcd6b0
g 091_W_Aya_100K_01
f 44/36/27 47/68/27 17/42/27
usemtl 38c3b3a6-3002-410d-8173-2867a5fcd6b0
g 091_W_Aya_100K_01
f 56/37/30 37/44/30 34/64/30
usemtl 38c3b3a6-3002-410d-8173-2867a5fcd6b0
g 091_W_Aya_100K_01
f 40/73/24 18/49/24 32/28/24
usemtl 38c3b3a6-3002-410d-8173-2867a5fcd6b0
g 091_W_Aya_100K_01
f 25/69/16 35/63/16 32/28/16
usemtl 38c3b3a6-3002-410d-8173-2867a5fcd6b0
g 091_W_Aya_100K_01
f 30/14/44 33/54/44 27/58/44
usemtl 38c3b3a6-3002-410d-8173-2867a5fcd6b0
g 091_W_Aya_100K_01
f 30/14/40 28/59/40 33/54/40
usemtl 38c3b3a6-3002-410d-8173-2867a5fcd6b0
g 091_W_Aya_100K_01
f 28/59/36 46/24/36 50/1/36
usemtl 38c3b3a6-3002-410d-8173-2867a5fcd6b0
g 091_W_Aya_100K_01
f 30/14/34 27/58/34 36/60/34
usemtl 38c3b3a6-3002-410d-8173-2867a5fcd6b0
g 091_W_Aya_100K_01
f 44/46/45 30/14/45 47/68/45
usemtl 38c3b3a6-3002-410d-8173-2867a5fcd6b0
g 091_W_Aya_100K_01
f 28/59/36 51/23/36 46/24/36
usemtl 38c3b3a6-3002-410d-8173-2867a5fcd6b0
g 091_W_Aya_100K_01
f 42/34/28 52/52/28 24/9/28
usemtl 38c3b3a6-3002-410d-8173-2867a5fcd6b0
g 091_W_Aya_100K_01
f 34/64/18 49/61/18 19/40/18
usemtl 38c3b3a6-3002-410d-8173-2867a5fcd6b0
g 091_W_Aya_100K_01
f 44/46/45 20/8/45 30/14/45
usemtl 38c3b3a6-3002-410d-8173-2867a5fcd6b0
g 091_W_Aya_100K_01
f 34/64/43 46/24/43 49/61/43
usemtl 38c3b3a6-3002-410d-8173-2867a5fcd6b0
g 091_W_Aya_100K_01
f 34/64/43 50/1/43 46/24/43
usemtl 38c3b3a6-3002-410d-8173-2867a5fcd6b0
g 091_W_Aya_100K_01
f 34/64/14 43/30/14 38/48/14
usemtl 38c3b3a6-3002-410d-8173-2867a5fcd6b0
g 091_W_Aya_100K_01
f 24/9/26 41/18/26 26/19/26
usemtl 38c3b3a6-3002-410d-8173-2867a5fcd6b0
g 091_W_Aya_100K_01
f 42/34/37 24/9/37 26/25/37
usemtl 38c3b3a6-3002-410d-8173-2867a5fcd6b0
g 091_W_Aya_100K_01
f 48/51/33 35/63/33 53/12/33
usemtl 38c3b3a6-3002-410d-8173-2867a5fcd6b0
g 091_W_Aya_100K_01
f 30/14/32 36/60/32 47/68/32
usemtl 38c3b3a6-3002-410d-8173-2867a5fcd6b0
g 091_W_Aya_100K_01
f 50/1/46 38/48/46 29/41/46
usemtl 38c3b3a6-3002-410d-8173-2867a5fcd6b0
g 091_W_Aya_100K_01
f 56/37/41 34/64/41 19/15/41
usemtl 38c3b3a6-3002-410d-8173-2867a5fcd6b0
g 091_W_Aya_100K_01
f 40/73/24 32/28/24 52/52/24
usemtl 38c3b3a6-3002-410d-8173-2867a5fcd6b0
g 091_W_Aya_100K_01
f 30/14/42 20/56/42 55/39/42
usemtl 38c3b3a6-3002-410d-8173-2867a5fcd6b0
g 091_W_Aya_100K_01
f 42/34/28 40/73/28 52/52/28
usemtl 38c3b3a6-3002-410d-8173-2867a5fcd6b0
g 091_W_Aya_100K_01
f 28/59/20 30/14/20 55/39/20
usemtl 38c3b3a6-3002-410d-8173-2867a5fcd6b0
g 091_W_Aya_100K_01
f 15/17/19 37/44/19 45/53/19
usemtl 38c3b3a6-3002-410d-8173-2867a5fcd6b0
g 091_W_Aya_100K_01
f 35/63/13 21/66/13 31/67/13
usemtl 38c3b3a6-3002-410d-8173-2867a5fcd6b0
g 091_W_Aya_100K_01
f 25/7/38 32/28/38 18/49/38
usemtl 38c3b3a6-3002-410d-8173-2867a5fcd6b0
g 091_W_Aya_100K_01
f 16/47/39 23/2/39 35/63/39
usemtl 38c3b3a6-3002-410d-8173-2867a5fcd6b0
g 091_W_Aya_100K_01
f 16/16/31 35/63/31 48/51/31
usemtl 38c3b3a6-3002-410d-8173-2867a5fcd6b0
g 091_W_Aya_100K_01
f 37/44/35 24/9/35 43/30/35
usemtl 38c3b3a6-3002-410d-8173-2867a5fcd6b0
g 091_W_Aya_100K_01
f 37/44/29 22/31/29 45/33/29
usemtl 38c3b3a6-3002-410d-8173-2867a5fcd6b0
g 091_W_Aya_100K_01
f 15/57/23 54/38/23 37/44/23
usemtl 38c3b3a6-3002-410d-8173-2867a5fcd6b0
g 091_W_Aya_100K_01
f 24/9/17 52/52/17 43/30/17
usemtl 38c3b3a6-3002-410d-8173-2867a5fcd6b0
g 091_W_Aya_100K_01
f 54/38/15 41/72/15 24/9/15
usemtl 38c3b3a6-3002-410d-8173-2867a5fcd6b0
g 091_W_Aya_100K_01
f 37/44/22 43/30/22 34/64/22
usemtl 38c3b3a6-3002-410d-8173-2867a5fcd6b0
g 091_W_Aya_100K_01
f 28/59/25 39/4/25 51/5/25
usemtl 38c3b3a6-3002-410d-8173-2867a5fcd6b0
g 091_W_Aya_100K_01
f 56/37/30 22/35/30 37/44/30
usemtl 38c3b3a6-3002-410d-8173-2867a5fcd6b0
g 091_W_Aya_100K_01
f 54/38/15 24/9/15 37/44/15
usemtl 38c3b3a6-3002-410d-8173-2867a5fcd6b0
g 091_W_Aya_100K_01
f 25/69/16 53/43/16 35/63/16
usemtl 38c3b3a6-3002-410d-8173-2867a5fcd6b0
g 091_W_Aya_100K_01
f 28/59/20 55/39/20 39/6/20
usemtl 38c3b3a6-3002-410d-8173-2867a5fcd6b0
g 091_W_Aya_100K_01
f 28/59/21 50/1/21 33/54/21
usemtl 38c3b3a6-3002-410d-8173-2867a5fcd6b0
g 091_W_Aya_100K_01
f 64/68/48 61/60/48 58/21/48
usemtl 38c3b3a6-3002-410d-8173-2867a5fcd6b0
g 091_W_Aya_100K_01
f 61/60/59 65/29/59 58/45/59
usemtl 38c3b3a6-3002-410d-8173-2867a5fcd6b0
g 091_W_Aya_100K_01
f 61/60/47 69/10/47 68/55/47
usemtl 38c3b3a6-3002-410d-8173-2867a5fcd6b0
g 091_W_Aya_100K_01
f 62/66/51 67/11/51 69/10/51
usemtl 38c3b3a6-3002-410d-8173-2867a5fcd6b0
g 091_W_Aya_100K_01
f 60/58/58 66/41/58 71/67/58
usemtl 38c3b3a6-3002-410d-8173-2867a5fcd6b0
g 091_W_Aya_100K_01
f 64/68/54 72/71/54 57/20/54
usemtl 38c3b3a6-3002-410d-8173-2867a5fcd6b0
g 091_W_Aya_100K_01
f 62/66/51 63/3/51 67/11/51
usemtl 38c3b3a6-3002-410d-8173-2867a5fcd6b0
g 091_W_Aya_100K_01
f 64/68/48 58/21/48 72/26/48
usemtl 38c3b3a6-3002-410d-8173-2867a5fcd6b0
g 091_W_Aya_100K_01
f 62/66/57 69/10/57 60/58/57
usemtl 38c3b3a6-3002-410d-8173-2867a5fcd6b0
g 091_W_Aya_100K_01
f 70/65/56 62/66/56 59/63/56
usemtl 38c3b3a6-3002-410d-8173-2867a5fcd6b0
g 091_W_Aya_100K_01
f 61/60/47 68/55/47 74/62/47
usemtl 38c3b3a6-3002-410d-8173-2867a5fcd6b0
g 091_W_Aya_100K_01
f 61/60/52 60/58/52 69/10/52
usemtl 38c3b3a6-3002-410d-8173-2867a5fcd6b0
g 091_W_Aya_100K_01
f 60/58/53 75/54/53 66/41/53
usemtl 38c3b3a6-3002-410d-8173-2867a5fcd6b0
g 091_W_Aya_100K_01
f 70/65/56 63/22/56 62/66/56
usemtl 38c3b3a6-3002-410d-8173-2867a5fcd6b0
g 091_W_Aya_100K_01
f 65/29/49 61/60/49 74/70/49
usemtl 38c3b3a6-3002-410d-8173-2867a5fcd6b0
g 091_W_Aya_100K_01
f 67/11/50 73/27/50 69/10/50
usemtl 38c3b3a6-3002-410d-8173-2867a5fcd6b0
g 091_W_Aya_100K_01
f 68/13/55 69/10/55 73/27/55
