mtllib 128.mtl
v -150.86850850000005 1161.6324254326291 -26.267138314749506
v -150.86850850000005 1165.0976754387793 -24.51354084342346
v -150.9968 1163.1785 -26.0959
v -150.86850850000005 1161.913705611085 -26.087849283740884
v -151.3853 1164.3137 -29.9894
v -150.86850850000005 1160.3934492541723 -29.85544100264853
v -150.86850850000005 1161.482702470032 -29.155309378940238
v -150.86850850000005 1162.295269354462 -26.482409944050865
v -151.0969 1170.1382 -27.3147
v -151.26521309725456 1172.638434 -28.407722435227722
v -150.86850850000005 1161.6324254326291 -26.267138314749506
v -150.86850850000005 1165.0976754387793 -24.51354084342346
v -151.3115 1166.3752 -31.8175
v -150.86850850000005 1171.3290763287291 -32.67228563916875
v -150.9968 1163.1785 -26.0959
v -151.4466241049237 1172.638434 -24.916431375727193
v -150.86850850000005 1166.4075281732494 -32.55883579247523
v -151.12603737580415 1172.638434 -27.239433273104996
v -151.64663473344697 1172.638434 -29.883298950057988
v -150.86850850000005 1157.321205445345 -31.300897520242962
v -151.31716298094554 1172.638434 -26.75106596839673
v -150.86850850000005 1161.0102814520828 -32.56330021413997
v -151.14915497066326 1172.638434 -28.122176972136693
v -150.86850850000005 1167.956246096597 -28.155109224235733
v -151.3853 1164.3137 -29.9894
v -151.41769402076878 1172.638434 -24.718948181951927
v -150.86850850000005 1167.2352595620548 -23.575122470107054
v -151.3943 1171.6653 -24.6624
v -150.86850850000005 1161.482702470032 -29.155309378940238
v -150.86850850000005 1172.638434 -23.445448433369513
v -151.66126922168164 1172.638434 -29.68738031476403
v -150.86850850000005 1166.7891946553784 -27.572019390025996
v -151.41197584646338 1172.638434 -31.50730418216313
v -150.86850850000005 1156.6254301304728 -30.92782058326835
v -151.46339055326806 1172.638434 -25.9564805119717
v -150.86850850000005 1172.638434 -32.65166725453279
v -150.86850850000005 1160.3934492541723 -29.85544100264853
v -151.18666682932354 1172.638434 -27.805092863897144
v -151.29350027096532 1172.638434 -24.41022019446075
vt 0.3898978101098175 0.12315689870072566
vt 0.38721728604713734 0.6071340478613557
vt 0.6760230813317909 0.7369665876626409
vt 0.4466912501769133 0.3627557644541154
vt 0.6933900977024773 0.42343036086814945
vt 0.4828252954786463 0.1213156446339394
vt 0.2874322754665477 0.1278717352957035
vt 0.17498964316238752 0.13034563024214707
vt 0.828125000000001 0.6893545101395757
vt 0.1728963178884005 0.178492111543882
vt 0.580920161993014 0.11536053696829174
vt 0.37146773317224463 0.12504945071933382
vt 0.5809201619929913 0.11536053696829174
vt 0.3898978101098062 0.12315689870072566
vt 0.7447016980105808 0.4182992008373482
vt 0.07812500000000094 0.1304278765610738
vt 0.14219688841198533 0.12937302438162002
vt 0.2561072687717221 0.5117813080246982
vt 0.4466912501769246 0.3627557644541267
vt 0.6558997514209025 0.11135844787830862
vt 0.828125000000001 0.689354510139587
vt 0.4261628363113504 0.6516432481633134
vt 0.6765141548016002 0.17591653165520182
vt 0.2561072687717221 0.5117813080246869
vt 0.17498964316238752 0.13034563024212442
vt 0.16258298007024613 0.1295037569076798
vt 0.35660000488160676 0.2499324342634648
vt 0.3714677331722333 0.12504945071933382
vt 0.8027154781080139 0.9218749999999877
vt 0.6123120404560403 0.6850786103079587
vt 0.6219497749828946 0.5356937251417844
vt 0.3503164743540988 0.12426182371304528
vt 0.4259981120277804 0.4205361143311491
vt 0.47163752675945547 0.12233504252730976
vt 0.3171872711762172 0.1257823230915014
vt 0.35031647435407615 0.12426182371303396
vt 0.8127634061819724 0.885007153655545
vt 0.7447016980105808 0.41829920083733685
vt 0.47163752675944415 0.12233504252729843
vt 0.2874322754665477 0.12787173529571483
vt 0.3171872711762285 0.12578232309151272
vt 0.14219688841199668 0.12937302438162002
vt 0.6765141548016002 0.1759165316551905
vt 0.6123120404560403 0.68507861030797
vt 0.16420205012541264 0.4045430733815214
vt 0.16258298007025745 0.1295037569076798
vt 0.48282529547862363 0.1213156446339394
vt 0.6760230813317682 0.7369665876626409
vt 0.4245665758382253 0.6862266615365982
vt 0.8027154781080252 0.9218749999999991
vt 0.40844364068991884 0.6725819746766091
vt 0.2412806821183439 0.13284008509278822
vt 0.16420205012542397 0.40454307338154405
vn -0.9742 -0.1219 0.1897
vn -0.9754 -0.0977 0.1976
vn -0.983 -0.0987 0.1549
vn -0.9312 1.0E-4 -0.3644
vn -0.9942 -0.0148 0.1065
vn -0.9805 -0.0607 -0.1868
vn -0.9277 -6.0E-4 0.3732
vn -0.9248 -0.0581 0.3759
vn -0.9151 -0.0097 0.4031
vn -0.9825 -0.0748 0.1704
vn -0.8584 4.0E-4 -0.5129
vn -0.9839 -0.0578 -0.1688
vn -0.8581 -0.0118 -0.5133
vn -0.9914 -0.0586 -0.1174
vn -0.9893 -0.0154 0.1449
vn -0.9544 -0.0424 0.2954
vn -0.9825 -0.0458 -0.1808
vn -0.9986 -0.0495 0.0161
vn -0.9968 -0.0303 -0.0744
vn -0.9934 -0.0544 -0.1014
vn -0.9767 -0.0506 -0.2086
vn -0.9897 -0.0088 -0.143
vn -0.9033 0.0068 -0.429
vn -0.9187 -0.1081 0.3799
usemtl bcc9aa26-91ec-4f0f-80be-14eef76de1dc
g 091_W_Aya_100K_01
f 4/51/3 3/2/3 1/49/3
usemtl bcc9aa26-91ec-4f0f-80be-14eef76de1dc
g 091_W_Aya_100K_01
f 6/48/1 7/44/1 5/31/1
usemtl bcc9aa26-91ec-4f0f-80be-14eef76de1dc
g 091_W_Aya_100K_01
f 4/51/2 2/24/2 3/2/2
usemtl bcc9aa26-91ec-4f0f-80be-14eef76de1dc
g 091_W_Aya_100K_01
f 9/27/14 23/12/14 24/4/14
usemtl bcc9aa26-91ec-4f0f-80be-14eef76de1dc
g 091_W_Aya_100K_01
f 8/22/6 11/49/6 15/2/6
usemtl bcc9aa26-91ec-4f0f-80be-14eef76de1dc
g 091_W_Aya_100K_01
f 12/18/10 27/53/10 28/10/10
usemtl bcc9aa26-91ec-4f0f-80be-14eef76de1dc
g 091_W_Aya_100K_01
f 29/30/8 10/14/8 25/31/8
usemtl bcc9aa26-91ec-4f0f-80be-14eef76de1dc
g 091_W_Aya_100K_01
f 13/5/23 33/11/23 36/20/23
usemtl bcc9aa26-91ec-4f0f-80be-14eef76de1dc
g 091_W_Aya_100K_01
f 10/1/16 31/39/16 25/31/16
usemtl bcc9aa26-91ec-4f0f-80be-14eef76de1dc
g 091_W_Aya_100K_01
f 29/30/8 23/28/8 10/14/8
usemtl bcc9aa26-91ec-4f0f-80be-14eef76de1dc
g 091_W_Aya_100K_01
f 13/5/11 17/15/11 22/21/11
usemtl bcc9aa26-91ec-4f0f-80be-14eef76de1dc
g 091_W_Aya_100K_01
f 25/31/19 19/6/19 13/5/19
usemtl bcc9aa26-91ec-4f0f-80be-14eef76de1dc
g 091_W_Aya_100K_01
f 13/5/20 34/29/20 25/31/20
usemtl bcc9aa26-91ec-4f0f-80be-14eef76de1dc
g 091_W_Aya_100K_01
f 9/27/17 35/52/17 21/40/17
usemtl bcc9aa26-91ec-4f0f-80be-14eef76de1dc
g 091_W_Aya_100K_01
f 9/27/14 38/32/14 23/12/14
usemtl bcc9aa26-91ec-4f0f-80be-14eef76de1dc
g 091_W_Aya_100K_01
f 12/18/10 28/10/10 15/2/10
usemtl bcc9aa26-91ec-4f0f-80be-14eef76de1dc
g 091_W_Aya_100K_01
f 25/31/19 31/34/19 19/6/19
usemtl bcc9aa26-91ec-4f0f-80be-14eef76de1dc
g 091_W_Aya_100K_01
f 15/2/21 32/33/21 8/22/21
usemtl bcc9aa26-91ec-4f0f-80be-14eef76de1dc
g 091_W_Aya_100K_01
f 15/2/21 9/27/21 32/33/21
usemtl bcc9aa26-91ec-4f0f-80be-14eef76de1dc
g 091_W_Aya_100K_01
f 19/47/22 33/13/22 13/5/22
usemtl bcc9aa26-91ec-4f0f-80be-14eef76de1dc
g 091_W_Aya_100K_01
f 9/27/17 15/2/17 35/52/17
usemtl bcc9aa26-91ec-4f0f-80be-14eef76de1dc
g 091_W_Aya_100K_01
f 21/7/4 18/41/4 9/27/4
usemtl bcc9aa26-91ec-4f0f-80be-14eef76de1dc
g 091_W_Aya_100K_01
f 20/37/12 13/5/12 22/9/12
usemtl bcc9aa26-91ec-4f0f-80be-14eef76de1dc
g 091_W_Aya_100K_01
f 14/43/13 17/38/13 13/5/13
usemtl bcc9aa26-91ec-4f0f-80be-14eef76de1dc
g 091_W_Aya_100K_01
f 9/27/14 24/4/14 32/33/14
usemtl bcc9aa26-91ec-4f0f-80be-14eef76de1dc
g 091_W_Aya_100K_01
f 28/10/15 26/26/15 16/25/15
usemtl bcc9aa26-91ec-4f0f-80be-14eef76de1dc
g 091_W_Aya_100K_01
f 28/10/18 35/52/18 15/2/18
usemtl bcc9aa26-91ec-4f0f-80be-14eef76de1dc
g 091_W_Aya_100K_01
f 28/10/18 16/8/18 35/52/18
usemtl bcc9aa26-91ec-4f0f-80be-14eef76de1dc
g 091_W_Aya_100K_01
f 13/5/20 20/37/20 34/29/20
usemtl bcc9aa26-91ec-4f0f-80be-14eef76de1dc
g 091_W_Aya_100K_01
f 34/50/24 37/3/24 25/31/24
usemtl bcc9aa26-91ec-4f0f-80be-14eef76de1dc
g 091_W_Aya_100K_01
f 29/30/8 24/19/8 23/28/8
usemtl bcc9aa26-91ec-4f0f-80be-14eef76de1dc
g 091_W_Aya_100K_01
f 38/36/5 9/27/5 18/35/5
usemtl bcc9aa26-91ec-4f0f-80be-14eef76de1dc
g 091_W_Aya_100K_01
f 30/16/9 28/10/9 27/45/9
usemtl bcc9aa26-91ec-4f0f-80be-14eef76de1dc
g 091_W_Aya_100K_01
f 13/5/23 36/20/23 14/23/23
usemtl bcc9aa26-91ec-4f0f-80be-14eef76de1dc
g 091_W_Aya_100K_01
f 26/46/7 28/10/7 39/17/7
usemtl bcc9aa26-91ec-4f0f-80be-14eef76de1dc
g 091_W_Aya_100K_01
f 30/16/9 39/42/9 28/10/9
