mtllib 137.mtl
v -104.4509 1042.8503 -75.6809
v -104.13699554221118 1044.0261255 -78.16108391665675
v -107.99773900000004 1040.3904587962618 -62.87097847578738
v -103.13143863977824 1044.0261255 -70.3715545861574
v -107.99773900000004 1041.1333602828167 -69.56967845066816
v -107.99773900000004 1040.8909949214105 -72.4568187451019
v -103.68228526900408 1044.0261255 -76.91639180246732
v -103.05595905910847 1044.0261255 -68.8720692582365
v -107.99773900000004 1041.1029299968807 -67.63566013524562
v -106.335 1041.5376 -74.5814
v -104.62924626965727 1044.0261255 -79.79503650000004
v -102.83254685941344 1044.0261255 -72.89287947638675
v -107.99773900000004 1040.7419584110492 -79.10669986326704
v -107.99773900000004 1040.5388645669618 -75.20377969898155
v -107.99773900000004 1040.8682227189179 -79.79475671938609
v -107.99773900000004 1040.8682688422537 -79.79503650000004
v -107.99773900000004 1041.1546246694115 -70.3625224536015
v -107.99705550611628 1040.86894248272 -79.79503650000004
v -107.99773900000004 1040.8193366370533 -79.62166111516336
v -102.8550362945276 1044.0261255 -71.66836758486535
v -106.4287 1042.051 -70.1724
v -104.3923 1043.1885 -67.5562
v -107.99773900000004 1040.7659459070514 -79.47002691873313
v -104.4509 1042.8503 -75.6809
v -103.13143863977824 1044.0261255 -70.3715545861574
v -103.01899728766057 1044.0261255 -74.32752325458787
v -103.68228526900408 1044.0261255 -76.91639180246732
v -106.335 1041.5376 -74.5814
v -102.83254685941344 1044.0261255 -72.89287947638675
v -102.8550362945276 1044.0261255 -71.66836758486535
v -106.4287 1042.051 -70.1724
v -107.99773900000004 1040.3904587962618 -62.87097847578738
v -102.79792376895888 1044.0261255 -60.02007661612422
v -104.97581584229205 1044.0261255 -51.334339474638604
v -106.92850802418306 1044.0261255 -50.75296725839823
v -102.86438546639408 1044.0261255 -58.970969998367515
v -105.50395617068254 1044.0261255 -51.268439031282455
v -102.40474765121849 1044.0261255 -56.25111772872007
v -102.37666881571892 1044.0261255 -66.92530928634429
v -101.99247982766899 1044.0261255 -66.09092577897982
v -107.99773900000004 1040.0685169084127 -61.43094470849356
v -105.2012 1041.4796 -58.0536
v -103.51783680816314 1044.0261255 -53.101043939484114
v -107.99773900000004 1044.0261255 -50.39492034998344
v -107.32112436372553 1044.0261255 -50.6409844489594
v -105.3601 1041.1006 -60.8987
v -106.54623143192596 1044.0261255 -50.767463035623514
v -107.99773900000004 1038.9423972179063 -58.23397978092061
v -106.1938 1040.947 -53.4678
v -107.99773900000004 1039.708012368959 -60.11436903539083
v -102.6521 1043.6324 -55.435
v -107.99773900000004 1041.4295068690712 -50.379218602002055
v -107.99773900000004 1039.0975532556822 -54.32729059895098
v -101.85455772502006 1044.0261255 -65.86600304316948
v -107.99773900000004 1039.2472894715524 -51.48925093399918
v -107.99773900000004 1038.8132194851926 -57.50187038316425
v -106.4907 1041.9513 -51.2589
v -107.99773900000004 1039.8944645789286 -50.56283238935749
v -107.2451 1042.9955 -50.6624
v -107.99773900000004 1039.2542054538676 -51.479107520195356
v -104.3923 1043.1885 -67.5562
v -102.89110404711556 1044.0261255 -54.22048932122848
v -105.3601 1041.1006 -60.8987
v -103.05595905910847 1044.0261255 -68.8720692582365
v -102.6521 1043.6324 -55.435
v -102.79792376895888 1044.0261255 -60.02007661612422
v -103.51783680816314 1044.0261255 -53.101043939484114
v -101.85455772502006 1044.0261255 -65.86600304316948
v -102.35182340944878 1044.0261255 -55.28936437729657
v -106.4907 1041.9513 -51.2589
v -102.40474765121849 1044.0261255 -56.25111772872007
v -106.1938 1040.947 -53.4678
v -102.37666881571892 1044.0261255 -66.92530928634429
v -104.3923 1043.1885 -67.5562
v -102.73460895885732 1044.0261255 -61.86534163071345
vt 0.5676542894602189 0.7886317133186624
vt 0.17111429845303625 0.9047898925025805
vt 0.39240931319156824 0.7879909228436035
vt 0.19317228711273346 0.960937500000002
vt 0.3454259268576087 0.7962723189086471
vt 0.6279961786411872 0.7242206830776049
vt 0.43587705482357897 0.9204089479552978
vt 0.3924093131915593 0.7879909228436035
vt 0.5893278733767319 0.7380600175134551
vt 0.10302157272452889 0.8887680746841102
vt 0.07498770558738646 0.8500199213215951
vt 0.35374087651390107 0.9473362900003988
vt 0.7294599809239622 0.6475522927506487
vt 0.9453124999999979 0.6605786087232666
vt 0.16184316134783566 0.8190535992787149
vt 0.25108926777586504 0.8007285485442338
vt 0.1931722871127379 0.960937500000002
vt 0.31748570525612824 0.798738527832527
vt 0.278524102002793 0.9600902285341089
vt 0.07097793708758844 0.8767517113202575
vt 0.23119611527230408 0.8126644400463677
vt 0.049091985672176805 0.5169676865584534
vt 0.22750036733953627 0.8030554954211617
vt 0.29528338654619385 0.87274625686564
vt 0.31748570525612824 0.7987385278325314
vt 0.7294599809239622 0.6475522927506532
vt 0.057480059146812645 0.8551551066150074
vt 0.3903591014687962 0.9354896581231177
vt 0.5624762967375945 0.8956435629195962
vt 0.8744700253846762 0.5707624129295521
vt 0.6279427909182047 0.8712712409548791
vt 0.08483672942219325 0.9449757721640673
vt 0.6646265062031178 0.6927812430185157
vt 0.06785609252223737 0.9152544609595296
vt 0.0546875 0.5234375
vt 0.7542527950597487 0.8013737807617977
vt 0.0574800591468082 0.8551551066150074
vt 0.0390625 0.5218431122448973
vt 0.9453056895618014 0.6605844536905273
vt 0.049091985672176805 0.5169676865584543
vt 0.16184316134783122 0.8190535992787149
vt 0.7839488300095893 0.6644626252255004
vt 0.5104772753397485 0.7489231327490903
vt 0.9385908904797413 0.6682343827979444
vt 0.837832530126238 0.749988312756449
vt 0.11529048241212933 0.9566262931119962
vt 0.37138702118393635 0.8767517113202575
vt 0.5385900441514749 0.7489986515340104
vt 0.7839488300095893 0.7325553509540077
vt 0.6646265062031089 0.6927812430185157
vt 0.9419288687744605 0.6644791169269859
vt 0.29955086913236895 0.9575673823782709
vt 0.8322419170226908 0.5944013421966905
vt 0.9290011746104411 0.6759495579390404
vt 0.8378325301262336 0.749988312756449
vt 0.11529048241212488 0.9566262931119962
vt 0.19670736122602275 0.8126548665198245
vt 0.7957101812403078 0.6127126798103404
vt 0.6938640998671398 0.6708972488071077
vt 0.06625035635005305 0.8523258775096411
vt 0.5624762967375945 0.8956435629195918
vt 0.510477275339753 0.7489231327490903
vt 0.10071987661953108 0.8392816084265394
vt 0.34542592685761314 0.7962723189086427
vt 0.27852410200278854 0.9600902285341044
vt 0.6279961786411827 0.7242206830776049
vt 0.0848367294221888 0.9449757721640673
vt 0.5040034692140769 0.7476251698172247
vt 0.11071036101321559 0.8349465566633256
vt 0.1967073612260272 0.8126548665198245
vt 0.6517688330071965 0.8166698945009853
vt 0.052410955259746504 0.5149521968772357
vt 0.9452967734125727 0.6605599342801463
vt 0.7957101812402989 0.6127126798103448
vt 0.039062499999998 0.8595878528666799
vt 0.941928868774465 0.6644791169269859
vt 0.9453056895617881 0.6605844536905273
vt 0.39035910146880065 0.9354896581231177
vt 0.10071987661952664 0.839281608426535
vt 0.6938640998671398 0.6708972488071032
vt 0.2995508691323645 0.9575673823782753
vt 0.2510892677758606 0.8007285485442338
vt 0.06785609252224181 0.9152544609595251
vt 0.11497321490213236 0.9564940470238454
vn -0.5009 0.8654 0.0136
vn -0.5265 0.849 0.0442
vn -0.5126 0.8583 0.0258
vn -0.4807 0.8698 -0.1115
vn -0.6699 0.7145 0.2018
vn -0.6727 0.6979 0.2457
vn -0.4831 0.8687 -0.1094
vn -0.498 0.8668 0.0232
vn -0.5758 0.8175 -0.0106
vn -0.549 0.834 0.0551
vn -0.6972 0.7074 0.1166
vn -0.4987 0.8572 0.1282
vn -0.7222 0.6665 0.185
vn -0.5156 0.8497 -0.1099
vn -0.6807 0.7272 0.0885
vn -0.5274 0.1009 -0.8436
vn -0.3526 0.8667 0.3529
vn -0.7444 0.6661 -0.0472
vn -0.6186 0.7845 -0.0428
vn -0.8104 0.4802 -0.3356
vn -0.6787 0.4751 -0.5601
vn -0.3956 0.8858 0.2426
vn -0.2743 -3.0E-4 -0.9616
vn -0.813 0.4811 -0.328
vn -0.1237 0.0543 -0.9908
vn -0.3418 -0.0057 -0.9398
vn -0.4246 0.1979 -0.8835
vn -0.7096 0.6943 0.1199
vn -0.7067 0.7066 -0.0373
vn -0.4282 0.8819 0.1972
vn -0.0378 -0.076 -0.9964
vn -0.6741 0.7362 -0.0604
vn -0.5332 0.8331 0.147
vn -0.6994 0.7118 -0.0638
vn -0.8022 0.5955 0.0441
vn -0.6811 0.6466 -0.3436
vn -0.7606 0.6273 -0.1673
vn -0.7482 0.663 -0.0257
vn -0.6759 0.6325 -0.3784
vn -0.4182 0.8965 0.146
usemtl 4fa16dbc-834d-49f2-8e79-174ab708cb28
g 091_W_Aya_100K_01
f 2/53/5 18/73/5 15/39/5
usemtl 4fa16dbc-834d-49f2-8e79-174ab708cb28
g 091_W_Aya_100K_01
f 22/1/3 4/6/3 21/71/3
usemtl 4fa16dbc-834d-49f2-8e79-174ab708cb28
g 091_W_Aya_100K_01
f 2/53/5 15/39/5 19/76/5
usemtl 4fa16dbc-834d-49f2-8e79-174ab708cb28
g 091_W_Aya_100K_01
f 5/31/1 22/1/1 21/71/1
usemtl 4fa16dbc-834d-49f2-8e79-174ab708cb28
g 091_W_Aya_100K_01
f 1/42/9 20/33/9 12/59/9
usemtl 4fa16dbc-834d-49f2-8e79-174ab708cb28
g 091_W_Aya_100K_01
f 5/72/8 21/35/8 17/22/8
usemtl 4fa16dbc-834d-49f2-8e79-174ab708cb28
g 091_W_Aya_100K_01
f 2/53/5 11/30/5 18/73/5
usemtl 4fa16dbc-834d-49f2-8e79-174ab708cb28
g 091_W_Aya_100K_01
f 17/40/7 21/35/7 6/38/7
usemtl 4fa16dbc-834d-49f2-8e79-174ab708cb28
g 091_W_Aya_100K_01
f 1/42/9 10/49/9 20/33/9
usemtl 4fa16dbc-834d-49f2-8e79-174ab708cb28
g 091_W_Aya_100K_01
f 14/45/2 10/49/2 13/54/2
usemtl 4fa16dbc-834d-49f2-8e79-174ab708cb28
g 091_W_Aya_100K_01
f 7/74/6 19/51/6 23/44/6
usemtl 4fa16dbc-834d-49f2-8e79-174ab708cb28
g 091_W_Aya_100K_01
f 21/71/4 14/55/4 6/36/4
usemtl 4fa16dbc-834d-49f2-8e79-174ab708cb28
g 091_W_Aya_100K_01
f 10/49/10 1/42/10 23/44/10
usemtl 4fa16dbc-834d-49f2-8e79-174ab708cb28
g 091_W_Aya_100K_01
f 7/74/6 2/53/6 19/51/6
usemtl 4fa16dbc-834d-49f2-8e79-174ab708cb28
g 091_W_Aya_100K_01
f 9/61/12 3/7/12 22/1/12
usemtl 4fa16dbc-834d-49f2-8e79-174ab708cb28
g 091_W_Aya_100K_01
f 18/73/11 16/14/11 15/77/11
usemtl 4fa16dbc-834d-49f2-8e79-174ab708cb28
g 091_W_Aya_100K_01
f 7/74/6 23/44/6 1/42/6
usemtl 4fa16dbc-834d-49f2-8e79-174ab708cb28
g 091_W_Aya_100K_01
f 21/71/4 10/49/4 14/55/4
usemtl 4fa16dbc-834d-49f2-8e79-174ab708cb28
g 091_W_Aya_100K_01
f 22/1/3 8/9/3 4/6/3
usemtl 4fa16dbc-834d-49f2-8e79-174ab708cb28
g 091_W_Aya_100K_01
f 5/31/1 9/29/1 22/1/1
usemtl 4fa16dbc-834d-49f2-8e79-174ab708cb28
g 091_W_Aya_100K_01
f 10/49/10 23/44/10 13/54/10
usemtl 4fa16dbc-834d-49f2-8e79-174ab708cb28
g 091_W_Aya_100K_01
f 26/13/13 27/58/13 24/42/13
usemtl 4fa16dbc-834d-49f2-8e79-174ab708cb28
g 091_W_Aya_100K_01
f 29/80/15 26/26/15 24/42/15
usemtl 4fa16dbc-834d-49f2-8e79-174ab708cb28
g 091_W_Aya_100K_01
f 25/66/14 30/50/14 28/49/14
usemtl 4fa16dbc-834d-49f2-8e79-174ab708cb28
g 091_W_Aya_100K_01
f 25/66/14 28/49/14 31/71/14
usemtl 4fa16dbc-834d-49f2-8e79-174ab708cb28
g 091_W_Aya_100K_01
f 32/7/30 40/62/30 39/48/30
usemtl 4fa16dbc-834d-49f2-8e79-174ab708cb28
g 091_W_Aya_100K_01
f 51/21/19 42/24/19 49/2/19
usemtl 4fa16dbc-834d-49f2-8e79-174ab708cb28
g 091_W_Aya_100K_01
f 57/10/27 47/11/27 37/63/27
usemtl 4fa16dbc-834d-49f2-8e79-174ab708cb28
g 091_W_Aya_100K_01
f 47/11/31 59/20/31 35/60/31
usemtl 4fa16dbc-834d-49f2-8e79-174ab708cb28
g 091_W_Aya_100K_01
f 34/69/21 43/41/21 57/10/21
usemtl 4fa16dbc-834d-49f2-8e79-174ab708cb28
g 091_W_Aya_100K_01
f 57/10/27 59/20/27 47/11/27
usemtl 4fa16dbc-834d-49f2-8e79-174ab708cb28
g 091_W_Aya_100K_01
f 35/60/23 59/20/23 45/27/23
usemtl 4fa16dbc-834d-49f2-8e79-174ab708cb28
g 091_W_Aya_100K_01
f 55/46/29 49/2/29 53/17/29
usemtl 4fa16dbc-834d-49f2-8e79-174ab708cb28
g 091_W_Aya_100K_01
f 57/10/24 49/2/24 55/56/24
usemtl 4fa16dbc-834d-49f2-8e79-174ab708cb28
g 091_W_Aya_100K_01
f 49/2/34 56/65/34 53/4/34
usemtl 4fa16dbc-834d-49f2-8e79-174ab708cb28
g 091_W_Aya_100K_01
f 57/10/16 58/32/16 52/83/16
usemtl 4fa16dbc-834d-49f2-8e79-174ab708cb28
g 091_W_Aya_100K_01
f 49/2/34 46/47/34 56/65/34
usemtl 4fa16dbc-834d-49f2-8e79-174ab708cb28
g 091_W_Aya_100K_01
f 41/28/22 54/68/22 40/43/22
usemtl 4fa16dbc-834d-49f2-8e79-174ab708cb28
g 091_W_Aya_100K_01
f 57/10/16 52/83/16 59/20/16
usemtl 4fa16dbc-834d-49f2-8e79-174ab708cb28
g 091_W_Aya_100K_01
f 57/10/25 37/79/25 34/69/25
usemtl 4fa16dbc-834d-49f2-8e79-174ab708cb28
g 091_W_Aya_100K_01
f 32/7/30 39/48/30 61/1/30
usemtl 4fa16dbc-834d-49f2-8e79-174ab708cb28
g 091_W_Aya_100K_01
f 57/10/24 55/56/24 60/84/24
usemtl 4fa16dbc-834d-49f2-8e79-174ab708cb28
g 091_W_Aya_100K_01
f 59/20/26 44/75/26 45/37/26
usemtl 4fa16dbc-834d-49f2-8e79-174ab708cb28
g 091_W_Aya_100K_01
f 32/7/30 41/78/30 40/62/30
usemtl 4fa16dbc-834d-49f2-8e79-174ab708cb28
g 091_W_Aya_100K_01
f 46/47/18 42/24/18 36/18/18
usemtl 4fa16dbc-834d-49f2-8e79-174ab708cb28
g 091_W_Aya_100K_01
f 46/47/18 36/18/18 33/5/18
usemtl 4fa16dbc-834d-49f2-8e79-174ab708cb28
g 091_W_Aya_100K_01
f 49/2/32 42/24/32 46/47/32
usemtl 4fa16dbc-834d-49f2-8e79-174ab708cb28
g 091_W_Aya_100K_01
f 41/28/22 50/12/22 46/47/22
usemtl 4fa16dbc-834d-49f2-8e79-174ab708cb28
g 091_W_Aya_100K_01
f 51/21/28 36/25/28 42/24/28
usemtl 4fa16dbc-834d-49f2-8e79-174ab708cb28
g 091_W_Aya_100K_01
f 50/12/17 48/52/17 46/47/17
usemtl 4fa16dbc-834d-49f2-8e79-174ab708cb28
g 091_W_Aya_100K_01
f 41/28/22 46/47/22 54/68/22
usemtl 4fa16dbc-834d-49f2-8e79-174ab708cb28
g 091_W_Aya_100K_01
f 51/21/28 38/16/28 36/25/28
usemtl 4fa16dbc-834d-49f2-8e79-174ab708cb28
g 091_W_Aya_100K_01
f 59/20/26 52/34/26 44/75/26
usemtl 4fa16dbc-834d-49f2-8e79-174ab708cb28
g 091_W_Aya_100K_01
f 46/47/33 48/81/33 56/19/33
usemtl 4fa16dbc-834d-49f2-8e79-174ab708cb28
g 091_W_Aya_100K_01
f 58/67/20 57/10/20 60/84/20
usemtl 4fa16dbc-834d-49f2-8e79-174ab708cb28
g 091_W_Aya_100K_01
f 73/48/40 64/9/40 74/1/40
usemtl 4fa16dbc-834d-49f2-8e79-174ab708cb28
g 091_W_Aya_100K_01
f 62/70/36 69/23/36 65/21/36
usemtl 4fa16dbc-834d-49f2-8e79-174ab708cb28
g 091_W_Aya_100K_01
f 69/23/35 71/82/35 65/21/35
usemtl 4fa16dbc-834d-49f2-8e79-174ab708cb28
g 091_W_Aya_100K_01
f 67/15/39 62/57/39 72/2/39
usemtl 4fa16dbc-834d-49f2-8e79-174ab708cb28
g 091_W_Aya_100K_01
f 62/70/36 65/21/36 72/2/36
usemtl 4fa16dbc-834d-49f2-8e79-174ab708cb28
g 091_W_Aya_100K_01
f 67/15/39 72/2/39 70/10/39
usemtl 4fa16dbc-834d-49f2-8e79-174ab708cb28
g 091_W_Aya_100K_01
f 75/3/37 68/68/37 63/47/37
usemtl 4fa16dbc-834d-49f2-8e79-174ab708cb28
g 091_W_Aya_100K_01
f 66/64/38 75/8/38 63/47/38
