mtllib 151.mtl
v -32.988614888440544 1068.741841404362 5.946502499999973
v -24.426531940918068 1070.9737381050572 5.946502499999973
v -22.256200000000035 1079.4680382709967 7.32733634284508
v -42.9009 1085.9824 7.8256
v -22.256200000000035 1086.896895 10.702745815510005
v -33.28 1069.7808 6.2609
v -37.53042958793258 1086.896895 11.311455415112434
v -24.798003670443705 1070.533092971875 5.946502499999973
v -39.87739299443963 1076.8310504838093 5.946502499999973
v -25.4421 1086.4321 11.4388
v -35.9829 1076.6714 7.5253
v -24.926961119596267 1070.4297796274063 5.946502499999973
v -34.1974 1084.8354 11.0079
v -45.740928261205966 1086.896895 5.999123770784297
v -33.32298582791658 1068.8451644783836 5.946502499999973
v -22.256200000000035 1074.590358735382 6.061968531362372
v -30.189549549786978 1086.896895 12.43194778757562
v -22.256200000000035 1074.1125025340507 5.946502499999973
v -34.691447937966814 1069.876907035899 5.946502499999973
v -30.47941623501638 1086.896895 12.413383140130204
v -39.173527977295116 1075.299829826655 5.946502499999973
v -37.3438 1086.4208 11.102
v -40.432 1080.7728 7.0586
v -23.21 1078.5481 7.3516
v -30.2112 1086.4711 12.1579
v -22.256200000000035 1081.5926359751222 8.026608776099525
v -41.120281520595064 1078.5978069839834 5.946502499999973
v -34.97165246415177 1086.896895 12.06000919523849
v -44.419901035878524 1084.6303649488375 5.946502499999973
v -24.94833969909556 1086.896895 11.547973963962749
v -24.8699 1082.0125 9.061
v -27.7635 1071.3389 6.7846
v -29.8336913613609 1086.896895 12.381494860175444
v -22.256200000000035 1078.3396433113994 6.910144167205525
v -37.661835043004565 1072.78776681336 5.946502499999973
v -36.87409343634364 1071.7724613898777 5.946502499999973
v -30.6298 1077.8395 8.4905
v -30.572 1069.8625 6.4969
v -27.482382925470503 1068.7780955135454 5.946502499999973
v -44.11814844517946 1086.896895 7.298817380310305
v -34.05632043572681 1086.896895 12.293199114138224
v -42.98003834221971 1086.896895 8.326303932099066
v -45.79278414286945 1086.896895 5.946502499999973
v -37.31117678800857 1086.896895 11.404245439146251
v -29.7817 1082.6791 10.1515
v -33.1987663465371 1068.7945089433836 5.946502499999973
v -39.75858939253692 1086.896895 10.391843899050889
v -43.42058097087211 1082.5426938902583 5.946502499999973
v -45.757892874203606 1086.817236189323 5.946502499999973
v -33.51039994726025 1068.9858852182886 5.946502499999973
v -25.447127580051564 1086.896895 11.743537343539884
v -42.51163433411832 1086.896895 8.630392145864548
v -42.1503469226129 1080.7396486124255 5.946502499999973
v -37.2842 1082.2029 9.0047
v -38.5254 1077.783 6.96
v -22.256200000000035 1085.8203915252152 10.09084688560887
v -30.39602349999999 1068.1233649166666 5.946502499999973
v -26.947 1078.4657 8.2747
v -24.9097 1071.0679 6.1381
v -33.3021 1078.8119 8.6572
v -27.971371541145505 1068.5976237857478 5.946502499999973
v -22.256200000000035 1084.7356778716216 9.553313682432425
v -39.7285 1085.7506 9.7145
v -22.256200000000035 1074.590358735382 6.061968531362372
v -22.256200000000035 1078.3396433113994 6.910144167205525
v -23.21 1078.5481 7.3516
vt 0.5555106153141258 0.8021592520027432
vt 0.5529833357726022 0.8838306800788708
vt 0.55728798395482 0.46465119105813135
vt 0.27078320864141964 0.4706855546822786
vt 0.49525206345986295 0.21293985316412334
vt 0.07760135874039208 0.6944553220247208
vt 0.6167301876197868 0.7532072769873808
vt 0.2373159270546903 0.412117811905501
vt 0.39751388161449475 0.22124406584402279
vt 0.6020611956697739 0.5822194652796613
vt 0.6153214120864153 0.7591039325140708
vt 0.4535187084462904 0.9296491355875368
vt 0.4653792294320381 0.9396849610370134
vt 0.16961725800145974 0.8580789428997656
vt 0.45016637976035306 0.9441758932266349
vt 0.1645416389874249 0.5471794848331557
vt 0.153784766901623 0.54000823677596
vt 0.6020611956697762 0.5822194652796518
vt 0.6100814340915354 0.6176040897483409
vt 0.21955638791424292 0.8886652566935107
vt 0.08473880236765706 0.6785621827455222
vt 0.5235184102594164 0.3409677852813022
vt 0.3727751155092551 0.6831686939902681
vt 0.06657138716807237 0.7906678083836121
vt 0.6167301876197916 0.7532072769873855
vt 0.07760135874038972 0.694455322024716
vt 0.5957797115986451 0.8293287627489243
vt 0.450166379760346 0.9441758932266349
vt 0.46537922943203924 0.939684961037018
vt 0.19428927849054367 0.7766612752857825
vt 0.4834447285192181 0.14006560540012392
vt 0.42802073172933214 0.22845477587116914
vt 0.4089229879536662 0.20935703209550194
vt 0.23731592705468676 0.41211781190547736
vt 0.0847388023676547 0.6785621827455175
vt 0.6167205281372262 0.7433671028617985
vt 0.16961725800145974 0.8580789428997562
vt 0.09654703440886872 0.6874183567764274
vt 0.38977376665389357 0.43668825239299935
vt 0.5755856916443307 0.5065650162254388
vt 0.5139641605020052 0.27558504326263644
vt 0.2804079391147862 0.3520930368020937
vt 0.3379168224605868 0.9544317714061963
vt 0.5755856916443283 0.506565016225434
vt 0.15899677394018777 0.5321757323523888
vt 0.3379168224605833 0.9544317714061963
vt 0.5425956512823571 0.8942693717814221
vt 0.14819640808494186 0.5502442156273752
vt 0.24684683065318994 0.9052378608945102
vt 0.1589967739401854 0.5321757323523888
vt 0.5446176413085667 0.4039318726604506
vt 0.46941666017310446 0.9376638054663433
vt 0.21955638791424173 0.8886652566935107
vt 0.43988426376585194 0.18100064772509472
vt 0.6152454229873413 0.701578008614157
vt 0.33377917400777296 0.2912390712425933
vt 0.4952520634598641 0.21293985316412334
vt 0.6167205281372274 0.7433671028617985
vt 0.4694166601731033 0.9376638054663385
vt 0.5446176413085655 0.40393187266045527
vt 0.33377917400777296 0.2912390712425744
vt 0.28494658268152184 0.34664052419035396
vt 0.4834447285192205 0.14006560540012392
vt 0.28494658268152423 0.34664052419035873
vt 0.09252708312466215 0.8084619613376165
vt 0.4089229879536674 0.2093570320955067
vt 0.5937575803895633 0.738414310210344
vt 0.5425956512823464 0.8942693717814174
vt 0.48133634657155583 0.13910724996936652
vt 0.09252708312466569 0.8084619613376213
vt 0.21956127187263053 0.4365375968364239
vt 0.48326634794940915 0.8531552054366597
vt 0.48326634794940915 0.38569229895908275
vt 0.5087643246663687 0.4834345430407565
vt 0.48751601073556966 0.564178135977793
vt 0.4828245070419713 0.1376996807580121
vt 0.39402342944005403 0.5981754382670723
vt 0.615321412086413 0.7591039325140803
vt 0.03906250000000016 0.7734219134800132
vt 0.21956127187263053 0.43653759683641447
vt 0.06657138716806943 0.7906678083836167
vt 0.14819640808494422 0.5502442156273705
vt 0.39751388161449475 0.22124406584402745
vt 0.2468468306531923 0.9052378608944913
vt 0.4398842637658507 0.18100064772509472
vt 0.523518410259414 0.3409677852813022
vt 0.5572879839548189 0.4646511910581267
vt 0.48133634657155466 0.13910724996936175
vt 0.2495348947106207 0.6279230777701923
vt 0.3494139132714291 0.9609374999999999
vt 0.360026127150776 0.31344803159436496
vt 0.5139641605020041 0.2755850432626412
vt 0.2920315225722186 0.3601943222421221
vt 0.6152454229873401 0.7015780086141523
vt 0.6171874999999978 0.7495044721592856
vt 0.15378476690162182 0.5400082367759553
vt 0.6100814340915377 0.6176040897483409
vt 0.30903017371685826 0.7724116124996232
vt 0.6171875000000001 0.749504472159281
vt 0.2537845574967812 0.8744035193674563
vt 0.5529833357726069 0.8838306800788661
vn -0.0763 -0.2559 0.9637
vn 0.1101 -0.2982 0.9481
vn -0.6799 -0.2978 0.6701
vn -0.2268 -0.3006 0.9264
vn -0.1988 -0.2518 0.9471
vn 0.0579 -0.2959 0.9535
vn -0.06 -0.4721 0.8795
vn -0.4274 -0.3007 0.8526
vn -0.6078 -0.4212 0.6732
vn -0.0278 -0.2426 0.9697
vn -0.0539 -0.5385 0.8409
vn -0.2268 -0.2611 0.9383
vn -0.3404 -0.4872 0.8042
vn -0.0774 -0.3086 0.948
vn -0.1949 -0.4389 0.8771
vn 0.3216 -0.2224 0.9204
vn -0.0734 -0.3077 0.9487
vn 0.0034 -0.3631 0.9317
vn 0.028 -0.2422 0.9698
vn -0.3356 -0.3163 0.8873
vn -0.2322 -0.5099 0.8283
vn -0.1267 -0.3107 0.942
vn 0.118 -0.5417 0.8323
vn -0.4141 -0.2492 0.8754
vn -0.6252 -0.2993 0.7208
vn 0.3111 -0.2623 0.9135
vn 0.3121 -0.5185 0.7961
vn -0.4976 -0.3525 0.7925
vn -0.4058 -0.2874 0.8676
vn -0.5225 -0.2513 0.8148
vn -0.4798 -0.4557 0.7498
vn 0.2633 -0.4767 0.8387
vn 0.1294 -0.4523 0.8825
vn -0.366 -0.4185 0.8312
vn 0.2389 -0.2081 0.9485
vn 0.2819 -0.426 0.8597
vn -0.0285 -0.5274 0.8491
vn -0.3408 -0.4046 0.8486
vn 0.1953 -0.2221 0.9553
vn 0.3097 -0.2973 0.9032
vn -0.4806 -0.2209 0.8486
vn -0.2494 -0.384 0.889
vn -0.3096 -0.2402 0.92
vn 0.2288 -0.2856 0.9306
vn 0.1208 -0.5434 0.8308
vn -0.1655 -0.291 0.9423
vn 0.0933 -0.214 0.9724
vn -0.2129 -0.5064 0.8356
vn -0.0557 -0.3154 0.9473
vn 0.1125 -0.3402 0.9336
vn 0.2327 -0.3384 0.9118
vn 0.2748 -0.4201 0.8649
vn -0.3334 -0.4861 0.8078
vn -0.5839 -0.3572 0.729
vn -0.5032 -0.3545 0.7881
vn -0.2259 -0.3009 0.9265
vn 0.1667 -0.3055 0.9375
vn 0.1856 -0.2872 0.9397
vn 0.1334 -0.4561 0.8799
vn -0.4858 -0.4517 0.7483
vn 0.3373 -0.3264 0.883
vn 0.374 -0.2046 0.9046
usemtl d20bd3b5-2806-41b9-a894-0683d94626f7
g 091_W_Aya_100K_01
f 4/32/55 53/86/55 23/73/55
usemtl d20bd3b5-2806-41b9-a894-0683d94626f7
g 091_W_Aya_100K_01
f 31/30/36 56/24/36 10/38/36
usemtl d20bd3b5-2806-41b9-a894-0683d94626f7
g 091_W_Aya_100K_01
f 50/58/4 6/67/4 19/55/4
usemtl d20bd3b5-2806-41b9-a894-0683d94626f7
g 091_W_Aya_100K_01
f 15/99/22 46/25/22 6/67/22
usemtl d20bd3b5-2806-41b9-a894-0683d94626f7
g 091_W_Aya_100K_01
f 40/85/9 4/32/9 42/33/9
usemtl d20bd3b5-2806-41b9-a894-0683d94626f7
g 091_W_Aya_100K_01
f 4/32/55 48/92/55 53/86/55
usemtl d20bd3b5-2806-41b9-a894-0683d94626f7
g 091_W_Aya_100K_01
f 50/36/56 15/95/56 6/67/56
usemtl d20bd3b5-2806-41b9-a894-0683d94626f7
g 091_W_Aya_100K_01
f 9/87/41 21/40/41 55/74/41
usemtl d20bd3b5-2806-41b9-a894-0683d94626f7
g 091_W_Aya_100K_01
f 25/16/45 51/35/45 33/48/45
usemtl d20bd3b5-2806-41b9-a894-0683d94626f7
g 091_W_Aya_100K_01
f 4/32/28 23/73/28 63/91/28
usemtl d20bd3b5-2806-41b9-a894-0683d94626f7
g 091_W_Aya_100K_01
f 58/98/57 31/30/57 45/89/57
usemtl d20bd3b5-2806-41b9-a894-0683d94626f7
g 091_W_Aya_100K_01
f 55/74/20 11/75/20 54/39/20
usemtl d20bd3b5-2806-41b9-a894-0683d94626f7
g 091_W_Aya_100K_01
f 54/39/46 11/75/46 60/77/46
usemtl d20bd3b5-2806-41b9-a894-0683d94626f7
g 091_W_Aya_100K_01
f 37/23/50 58/98/50 45/89/50
usemtl d20bd3b5-2806-41b9-a894-0683d94626f7
g 091_W_Aya_100K_01
f 54/39/42 60/77/42 13/4/42
usemtl d20bd3b5-2806-41b9-a894-0683d94626f7
g 091_W_Aya_100K_01
f 58/98/51 24/100/51 31/30/51
usemtl d20bd3b5-2806-41b9-a894-0683d94626f7
g 091_W_Aya_100K_01
f 28/8/21 22/93/21 13/4/21
usemtl d20bd3b5-2806-41b9-a894-0683d94626f7
g 091_W_Aya_100K_01
f 39/68/58 59/12/58 32/72/58
usemtl d20bd3b5-2806-41b9-a894-0683d94626f7
g 091_W_Aya_100K_01
f 60/77/49 37/23/49 45/89/49
usemtl d20bd3b5-2806-41b9-a894-0683d94626f7
g 091_W_Aya_100K_01
f 61/2/2 39/47/2 32/72/2
usemtl d20bd3b5-2806-41b9-a894-0683d94626f7
g 091_W_Aya_100K_01
f 11/75/5 6/67/5 60/77/5
usemtl d20bd3b5-2806-41b9-a894-0683d94626f7
g 091_W_Aya_100K_01
f 40/54/54 14/88/54 49/31/54
usemtl d20bd3b5-2806-41b9-a894-0683d94626f7
g 091_W_Aya_100K_01
f 23/73/29 55/74/29 54/39/29
usemtl d20bd3b5-2806-41b9-a894-0683d94626f7
g 091_W_Aya_100K_01
f 31/30/52 26/14/52 62/70/52
usemtl d20bd3b5-2806-41b9-a894-0683d94626f7
g 091_W_Aya_100K_01
f 10/38/32 5/79/32 30/26/32
usemtl d20bd3b5-2806-41b9-a894-0683d94626f7
g 091_W_Aya_100K_01
f 7/62/13 22/93/13 44/42/13
usemtl d20bd3b5-2806-41b9-a894-0683d94626f7
g 091_W_Aya_100K_01
f 63/91/38 23/73/38 54/39/38
usemtl d20bd3b5-2806-41b9-a894-0683d94626f7
g 091_W_Aya_100K_01
f 28/8/21 44/42/21 22/93/21
usemtl d20bd3b5-2806-41b9-a894-0683d94626f7
g 091_W_Aya_100K_01
f 6/67/14 46/7/14 1/11/14
usemtl d20bd3b5-2806-41b9-a894-0683d94626f7
g 091_W_Aya_100K_01
f 54/39/15 13/4/15 22/93/15
usemtl d20bd3b5-2806-41b9-a894-0683d94626f7
g 091_W_Aya_100K_01
f 40/54/54 29/5/54 4/32/54
usemtl d20bd3b5-2806-41b9-a894-0683d94626f7
g 091_W_Aya_100K_01
f 63/91/53 22/93/53 7/64/53
usemtl d20bd3b5-2806-41b9-a894-0683d94626f7
g 091_W_Aya_100K_01
f 59/12/16 16/46/16 24/100/16
usemtl d20bd3b5-2806-41b9-a894-0683d94626f7
g 091_W_Aya_100K_01
f 10/38/32 56/81/32 5/79/32
usemtl d20bd3b5-2806-41b9-a894-0683d94626f7
g 091_W_Aya_100K_01
f 6/67/17 1/78/17 57/27/17
usemtl d20bd3b5-2806-41b9-a894-0683d94626f7
g 091_W_Aya_100K_01
f 8/29/26 2/15/26 59/12/26
usemtl d20bd3b5-2806-41b9-a894-0683d94626f7
g 091_W_Aya_100K_01
f 63/91/53 7/64/53 47/56/53
usemtl d20bd3b5-2806-41b9-a894-0683d94626f7
g 091_W_Aya_100K_01
f 29/57/25 48/41/25 4/32/25
usemtl d20bd3b5-2806-41b9-a894-0683d94626f7
g 091_W_Aya_100K_01
f 12/59/44 8/13/44 59/12/44
usemtl d20bd3b5-2806-41b9-a894-0683d94626f7
g 091_W_Aya_100K_01
f 60/77/10 38/1/10 37/23/10
usemtl d20bd3b5-2806-41b9-a894-0683d94626f7
g 091_W_Aya_100K_01
f 45/89/33 10/38/33 25/16/33
usemtl d20bd3b5-2806-41b9-a894-0683d94626f7
g 091_W_Aya_100K_01
f 38/1/19 32/72/19 37/23/19
usemtl d20bd3b5-2806-41b9-a894-0683d94626f7
g 091_W_Aya_100K_01
f 25/16/45 10/38/45 51/35/45
usemtl d20bd3b5-2806-41b9-a894-0683d94626f7
g 091_W_Aya_100K_01
f 27/60/8 9/3/8 55/74/8
usemtl d20bd3b5-2806-41b9-a894-0683d94626f7
g 091_W_Aya_100K_01
f 24/100/40 3/20/40 26/37/40
usemtl d20bd3b5-2806-41b9-a894-0683d94626f7
g 091_W_Aya_100K_01
f 55/74/24 21/44/24 35/18/24
usemtl d20bd3b5-2806-41b9-a894-0683d94626f7
g 091_W_Aya_100K_01
f 38/1/6 57/27/6 61/101/6
usemtl d20bd3b5-2806-41b9-a894-0683d94626f7
g 091_W_Aya_100K_01
f 24/100/61 34/49/61 3/53/61
usemtl d20bd3b5-2806-41b9-a894-0683d94626f7
g 091_W_Aya_100K_01
f 42/66/60 4/32/60 52/9/60
usemtl d20bd3b5-2806-41b9-a894-0683d94626f7
g 091_W_Aya_100K_01
f 53/22/30 27/51/30 23/73/30
usemtl d20bd3b5-2806-41b9-a894-0683d94626f7
g 091_W_Aya_100K_01
f 13/4/37 25/16/37 20/45/37
usemtl d20bd3b5-2806-41b9-a894-0683d94626f7
g 091_W_Aya_100K_01
f 27/60/8 55/74/8 23/73/8
usemtl d20bd3b5-2806-41b9-a894-0683d94626f7
g 091_W_Aya_100K_01
f 37/23/47 32/72/47 58/98/47
usemtl d20bd3b5-2806-41b9-a894-0683d94626f7
g 091_W_Aya_100K_01
f 20/50/11 25/16/11 17/17/11
usemtl d20bd3b5-2806-41b9-a894-0683d94626f7
g 091_W_Aya_100K_01
f 59/12/35 24/100/35 58/98/35
usemtl d20bd3b5-2806-41b9-a894-0683d94626f7
g 091_W_Aya_100K_01
f 6/67/17 57/27/17 38/1/17
usemtl d20bd3b5-2806-41b9-a894-0683d94626f7
g 091_W_Aya_100K_01
f 28/34/48 13/4/48 41/71/48
usemtl d20bd3b5-2806-41b9-a894-0683d94626f7
g 091_W_Aya_100K_01
f 6/67/1 38/1/1 60/77/1
usemtl d20bd3b5-2806-41b9-a894-0683d94626f7
g 091_W_Aya_100K_01
f 24/100/40 26/37/40 31/30/40
usemtl d20bd3b5-2806-41b9-a894-0683d94626f7
g 091_W_Aya_100K_01
f 55/74/43 36/19/43 11/75/43
usemtl d20bd3b5-2806-41b9-a894-0683d94626f7
g 091_W_Aya_100K_01
f 63/91/34 54/39/34 22/93/34
usemtl d20bd3b5-2806-41b9-a894-0683d94626f7
g 091_W_Aya_100K_01
f 10/38/27 30/6/27 51/21/27
usemtl d20bd3b5-2806-41b9-a894-0683d94626f7
g 091_W_Aya_100K_01
f 32/72/39 59/12/39 58/98/39
usemtl d20bd3b5-2806-41b9-a894-0683d94626f7
g 091_W_Aya_100K_01
f 13/4/37 20/45/37 41/80/37
usemtl d20bd3b5-2806-41b9-a894-0683d94626f7
g 091_W_Aya_100K_01
f 31/30/36 62/65/36 56/24/36
usemtl d20bd3b5-2806-41b9-a894-0683d94626f7
g 091_W_Aya_100K_01
f 40/54/54 49/31/54 29/5/54
usemtl d20bd3b5-2806-41b9-a894-0683d94626f7
g 091_W_Aya_100K_01
f 47/61/31 52/83/31 4/32/31
usemtl d20bd3b5-2806-41b9-a894-0683d94626f7
g 091_W_Aya_100K_01
f 59/12/16 2/28/16 18/90/16
usemtl d20bd3b5-2806-41b9-a894-0683d94626f7
g 091_W_Aya_100K_01
f 43/76/3 49/63/3 14/69/3
usemtl d20bd3b5-2806-41b9-a894-0683d94626f7
g 091_W_Aya_100K_01
f 47/61/31 4/32/31 63/91/31
usemtl d20bd3b5-2806-41b9-a894-0683d94626f7
g 091_W_Aya_100K_01
f 55/74/43 35/10/43 36/19/43
usemtl d20bd3b5-2806-41b9-a894-0683d94626f7
g 091_W_Aya_100K_01
f 36/97/12 19/94/12 6/67/12
usemtl d20bd3b5-2806-41b9-a894-0683d94626f7
g 091_W_Aya_100K_01
f 38/1/6 61/101/6 32/72/6
usemtl d20bd3b5-2806-41b9-a894-0683d94626f7
g 091_W_Aya_100K_01
f 45/89/59 31/30/59 10/38/59
usemtl d20bd3b5-2806-41b9-a894-0683d94626f7
g 091_W_Aya_100K_01
f 59/12/16 18/90/16 16/46/16
usemtl d20bd3b5-2806-41b9-a894-0683d94626f7
g 091_W_Aya_100K_01
f 17/96/23 25/16/23 33/82/23
usemtl d20bd3b5-2806-41b9-a894-0683d94626f7
g 091_W_Aya_100K_01
f 60/77/18 45/89/18 13/4/18
usemtl d20bd3b5-2806-41b9-a894-0683d94626f7
g 091_W_Aya_100K_01
f 36/97/12 6/67/12 11/75/12
usemtl d20bd3b5-2806-41b9-a894-0683d94626f7
g 091_W_Aya_100K_01
f 39/68/58 12/52/58 59/12/58
usemtl d20bd3b5-2806-41b9-a894-0683d94626f7
g 091_W_Aya_100K_01
f 13/4/7 45/89/7 25/16/7
usemtl d20bd3b5-2806-41b9-a894-0683d94626f7
g 091_W_Aya_100K_01
f 64/43/62 65/84/62 66/100/62
