mtllib 153.mtl
v -29.569290197018276 1001.1553560000001 10.128376615356217
v -22.8433 1001.5403 11.9682
v -24.068573648289085 1001.1553560000001 11.9332203425583
v -51.08063793192061 1006.3623487469443 5.946502499999973
v -27.30683039028273 1005.8190572468063 5.946502499999973
v -57.08117964616124 1001.1553560000001 8.42923228091869
v -50.076753856465515 1001.1553560000001 9.675662382444141
v -38.760909199352504 1004.6544986450418 5.946502499999973
v -37.08156927555781 1001.1553560000001 9.297478229174732
v -23.084456834023097 1001.1553560000001 12.213033595254391
v -27.742838745444214 1005.6700794647845 5.946502499999973
v -48.8021899561107 1006.2498787126225 5.946502499999973
v -22.452510007365625 1001.1553560000001 12.444589939784962
v -54.91928864235995 1006.2547877072088 5.946502499999973
v -31.777154381800802 1004.7814026125992 5.946502499999973
v -45.14357575339817 1005.6151046549551 5.946502499999973
v -35.521675014874695 1001.1553560000001 9.224381740656453
v -56.3611 1004.0918 7.1828
v -33.574900253206025 1004.5174619915931 5.946502499999973
v -47.92440375796177 1006.1182912473461 5.946502499999973
v -59.57680457152103 1004.4742237626281 5.946502499999973
v -35.37040407577521 1001.1553560000001 9.226719906578328
v -45.133642957281964 1001.1553560000001 9.681864469344928
v -41.47322327883541 1001.1553560000001 9.307865903695326
v -65.03372284395914 1001.1553560000001 5.946502499999973
v -50.3293 1004.215 7.7952
v -57.33520877461093 1005.3841980053442 5.946502499999973
v -48.1011 1005.7895 6.3195
v -51.57545800640206 1001.1553560000001 9.504975196742636
v -41.7107 1002.1146 8.5742
v -63.63387566917309 1002.0276107666165 5.946502499999973
v -41.01164567439767 1004.8099211528624 5.946502499999973
v -35.32086713398215 1004.4900332652569 5.946502499999973
v -55.35926493557921 1006.1768731761443 5.946502499999973
v -28.456642833206857 1001.1553560000001 10.377610911996449
v -54.705129327232584 1001.1553560000001 9.006289337316069
v -22.8433 1001.5403 11.9682
v -27.30683039028273 1005.8190572468063 5.946502499999973
v -22.256200000000035 1001.7426644270594 12.0511927776725
v -22.256200000000035 1002.4025145757158 11.39921772018607
v -22.256200000000035 1007.8109537786373 5.946502499999973
v -22.452510007365625 1001.1553560000001 12.444589939784962
v -22.256200000000035 1001.1553560000001 12.52717993603794
v -22.256200000000035 1004.2589288287219 9.488285982582056
vt 0.5465147729286274 0.28004027936368703
vt 0.20591462942393188 0.681209078684361
vt 0.20591462942393582 0.681209078684365
vt 0.31607540697381475 0.6873266922783262
vt 0.2229065393722615 0.9565827632313791
vt 0.4948572363474205 0.38786663874457794
vt 0.22389243332439807 0.6497706659767132
vt 0.49485723634741957 0.38786663874457006
vt 0.12905271263581067 0.7877857969660687
vt 0.13660553074997875 0.923776298849931
vt 0.18891815051968228 0.9466362572394329
vt 0.2667691335484583 0.8039964542878101
vt 0.22216895312621218 0.9609374999999999
vt 0.12234679030875764 0.7953403695537341
vt 0.18372842156071928 0.7130471030631387
vt 0.18891815051968328 0.9466362572394408
vt 0.03906250000000011 0.8812324316631377
vt 0.3604865317140959 0.5592551754960534
vt 0.31699202408751714 0.45651663365947603
vt 0.20723290856216786 0.9543263013699875
vt 0.5873293227708507 0.13513820033792867
vt 0.5030083880261764 0.19517152740990895
vt 0.2585178846716895 0.583154077146621
vt 0.37479653832672205 0.3406372055362905
vt 0.20723290856217183 0.9543263013699914
vt 0.2807641606834709 0.5385864126362592
vt 0.258422259472696 0.8275918113774252
vt 0.5465147729286284 0.28004027936368703
vt 0.426882182934752 0.2642409829922667
vt 0.4622290889410112 0.23170472709617607
vt 0.3421427115326745 0.4013034317141211
vt 0.47958955822418675 0.41646396984611045
vt 0.417423640103844 0.3813267117780894
vt 0.4622290889410092 0.23170472709617607
vt 0.38008934691502116 0.5749374276567937
vt 0.33378699143241397 0.6580434745382766
vt 0.3421427115326745 0.40130343171412497
vt 0.23249562804085386 0.9219388795981404
vt 0.2238924333243971 0.6497706659767132
vt 0.23249562804085386 0.9219388795981444
vt 0.314582086997248 0.6900798915474853
vt 0.3506035306046081 0.3840085551390585
vt 0.28076416068346693 0.5385864126362592
vt 0.1223467903087606 0.7953403695537341
vt 0.22583284879510473 0.9426624810183046
vt 0.5873293227708468 0.1351382003379208
vt 0.38008934691502017 0.5749374276567937
vt 0.25851788467168757 0.5831540771466132
vt 0.33378699143241597 0.6580434745382766
vt 0.47958955822418875 0.41646396984611045
vt 0.5030083880261773 0.19517152740990107
vt 0.4814778870423108 0.26745249499859325
vt 0.5247800739099533 0.32699300194159997
vt 0.25842225947269404 0.8275918113774252
vt 0.31699202408751714 0.4565166336594839
vt 0.426882182934752 0.2642409829922707
vt 0.6171875000000002 0.11413631138389169
vt 0.4207423699232871 0.27180862773642145
vt 0.18372842156071928 0.7130471030631427
vt 0.37479653832672005 0.3406372055362905
vt 0.22290653937226249 0.9565827632313831
vt 0.42522429216372476 0.5100374707660882
vt 0.26676913354845533 0.8039964542878062
vt 0.2145851914653648 0.9435806571268565
vt 0.12905271263581067 0.7877857969660764
vt 0.22583284879510276 0.9426624810183046
vt 0.4207423699232881 0.27180862773642145
vt 0.42522429216372076 0.5100374707660921
vt 0.3506035306046071 0.3840085551390585
vt 0.13660553074997284 0.923776298849931
vt 0.35336939316537713 0.4026781274242467
vt 0.3160754069738128 0.6873266922783262
vn -0.1552 0.7044 0.6927
vn 0.0325 0.6586 0.7518
vn -0.2389 0.6992 0.6739
vn 0.0477 0.6909 0.7214
vn -0.231 0.576 0.7841
vn 0.0802 0.6189 0.7814
vn -0.0011 0.5236 0.852
vn -0.2688 0.4315 0.8611
vn -0.1394 0.4645 0.8745
vn -0.097 0.5153 0.8515
vn -0.2333 0.5746 0.7845
vn 0.0799 0.618 0.7821
vn -0.1061 0.7229 0.6828
vn -0.0182 0.6487 0.7609
vn -0.011 0.7013 0.7128
vn 0.1314 0.6743 0.7266
vn 0.0334 0.6996 0.7138
vn -0.2136 0.4256 0.8793
vn 0.129 0.7128 0.6894
vn 0.0019 0.6078 0.7941
vn -0.0959 0.5414 0.8353
vn -0.267 0.6307 0.7287
vn -0.2153 0.6166 0.7573
vn -0.2727 0.4522 0.8492
vn 0.1079 0.7199 0.6857
vn -0.3536 0.6709 0.6518
vn -0.3107 0.5985 0.7384
vn -0.2683 0.6802 0.6822
vn -0.3243 0.6649 0.6729
usemtl 166f8d08-47ca-42a0-b8c6-b0bdceb3b7a1
g 091_W_Aya_100K_01
f 2/64/3 35/54/3 3/38/3
usemtl 166f8d08-47ca-42a0-b8c6-b0bdceb3b7a1
g 091_W_Aya_100K_01
f 2/64/22 10/66/22 13/61/22
usemtl 166f8d08-47ca-42a0-b8c6-b0bdceb3b7a1
g 091_W_Aya_100K_01
f 28/71/2 4/60/2 26/33/2
usemtl 166f8d08-47ca-42a0-b8c6-b0bdceb3b7a1
g 091_W_Aya_100K_01
f 8/23/4 32/26/4 30/18/4
usemtl 166f8d08-47ca-42a0-b8c6-b0bdceb3b7a1
g 091_W_Aya_100K_01
f 26/33/10 29/6/10 7/50/10
usemtl 166f8d08-47ca-42a0-b8c6-b0bdceb3b7a1
g 091_W_Aya_100K_01
f 30/18/17 33/39/17 8/48/17
usemtl 166f8d08-47ca-42a0-b8c6-b0bdceb3b7a1
g 091_W_Aya_100K_01
f 18/52/8 25/57/8 6/28/8
usemtl 166f8d08-47ca-42a0-b8c6-b0bdceb3b7a1
g 091_W_Aya_100K_01
f 9/49/20 30/18/20 24/47/20
usemtl 166f8d08-47ca-42a0-b8c6-b0bdceb3b7a1
g 091_W_Aya_100K_01
f 4/24/14 14/58/14 26/33/14
usemtl 166f8d08-47ca-42a0-b8c6-b0bdceb3b7a1
g 091_W_Aya_100K_01
f 30/18/16 32/43/16 16/19/16
usemtl 166f8d08-47ca-42a0-b8c6-b0bdceb3b7a1
g 091_W_Aya_100K_01
f 30/18/16 16/19/16 28/71/16
usemtl 166f8d08-47ca-42a0-b8c6-b0bdceb3b7a1
g 091_W_Aya_100K_01
f 28/71/2 12/42/2 4/60/2
usemtl 166f8d08-47ca-42a0-b8c6-b0bdceb3b7a1
g 091_W_Aya_100K_01
f 28/71/25 20/31/25 12/69/25
usemtl 166f8d08-47ca-42a0-b8c6-b0bdceb3b7a1
g 091_W_Aya_100K_01
f 30/18/17 17/4/17 33/39/17
usemtl 166f8d08-47ca-42a0-b8c6-b0bdceb3b7a1
g 091_W_Aya_100K_01
f 26/33/10 18/52/10 29/6/10
usemtl 166f8d08-47ca-42a0-b8c6-b0bdceb3b7a1
g 091_W_Aya_100K_01
f 26/33/21 14/67/21 34/29/21
usemtl 166f8d08-47ca-42a0-b8c6-b0bdceb3b7a1
g 091_W_Aya_100K_01
f 18/52/18 6/1/18 36/53/18
usemtl 166f8d08-47ca-42a0-b8c6-b0bdceb3b7a1
g 091_W_Aya_100K_01
f 20/37/19 28/71/19 16/55/19
usemtl 166f8d08-47ca-42a0-b8c6-b0bdceb3b7a1
g 091_W_Aya_100K_01
f 26/33/21 34/29/21 18/52/21
usemtl 166f8d08-47ca-42a0-b8c6-b0bdceb3b7a1
g 091_W_Aya_100K_01
f 30/18/12 26/33/12 23/68/12
usemtl 166f8d08-47ca-42a0-b8c6-b0bdceb3b7a1
g 091_W_Aya_100K_01
f 28/71/6 26/33/6 30/18/6
usemtl 166f8d08-47ca-42a0-b8c6-b0bdceb3b7a1
g 091_W_Aya_100K_01
f 30/18/12 23/68/12 24/35/12
usemtl 166f8d08-47ca-42a0-b8c6-b0bdceb3b7a1
g 091_W_Aya_100K_01
f 2/64/3 5/44/3 11/65/3
usemtl 166f8d08-47ca-42a0-b8c6-b0bdceb3b7a1
g 091_W_Aya_100K_01
f 15/59/13 22/41/13 1/12/13
usemtl 166f8d08-47ca-42a0-b8c6-b0bdceb3b7a1
g 091_W_Aya_100K_01
f 2/64/23 3/40/23 10/45/23
usemtl 166f8d08-47ca-42a0-b8c6-b0bdceb3b7a1
g 091_W_Aya_100K_01
f 7/32/7 23/62/7 26/33/7
usemtl 166f8d08-47ca-42a0-b8c6-b0bdceb3b7a1
g 091_W_Aya_100K_01
f 15/59/13 19/3/13 22/41/13
usemtl 166f8d08-47ca-42a0-b8c6-b0bdceb3b7a1
g 091_W_Aya_100K_01
f 17/72/15 22/41/15 19/2/15
usemtl 166f8d08-47ca-42a0-b8c6-b0bdceb3b7a1
g 091_W_Aya_100K_01
f 15/15/1 1/63/1 35/27/1
usemtl 166f8d08-47ca-42a0-b8c6-b0bdceb3b7a1
g 091_W_Aya_100K_01
f 30/18/17 9/36/17 17/4/17
usemtl 166f8d08-47ca-42a0-b8c6-b0bdceb3b7a1
g 091_W_Aya_100K_01
f 27/30/11 21/22/11 18/52/11
usemtl 166f8d08-47ca-42a0-b8c6-b0bdceb3b7a1
g 091_W_Aya_100K_01
f 18/52/8 31/21/8 25/57/8
usemtl 166f8d08-47ca-42a0-b8c6-b0bdceb3b7a1
g 091_W_Aya_100K_01
f 34/56/5 27/34/5 18/52/5
usemtl 166f8d08-47ca-42a0-b8c6-b0bdceb3b7a1
g 091_W_Aya_100K_01
f 36/53/9 29/8/9 18/52/9
usemtl 166f8d08-47ca-42a0-b8c6-b0bdceb3b7a1
g 091_W_Aya_100K_01
f 2/64/3 11/65/3 35/54/3
usemtl 166f8d08-47ca-42a0-b8c6-b0bdceb3b7a1
g 091_W_Aya_100K_01
f 18/52/24 21/51/24 31/46/24
usemtl 166f8d08-47ca-42a0-b8c6-b0bdceb3b7a1
g 091_W_Aya_100K_01
f 17/72/15 19/2/15 33/7/15
usemtl 166f8d08-47ca-42a0-b8c6-b0bdceb3b7a1
g 091_W_Aya_100K_01
f 15/15/1 35/27/1 11/9/1
usemtl 166f8d08-47ca-42a0-b8c6-b0bdceb3b7a1
g 091_W_Aya_100K_01
f 40/16/29 37/64/29 39/20/29
usemtl 166f8d08-47ca-42a0-b8c6-b0bdceb3b7a1
g 091_W_Aya_100K_01
f 39/25/27 37/64/27 42/5/27
usemtl 166f8d08-47ca-42a0-b8c6-b0bdceb3b7a1
g 091_W_Aya_100K_01
f 39/25/27 42/5/27 43/13/27
usemtl 166f8d08-47ca-42a0-b8c6-b0bdceb3b7a1
g 091_W_Aya_100K_01
f 40/11/26 44/70/26 37/64/26
usemtl 166f8d08-47ca-42a0-b8c6-b0bdceb3b7a1
g 091_W_Aya_100K_01
f 44/10/28 41/17/28 38/14/28
usemtl 166f8d08-47ca-42a0-b8c6-b0bdceb3b7a1
g 091_W_Aya_100K_01
f 44/10/28 38/14/28 37/64/28
