mtllib 187.mtl
v -84.41725564036963 1301.2507425000001 15.288850951504983
v -85.36544501144371 1301.2507425000001 11.670612282395798
v -75.5522 1307.2271 12.8536
v -76.80045523577388 1307.828631644876 5.946502499999973
v -83.63675569867134 1301.2507425000001 17.202690340567614
v -80.29884368433481 1301.2507425000001 21.10217818588511
v -80.34633070327867 1301.2507425000001 20.921045712220526
v -77.20127192423162 1301.2507425000001 24.57851168337167
v -83.679 1301.8872 15.1854
v -72.8696 1307.014 13.9294
v -86.36128357485127 1301.2507425000001 9.32747964858838
v -69.8623 1306.644 19.6493
v -86.22744827422011 1301.2507425000001 9.475623172703695
v -81.43168531586782 1301.2507425000001 18.091616692838002
v -76.55009487894017 1301.2507425000001 25.603264756960616
v -76.7061 1307.132 11.0786
v -71.6904 1310.2428 8.3554
v -83.90949630759668 1303.862558060611 5.946502499999973
v -85.73957808808296 1301.2507425000001 11.275766843680099
v -75.1724 1303.5729 20.7156
v -76.3988201632937 1301.2507425000001 25.73697280109487
v -85.91663580166386 1301.2507425000001 10.818110649939475
v -70.6274 1307.96 15.304
v -80.59296499783616 1301.2507425000001 18.992492868907487
v -75.8877 1301.6827 25.5273
v -75.7010013880154 1301.2507425000001 26.59783618011865
v -79.93544972327788 1305.7690363428464 5.946502499999973
v -83.94852611274332 1301.2507425000001 12.818630606991846
v -81.90806886690521 1301.2507425000001 17.96824854980989
v -80.4448 1304.0197 10.8303
v -80.73717282959575 1301.2507425000001 18.84328053510053
v -76.0999 1304.474 18.6178
v -78.36753691085481 1301.2507425000001 22.501354943756983
v -76.2690302369918 1308.0761371552283 5.946502499999973
v -80.16082484439116 1301.2507425000001 21.194345273597804
v -81.8975 1302.5391 16.6178
v -83.4533503626481 1301.2507425000001 17.453626959951638
v -85.7349 1301.6448 9.1859
v -87.44956460612133 1301.2507425000001 6.3855303768245735
v -70.4482 1304.7046 22.9222
v -86.96376825957618 1301.6270606620242 5.946502499999973
v -76.31521051758979 1301.2507425000001 26.011925595354583
v -72.83351235184526 1309.349588188964 5.946502499999973
v -87.35145779307749 1301.2507425000001 7.904687374502964
v -84.45628566050775 1301.2507425000001 15.631402793416182
v -82.98025343350531 1304.3676870225754 5.946502499999973
v -73.356 1308.9283 6.5661
v -84.0117 1302.6807 10.2746
v -74.95935355057328 1301.2507425000001 27.13482918373912
v -87.4622775218952 1301.2507425000001 5.946502499999973
v -77.0178 1307.6454 6.3635
v -78.8142 1302.765 18.0737
v -79.8569 1302.627 17.205
v -65.12696950000003 1312.6832717869097 6.830266439232751
v -76.80045523577388 1307.828631644876 5.946502499999973
v -65.12696950000003 1311.7365969078141 8.310070264205683
v -65.12696950000003 1310.765586826826 12.091639830320036
v -65.12696950000003 1310.822471899947 11.984071350462449
v -65.12696950000003 1307.9570255844194 19.305312154872695
v -65.12696950000003 1312.8665108478256 6.121289854703525
v -76.7061 1307.132 11.0786
v -68.6809 1305.5386 24.6635
v -65.12696950000003 1308.0134766787442 19.10440122228257
v -72.35048321950916 1309.4388584765645 5.946502499999973
v -65.12696950000003 1309.6645004531856 14.129574279117493
v -71.3018 1302.1844 28.9883
v -78.36753691085481 1301.2507425000001 22.501354943756983
v -76.2690302369918 1308.0761371552283 5.946502499999973
v -65.12696950000003 1307.719195657782 21.91615585586323
v -72.83351235184526 1309.349588188964 5.946502499999973
v -73.356 1308.9283 6.5661
v -74.95935355057328 1301.2507425000001 27.13482918373912
v -65.12696950000003 1304.096325650234 27.115693978235928
v -65.12696950000003 1306.2460309743087 24.80013257656857
v -65.12696950000003 1307.12007373033 23.33236463144424
v -77.0178 1307.6454 6.3635
v -70.9421 1310.0123 10.1499
v -79.8569 1302.627 17.205
v -75.5522 1307.2271 12.8536
v -68.77941360898494 1311.4871450167589 5.946502499999973
v -65.12696950000003 1304.031699244946 27.357038806563292
v -72.8696 1307.014 13.9294
v -69.8623 1306.644 19.6493
v -65.12696950000003 1307.9667562369957 19.18901433918217
v -71.6904 1310.2428 8.3554
v -66.3018 1305.9889 25.2105
v -65.12696950000003 1312.9147915670526 5.946502499999973
v -75.1724 1303.5729 20.7156
v -72.05723052794521 1309.5700547204315 5.946502499999973
v -65.12696950000003 1310.8470319906041 11.796545892491318
v -70.6274 1307.96 15.304
v -65.12696950000003 1310.9630607629897 9.451599319764533
v -67.4307 1309.9695 10.7334
v -73.35882682668888 1301.2507425000001 29.377413056291115
v -75.8877 1301.6827 25.5273
v -74.8979977861384 1301.2507425000001 27.38446368284013
v -80.4448 1304.0197 10.8303
v -65.12696950000003 1309.2338389923043 16.615889562937895
v -76.0999 1304.474 18.6178
v -80.16082484439116 1301.2507425000001 21.194345273597804
v -67.51422264752152 1312.184952987543 5.946502499999973
v -65.12696950000003 1303.84022546921 28.467906404635812
v -70.4482 1304.7046 22.9222
v -73.8240909466682 1301.2507425000001 29.09186754182965
v -66.5537 1303.2217 28.2198
v -65.12696950000003 1306.6320531927486 24.3839367596953
v -68.5571 1307.8723 16.2576
v -65.12696950000003 1309.4550249539147 15.517144214580119
v -65.12696950000003 1303.268427771572 29.9151153526402
v -65.12696950000003 1302.9195995199052 30.692190756210593
v -71.3018 1302.1844 28.9883
v -72.03028281911801 1301.2507425000001 29.836560779115565
v -73.35882682668888 1301.2507425000001 29.377413056291115
v -65.12696950000003 1303.84022546921 28.467906404635812
v -68.02668133478306 1301.2507425000001 31.3358814362777
v -69.89288507396265 1301.2507425000001 29.930941982144446
v -65.12696950000003 1301.2507425000001 32.75228581273463
v -68.6809 1305.5386 24.6635
v -67.07693812683401 1301.2507425000001 32.34270196067225
v -68.8670325506209 1301.2507425000001 30.26767254204683
v -66.3018 1305.9889 25.2105
v -74.8979977861384 1301.2507425000001 27.38446368284013
v -73.8240909466682 1301.2507425000001 29.09186754182965
v -66.5537 1303.2217 28.2198
vt 0.09179513855422523 0.28793797075157024
vt 0.5768874672905825 0.5076544880316187
vt 0.20244392208219086 0.5385590198874002
vt 0.3778762191260208 0.7747592564462609
vt 0.532389531616264 0.8848027558011996
vt 0.37628194856846053 0.610823040517278
vt 0.586580058198912 0.16730047625956324
vt 0.6972507785238505 0.18173370438645076
vt 0.6430222065475449 0.9583604007501663
vt 0.11188724791637494 0.11931844623134935
vt 0.039062499999998196 0.12141687347890229
vt 0.7562884895241134 0.20051044068976698
vt 0.3361608448240336 0.4789965567855977
vt 0.8447064543341619 0.2894846083325119
vt 0.7562884895241199 0.2005104406897733
vt 0.1824782949156153 0.12307485338002655
vt 0.5865800581989057 0.16730047625956324
vt 0.27725438874037805 0.6450056602940989
vt 0.3778762191260208 0.7747592564462545
vt 0.13861532085711112 0.4525175887455227
vt 0.32572015456941833 0.12935908476150348
vt 0.5424979497953648 0.34143848680471445
vt 0.20244392208219086 0.5385590198873937
vt 0.4005482869371032 0.13576125010274664
vt 0.6237520936007319 0.17640199012931923
vt 0.08593137973970057 0.25402301737875377
vt 0.3325562763609673 0.6747297922051488
vt 0.08647922531614252 0.3561408296366394
vt 0.5220065584242681 0.8771179719014318
vt 0.6544361408957722 0.9609375000000018
vt 0.8622529744344333 0.21716429729671616
vt 0.5679381872573185 0.9071937205580551
vt 0.09836953421669078 0.40951888444782547
vt 0.8447064543341619 0.28948460833250556
vt 0.37130644011736114 0.7686652401506054
vt 0.17567642984633225 0.17522248557781017
vt 0.7615141064375494 0.5773858808239486
vt 0.32572015456941833 0.12935908476149716
vt 0.6972507785238569 0.3700964180507291
vt 0.1359837328313968 0.11967690843681955
vt 0.8671874999999982 0.2179055968381407
vt 0.72321912701031 0.7038375594945067
vt 0.5310347772969526 0.27839103806347576
vt 0.5644426360383359 0.9027126486885945
vt 0.5654242947921766 0.8171601454886093
vt 0.7373718822682838 0.40448593554595313
vt 0.06031422060869344 0.22114284528089556
vt 0.6874706745971502 0.8355894701406944
vt 0.5555728187039021 0.16046597068836888
vt 0.14488745406703754 0.45625063379349884
vt 0.08593137973969421 0.2540230173787602
vt 0.2831530338945092 0.6522136692612599
vt 0.41067146606367816 0.7139915930029437
vt 0.15542073635401088 0.48180912946835364
vt 0.532389531616264 0.8848027558011932
vt 0.7887136237338717 0.4655542988777023
vt 0.6924507691557883 0.18037805119535943
vt 0.5768874672905825 0.8859391804790508
vt 0.6891354304488676 0.18025959817607573
vt 0.6170085710350094 0.5535071780252423
vt 0.33560561266877803 0.6798495499228073
vt 0.3578729004637082 0.1311418496702189
vt 0.22321547536630693 0.13006039233382882
vt 0.4750629977353098 0.15668364389981482
vt 0.039447636445364795 0.18723058198541898
vt 0.5539611222937707 0.4274122805427649
vt 0.03944763644537116 0.18723058198541898
vt 0.6972507785238569 0.26692786556506354
vt 0.5644426360383487 0.9027126486885881
vt 0.8622529744344397 0.21716429729671616
vt 0.6593227117195092 0.9433467775654459
vt 0.6874706745971502 0.8355894701406881
vt 0.694468310846583 0.8031971053840865
vt 0.7563479925334384 0.5943931715128918
vt 0.413805327073803 0.8093342249229086
vt 0.18713960234474447 0.4904597292840036
vt 0.27891537683991985 0.6497686105619476
vt 0.16837523677480826 0.5053148520268703
vt 0.5679381872573185 0.9071937205580487
vt 0.7929695041825432 0.20802403439049466
vt 0.33255627636098 0.6747297922051488
vt 0.5555728187039084 0.16046597068836888
vt 0.6430222065475385 0.9583604007501663
vt 0.3934767073160693 0.650944144261705
vt 0.1786369104911051 0.514753134580118
vt 0.6030140068505715 0.9475436576187185
vt 0.7615141064375557 0.5773858808239549
vt 0.5124258875310652 0.864579773038018
vt 0.7956786897660444 0.4419354614709249
vt 0.7563479925334384 0.5943931715128983
vt 0.27891537683991985 0.6497686105619539
vt 0.18247829491560255 0.12307485338002655
vt 0.09836953421668441 0.40951888444781903
vt 0.3523402795369211 0.7069353931833274
vt 0.4221346385620904 0.30131738306028755
vt 0.09179513855423159 0.28793797075157024
vt 0.422832777452779 0.8114773842806355
vt 0.6593227117195283 0.9433467775654459
vt 0.08647922531614888 0.35614082963663307
vt 0.3934767073160693 0.5133860742808216
vt 0.6237520936007255 0.17640199012931923
vt 0.8301519382000303 0.33207223335531666
vt 0.422832777452779 0.8114773842806292
vt 0.1683752367748146 0.5053148520268703
vt 0.2831530338945028 0.6522136692612599
vt 0.5124258875310779 0.864579773038018
vt 0.3554254615101997 0.72128129559984
vt 0.8434461558515687 0.21265524246704592
vt 0.31323449982722185 0.31851214180789633
vt 0.4889073204864658 0.8213016186900987
vt 0.6944683108465893 0.8031971053840865
vt 0.29030815483040373 0.16375931307940428
vt 0.4777559091154836 0.15670207962146643
vt 0.12409215360349944 0.3299753143063022
vt 0.7927551663990312 0.4511092320363186
vt 0.7956786897660444 0.4419354614709312
vt 0.31062478505637864 0.127189378672652
vt 0.4750629977353034 0.15668364389981482
vt 0.17550556048872287 0.5094619976488397
vt 0.7431034685174868 0.5993598680188721
vt 0.7660298135143049 0.4789965567855977
vt 0.3578729004637209 0.1311418496702189
vt 0.788713623733878 0.4655542988777023
vt 0.3554254615101997 0.7212812955998273
vt 0.09345179581096867 0.39508607461542933
vt 0.2524966901511636 0.5846775942671116
vt 0.48890732048645946 0.8213016186900987
vt 0.09345179581097503 0.39508607461542933
vt 0.21574222560879613 0.12818872533491865
vt 0.2845765685812008 0.24400152056825175
vt 0.5768874672905825 0.7025284205045377
vt 0.471848325725341 0.15587363485336336
vt 0.4335978110604963 0.7827706279933853
vt 0.27725438874037167 0.6450056602940989
vt 0.13861532085709202 0.4525175887455227
vn -0.3762 0.8392 0.3926
vn -0.3871 0.8411 0.3778
vn -0.3739 0.8045 0.4615
vn -0.4892 0.8427 0.2249
vn -0.6571 0.7501 -0.0749
vn -0.3873 0.8617 0.3279
vn -0.4932 0.8115 0.3134
vn -0.3283 0.8066 0.4916
vn -0.5425 0.8363 0.0793
vn -0.5474 0.8097 0.2117
vn -0.4755 0.8391 0.2642
vn -0.4788 0.8052 0.3499
vn -0.3188 0.8407 0.4378
vn -0.6024 0.798 0.0174
vn -0.4527 0.7875 0.4182
vn -0.4532 0.8337 0.3154
vn -0.5473 0.833 0.0808
vn -0.5477 0.8242 0.1436
vn -0.5707 0.8105 0.1321
vn -0.4457 0.7848 0.4306
vn -0.5137 0.8151 0.2679
vn -0.4214 0.878 0.2269
vn -0.5902 0.8064 0.0381
vn -0.6332 0.7682 -0.0941
vn -0.4272 0.8177 0.3859
vn -0.4303 0.8054 0.4077
vn -0.3838 0.8312 0.4023
vn -0.622 0.7789 0.0796
vn -0.5486 0.8326 0.076
vn -0.2075 0.7677 0.6063
vn -0.2237 0.7061 0.6719
vn -0.6578 0.7428 -0.1248
vn -0.4407 0.8559 0.2707
vn -0.4351 0.7538 0.4923
vn -0.5909 0.7864 0.1797
vn -0.3286 0.8865 0.3257
vn -0.4628 0.873 0.1541
vn -0.4671 0.8444 0.2623
vn -0.2905 0.8687 0.4012
vn -0.1854 0.6732 0.7158
vn -0.1965 0.8894 0.4128
vn -0.251 0.8442 0.4736
vn -0.4338 0.8964 0.0907
vn -0.1626 0.8681 0.469
vn -0.2827 0.9246 0.2554
vn -0.4068 0.9092 0.089
vn -0.4758 0.8759 0.0798
vn -0.4789 0.8682 -0.1302
vn -0.1608 0.8115 0.5618
vn -0.2552 0.8905 0.3767
vn -0.3765 0.886 0.2708
vn -0.1751 0.8703 0.4602
vn -0.052 0.7373 0.6736
vn -0.4835 0.8723 0.073
vn -0.1938 0.8588 0.4742
vn -0.4764 0.8693 0.1315
vn -0.289 0.9269 0.2395
vn -0.4982 0.8518 -0.162
vn -0.3372 0.8199 0.4627
vn -0.4009 0.9084 0.119
vn -0.188 0.762 0.6196
vn -0.6252 0.7638 -0.1601
vn -0.2891 0.8333 0.4711
vn -0.5585 0.825 -0.0862
vn -0.5242 0.8418 0.1288
vn -0.1616 0.8741 0.4581
vn -0.365 0.8993 0.2408
vn -0.4155 0.8964 0.1545
vn 0.077 0.7307 0.6784
vn -0.3904 0.9103 0.1374
vn -0.0884 0.8018 0.591
vn 0.0768 0.731 0.678
vn -0.374 0.9263 0.0458
vn -0.3791 0.9071 0.1826
vn -0.0449 0.827 0.5604
vn -0.2531 0.8515 0.4593
vn -0.4156 0.8924 0.1755
vn -0.2046 0.8789 0.431
vn -0.1997 0.8364 0.5104
vn -0.079 0.8397 0.5372
vn -0.0321 0.6857 0.7272
vn -0.4557 0.8427 0.2866
vn -0.1853 0.8042 0.5647
vn -0.3982 0.8368 0.3757
vn -0.2182 0.744 0.6315
vn -0.4232 0.8426 0.3329
vn -0.2688 0.8332 0.4833
vn -0.1311 0.7703 0.624
usemtl 0dc855e7-5d70-4a49-92fc-0a0baa675c77
g 091_W_Aya_100K_01
f 51/120/13 30/131/13 47/121/13
usemtl 0dc855e7-5d70-4a49-92fc-0a0baa675c77
g 091_W_Aya_100K_01
f 52/6/15 14/94/15 31/61/15
usemtl 0dc855e7-5d70-4a49-92fc-0a0baa675c77
g 091_W_Aya_100K_01
f 11/32/25 13/69/25 38/58/25
usemtl 0dc855e7-5d70-4a49-92fc-0a0baa675c77
g 091_W_Aya_100K_01
f 2/106/3 28/110/3 30/131/3
usemtl 0dc855e7-5d70-4a49-92fc-0a0baa675c77
g 091_W_Aya_100K_01
f 45/75/5 9/133/5 1/97/5
usemtl 0dc855e7-5d70-4a49-92fc-0a0baa675c77
g 091_W_Aya_100K_01
f 25/76/35 21/119/35 42/78/35
usemtl 0dc855e7-5d70-4a49-92fc-0a0baa675c77
g 091_W_Aya_100K_01
f 32/100/8 6/77/8 35/18/8
usemtl 0dc855e7-5d70-4a49-92fc-0a0baa675c77
g 091_W_Aya_100K_01
f 51/120/36 43/56/36 34/37/36
usemtl 0dc855e7-5d70-4a49-92fc-0a0baa675c77
g 091_W_Aya_100K_01
f 53/84/6 52/6/6 10/66/6
usemtl 0dc855e7-5d70-4a49-92fc-0a0baa675c77
g 091_W_Aya_100K_01
f 52/6/20 31/61/20 24/81/20
usemtl 0dc855e7-5d70-4a49-92fc-0a0baa675c77
g 091_W_Aya_100K_01
f 52/6/15 53/84/15 14/94/15
usemtl 0dc855e7-5d70-4a49-92fc-0a0baa675c77
g 091_W_Aya_100K_01
f 25/76/33 12/95/33 20/13/33
usemtl 0dc855e7-5d70-4a49-92fc-0a0baa675c77
g 091_W_Aya_100K_01
f 39/9/14 41/98/14 50/30/14
usemtl 0dc855e7-5d70-4a49-92fc-0a0baa675c77
g 091_W_Aya_100K_01
f 46/111/16 11/79/16 38/58/16
usemtl 0dc855e7-5d70-4a49-92fc-0a0baa675c77
g 091_W_Aya_100K_01
f 46/111/16 18/72/16 44/86/16
usemtl 0dc855e7-5d70-4a49-92fc-0a0baa675c77
g 091_W_Aya_100K_01
f 32/100/8 35/18/8 20/13/8
usemtl 0dc855e7-5d70-4a49-92fc-0a0baa675c77
g 091_W_Aya_100K_01
f 38/58/19 13/44/19 22/55/19
usemtl 0dc855e7-5d70-4a49-92fc-0a0baa675c77
g 091_W_Aya_100K_01
f 32/100/9 10/66/9 52/6/9
usemtl 0dc855e7-5d70-4a49-92fc-0a0baa675c77
g 091_W_Aya_100K_01
f 51/120/1 48/45/1 30/131/1
usemtl 0dc855e7-5d70-4a49-92fc-0a0baa675c77
g 091_W_Aya_100K_01
f 26/54/39 49/50/39 40/109/39
usemtl 0dc855e7-5d70-4a49-92fc-0a0baa675c77
g 091_W_Aya_100K_01
f 46/73/2 38/58/2 27/42/2
usemtl 0dc855e7-5d70-4a49-92fc-0a0baa675c77
g 091_W_Aya_100K_01
f 26/54/39 40/109/39 25/76/39
usemtl 0dc855e7-5d70-4a49-92fc-0a0baa675c77
g 091_W_Aya_100K_01
f 48/45/29 51/120/29 38/58/29
usemtl 0dc855e7-5d70-4a49-92fc-0a0baa675c77
g 091_W_Aya_100K_01
f 51/120/17 27/42/17 38/58/17
usemtl 0dc855e7-5d70-4a49-92fc-0a0baa675c77
g 091_W_Aya_100K_01
f 25/76/27 42/104/27 26/54/27
usemtl 0dc855e7-5d70-4a49-92fc-0a0baa675c77
g 091_W_Aya_100K_01
f 19/29/10 48/45/10 22/5/10
usemtl 0dc855e7-5d70-4a49-92fc-0a0baa675c77
g 091_W_Aya_100K_01
f 25/76/38 33/126/38 8/23/38
usemtl 0dc855e7-5d70-4a49-92fc-0a0baa675c77
g 091_W_Aya_100K_01
f 25/76/38 20/13/38 33/126/38
usemtl 0dc855e7-5d70-4a49-92fc-0a0baa675c77
g 091_W_Aya_100K_01
f 30/131/32 28/127/32 1/103/32
usemtl 0dc855e7-5d70-4a49-92fc-0a0baa675c77
g 091_W_Aya_100K_01
f 3/2/22 17/46/22 16/60/22
usemtl 0dc855e7-5d70-4a49-92fc-0a0baa675c77
g 091_W_Aya_100K_01
f 36/53/12 5/4/12 37/35/12
usemtl 0dc855e7-5d70-4a49-92fc-0a0baa675c77
g 091_W_Aya_100K_01
f 53/84/40 29/107/40 14/94/40
usemtl 0dc855e7-5d70-4a49-92fc-0a0baa675c77
g 091_W_Aya_100K_01
f 46/111/16 44/86/16 11/79/16
usemtl 0dc855e7-5d70-4a49-92fc-0a0baa675c77
g 091_W_Aya_100K_01
f 45/75/21 5/19/21 36/53/21
usemtl 0dc855e7-5d70-4a49-92fc-0a0baa675c77
g 091_W_Aya_100K_01
f 51/120/36 47/121/36 43/56/36
usemtl 0dc855e7-5d70-4a49-92fc-0a0baa675c77
g 091_W_Aya_100K_01
f 45/75/21 36/53/21 9/133/21
usemtl 0dc855e7-5d70-4a49-92fc-0a0baa675c77
g 091_W_Aya_100K_01
f 3/2/30 36/53/30 53/84/30
usemtl 0dc855e7-5d70-4a49-92fc-0a0baa675c77
g 091_W_Aya_100K_01
f 2/106/3 30/131/3 48/45/3
usemtl 0dc855e7-5d70-4a49-92fc-0a0baa675c77
g 091_W_Aya_100K_01
f 9/133/24 16/60/24 30/131/24
usemtl 0dc855e7-5d70-4a49-92fc-0a0baa675c77
g 091_W_Aya_100K_01
f 7/105/18 32/100/18 52/6/18
usemtl 0dc855e7-5d70-4a49-92fc-0a0baa675c77
g 091_W_Aya_100K_01
f 36/53/31 37/35/31 29/124/31
usemtl 0dc855e7-5d70-4a49-92fc-0a0baa675c77
g 091_W_Aya_100K_01
f 38/58/19 22/55/19 48/45/19
usemtl 0dc855e7-5d70-4a49-92fc-0a0baa675c77
g 091_W_Aya_100K_01
f 7/52/28 52/6/28 24/27/28
usemtl 0dc855e7-5d70-4a49-92fc-0a0baa675c77
g 091_W_Aya_100K_01
f 3/2/11 16/60/11 9/133/11
usemtl 0dc855e7-5d70-4a49-92fc-0a0baa675c77
g 091_W_Aya_100K_01
f 36/53/31 29/124/31 53/84/31
usemtl 0dc855e7-5d70-4a49-92fc-0a0baa675c77
g 091_W_Aya_100K_01
f 8/3/7 15/85/7 25/76/7
usemtl 0dc855e7-5d70-4a49-92fc-0a0baa675c77
g 091_W_Aya_100K_01
f 32/100/37 23/22/37 10/66/37
usemtl 0dc855e7-5d70-4a49-92fc-0a0baa675c77
g 091_W_Aya_100K_01
f 15/85/34 21/119/34 25/76/34
usemtl 0dc855e7-5d70-4a49-92fc-0a0baa675c77
g 091_W_Aya_100K_01
f 39/83/23 18/48/23 41/71/23
usemtl 0dc855e7-5d70-4a49-92fc-0a0baa675c77
g 091_W_Aya_100K_01
f 30/131/32 1/103/32 9/133/32
usemtl 0dc855e7-5d70-4a49-92fc-0a0baa675c77
g 091_W_Aya_100K_01
f 39/83/23 44/86/23 18/48/23
usemtl 0dc855e7-5d70-4a49-92fc-0a0baa675c77
g 091_W_Aya_100K_01
f 51/120/17 4/90/17 27/42/17
usemtl 0dc855e7-5d70-4a49-92fc-0a0baa675c77
g 091_W_Aya_100K_01
f 9/133/4 36/53/4 3/2/4
usemtl 0dc855e7-5d70-4a49-92fc-0a0baa675c77
g 091_W_Aya_100K_01
f 7/105/18 6/91/18 32/100/18
usemtl 0dc855e7-5d70-4a49-92fc-0a0baa675c77
g 091_W_Aya_100K_01
f 19/29/26 2/88/26 48/45/26
usemtl 0dc855e7-5d70-4a49-92fc-0a0baa675c77
g 091_W_Aya_100K_01
f 62/130/63 94/128/63 66/114/63
usemtl 0dc855e7-5d70-4a49-92fc-0a0baa675c77
g 091_W_Aya_100K_01
f 86/112/72 74/117/72 106/38/72
usemtl 0dc855e7-5d70-4a49-92fc-0a0baa675c77
g 091_W_Aya_100K_01
f 88/13/56 83/95/56 107/43/56
usemtl 0dc855e7-5d70-4a49-92fc-0a0baa675c77
g 091_W_Aya_100K_01
f 83/95/55 103/109/55 84/64/55
usemtl 0dc855e7-5d70-4a49-92fc-0a0baa675c77
g 091_W_Aya_100K_01
f 75/122/50 62/130/50 86/112/50
usemtl 0dc855e7-5d70-4a49-92fc-0a0baa675c77
g 091_W_Aya_100K_01
f 107/43/52 58/57/52 91/22/52
usemtl 0dc855e7-5d70-4a49-92fc-0a0baa675c77
g 091_W_Aya_100K_01
f 82/66/61 79/2/61 78/84/61
usemtl 0dc855e7-5d70-4a49-92fc-0a0baa675c77
g 091_W_Aya_100K_01
f 64/115/46 71/121/46 89/89/46
usemtl 0dc855e7-5d70-4a49-92fc-0a0baa675c77
g 091_W_Aya_100K_01
f 82/66/43 91/22/43 93/68/43
usemtl 0dc855e7-5d70-4a49-92fc-0a0baa675c77
g 091_W_Aya_100K_01
f 93/68/75 92/12/75 56/80/75
usemtl 0dc855e7-5d70-4a49-92fc-0a0baa675c77
g 091_W_Aya_100K_01
f 91/22/60 90/8/60 93/68/60
usemtl 0dc855e7-5d70-4a49-92fc-0a0baa675c77
g 091_W_Aya_100K_01
f 91/22/42 99/100/42 88/13/42
usemtl 0dc855e7-5d70-4a49-92fc-0a0baa675c77
g 091_W_Aya_100K_01
f 73/63/67 105/36/67 81/129/67
usemtl 0dc855e7-5d70-4a49-92fc-0a0baa675c77
g 091_W_Aya_100K_01
f 69/24/47 59/132/47 62/130/47
usemtl 0dc855e7-5d70-4a49-92fc-0a0baa675c77
g 091_W_Aya_100K_01
f 107/43/44 65/25/44 57/59/44
usemtl 0dc855e7-5d70-4a49-92fc-0a0baa675c77
g 091_W_Aya_100K_01
f 107/43/74 98/82/74 108/17/74
usemtl 0dc855e7-5d70-4a49-92fc-0a0baa675c77
g 091_W_Aya_100K_01
f 107/43/79 91/22/79 88/13/79
usemtl 0dc855e7-5d70-4a49-92fc-0a0baa675c77
g 091_W_Aya_100K_01
f 85/46/57 54/108/57 60/31/57
usemtl 0dc855e7-5d70-4a49-92fc-0a0baa675c77
g 091_W_Aya_100K_01
f 62/130/54 59/132/54 84/118/54
usemtl 0dc855e7-5d70-4a49-92fc-0a0baa675c77
g 091_W_Aya_100K_01
f 62/130/54 84/118/54 103/109/54
usemtl 0dc855e7-5d70-4a49-92fc-0a0baa675c77
g 091_W_Aya_100K_01
f 81/129/68 105/36/68 102/16/68
usemtl 0dc855e7-5d70-4a49-92fc-0a0baa675c77
g 091_W_Aya_100K_01
f 73/63/69 74/117/69 86/112/69
usemtl 0dc855e7-5d70-4a49-92fc-0a0baa675c77
g 091_W_Aya_100K_01
f 62/130/65 72/50/65 96/135/65
usemtl 0dc855e7-5d70-4a49-92fc-0a0baa675c77
g 091_W_Aya_100K_01
f 93/68/71 77/39/71 82/66/71
usemtl 0dc855e7-5d70-4a49-92fc-0a0baa675c77
g 091_W_Aya_100K_01
f 93/68/80 56/80/80 54/108/80
usemtl 0dc855e7-5d70-4a49-92fc-0a0baa675c77
g 091_W_Aya_100K_01
f 90/8/73 92/15/73 93/68/73
usemtl 0dc855e7-5d70-4a49-92fc-0a0baa675c77
g 091_W_Aya_100K_01
f 107/43/74 83/95/74 98/82/74
usemtl 0dc855e7-5d70-4a49-92fc-0a0baa675c77
g 091_W_Aya_100K_01
f 73/63/69 86/112/69 105/36/69
usemtl 0dc855e7-5d70-4a49-92fc-0a0baa675c77
g 091_W_Aya_100K_01
f 62/130/65 103/109/65 72/50/65
usemtl 0dc855e7-5d70-4a49-92fc-0a0baa675c77
g 091_W_Aya_100K_01
f 85/46/45 60/70/45 87/41/45
usemtl 0dc855e7-5d70-4a49-92fc-0a0baa675c77
g 091_W_Aya_100K_01
f 85/46/57 77/39/57 54/108/57
usemtl 0dc855e7-5d70-4a49-92fc-0a0baa675c77
g 091_W_Aya_100K_01
f 75/62/41 86/112/41 106/21/41
usemtl 0dc855e7-5d70-4a49-92fc-0a0baa675c77
g 091_W_Aya_100K_01
f 83/95/55 84/64/55 63/113/55
usemtl 0dc855e7-5d70-4a49-92fc-0a0baa675c77
g 091_W_Aya_100K_01
f 65/101/70 107/43/70 108/7/70
usemtl 0dc855e7-5d70-4a49-92fc-0a0baa675c77
g 091_W_Aya_100K_01
f 75/122/50 69/24/50 62/130/50
usemtl 0dc855e7-5d70-4a49-92fc-0a0baa675c77
g 091_W_Aya_100K_01
f 93/68/80 54/108/80 77/39/80
usemtl 0dc855e7-5d70-4a49-92fc-0a0baa675c77
g 091_W_Aya_100K_01
f 107/43/52 57/59/52 58/57/52
usemtl 0dc855e7-5d70-4a49-92fc-0a0baa675c77
g 091_W_Aya_100K_01
f 71/121/64 61/60/64 85/46/64
usemtl 0dc855e7-5d70-4a49-92fc-0a0baa675c77
g 091_W_Aya_100K_01
f 63/113/78 98/49/78 83/95/78
usemtl 0dc855e7-5d70-4a49-92fc-0a0baa675c77
g 091_W_Aya_100K_01
f 77/39/49 79/2/49 82/66/49
usemtl 0dc855e7-5d70-4a49-92fc-0a0baa675c77
g 091_W_Aya_100K_01
f 77/39/51 85/46/51 79/2/51
usemtl 0dc855e7-5d70-4a49-92fc-0a0baa675c77
g 091_W_Aya_100K_01
f 71/121/62 97/131/62 61/60/62
usemtl 0dc855e7-5d70-4a49-92fc-0a0baa675c77
g 091_W_Aya_100K_01
f 83/95/76 95/76/76 103/109/76
usemtl 0dc855e7-5d70-4a49-92fc-0a0baa675c77
g 091_W_Aya_100K_01
f 91/22/60 58/57/60 90/8/60
usemtl 0dc855e7-5d70-4a49-92fc-0a0baa675c77
g 091_W_Aya_100K_01
f 68/87/77 55/74/77 76/120/77
usemtl 0dc855e7-5d70-4a49-92fc-0a0baa675c77
g 091_W_Aya_100K_01
f 85/46/48 101/34/48 80/102/48
usemtl 0dc855e7-5d70-4a49-92fc-0a0baa675c77
g 091_W_Aya_100K_01
f 70/123/66 71/121/66 64/115/66
usemtl 0dc855e7-5d70-4a49-92fc-0a0baa675c77
g 091_W_Aya_100K_01
f 85/46/45 87/41/45 101/14/45
usemtl 0dc855e7-5d70-4a49-92fc-0a0baa675c77
g 091_W_Aya_100K_01
f 62/130/63 104/93/63 94/128/63
usemtl 0dc855e7-5d70-4a49-92fc-0a0baa675c77
g 091_W_Aya_100K_01
f 80/102/58 71/121/58 85/46/58
usemtl 0dc855e7-5d70-4a49-92fc-0a0baa675c77
g 091_W_Aya_100K_01
f 88/13/59 100/134/59 67/126/59
usemtl 0dc855e7-5d70-4a49-92fc-0a0baa675c77
g 091_W_Aya_100K_01
f 80/102/58 89/116/58 71/121/58
usemtl 0dc855e7-5d70-4a49-92fc-0a0baa675c77
g 091_W_Aya_100K_01
f 86/112/53 66/114/53 105/36/53
usemtl 0dc855e7-5d70-4a49-92fc-0a0baa675c77
g 091_W_Aya_100K_01
f 111/114/85 113/125/85 112/99/85
usemtl 0dc855e7-5d70-4a49-92fc-0a0baa675c77
g 091_W_Aya_100K_01
f 119/67/88 117/11/88 110/10/88
usemtl 0dc855e7-5d70-4a49-92fc-0a0baa675c77
g 091_W_Aya_100K_01
f 111/114/87 121/112/87 118/130/87
usemtl 0dc855e7-5d70-4a49-92fc-0a0baa675c77
g 091_W_Aya_100K_01
f 120/26/86 115/47/86 109/40/86
usemtl 0dc855e7-5d70-4a49-92fc-0a0baa675c77
g 091_W_Aya_100K_01
f 115/47/84 119/65/84 110/10/84
usemtl 0dc855e7-5d70-4a49-92fc-0a0baa675c77
g 091_W_Aya_100K_01
f 115/47/84 110/10/84 109/40/84
usemtl 0dc855e7-5d70-4a49-92fc-0a0baa675c77
g 091_W_Aya_100K_01
f 111/114/81 112/28/81 116/1/81
usemtl 0dc855e7-5d70-4a49-92fc-0a0baa675c77
g 091_W_Aya_100K_01
f 120/26/86 109/40/86 114/92/86
usemtl 0dc855e7-5d70-4a49-92fc-0a0baa675c77
g 091_W_Aya_100K_01
f 120/26/86 114/92/86 124/36/86
usemtl 0dc855e7-5d70-4a49-92fc-0a0baa675c77
g 091_W_Aya_100K_01
f 123/33/82 118/130/82 122/20/82
usemtl 0dc855e7-5d70-4a49-92fc-0a0baa675c77
g 091_W_Aya_100K_01
f 111/114/81 116/1/81 124/36/81
usemtl 0dc855e7-5d70-4a49-92fc-0a0baa675c77
g 091_W_Aya_100K_01
f 116/96/83 120/51/83 124/36/83
