mtllib 202.mtl
v 88.8439 526.5481 220.2369
v 85.1879350621966 529.5768915000001 219.0509542139515
v 88.64459078910619 526.5963344064246 220.30034999999998
v 83.90084072127527 529.5768915000001 220.30034999999998
v 87.57066530684172 529.5768915000001 217.79498855897253
v 86.1854016047005 529.5768915000001 218.4688452099789
v 86.11211026094546 527.944819106905 220.30034999999998
v 106.35610849999996 513.9294059884556 217.83560870019878
v 106.1233 511.8894 206.6674
v 105.853 528.7316 216.3355
v 102.1654 525.3409 211.0634
v 106.35610849999996 516.3062367815853 199.99184723256607
v 104.42525218009114 529.5768915000001 214.10629793424096
v 91.28712321061438 529.5768915000001 217.99514140196027
v 106.35610849999996 508.4446871659536 211.28622150546536
v 106.35610849999996 508.1325293501027 213.94979864998288
v 97.91238684344253 529.5768915000001 205.0144105334304
v 97.65306374814404 529.5768915000001 204.4389496859907
v 96.31057148702 529.5768915000001 201.29413256755024
v 106.35610849999996 528.6847995281956 217.19861423886613
v 88.87706106818689 526.4870199781595 220.30034999999998
v 94.44644670552839 528.1116376858469 220.30034999999998
v 106.35610849999996 510.32034416899296 208.44072833768175
v 88.86293307021879 526.4912082408234 220.30034999999998
v 106.35610849999996 519.5556899740237 217.91014891871336
v 96.50413972465255 529.5768915000001 202.22382498137918
v 106.35610849999996 511.30792056833 206.90365446457824
v 104.035 514.8841 213.7254
v 103.4238010004159 529.5768915000001 212.57303820383197
v 106.35610849999996 526.6411464075431 183.62286836455291
v 101.2875764322749 529.5768915000001 187.38265378967893
v 98.14869316767835 529.5768915000001 192.71111869025682
v 87.57899790688411 529.5768915000001 217.79419176004066
v 88.64459078910619 526.5963344064246 220.30034999999998
v 106.35610849999996 528.0429701596654 181.38326209014843
v 105.8685 513.3092 217.0672
v 106.35610849999996 511.8450466606634 206.29663183896938
v 100.8495 522.1436 207.7952
v 104.4435 512.5802 212.4116
v 106.35610849999996 529.5768915000001 217.29669348506732
v 97.9198 526.5437 199.7549
v 91.74113757039092 526.1801024116543 220.30034999999998
v 95.40707121766778 529.5768915000001 220.30034999999998
v 106.24828057035226 529.5768915000001 217.1106051215468
v 96.56891089403763 529.5768915000001 196.39239348222884
v 96.06954013258292 529.5768915000001 199.6757899561573
v 106.35610849999996 517.2778800566593 218.05236831383365
v 96.95584428148436 529.5768915000001 195.21673407730208
v 103.413 526.8492 188.1971
v 91.25607030341814 529.5768915000001 217.98120566989166
v 106.35610849999996 524.9576225161226 217.29894819654064
v 106.35610849999996 509.44977444378276 215.70115759402336
v 104.1381 516.9984 203.287
v 106.35610849999996 525.5596381769515 217.2681341895621
v 96.3483 529.0276 200.3448
v 106.35610849999996 508.61330761953127 210.96075119882246
v 101.0876 523.806 209.1593
v 88.8439 526.5481 220.2369
v 106.35610849999996 508.38243728277047 211.8204003653271
v 105.5251 518.8176 216.9109
v 101.0098 520.9592 206.241
v 96.25158820113836 529.5768915000001 197.55923431030726
v 98.56108040053957 529.5768915000001 206.0289736276061
v 106.35610849999996 509.91881345212937 216.2795036904842
v 91.7183 526.2952 220.1761
v 106.35610849999996 524.7743099994674 217.314232847603
v 106.35610849999996 523.9681530478449 217.4253049276844
v 106.35610849999996 517.3944442937864 198.2813684749399
v 95.28372034553395 529.1271773451087 220.30034999999998
v 102.7007494724349 529.5768915000001 211.50269042764035
v 104.0054 515.0454 206.9481
v 99.29884460405464 529.5768915000001 190.69818328307701
v 106.35610849999996 511.4607070916545 217.149377352579
v 106.35610849999996 523.2282101610858 188.50434028568705
v 104.1899 517.2661 214.8103
v 106.35610849999996 515.9456213674564 217.9641411480017
v 106.35610849999996 525.643155391186 185.09116129357545
v 105.68995753345354 529.5768915000001 215.96119576882327
v 101.317 520.6671 203.9805
v 106.35610849999996 529.5768915000001 178.85810004011276
v 106.35610849999996 514.9891724670432 201.94875592514217
v 106.35610849999996 512.7565455797936 217.63751558277696
v 102.0692 521.2283 200.2327
v 87.57066530684172 529.5768915000001 217.79498855897253
v 106.35610849999996 519.6542055539833 194.4866575790439
v 96.0710571270685 529.5768915000001 199.92779090615272
v 94.97165218278963 529.5768915000001 219.9399295208158
v 105.853 528.7316 216.3355
v 91.25607030341814 529.5768915000001 217.98120566989166
v 106.35610849999996 511.4607070916545 217.149377352579
v 92.00186069055073 526.253296115652 220.30034999999998
v 91.26812728882462 529.5768915000001 217.9853840559433
v 91.28712321061438 529.5768915000001 217.99514140196027
v 106.35610849999996 525.5596381769515 217.2681341895621
v 105.8685 513.3092 217.0672
v 106.35610849999996 528.3196982209489 217.10742307100261
v 106.35610849999996 528.6847995281956 217.19861423886613
v 94.44644670552839 528.1116376858469 220.30034999999998
v 105.5251 518.8176 216.9109
v 93.54205451156702 527.1141729846627 220.30034999999998
v 91.7183 526.2952 220.1761
v 91.74113757039092 526.1801024116543 220.30034999999998
v 106.35610849999996 519.5556899740237 217.91014891871336
v 106.35610849999996 512.7565455797936 217.63751558277696
v 106.35610849999996 523.9681530478449 217.4253049276844
v 91.83469131158455 526.1892366570064 220.30034999999998
vt 0.5381799231640558 0.4964374241356355
vt 0.6048395342992828 0.5697302416780186
vt 0.4356578611154306 0.8612499246058135
vt 0.130313625183749 0.10448330787870164
vt 0.06871699521929484 0.6460521279314015
vt 0.09089021386588542 0.13003200954615335
vt 0.19827580491430005 0.35316159091467225
vt 0.27951640420326046 0.28954730562312736
vt 0.376063770115566 0.304786739156913
vt 0.06968846366185284 0.6275942275227899
vt 0.3291973583359503 0.7972840086604716
vt 0.06871699521929378 0.6460521279314015
vt 0.38824967992940485 0.8320954638054167
vt 0.3658703128005779 0.29951730935011533
vt 0.18235780393736095 0.09370216661303854
vt 0.2123967261207192 0.3341678252481086
vt 0.06310642559403605 0.17197214950430495
vt 0.7254506489060758 0.9297749959973802
vt 0.42679074889136254 0.36083617071849805
vt 0.08857307275780543 0.1332177295171071
vt 0.130313625183749 0.10114044728390992
vt 0.128972311039743 0.10197375238346051
vt 0.5733183290553583 0.5350850832128509
vt 0.428363379518331 0.8427991770366781
vt 0.03906250000000026 0.6301977947387769
vt 0.1153014779448215 0.19686127848119161
vt 0.1716276502736942 0.45014453230958795
vt 0.11530147794482067 0.19686127848118828
vt 0.1633686241653251 0.15757486220989247
vt 0.09119041394484177 0.5505686112663821
vt 0.17771434637281344 0.38699536251389377
vt 0.3415262946267628 0.6200431766626544
vt 0.504658447894716 0.8900668816350509
vt 0.2336640814674053 0.31441252937962494
vt 0.08475428643971854 0.5613046073001835
vt 0.30585250252455454 0.7840055665452382
vt 0.0716784687806788 0.20968913952553103
vt 0.5381799231640558 0.49643742413563974
vt 0.20534956242531208 0.10601645715258712
vt 0.16301539102380114 0.15799528834424004
vt 0.3658703128005758 0.29951730935011533
vt 0.28111788774567115 0.41994032886904153
vt 0.8370380679338052 0.8314338300602617
vt 0.26496216200174527 0.29338714387494724
vt 0.1611891074332354 0.09291222097673724
vt 0.5152004644098992 0.6615739563934041
vt 0.177216395834962 0.7036839049576132
vt 0.13031362518374817 0.10114044728390992
vt 0.8629033103076348 0.8640172896610585
vt 0.09148462224242977 0.1313649252996154
vt 0.11542434887832564 0.1967968209723142
vt 0.5733183290553594 0.5350850832128551
vt 0.09119041394483862 0.5505686112663821
vt 0.4356578611154316 0.8612499246058135
vt 0.20368524734230556 0.09561448788379978
vt 0.2795164042032615 0.28954730562312314
vt 0.5299793088929747 0.8980354681226
vt 0.6396871902927429 0.9185751006455656
vt 0.4770742366531438 0.8813621691188401
vt 0.13941071918245915 0.44927380444225795
vt 0.15164474438474337 0.6896135712781564
vt 0.1154243488783273 0.1967968209723142
vt 0.3058525025245556 0.7840055665452382
vt 0.7417319902139906 0.8541257533268815
vt 0.46428832386508606 0.4050281524754962
vt 0.0885730727578046 0.13321772951710376
vt 0.9016412463669784 0.9090466904137462
vt 0.32264866747642185 0.27893252294485604
vt 0.0908902138658846 0.13003200954615002
vt 0.1331485168095042 0.10023097044006801
vt 0.21093750000000008 0.09833964934507167
vt 0.23366408146740425 0.31441252937962494
vt 0.04329693901869298 0.632481546901155
vt 0.05626861587011838 0.6104168223493729
vt 0.1633686241653251 0.1575748622098958
vt 0.6746032078747531 0.6423688065783639
vt 0.05626861587011419 0.6104168223493645
vt 0.2649621620017442 0.29338714387494724
vt 0.38188259310796435 0.3103896715702088
vt 0.1394107191824581 0.44927380444225795
vt 0.09108406363708332 0.12987395715749472
vt 0.40593110232232266 0.8427991770366781
vt 0.2962199894659443 0.6351452783829297
vt 0.16118910743323622 0.0929122209767339
vt 0.38305707435751246 0.6124921258025189
vt 0.40593110232232477 0.8427991770366823
vt 0.38188259310796013 0.3103896715702005
vt 0.21239672612071814 0.3341678252481086
vt 0.17771434637281555 0.38699536251389377
vt 0.128972311039743 0.10197375238346384
vt 0.09959920204687617 0.5319950416582413
vt 0.588535316649985 0.9115791344846093
vt 0.7778102197884559 0.7584400140206907
vt 0.9016412463669763 0.9090466904137462
vt 0.46428832386508395 0.4050281524754962
vt 0.43591443037846656 0.6238187020927222
vt 0.050532982433769004 0.6162044819277124
vt 0.22070948086458048 0.3519808711278133
vt 0.0505329824337711 0.6162044819277124
vt 0.13314851680950257 0.10023097044006801
vt 0.20534956242531208 0.10601645715259045
vt 0.674603207874752 0.6423688065783597
vt 0.48499626096935383 0.5407571426312228
vt 0.16301539102380197 0.15799528834424326
vt 0.4539737979755722 0.3905186849671415
vt 0.23581158258485263 0.6389208038129974
vt 0.4170368032281256 0.4765732103200665
vt 0.3415262946267628 0.8043936592609472
vt 0.5299793088929736 0.8980354681226
vt 0.639687190292744 0.9185751006455656
vt 0.039062500000000076 0.21093750000000078
vt 0.6048395342992807 0.5697302416780186
vt 0.04329693901869507 0.632481546901155
vt 0.0929067808344229 0.5473151616652835
vt 0.09003278630208934 0.20540855825699778
vt 0.16315662518927865 0.15784030692617423
vt 0.45479205752880747 0.4048382271487705
vt 0.8629033103076338 0.8640172896610585
vt 0.430621225758749 0.8589266501825249
vt 0.5046584478947171 0.8900668816350509
vt 0.07167846878067796 0.20968913952553103
vt 0.17721639583496304 0.7036839049576132
vt 0.3415262946267628 0.8043936592609514
vt 0.7254506489060768 0.9297749959973844
vt 0.8370380679338041 0.8314338300602617
vt 0.19827580491430005 0.35316159091466803
vt 0.09108406363708249 0.1298739571574915
vt 0.32264866747642185 0.38596059999842747
vt 0.1617333149714148 0.40891813521675635
vt 0.11413225201511537 0.670260264341921
vt 0.18235780393736095 0.09370216661304187
vt 0.23581158258485263 0.45014453230958795
vt 0.11413225201511328 0.670260264341921
vt 0.7778102197884548 0.7584400140206907
vt 0.3291973583359535 0.7972840086604716
vt 0.1631566251892803 0.15784030692617756
vt 0.3760637701155671 0.30478673915691723
vt 0.09959920204687932 0.5319950416582413
vt 0.4267907488913615 0.36083617071849805
vt 0.9453125000000003 0.9609374999999998
vt 0.4661186338190129 0.793717346445793
vn 0.3661 0.6874 0.6272
vn 0.5066 0.6863 0.5219
vn 0.3237 0.6726 0.6654
vn 0.8492 0.5258 0.0485
vn 0.8306 0.0354 -0.5557
vn 0.9471 0.2947 -0.1269
vn -0.0424 0.5513 0.8332
vn 0.8874 0.4569 0.0616
vn 0.8407 0.4555 0.2927
vn 0.9115 0.4085 0.0479
vn 0.7276 0.5788 0.3682
vn 0.9115 0.4086 0.0476
vn 0.754 0.6104 0.2427
vn 0.8401 0.0764 -0.5371
vn 0.7361 0.5485 0.3966
vn 0.8746 0.1713 -0.4536
vn 0.7364 0.5613 0.3778
vn 0.8277 -0.0466 -0.5592
vn -0.4357 0.3592 0.8254
vn 0.8037 0.5124 0.3025
vn 0.8728 -0.0076 -0.4879
vn 0.8369 -0.028 -0.5466
vn 0.7677 0.4799 0.4246
vn 0.9197 0.3138 -0.236
vn 0.7944 0.5028 0.3406
vn 0.7822 -0.0388 -0.6218
vn 0.8544 0.4614 0.239
vn 0.7012 0.63 0.3338
vn 0.8229 -0.0897 -0.5611
vn 0.6819 0.605 0.4112
vn 0.8309 0.0368 -0.5553
vn 0.8953 0.2189 -0.388
vn 0.9204 0.3036 -0.2462
vn 0.8529 -0.0281 -0.5214
vn 0.9043 0.3793 -0.1958
vn 0.8944 0.4473 -0.0054
vn 0.3591 0.7458 0.561
vn 0.6625 0.6349 0.3974
vn 0.0728 0.6444 0.7612
vn 0.925 0.3437 -0.1622
vn 0.8639 0.055 -0.5006
vn 0.7828 0.5847 0.2129
vn 0.6577 0.6438 0.3911
vn 0.9028 0.3869 -0.188
vn 0.797 -0.0382 -0.6028
vn 0.9332 0.1385 -0.3317
vn 0.8929 0.2023 -0.4024
vn 0.8942 0.1361 -0.4265
vn 0.8495 0.5255 0.0475
vn 0.8019 0.0995 -0.5892
vn 0.7906 0.5621 0.2429
vn 0.8506 0.5208 0.0732
vn 0.8993 -0.02 -0.4368
vn 0.66 0.6497 0.3771
vn 0.7527 0.6099 0.2478
vn 0.7076 0.6071 0.3616
vn 0.8249 -0.0772 -0.56
vn -0.6281 0.1723 0.7588
vn 0.6865 0.5936 0.42
vn 0.9199 0.1114 -0.376
vn 0.0791 0.7385 0.6696
vn 0.2247 0.758 0.6123
vn 0.9463 0.2695 -0.1784
vn 0.78 0.54 0.3163
vn 0.708 0.6062 0.3622
vn 0.8602 0.1236 -0.4947
vn -0.4221 0.3827 0.8218
vn -0.0708 0.7253 0.6848
vn 0.8293 -0.0325 -0.5578
vn 0.831 0.1961 -0.5205
vn 0.7909 -0.0668 -0.6083
vn -0.2825 0.5055 0.8153
vn -0.2369 0.6184 0.7493
usemtl 1e2950ba-a456-4de3-bf3e-dafdb8da6031
g 091_W_Aya_100K_01
f 6/115/3 1/50/3 5/26/3
usemtl 1e2950ba-a456-4de3-bf3e-dafdb8da6031
g 091_W_Aya_100K_01
f 6/115/1 2/121/1 7/17/1
usemtl 1e2950ba-a456-4de3-bf3e-dafdb8da6031
g 091_W_Aya_100K_01
f 6/115/1 7/17/1 3/20/1
usemtl 1e2950ba-a456-4de3-bf3e-dafdb8da6031
g 091_W_Aya_100K_01
f 6/115/1 3/20/1 1/50/1
usemtl 1e2950ba-a456-4de3-bf3e-dafdb8da6031
g 091_W_Aya_100K_01
f 2/37/2 4/111/2 7/17/2
usemtl 1e2950ba-a456-4de3-bf3e-dafdb8da6031
g 091_W_Aya_100K_01
f 55/24/49 61/85/49 79/96/49
usemtl 1e2950ba-a456-4de3-bf3e-dafdb8da6031
g 091_W_Aya_100K_01
f 44/113/53 10/10/53 78/5/53
usemtl 1e2950ba-a456-4de3-bf3e-dafdb8da6031
g 091_W_Aya_100K_01
f 65/4/61 21/81/61 42/90/61
usemtl 1e2950ba-a456-4de3-bf3e-dafdb8da6031
g 091_W_Aya_100K_01
f 9/117/9 23/19/9 27/105/9
usemtl 1e2950ba-a456-4de3-bf3e-dafdb8da6031
g 091_W_Aya_100K_01
f 86/119/36 55/24/36 46/54/36
usemtl 1e2950ba-a456-4de3-bf3e-dafdb8da6031
g 091_W_Aya_100K_01
f 76/89/5 8/7/5 36/98/5
usemtl 1e2950ba-a456-4de3-bf3e-dafdb8da6031
g 091_W_Aya_100K_01
f 55/24/44 19/82/44 26/13/44
usemtl 1e2950ba-a456-4de3-bf3e-dafdb8da6031
g 091_W_Aya_100K_01
f 33/62/7 65/4/7 50/104/7
usemtl 1e2950ba-a456-4de3-bf3e-dafdb8da6031
g 091_W_Aya_100K_01
f 70/47/45 11/106/45 63/36/45
usemtl 1e2950ba-a456-4de3-bf3e-dafdb8da6031
g 091_W_Aya_100K_01
f 77/125/59 49/64/59 74/93/59
usemtl 1e2950ba-a456-4de3-bf3e-dafdb8da6031
g 091_W_Aya_100K_01
f 37/65/23 9/117/23 27/105/23
usemtl 1e2950ba-a456-4de3-bf3e-dafdb8da6031
g 091_W_Aya_100K_01
f 8/126/50 82/88/50 36/98/50
usemtl 1e2950ba-a456-4de3-bf3e-dafdb8da6031
g 091_W_Aya_100K_01
f 57/83/47 18/108/47 17/135/47
usemtl 1e2950ba-a456-4de3-bf3e-dafdb8da6031
g 091_W_Aya_100K_01
f 70/122/18 51/30/18 66/114/18
usemtl 1e2950ba-a456-4de3-bf3e-dafdb8da6031
g 091_W_Aya_100K_01
f 10/10/22 29/61/22 13/130/22
usemtl 1e2950ba-a456-4de3-bf3e-dafdb8da6031
g 091_W_Aya_100K_01
f 68/2/11 53/103/11 12/52/11
usemtl 1e2950ba-a456-4de3-bf3e-dafdb8da6031
g 091_W_Aya_100K_01
f 49/64/65 85/76/65 74/134/65
usemtl 1e2950ba-a456-4de3-bf3e-dafdb8da6031
g 091_W_Aya_100K_01
f 10/10/22 51/53/22 29/61/22
usemtl 1e2950ba-a456-4de3-bf3e-dafdb8da6031
g 091_W_Aya_100K_01
f 28/42/32 36/98/32 73/34/32
usemtl 1e2950ba-a456-4de3-bf3e-dafdb8da6031
g 091_W_Aya_100K_01
f 28/42/48 75/132/48 36/98/48
usemtl 1e2950ba-a456-4de3-bf3e-dafdb8da6031
g 091_W_Aya_100K_01
f 32/92/28 48/57/28 83/46/28
usemtl 1e2950ba-a456-4de3-bf3e-dafdb8da6031
g 091_W_Aya_100K_01
f 39/128/12 59/41/12 15/9/12
usemtl 1e2950ba-a456-4de3-bf3e-dafdb8da6031
g 091_W_Aya_100K_01
f 39/128/12 15/9/12 61/85/12
usemtl 1e2950ba-a456-4de3-bf3e-dafdb8da6031
g 091_W_Aya_100K_01
f 47/129/26 60/27/26 25/60/26
usemtl 1e2950ba-a456-4de3-bf3e-dafdb8da6031
g 091_W_Aya_100K_01
f 87/101/19 22/15/19 69/55/19
usemtl 1e2950ba-a456-4de3-bf3e-dafdb8da6031
g 091_W_Aya_100K_01
f 12/23/17 53/103/17 81/38/17
usemtl 1e2950ba-a456-4de3-bf3e-dafdb8da6031
g 091_W_Aya_100K_01
f 83/46/13 41/141/13 79/96/13
usemtl 1e2950ba-a456-4de3-bf3e-dafdb8da6031
g 091_W_Aya_100K_01
f 75/132/60 28/42/60 57/83/60
usemtl 1e2950ba-a456-4de3-bf3e-dafdb8da6031
g 091_W_Aya_100K_01
f 70/122/18 29/61/18 51/30/18
usemtl 1e2950ba-a456-4de3-bf3e-dafdb8da6031
g 091_W_Aya_100K_01
f 55/24/52 41/141/52 62/59/52
usemtl 1e2950ba-a456-4de3-bf3e-dafdb8da6031
g 091_W_Aya_100K_01
f 66/114/57 60/27/57 11/106/57
usemtl 1e2950ba-a456-4de3-bf3e-dafdb8da6031
g 091_W_Aya_100K_01
f 19/86/40 55/24/40 86/119/40
usemtl 1e2950ba-a456-4de3-bf3e-dafdb8da6031
g 091_W_Aya_100K_01
f 49/64/65 83/46/65 85/76/65
usemtl 1e2950ba-a456-4de3-bf3e-dafdb8da6031
g 091_W_Aya_100K_01
f 49/64/54 72/58/54 32/92/54
usemtl 1e2950ba-a456-4de3-bf3e-dafdb8da6031
g 091_W_Aya_100K_01
f 71/107/25 23/139/25 9/117/25
usemtl 1e2950ba-a456-4de3-bf3e-dafdb8da6031
g 091_W_Aya_100K_01
f 83/46/51 79/96/51 53/103/51
usemtl 1e2950ba-a456-4de3-bf3e-dafdb8da6031
g 091_W_Aya_100K_01
f 60/27/34 75/132/34 11/106/34
usemtl 1e2950ba-a456-4de3-bf3e-dafdb8da6031
g 091_W_Aya_100K_01
f 30/49/30 49/64/30 77/43/30
usemtl 1e2950ba-a456-4de3-bf3e-dafdb8da6031
g 091_W_Aya_100K_01
f 28/42/63 39/128/63 38/32/63
usemtl 1e2950ba-a456-4de3-bf3e-dafdb8da6031
g 091_W_Aya_100K_01
f 79/96/64 71/107/64 53/103/64
usemtl 1e2950ba-a456-4de3-bf3e-dafdb8da6031
g 091_W_Aya_100K_01
f 26/13/16 18/123/16 38/32/16
usemtl 1e2950ba-a456-4de3-bf3e-dafdb8da6031
g 091_W_Aya_100K_01
f 71/107/27 15/137/27 56/87/27
usemtl 1e2950ba-a456-4de3-bf3e-dafdb8da6031
g 091_W_Aya_100K_01
f 41/141/4 55/24/4 79/96/4
usemtl 1e2950ba-a456-4de3-bf3e-dafdb8da6031
g 091_W_Aya_100K_01
f 49/64/54 32/92/54 83/46/54
usemtl 1e2950ba-a456-4de3-bf3e-dafdb8da6031
g 091_W_Aya_100K_01
f 57/83/47 38/32/47 18/108/47
usemtl 1e2950ba-a456-4de3-bf3e-dafdb8da6031
g 091_W_Aya_100K_01
f 61/85/8 71/107/8 79/96/8
usemtl 1e2950ba-a456-4de3-bf3e-dafdb8da6031
g 091_W_Aya_100K_01
f 71/107/25 56/79/25 23/139/25
usemtl 1e2950ba-a456-4de3-bf3e-dafdb8da6031
g 091_W_Aya_100K_01
f 55/24/44 26/13/44 38/32/44
usemtl 1e2950ba-a456-4de3-bf3e-dafdb8da6031
g 091_W_Aya_100K_01
f 10/10/29 13/133/29 78/12/29
usemtl 1e2950ba-a456-4de3-bf3e-dafdb8da6031
g 091_W_Aya_100K_01
f 80/140/43 31/124/43 35/67/43
usemtl 1e2950ba-a456-4de3-bf3e-dafdb8da6031
g 091_W_Aya_100K_01
f 10/10/22 54/35/22 51/53/22
usemtl 1e2950ba-a456-4de3-bf3e-dafdb8da6031
g 091_W_Aya_100K_01
f 65/4/39 84/28/39 58/50/39
usemtl 1e2950ba-a456-4de3-bf3e-dafdb8da6031
g 091_W_Aya_100K_01
f 38/32/46 57/83/46 28/42/46
usemtl 1e2950ba-a456-4de3-bf3e-dafdb8da6031
g 091_W_Aya_100K_01
f 58/50/37 34/66/37 24/69/37
usemtl 1e2950ba-a456-4de3-bf3e-dafdb8da6031
g 091_W_Aya_100K_01
f 57/83/14 63/63/14 11/106/14
usemtl 1e2950ba-a456-4de3-bf3e-dafdb8da6031
g 091_W_Aya_100K_01
f 39/128/33 64/44/33 52/8/33
usemtl 1e2950ba-a456-4de3-bf3e-dafdb8da6031
g 091_W_Aya_100K_01
f 57/83/14 17/11/14 63/63/14
usemtl 1e2950ba-a456-4de3-bf3e-dafdb8da6031
g 091_W_Aya_100K_01
f 58/50/62 24/6/62 21/127/62
usemtl 1e2950ba-a456-4de3-bf3e-dafdb8da6031
g 091_W_Aya_100K_01
f 53/103/15 9/117/15 37/95/15
usemtl 1e2950ba-a456-4de3-bf3e-dafdb8da6031
g 091_W_Aya_100K_01
f 71/107/27 61/85/27 15/137/27
usemtl 1e2950ba-a456-4de3-bf3e-dafdb8da6031
g 091_W_Aya_100K_01
f 53/103/20 71/107/20 9/117/20
usemtl 1e2950ba-a456-4de3-bf3e-dafdb8da6031
g 091_W_Aya_100K_01
f 11/106/21 75/132/21 57/83/21
usemtl 1e2950ba-a456-4de3-bf3e-dafdb8da6031
g 091_W_Aya_100K_01
f 39/128/24 52/56/24 16/68/24
usemtl 1e2950ba-a456-4de3-bf3e-dafdb8da6031
g 091_W_Aya_100K_01
f 66/114/57 67/138/57 60/27/57
usemtl 1e2950ba-a456-4de3-bf3e-dafdb8da6031
g 091_W_Aya_100K_01
f 60/27/31 47/129/31 76/31/31
usemtl 1e2950ba-a456-4de3-bf3e-dafdb8da6031
g 091_W_Aya_100K_01
f 31/18/38 30/118/38 35/94/38
usemtl 1e2950ba-a456-4de3-bf3e-dafdb8da6031
g 091_W_Aya_100K_01
f 83/46/56 53/103/56 68/112/56
usemtl 1e2950ba-a456-4de3-bf3e-dafdb8da6031
g 091_W_Aya_100K_01
f 16/68/10 59/14/10 39/128/10
usemtl 1e2950ba-a456-4de3-bf3e-dafdb8da6031
g 091_W_Aya_100K_01
f 76/89/5 36/98/5 75/132/5
usemtl 1e2950ba-a456-4de3-bf3e-dafdb8da6031
g 091_W_Aya_100K_01
f 38/32/35 61/85/35 55/24/35
usemtl 1e2950ba-a456-4de3-bf3e-dafdb8da6031
g 091_W_Aya_100K_01
f 48/109/55 45/120/55 41/141/55
usemtl 1e2950ba-a456-4de3-bf3e-dafdb8da6031
g 091_W_Aya_100K_01
f 48/109/55 41/141/55 83/46/55
usemtl 1e2950ba-a456-4de3-bf3e-dafdb8da6031
g 091_W_Aya_100K_01
f 10/10/41 44/73/41 40/25/41
usemtl 1e2950ba-a456-4de3-bf3e-dafdb8da6031
g 091_W_Aya_100K_01
f 87/101/19 14/29/19 22/15/19
usemtl 1e2950ba-a456-4de3-bf3e-dafdb8da6031
g 091_W_Aya_100K_01
f 70/122/18 66/114/18 11/106/18
usemtl 1e2950ba-a456-4de3-bf3e-dafdb8da6031
g 091_W_Aya_100K_01
f 31/18/38 49/64/38 30/118/38
usemtl 1e2950ba-a456-4de3-bf3e-dafdb8da6031
g 091_W_Aya_100K_01
f 65/4/39 33/51/39 84/28/39
usemtl 1e2950ba-a456-4de3-bf3e-dafdb8da6031
g 091_W_Aya_100K_01
f 39/128/33 28/42/33 64/44/33
usemtl 1e2950ba-a456-4de3-bf3e-dafdb8da6031
g 091_W_Aya_100K_01
f 31/18/38 72/110/38 49/64/38
usemtl 1e2950ba-a456-4de3-bf3e-dafdb8da6031
g 091_W_Aya_100K_01
f 55/24/52 62/59/52 46/3/52
usemtl 1e2950ba-a456-4de3-bf3e-dafdb8da6031
g 091_W_Aya_100K_01
f 62/59/42 41/141/42 45/33/42
usemtl 1e2950ba-a456-4de3-bf3e-dafdb8da6031
g 091_W_Aya_100K_01
f 61/85/6 38/32/6 39/128/6
usemtl 1e2950ba-a456-4de3-bf3e-dafdb8da6031
g 091_W_Aya_100K_01
f 65/4/61 58/50/61 21/81/61
usemtl 1e2950ba-a456-4de3-bf3e-dafdb8da6031
g 091_W_Aya_100K_01
f 87/39/58 69/55/58 43/71/58
usemtl 1e2950ba-a456-4de3-bf3e-dafdb8da6031
g 091_W_Aya_100K_01
f 60/27/31 76/31/31 75/132/31
usemtl 1e2950ba-a456-4de3-bf3e-dafdb8da6031
g 091_W_Aya_100K_01
f 10/10/41 40/25/41 20/97/41
usemtl 1e2950ba-a456-4de3-bf3e-dafdb8da6031
g 091_W_Aya_100K_01
f 53/103/15 37/95/15 81/1/15
usemtl 1e2950ba-a456-4de3-bf3e-dafdb8da6031
g 091_W_Aya_100K_01
f 83/46/56 68/112/56 85/102/56
usemtl 1e2950ba-a456-4de3-bf3e-dafdb8da6031
g 091_W_Aya_100K_01
f 28/42/32 73/34/32 64/78/32
usemtl 1e2950ba-a456-4de3-bf3e-dafdb8da6031
g 091_W_Aya_100K_01
f 106/48/68 101/4/68 102/22/68
usemtl 1e2950ba-a456-4de3-bf3e-dafdb8da6031
g 091_W_Aya_100K_01
f 97/99/66 96/77/66 88/10/66
usemtl 1e2950ba-a456-4de3-bf3e-dafdb8da6031
g 091_W_Aya_100K_01
f 96/74/69 94/35/69 88/10/69
usemtl 1e2950ba-a456-4de3-bf3e-dafdb8da6031
g 091_W_Aya_100K_01
f 91/100/72 92/116/72 89/40/72
usemtl 1e2950ba-a456-4de3-bf3e-dafdb8da6031
g 091_W_Aya_100K_01
f 98/131/67 92/136/67 100/84/67
usemtl 1e2950ba-a456-4de3-bf3e-dafdb8da6031
g 091_W_Aya_100K_01
f 91/70/73 101/4/73 106/21/73
usemtl 1e2950ba-a456-4de3-bf3e-dafdb8da6031
g 091_W_Aya_100K_01
f 98/131/67 93/75/67 92/136/67
usemtl 1e2950ba-a456-4de3-bf3e-dafdb8da6031
g 091_W_Aya_100K_01
f 91/100/72 100/45/72 92/116/72
usemtl 1e2950ba-a456-4de3-bf3e-dafdb8da6031
g 091_W_Aya_100K_01
f 91/100/72 89/40/72 101/4/72
usemtl 1e2950ba-a456-4de3-bf3e-dafdb8da6031
g 091_W_Aya_100K_01
f 104/16/70 90/72/70 95/98/70
usemtl 1e2950ba-a456-4de3-bf3e-dafdb8da6031
g 091_W_Aya_100K_01
f 103/80/71 99/27/71 105/91/71
