mtllib 215.mtl
v 107.3798 531.9966 219.3294
v 108.00999817906377 530.9356889304651 220.30034999999998
v 106.35610849999998 534.4897526706834 217.05529035763914
v 106.56055722979806 536.2450456178286 220.30034999999998
v 107.02315800336245 529.7631593552591 177.4295805
v 107.23849846907679 534.6300622955027 220.30034999999998
v 106.35610849999998 529.8285574553337 178.44380414176138
v 106.35610849999998 536.7242115409134 220.0589400247292
v 106.35610849999998 536.6953501781182 220.30034999999998
v 106.35610849999998 530.3331463931381 177.4295805
v 107.20547813401771 529.5768915000001 177.4295805
v 106.35610849999998 529.5768915000001 178.85810004011276
v 106.35610849999998 529.8074771630206 217.32204475907122
v 106.35610849999998 529.5768915000001 217.29669348506735
v 106.35610849999998 533.2075829694535 217.1665718864929
v 106.35610849999998 535.4648842575539 217.59257240141469
v 106.35610849999998 536.665810070877 218.26734124969508
v 108.09656156891137 529.5768915000001 220.30034999999998
v 107.59212331802526 532.3641712743972 220.30034999999998
v 107.3798 531.9966 219.3294
v 108.00999817906377 530.9356889304651 220.30034999999998
v 107.23849846907679 534.6300622955027 220.30034999999998
v 106.35610849999998 535.4648842575539 217.59257240141469
v 106.35610849999998 536.665810070877 218.26734124969508
v 107.81713171701537 531.6368814047822 220.30034999999998
vt 0.5842775973530857 0.5003726932382794
vt 0.43470010770767853 0.7616562646930616
vt 0.06771312606794291 0.05888792235023321
vt 0.03125 0.01556191326401668
vt 0.21232627088098496 0.662821180704238
vt 0.1725596884227843 0.8019315697790251
vt 0.2852326642102732 0.5318463497466326
vt 0.1725596884227843 0.8019315697790386
vt 0.5937499999999996 0.4888169200547272
vt 0.3753851509505482 0.37104660998482286
vt 0.15688970454503004 0.15625
vt 0.2909909749226193 0.8437499999999971
vt 0.15624999999999953 0.7948844546563777
vt 0.37748114653221604 0.7953285139164644
vt 0.16951294047122994 0.765370594360373
vt 0.3774811465322093 0.7953285139164511
vt 0.4763964028702748 0.6866499427351371
vt 0.3659121567088326 0.5408107378020355
vt 0.21232627088098496 0.6628211807042246
vt 0.3304267060365874 0.44500002098697955
vt 0.3096526792593392 0.4866349447025178
vt 0.47639640287026813 0.6866499427351371
vt 0.3304267060365941 0.44500002098697955
vt 0.5842775973530924 0.5003726932382794
vt 0.205490267608492 0.06850028106237327
vt 0.4347001077076752 0.7616562646930483
vt 0.3096526792593426 0.4866349447025311
vt 0.2852326642102698 0.531846349746646
vt 0.2909909749226227 0.8437499999999971
vt 0.21875 0.04213755370100969
vn 0.6076 0.7111 0.3538
vn 0.9095 0.4129 0.0493
vn 0.9523 0.1472 -0.2673
vn 0.8993 -0.02 -0.4368
vn 0.8947 -0.0386 -0.4451
vn 0.8639 0.055 -0.5006
vn 0.6577 0.6438 0.3911
vn 0.922 0.387 -0.0126
vn 0.914 0.2514 -0.3185
vn 0.9097 0.2814 -0.3055
vn 0.9528 0.1487 -0.2646
usemtl a81734d6-cfaa-4fc8-8cdb-534448698b68
g 091_W_Aya_100K_01
f 14/9/6 13/1/6 1/18/6
usemtl a81734d6-cfaa-4fc8-8cdb-534448698b68
g 091_W_Aya_100K_01
f 1/18/4 13/24/4 15/22/4
usemtl a81734d6-cfaa-4fc8-8cdb-534448698b68
g 091_W_Aya_100K_01
f 8/6/2 9/13/2 4/15/2
usemtl a81734d6-cfaa-4fc8-8cdb-534448698b68
g 091_W_Aya_100K_01
f 14/9/6 2/23/6 18/10/6
usemtl a81734d6-cfaa-4fc8-8cdb-534448698b68
g 091_W_Aya_100K_01
f 8/8/8 4/15/8 6/5/8
usemtl a81734d6-cfaa-4fc8-8cdb-534448698b68
g 091_W_Aya_100K_01
f 11/30/7 7/3/7 12/4/7
usemtl a81734d6-cfaa-4fc8-8cdb-534448698b68
g 091_W_Aya_100K_01
f 10/11/1 7/3/1 5/25/1
usemtl a81734d6-cfaa-4fc8-8cdb-534448698b68
g 091_W_Aya_100K_01
f 11/30/7 5/25/7 7/3/7
usemtl a81734d6-cfaa-4fc8-8cdb-534448698b68
g 091_W_Aya_100K_01
f 14/9/6 1/18/6 2/23/6
usemtl a81734d6-cfaa-4fc8-8cdb-534448698b68
g 091_W_Aya_100K_01
f 1/18/5 15/17/5 3/26/5
usemtl a81734d6-cfaa-4fc8-8cdb-534448698b68
g 091_W_Aya_100K_01
f 16/14/3 1/18/3 3/2/3
usemtl a81734d6-cfaa-4fc8-8cdb-534448698b68
g 091_W_Aya_100K_01
f 8/8/8 6/5/8 17/12/8
usemtl a81734d6-cfaa-4fc8-8cdb-534448698b68
g 091_W_Aya_100K_01
f 22/19/11 19/28/11 20/18/11
usemtl a81734d6-cfaa-4fc8-8cdb-534448698b68
g 091_W_Aya_100K_01
f 22/19/11 20/18/11 23/16/11
usemtl a81734d6-cfaa-4fc8-8cdb-534448698b68
g 091_W_Aya_100K_01
f 22/19/11 23/16/11 24/29/11
usemtl a81734d6-cfaa-4fc8-8cdb-534448698b68
g 091_W_Aya_100K_01
f 19/7/10 25/27/10 20/18/10
usemtl a81734d6-cfaa-4fc8-8cdb-534448698b68
g 091_W_Aya_100K_01
f 21/20/9 20/18/9 25/21/9
