mtllib 228.mtl
v 18.046243833221503 100.86919650000002 457.5533681733658
v 18.71063681132917 100.86919650000002 450.3845309689117
v 19.2811 95.1314 460.5997
v 20.3157 97.9678 436.4052
v 18.59144568952381 100.86919650000002 451.91740488666665
v 18.925247134243424 100.86919650000002 447.08760405917366
v 19.774549535087953 99.52726127015143 434.65419749999995
v 20.33700765854252 98.7990016132397 434.65419749999995
v 17.8578863315508 100.86919650000002 459.93321422370764
v 20.614569499999966 95.89741624853323 439.43367119343895
v 19.317419695954253 100.86919650000002 439.10217372423466
v 19.205827825089752 100.86919650000002 441.56018885260227
v 20.614569499999966 96.8170130377479 437.49706680917205
v 20.614569499999966 97.64206066338329 436.2094534955019
v 19.265831123227557 100.86919650000002 437.75108321899063
v 17.9155 100.5628 460.2011
v 20.614569499999966 96.38830893644581 438.1865700519988
v 20.614569499999966 93.204360070356 449.3451689549625
v 19.294792275093762 100.86919650000002 434.65419749999995
v 20.614569499999966 98.40706562314811 434.65419749999995
v 18.71063681132917 100.86919650000002 450.3845309689117
v 17.1101 97.6392 472.2579
v 17.901773869560294 89.55886013140302 477.52496699999995
v 20.614569499999966 83.37644980452215 466.84458909767943
v 19.2811 95.1314 460.5997
v 18.59144568952381 100.86919650000002 451.91740488666665
v 20.614569499999966 89.88537855546313 457.2480050572462
v 20.614569499999966 82.13989838615066 469.0294679448705
v 17.8578863315508 100.86919650000002 459.93321422370764
v 18.4487 92.7345 472.8166
v 18.026959149131464 88.78407508875262 477.52496699999995
v 20.20378216403287 78.3322945259425 477.52496699999995
v 19.5991 91.709 466.7192
v 20.446 83.7659 468.144
v 20.614569499999966 91.79212492339502 453.66513974027254
v 20.614569499999966 79.06051215180044 473.56552018625325
v 17.794305466688357 100.86919650000002 460.4158647219344
v 15.909292023842767 100.86919650000002 472.35558846836426
v 16.585436281990553 94.78752652828432 477.52496699999995
v 20.2806 90.0356 460.274
v 16.28712680009198 100.86919650000002 470.611033998018
v 19.641 85.6144 472.6306
v 17.9155 100.5628 460.2011
v 16.433941391175424 95.28758735138938 477.52496699999995
v 16.942807410674355 100.86919650000002 467.12548519257007
v 20.614569499999966 93.204360070356 449.3451689549625
v 15.577087759254914 100.86919650000002 473.4612023512184
v 17.32538103844721 100.86919650000002 464.8108598633448
v 20.614569499999966 82.80246462509723 468.0659225200612
v 20.614569499999966 75.88347880184283 477.52496699999995
v 18.3018 97.1549 466.8258
v 14.5932780181804 100.86919650000002 476.83327333294
v 20.614569499999966 89.32665860887913 458.4947799516521
v 15.565092786707716 97.66195822511759 477.52496699999995
v 20.614569499999966 87.30030541041674 460.749788966094
v 14.356264163596686 100.86919650000002 477.52496699999995
vt 0.576618323196596 0.8159112012039966
vt 0.6568387060658574 0.9310274083812478
vt 0.5673879949589673 0.6088725220590698
vt 0.5549590764491896 0.40823803844856577
vt 0.5673879949589632 0.6088725220590739
vt 0.36475700269054356 0.4648853922451194
vt 0.4599293791524679 0.9492518625071733
vt 0.4333113998625929 0.18637672368070946
vt 0.556719264510583 0.4383979541955041
vt 0.40044617314389425 0.8478392059633608
vt 0.5136201784701545 0.9539462607212316
vt 0.44912662321973534 0.9484454694534279
vt 0.5549590764491855 0.4082380384485699
vt 0.1082570353118745 0.8385259903222445
vt 0.3349994377938138 0.5933241240463687
vt 0.24773712399369982 0.8332954869966772
vt 0.5429074218628911 0.23200261598782757
vt 0.6693693620118218 0.9921875
vt 0.20774189683531574 0.7387613137132214
vt 0.5043715097710235 0.09498466744130951
vt 0.3647570026905476 0.4648853922451194
vt 0.3899746557217586 0.3811173117536494
vt 0.556719264510583 0.4383979541955081
vt 0.3282646089648548 0.5336727829898945
vt 0.19894313824809237 0.713098267833812
vt 0.5382010889399444 0.15725522264460734
vt 0.5058881356523628 0.8442032762216899
vt 0.17322743242447167 0.7532673929583618
vt 0.4731647679773206 0.12792511711243948
vt 0.31592686660027064 0.9372036662066867
vt 0.6328125 0.8882860217694161
vt 0.6413374757177616 0.9034969404028013
vt 0.5851964882105697 0.9458813244124549
vt 0.45992937915246385 0.9492518625071693
vt 0.5393347323919374 0.18391508700172632
vt 0.19894313824808832 0.713098267833812
vt 0.5393347323919334 0.18391508700173032
vt 0.5714547241655201 0.6960918765062287
vt 0.5429074218628911 0.23200261598783156
vt 0.6796875 0.9612939031999334
vt 0.5604270817774346 0.6042319132713814
vt 0.4491266232197394 0.9484454694534319
vt 0.5805757666796214 0.8756506998121152
vt 0.3178059561957805 0.557504370717137
vt 0.44190516693794274 0.1618338368839748
vt 0.5382010889399444 0.15725522264460334
vt 0.5742010012757519 0.7441285942520961
vt 0.5502652527332585 0.34270503893255266
vt 0.6413374757177616 0.9034969404027934
vt 0.533508445942708 0.0962974215817809
vt 0.332543271245647 0.9383764084943572
vt 0.5781415088369557 0.8522314287977535
vt 0.38997465572176265 0.3811173117536494
vt 0.17322743242447167 0.7532673929583577
vt 0.4913444166856792 0.7314894542298795
vt 0.5136201784701586 0.9539462607212397
vt 0.2780019215854199 0.5993876896004571
vt 0.3282646089648589 0.5336727829898904
vt 0.33254327124565103 0.9383764084943572
vt 0.3159268666002666 0.9372036662066827
vt 0.4440773300439533 0.6042319132713814
vt 0.10825703531187046 0.8385259903222445
vt 0.6750231345904022 0.971038334108438
vt 0.5642941248039892 0.5482405294105477
vt 0.039062500000000805 0.9109938646264969
vt 0.09102079445766684 0.9160068831406959
vt 0.5502652527332585 0.34270503893254867
vt 0.5667385524390086 0.5989980107715127
vt 0.6489404917976016 0.9377105127620793
vt 0.6568387060658574 0.9310274083812438
vt 0.371358735210527 0.7242175947465377
vt 0.5805757666796254 0.8756506998121152
vt 0.5859375000000008 0.9609375000000002
vt 0.5642941248039892 0.5482405294105436
vt 0.5781415088369557 0.8522314287977616
vt 0.18722444426272997 0.7354904154770112
vt 0.5667385524390247 0.5989980107715289
vt 0.27800192158541587 0.5993876896004491
vn 0.9564 0.2887 0.0434
vn 0.9392 0.3196 0.1258
vn 0.8016 0.5077 0.3157
vn 0.9587 0.2803 0.0487
vn 0.9343 0.3546 -0.0357
vn 0.7581 0.5855 0.2872
vn 0.9621 0.2565 0.0931
vn 0.9416 0.3366 0.0088
vn 0.9656 0.2484 0.0764
vn 0.9705 0.2325 0.0632
vn 0.7859 0.5206 0.3336
vn 0.785 0.5559 0.2734
vn 0.9776 0.164 0.1316
vn 0.9661 0.2481 0.0713
vn 0.9777 0.1855 0.0987
vn 0.9319 0.3285 0.154
vn 0.9205 0.3362 0.1994
vn 0.9717 0.2154 0.0966
vn 0.9816 0.142 0.1276
vn 0.9495 0.2879 0.1251
vn 0.9747 0.1591 0.1571
vn 0.928 0.2811 0.2446
vn 0.9616 0.2003 0.1874
vn 0.9047 0.3281 0.2718
vn 0.9841 0.1272 0.1242
vn 0.9869 0.1357 0.0874
vn 0.9808 0.1613 0.1095
vn 0.9804 0.1625 0.1117
vn 0.9902 0.1188 0.0739
vn 0.9473 0.3039 0.1011
vn 0.9431 0.2781 0.1821
vn 0.9345 0.2353 0.2672
vn 0.8911 0.3358 0.3053
vn 0.9633 0.2267 0.1436
vn 0.9637 0.1557 0.217
vn 0.9702 0.2296 0.078
vn 0.9805 0.1888 0.0547
vn 0.9701 0.2307 0.0754
vn 0.9291 0.3258 0.1748
vn 0.9831 0.1657 0.0779
vn 0.9057 0.3314 0.2642
usemtl d9f7a493-d50f-4f11-a21e-552fa488ca98
g 091_W_Aya_100K_01
f 1/74/7 3/61/7 5/9/7
usemtl d9f7a493-d50f-4f11-a21e-552fa488ca98
g 091_W_Aya_100K_01
f 7/18/6 4/69/6 8/63/6
usemtl d9f7a493-d50f-4f11-a21e-552fa488ca98
g 091_W_Aya_100K_01
f 4/69/11 13/32/11 14/2/11
usemtl d9f7a493-d50f-4f11-a21e-552fa488ca98
g 091_W_Aya_100K_01
f 12/17/1 4/29/1 11/35/1
usemtl d9f7a493-d50f-4f11-a21e-552fa488ca98
g 091_W_Aya_100K_01
f 4/69/3 17/31/3 13/49/3
usemtl d9f7a493-d50f-4f11-a21e-552fa488ca98
g 091_W_Aya_100K_01
f 1/64/9 9/68/9 16/41/9
usemtl d9f7a493-d50f-4f11-a21e-552fa488ca98
g 091_W_Aya_100K_01
f 11/37/5 4/29/5 15/26/5
usemtl d9f7a493-d50f-4f11-a21e-552fa488ca98
g 091_W_Aya_100K_01
f 6/67/10 10/8/10 4/29/10
usemtl d9f7a493-d50f-4f11-a21e-552fa488ca98
g 091_W_Aya_100K_01
f 12/39/4 6/48/4 4/29/4
usemtl d9f7a493-d50f-4f11-a21e-552fa488ca98
g 091_W_Aya_100K_01
f 8/63/12 4/69/12 14/70/12
usemtl d9f7a493-d50f-4f11-a21e-552fa488ca98
g 091_W_Aya_100K_01
f 10/8/2 17/45/2 4/29/2
usemtl d9f7a493-d50f-4f11-a21e-552fa488ca98
g 091_W_Aya_100K_01
f 15/46/8 7/20/8 19/50/8
usemtl d9f7a493-d50f-4f11-a21e-552fa488ca98
g 091_W_Aya_100K_01
f 15/46/8 4/29/8 7/20/8
usemtl d9f7a493-d50f-4f11-a21e-552fa488ca98
g 091_W_Aya_100K_01
f 8/63/12 14/70/12 20/40/12
usemtl d9f7a493-d50f-4f11-a21e-552fa488ca98
g 091_W_Aya_100K_01
f 1/64/9 16/41/9 3/61/9
usemtl d9f7a493-d50f-4f11-a21e-552fa488ca98
g 091_W_Aya_100K_01
f 6/67/10 2/4/10 18/53/10
usemtl d9f7a493-d50f-4f11-a21e-552fa488ca98
g 091_W_Aya_100K_01
f 6/67/10 18/53/10 10/8/10
usemtl d9f7a493-d50f-4f11-a21e-552fa488ca98
g 091_W_Aya_100K_01
f 22/27/41 52/33/41 54/11/41
usemtl d9f7a493-d50f-4f11-a21e-552fa488ca98
g 091_W_Aya_100K_01
f 41/1/17 38/52/17 22/27/17
usemtl d9f7a493-d50f-4f11-a21e-552fa488ca98
g 091_W_Aya_100K_01
f 38/75/24 47/72/24 22/27/24
usemtl d9f7a493-d50f-4f11-a21e-552fa488ca98
g 091_W_Aya_100K_01
f 22/27/22 39/12/22 30/10/22
usemtl d9f7a493-d50f-4f11-a21e-552fa488ca98
g 091_W_Aya_100K_01
f 39/42/32 23/59/32 30/10/32
usemtl d9f7a493-d50f-4f11-a21e-552fa488ca98
g 091_W_Aya_100K_01
f 22/27/41 54/11/41 44/34/41
usemtl d9f7a493-d50f-4f11-a21e-552fa488ca98
g 091_W_Aya_100K_01
f 42/16/27 36/14/27 28/28/27
usemtl d9f7a493-d50f-4f11-a21e-552fa488ca98
g 091_W_Aya_100K_01
f 23/51/35 42/16/35 30/10/35
usemtl d9f7a493-d50f-4f11-a21e-552fa488ca98
g 091_W_Aya_100K_01
f 42/16/27 28/28/27 34/19/27
usemtl d9f7a493-d50f-4f11-a21e-552fa488ca98
g 091_W_Aya_100K_01
f 33/71/29 34/19/29 40/15/29
usemtl d9f7a493-d50f-4f11-a21e-552fa488ca98
g 091_W_Aya_100K_01
f 24/25/40 34/19/40 49/76/40
usemtl d9f7a493-d50f-4f11-a21e-552fa488ca98
g 091_W_Aya_100K_01
f 37/3/30 48/38/30 51/55/30
usemtl d9f7a493-d50f-4f11-a21e-552fa488ca98
g 091_W_Aya_100K_01
f 40/15/18 53/44/18 27/24/18
usemtl d9f7a493-d50f-4f11-a21e-552fa488ca98
g 091_W_Aya_100K_01
f 42/16/13 32/66/13 50/65/13
usemtl d9f7a493-d50f-4f11-a21e-552fa488ca98
g 091_W_Aya_100K_01
f 42/16/25 34/19/25 33/71/25
usemtl d9f7a493-d50f-4f11-a21e-552fa488ca98
g 091_W_Aya_100K_01
f 42/16/23 31/60/23 32/66/23
usemtl d9f7a493-d50f-4f11-a21e-552fa488ca98
g 091_W_Aya_100K_01
f 22/27/31 30/10/31 51/55/31
usemtl d9f7a493-d50f-4f11-a21e-552fa488ca98
g 091_W_Aya_100K_01
f 34/19/28 28/54/28 49/76/28
usemtl d9f7a493-d50f-4f11-a21e-552fa488ca98
g 091_W_Aya_100K_01
f 42/16/13 50/65/13 36/62/13
usemtl d9f7a493-d50f-4f11-a21e-552fa488ca98
g 091_W_Aya_100K_01
f 34/19/26 24/36/26 55/57/26
usemtl d9f7a493-d50f-4f11-a21e-552fa488ca98
g 091_W_Aya_100K_01
f 45/47/16 51/55/16 48/38/16
usemtl d9f7a493-d50f-4f11-a21e-552fa488ca98
g 091_W_Aya_100K_01
f 34/19/26 55/57/26 40/15/26
usemtl d9f7a493-d50f-4f11-a21e-552fa488ca98
g 091_W_Aya_100K_01
f 52/33/33 56/73/33 54/56/33
usemtl d9f7a493-d50f-4f11-a21e-552fa488ca98
g 091_W_Aya_100K_01
f 25/61/38 21/13/38 26/23/38
usemtl d9f7a493-d50f-4f11-a21e-552fa488ca98
g 091_W_Aya_100K_01
f 45/47/39 41/1/39 22/27/39
usemtl d9f7a493-d50f-4f11-a21e-552fa488ca98
g 091_W_Aya_100K_01
f 22/27/22 44/7/22 39/12/22
usemtl d9f7a493-d50f-4f11-a21e-552fa488ca98
g 091_W_Aya_100K_01
f 22/27/41 47/43/41 52/33/41
usemtl d9f7a493-d50f-4f11-a21e-552fa488ca98
g 091_W_Aya_100K_01
f 45/47/39 22/27/39 51/55/39
usemtl d9f7a493-d50f-4f11-a21e-552fa488ca98
g 091_W_Aya_100K_01
f 33/71/37 40/15/37 25/61/37
usemtl d9f7a493-d50f-4f11-a21e-552fa488ca98
g 091_W_Aya_100K_01
f 43/41/14 51/55/14 25/61/14
usemtl d9f7a493-d50f-4f11-a21e-552fa488ca98
g 091_W_Aya_100K_01
f 25/61/15 27/58/15 35/6/15
usemtl d9f7a493-d50f-4f11-a21e-552fa488ca98
g 091_W_Aya_100K_01
f 23/51/35 31/30/35 42/16/35
usemtl d9f7a493-d50f-4f11-a21e-552fa488ca98
g 091_W_Aya_100K_01
f 37/5/20 43/41/20 29/77/20
usemtl d9f7a493-d50f-4f11-a21e-552fa488ca98
g 091_W_Aya_100K_01
f 25/61/38 35/21/38 46/22/38
usemtl d9f7a493-d50f-4f11-a21e-552fa488ca98
g 091_W_Aya_100K_01
f 25/61/15 40/15/15 27/58/15
usemtl d9f7a493-d50f-4f11-a21e-552fa488ca98
g 091_W_Aya_100K_01
f 33/71/21 30/10/21 42/16/21
usemtl d9f7a493-d50f-4f11-a21e-552fa488ca98
g 091_W_Aya_100K_01
f 40/15/19 55/78/19 53/44/19
usemtl d9f7a493-d50f-4f11-a21e-552fa488ca98
g 091_W_Aya_100K_01
f 25/61/38 46/22/38 21/13/38
usemtl d9f7a493-d50f-4f11-a21e-552fa488ca98
g 091_W_Aya_100K_01
f 25/61/36 51/55/36 33/71/36
usemtl d9f7a493-d50f-4f11-a21e-552fa488ca98
g 091_W_Aya_100K_01
f 37/3/30 51/55/30 43/41/30
usemtl d9f7a493-d50f-4f11-a21e-552fa488ca98
g 091_W_Aya_100K_01
f 30/10/34 33/71/34 51/55/34
