mtllib 25.mtl
v -152.4631 436.3678 -88.4782
v -161.9031 442.5203 -93.6971
v -160.42844690771298 425.0188421819 -79.79503650000004
v -162.9519 434.1022 -86.7294
v -158.1289 440.1524 -92.8715
v -160.8025 436.7722 -89.7204
v -164.21341805140327 443.8353525 -79.90419985371183
v -164.4309 440.7389 -81.0925
v -156.49201894804406 426.573420501914 -79.79503650000004
v -163.66588647640876 443.8353525 -85.7576212377292
v -164.7878 435.8113 -85.4512
v -163.5225837370614 443.8353525 -91.97447978660135
v -164.06344874648937 443.8353525 -80.42305889983567
v -152.9397 440.1409 -92.1875
v -164.68469166438445 440.9840895100533 -79.79503650000004
v -163.0618 442.3221 -92.0741
v -154.68176285089456 426.9359582204972 -79.79503650000004
v -150.86850850000005 438.0799008139881 -90.61739277082911
v -164.26550485566702 443.8353525 -79.79503650000004
v -150.86850850000005 429.39547483806035 -83.73974333832236
v -151.5075609825354 425.9886961028297 -79.79503650000004
v -164.27864710829834 443.5759161600786 -79.79503650000004
v -166.17007149363917 434.16273727775166 -79.79503650000004
v -155.0769 435.647 -87.6476
v -157.62322251314154 443.8353525 -96.43159680534305
v -166.4319359054869 431.64303932233116 -79.79503650000004
v -162.80157928677065 443.8353525 -93.50843527566431
v -165.0108510845048 426.5802836220173 -79.79503650000004
v -163.65089814471563 443.8353525 -82.23791345496369
v -161.82368568640436 443.8353525 -94.75633586438583
v -150.86850850000005 443.8353525 -96.4943902401761
v -150.86850850000005 440.1326445389627 -92.54723241025775
v -156.50876517887298 426.57564649655455 -79.79503650000004
v -164.52 439.7029 -86.1525
v -159.40007287480432 443.8353525 -96.03703641803476
v -150.86850850000005 431.593377188018 -85.81099562294207
v -150.86850850000005 430.75215810986094 -85.18314932225029
v -156.5702218287284 426.5626690797271 -79.79503650000004
v -164.0869 440.4602 -88.8965
v -160.4258 432.043 -85.4317
v -163.68103616817956 443.8353525 -91.37592792525072
v -152.93256757038344 426.6597148243364 -79.79503650000004
v -163.54021461351692 443.8353525 -84.3728495070108
v -163.64631861260472 443.8353525 -86.2957202620341
v -161.32199439612828 443.8353525 -95.10683749952906
v -164.15131129925396 425.57874740842584 -79.79503650000004
v -163.85957242637363 443.8353525 -90.23399594285715
v -165.386 436.2267 -82.4279
v -162.8767848914412 443.8353525 -93.31316395764351
v -155.06259830948582 443.8353525 -96.52892483325732
v -162.64074614439696 424.8799906985927 -79.79503650000004
v -165.98790580290887 429.0906103488183 -79.79503650000004
v -155.1772 430.1049 -82.9374
v -150.86850850000005 425.53834484889325 -79.79503650000004
v -166.11758079255344 434.6466434373304 -79.79503650000004
v -164.82029948502654 426.41962604036064 -79.79503650000004
v -163.82898025381613 443.8353525 -89.39701142838125
v -163.61819149127493 443.8353525 -82.9818212241097
v -153.373 430.2708 -83.4163
v -165.6461971344277 428.1607639360467 -79.79503650000004
v -164.3773533005191 442.8155131073214 -79.79503650000004
v -155.8145300152073 443.8353525 -96.45271012915524
v -159.9512872931304 443.8353525 -95.88542385486495
v -155.4312 443.3729 -96.0109
v -161.6956832089674 443.8353525 -94.84426794009151
v -165.39195220789122 437.5540645463319 -79.79503650000004
v -166.32816829122714 430.17888318485967 -79.79503650000004
v -150.86850850000005 442.4981885283977 -94.92587204534894
v -153.16682428385718 443.8353525 -96.52409715596502
v -161.99334304788513 424.7925417113608 -79.79503650000004
v -160.073 443.216 -95.3078
v -153.71518499019385 426.77292518187005 -79.79503650000004
vt 0.271336574356878 0.4653272365490695
vt 0.15310362439489075 0.37163320073013273
vt 0.941389103711752 0.36387095174980366
vt 0.816783062777482 0.7480872659360075
vt 0.8404297096493326 0.6917236337695236
vt 0.7053749580639668 0.8823817241899783
vt 0.1753679459413637 0.5442097971784936
vt 0.8689947610981608 0.5868944923976113
vt 0.39066254699255626 0.1964780585769469
vt 0.520351902570182 0.2173639723159454
vt 0.48425522946882144 0.2113308591648444
vt 0.3045026831464421 0.20845120255191885
vt 0.2237047102072808 0.5900609158864423
vt 0.8223019407715823 0.7370424648009948
vt 0.9216455990099705 0.42788035463583385
vt 0.8950053700454065 0.5114488320781774
vt 0.8638167196429576 0.6052083897482701
vt 0.4415949564200494 0.7865553401445446
vt 0.9142286901025075 0.3382194500077398
vt 0.5822790611351863 0.9172954592966076
vt 0.6575989489476347 0.7178834045507186
vt 0.8541378025089111 0.6335585160220134
vt 0.1285593228960047 0.3846622296003377
vt 0.2878252045263135 0.217734508784742
vt 0.5734135596137525 0.45047099137250357
vt 0.9142286901025157 0.33821945000774534
vt 0.10679885329327879 0.39500947146625276
vt 0.18900965353526256 0.3394154752924886
vt 0.03906249999999896 0.41625098350035494
vt 0.7178171080883556 0.8673799189727383
vt 0.8404297096493244 0.6917236337695181
vt 0.1067988532932733 0.39500947146625276
vt 0.1905362477451101 0.3378655901793791
vt 0.7528140151712038 0.832798139648128
vt 0.7511268901745964 0.28639752196445434
vt 0.806161400713311 0.6436021786678832
vt 0.22370471020727256 0.5900609158864423
vt 0.6713270364600218 0.9184486204328183
vt 0.6526468672221127 0.41580641929383855
vt 0.6593765259509442 0.2577204533615084
vt 0.15310362439489075 0.37163320073013817
vt 0.6287409411945264 0.9609374999999983
vt 0.39854189396830436 0.19472798515315104
vt 0.8408259727919677 0.3514293568620527
vt 0.8223019407715877 0.7370424648010059
vt 0.459515679926733 0.4405668279214541
vt 0.9372950018515799 0.34436327522358046
vt 0.868994761098158 0.5868944923976057
vt 0.7863254639628839 0.7944612072821071
vt 0.24162408400374055 0.5049438903532455
vt 0.8236089317074288 0.7336092314363749
vt 0.8415417659449946 0.686530355148987
vt 0.7863254639628812 0.7944612072821071
vt 0.7053749580639641 0.8823817241899783
vt 0.6873114393007694 0.3415251934110032
vt 0.43970735302464226 0.6237938517657897
vt 0.848722690783845 0.6490979917008446
vt 0.5658385647236263 0.22772176388045728
vt 0.39066254699256175 0.19647805857695244
vt 0.6130302134179313 0.5693209527850424
vt 0.18941223766531476 0.3391445048865568
vt 0.9216455990099677 0.42788035463583385
vt 0.06293751650327274 0.4115050280056598
vt 0.520351902570182 0.21736397231593985
vt 0.659376525950936 0.25772045336150284
vt 0.9094849614452758 0.46241372751904564
vt 0.7714968286346543 0.47027931827459146
vt 0.9372950018515799 0.344363275223586
vt 0.17536794594136645 0.5442097971784936
vt 0.8979480057201622 0.49739625256136055
vt 0.6448921131682294 0.25295658416233224
vt 0.35509671049192043 0.1946309338078509
vt 0.8541378025089084 0.6335585160220134
vt 0.945312499999999 0.3463817802582012
vt 0.7511268901745938 0.28639752196445434
vt 0.9445085282361322 0.3494859243952202
vt 0.9286396951342103 0.40997183842354223
vt 0.9286396951342047 0.40997183842354223
vt 0.5387489875350931 0.802068793884598
vt 0.7913051555367422 0.6980750776486251
vt 0.30450268314644485 0.20845120255191885
vt 0.7178171080883501 0.8673799189727383
vt 0.24854602902290743 0.6131020073072584
vt 0.18900965353526805 0.3394154752924886
vt 0.8575312948560576 0.3208029330778881
vt 0.06293751650327825 0.41150502800566524
vt 0.24854602902291018 0.6131020073072584
vt 0.45209465998232695 0.20656599225345285
vt 0.1894122376653175 0.3391445048865568
vt 0.6448921131682321 0.25295658416233224
vt 0.8236089317074398 0.7336092314363969
vt 0.7714968286346543 0.5445605441574324
vt 0.39854189396830436 0.1947279851531566
vt 0.7814009920856982 0.7624521400804221
vt 0.8638167196429521 0.6052083897482591
vt 0.671327036460019 0.9184486204328183
vt 0.4415949564200522 0.7865553401445501
vt 0.5062123575293735 0.8457577441746554
vt 0.9413891037117464 0.3638709517497982
vt 0.8167830627774848 0.7480872659360075
vt 0.2556180728110301 0.24395127820274431
vt 0.6972156027518162 0.8614937745908728
vt 0.848722690783845 0.6490979917008501
vt 0.7528140151712038 0.8327981396481334
vt 0.7957340850517766 0.7822219234819043
vt 0.897948005720165 0.4973962525613551
vt 0.40999486267150753 0.6980750776486251
vt 0.5658385647236235 0.22772176388045728
vn -0.9438 -0.0669 -0.3236
vn -0.5815 -0.4626 -0.6692
vn -0.2023 -0.6464 -0.7357
vn -0.0716 -0.6308 -0.7726
vn -0.9628 0.2403 -0.1233
vn -0.45 -0.6385 -0.6243
vn 0.0827 -0.7303 -0.6781
vn -0.9726 0.1056 -0.2069
vn -0.1243 -0.7036 -0.6997
vn -0.9627 0.2559 0.0874
vn -0.402 -0.581 -0.7077
vn -0.2352 -0.6657 -0.7081
vn -0.0728 -0.6487 -0.7576
vn -0.0812 -0.6007 -0.7953
vn -0.9725 0.2291 -0.0428
vn -0.0701 -0.7189 -0.6916
vn 0.0901 -0.6233 -0.7767
vn -0.0216 -0.6725 -0.7397
vn -0.488 -0.5288 -0.6944
vn -0.9145 -0.1427 -0.3787
vn -0.1195 -0.7084 -0.6956
vn -0.1417 -0.6396 -0.7555
vn 0.1375 -0.6865 -0.714
vn -0.8747 -0.2386 -0.422
vn -0.2704 -0.5844 -0.7651
vn 0.243 -0.6072 -0.7565
vn 0.1764 -0.6921 -0.6999
vn -0.9533 0.1238 -0.2755
vn -0.9735 0.2222 -0.0546
vn -0.0084 -0.6944 -0.7196
vn -0.0856 -0.6443 -0.7599
vn -0.9016 0.0457 -0.4302
vn -0.7832 -0.3149 -0.5361
vn -0.9763 0.2084 0.0575
vn -0.8016 -0.2946 -0.5202
vn -0.4107 -0.5454 -0.7307
vn -0.3218 -0.5796 -0.7487
vn -0.978 0.2055 -0.0356
vn -0.9728 0.1011 -0.2083
vn 0.1395 -0.6606 -0.7377
vn -0.9886 0.042 -0.1445
vn 0.0017 -0.7466 -0.6653
vn -0.9642 -0.0716 -0.2553
vn -0.0321 -0.7027 -0.7107
vn -0.4511 -0.535 -0.7143
vn -0.4017 -0.5452 -0.7358
vn -0.9545 0.1968 -0.2239
vn -0.8338 -0.2607 -0.4866
vn -0.718 -0.4098 -0.5626
vn -0.9807 0.1922 0.0359
vn -0.1027 -0.7106 -0.6961
vn -0.4791 -0.5329 -0.6975
vn -0.9623 0.1615 -0.2188
vn 0.0084 -0.761 -0.6487
vn 0.0939 -0.7293 -0.6777
vn -0.9797 0.0317 -0.1982
vn -0.3245 -0.6892 -0.6478
vn -0.988 0.0053 -0.1545
vn -0.16 -0.6746 -0.7206
vn -0.9184 -0.1773 -0.3537
vn -0.4094 -0.5708 -0.7117
vn -0.1743 -0.6691 -0.7225
vn -0.7288 -0.3837 -0.5672
usemtl 7968cb6f-d981-4b4f-b65a-e44efaa30619
g 091_W_Aya_100K_01
f 6/60/61 2/80/61 71/94/61
usemtl 7968cb6f-d981-4b4f-b65a-e44efaa30619
g 091_W_Aya_100K_01
f 6/60/37 4/25/37 2/80/37
usemtl 7968cb6f-d981-4b4f-b65a-e44efaa30619
g 091_W_Aya_100K_01
f 34/67/58 41/73/58 39/92/58
usemtl 7968cb6f-d981-4b4f-b65a-e44efaa30619
g 091_W_Aya_100K_01
f 38/33/26 3/101/26 40/46/26
usemtl 7968cb6f-d981-4b4f-b65a-e44efaa30619
g 091_W_Aya_100K_01
f 27/5/60 16/36/60 49/52/60
usemtl 7968cb6f-d981-4b4f-b65a-e44efaa30619
g 091_W_Aya_100K_01
f 2/80/35 60/88/35 52/11/35
usemtl 7968cb6f-d981-4b4f-b65a-e44efaa30619
g 091_W_Aya_100K_01
f 1/107/44 24/56/44 14/79/44
usemtl 7968cb6f-d981-4b4f-b65a-e44efaa30619
g 091_W_Aya_100K_01
f 21/86/57 59/50/57 37/13/57
usemtl 7968cb6f-d981-4b4f-b65a-e44efaa30619
g 091_W_Aya_100K_01
f 2/80/35 52/11/35 11/39/35
usemtl 7968cb6f-d981-4b4f-b65a-e44efaa30619
g 091_W_Aya_100K_01
f 64/102/30 5/21/30 25/34/30
usemtl 7968cb6f-d981-4b4f-b65a-e44efaa30619
g 091_W_Aya_100K_01
f 34/67/50 57/8/50 47/17/50
usemtl 7968cb6f-d981-4b4f-b65a-e44efaa30619
g 091_W_Aya_100K_01
f 17/41/23 9/28/23 53/1/23
usemtl 7968cb6f-d981-4b4f-b65a-e44efaa30619
g 091_W_Aya_100K_01
f 27/31/49 2/80/49 16/36/49
usemtl 7968cb6f-d981-4b4f-b65a-e44efaa30619
g 091_W_Aya_100K_01
f 18/97/12 1/107/12 32/98/12
usemtl 7968cb6f-d981-4b4f-b65a-e44efaa30619
g 091_W_Aya_100K_01
f 69/96/54 68/20/54 14/79/54
usemtl 7968cb6f-d981-4b4f-b65a-e44efaa30619
g 091_W_Aya_100K_01
f 8/44/5 48/55/5 55/40/5
usemtl 7968cb6f-d981-4b4f-b65a-e44efaa30619
g 091_W_Aya_100K_01
f 39/92/41 11/39/41 34/67/41
usemtl 7968cb6f-d981-4b4f-b65a-e44efaa30619
g 091_W_Aya_100K_01
f 69/96/54 14/79/54 64/102/54
usemtl 7968cb6f-d981-4b4f-b65a-e44efaa30619
g 091_W_Aya_100K_01
f 36/87/46 1/107/46 18/18/46
usemtl 7968cb6f-d981-4b4f-b65a-e44efaa30619
g 091_W_Aya_100K_01
f 8/44/53 15/85/53 61/19/53
usemtl 7968cb6f-d981-4b4f-b65a-e44efaa30619
g 091_W_Aya_100K_01
f 42/32/51 72/23/51 59/50/51
usemtl 7968cb6f-d981-4b4f-b65a-e44efaa30619
g 091_W_Aya_100K_01
f 61/26/28 7/76/28 13/3/28
usemtl 7968cb6f-d981-4b4f-b65a-e44efaa30619
g 091_W_Aya_100K_01
f 11/39/56 48/55/56 34/67/56
usemtl 7968cb6f-d981-4b4f-b65a-e44efaa30619
g 091_W_Aya_100K_01
f 4/25/45 28/93/45 2/80/45
usemtl 7968cb6f-d981-4b4f-b65a-e44efaa30619
g 091_W_Aya_100K_01
f 64/102/30 25/34/30 62/30/30
usemtl 7968cb6f-d981-4b4f-b65a-e44efaa30619
g 091_W_Aya_100K_01
f 15/85/47 8/44/47 66/35/47
usemtl 7968cb6f-d981-4b4f-b65a-e44efaa30619
g 091_W_Aya_100K_01
f 4/25/45 56/59/45 28/93/45
usemtl 7968cb6f-d981-4b4f-b65a-e44efaa30619
g 091_W_Aya_100K_01
f 70/24/14 4/25/14 40/46/14
usemtl 7968cb6f-d981-4b4f-b65a-e44efaa30619
g 091_W_Aya_100K_01
f 2/80/33 28/43/33 60/88/33
usemtl 7968cb6f-d981-4b4f-b65a-e44efaa30619
g 091_W_Aya_100K_01
f 33/89/40 38/33/40 40/46/40
usemtl 7968cb6f-d981-4b4f-b65a-e44efaa30619
g 091_W_Aya_100K_01
f 21/86/57 42/27/57 59/50/57
usemtl 7968cb6f-d981-4b4f-b65a-e44efaa30619
g 091_W_Aya_100K_01
f 40/46/18 6/60/18 5/21/18
usemtl 7968cb6f-d981-4b4f-b65a-e44efaa30619
g 091_W_Aya_100K_01
f 22/47/32 19/74/32 7/76/32
usemtl 7968cb6f-d981-4b4f-b65a-e44efaa30619
g 091_W_Aya_100K_01
f 23/71/39 11/39/39 26/108/39
usemtl 7968cb6f-d981-4b4f-b65a-e44efaa30619
g 091_W_Aya_100K_01
f 61/26/28 22/68/28 7/76/28
usemtl 7968cb6f-d981-4b4f-b65a-e44efaa30619
g 091_W_Aya_100K_01
f 44/16/34 57/48/34 34/67/34
usemtl 7968cb6f-d981-4b4f-b65a-e44efaa30619
g 091_W_Aya_100K_01
f 67/10/1 26/58/1 11/39/1
usemtl 7968cb6f-d981-4b4f-b65a-e44efaa30619
g 091_W_Aya_100K_01
f 14/79/55 24/56/55 64/102/55
usemtl 7968cb6f-d981-4b4f-b65a-e44efaa30619
g 091_W_Aya_100K_01
f 45/100/19 2/80/19 65/45/19
usemtl 7968cb6f-d981-4b4f-b65a-e44efaa30619
g 091_W_Aya_100K_01
f 50/6/42 69/38/42 64/102/42
usemtl 7968cb6f-d981-4b4f-b65a-e44efaa30619
g 091_W_Aya_100K_01
f 1/107/9 14/79/9 68/20/9
usemtl 7968cb6f-d981-4b4f-b65a-e44efaa30619
g 091_W_Aya_100K_01
f 8/44/53 13/99/53 29/78/53
usemtl 7968cb6f-d981-4b4f-b65a-e44efaa30619
g 091_W_Aya_100K_01
f 45/4/11 71/94/11 2/80/11
usemtl 7968cb6f-d981-4b4f-b65a-e44efaa30619
g 091_W_Aya_100K_01
f 59/50/22 53/1/22 24/56/22
usemtl 7968cb6f-d981-4b4f-b65a-e44efaa30619
g 091_W_Aya_100K_01
f 59/50/21 72/23/21 17/2/21
usemtl 7968cb6f-d981-4b4f-b65a-e44efaa30619
g 091_W_Aya_100K_01
f 33/89/40 40/46/40 24/56/40
usemtl 7968cb6f-d981-4b4f-b65a-e44efaa30619
g 091_W_Aya_100K_01
f 21/86/57 37/13/57 20/69/57
usemtl 7968cb6f-d981-4b4f-b65a-e44efaa30619
g 091_W_Aya_100K_01
f 48/55/8 11/39/8 23/90/8
usemtl 7968cb6f-d981-4b4f-b65a-e44efaa30619
g 091_W_Aya_100K_01
f 8/44/15 29/77/15 58/15/15
usemtl 7968cb6f-d981-4b4f-b65a-e44efaa30619
g 091_W_Aya_100K_01
f 5/21/13 6/60/13 71/94/13
usemtl 7968cb6f-d981-4b4f-b65a-e44efaa30619
g 091_W_Aya_100K_01
f 34/67/58 47/95/58 41/73/58
usemtl 7968cb6f-d981-4b4f-b65a-e44efaa30619
g 091_W_Aya_100K_01
f 35/49/59 5/21/59 71/94/59
usemtl 7968cb6f-d981-4b4f-b65a-e44efaa30619
g 091_W_Aya_100K_01
f 51/12/25 46/72/25 4/25/25
usemtl 7968cb6f-d981-4b4f-b65a-e44efaa30619
g 091_W_Aya_100K_01
f 35/53/3 71/94/3 63/105/3
usemtl 7968cb6f-d981-4b4f-b65a-e44efaa30619
g 091_W_Aya_100K_01
f 53/1/31 33/61/31 24/56/31
usemtl 7968cb6f-d981-4b4f-b65a-e44efaa30619
g 091_W_Aya_100K_01
f 46/72/2 56/9/2 4/25/2
usemtl 7968cb6f-d981-4b4f-b65a-e44efaa30619
g 091_W_Aya_100K_01
f 10/70/38 44/16/38 34/67/38
usemtl 7968cb6f-d981-4b4f-b65a-e44efaa30619
g 091_W_Aya_100K_01
f 45/4/11 63/105/11 71/94/11
usemtl 7968cb6f-d981-4b4f-b65a-e44efaa30619
g 091_W_Aya_100K_01
f 5/21/27 24/56/27 40/46/27
usemtl 7968cb6f-d981-4b4f-b65a-e44efaa30619
g 091_W_Aya_100K_01
f 54/29/6 21/63/6 20/7/6
usemtl 7968cb6f-d981-4b4f-b65a-e44efaa30619
g 091_W_Aya_100K_01
f 10/70/38 34/67/38 48/55/38
usemtl 7968cb6f-d981-4b4f-b65a-e44efaa30619
g 091_W_Aya_100K_01
f 8/44/53 61/19/53 13/99/53
usemtl 7968cb6f-d981-4b4f-b65a-e44efaa30619
g 091_W_Aya_100K_01
f 36/83/36 59/50/36 1/107/36
usemtl 7968cb6f-d981-4b4f-b65a-e44efaa30619
g 091_W_Aya_100K_01
f 11/39/48 52/11/48 67/64/48
usemtl 7968cb6f-d981-4b4f-b65a-e44efaa30619
g 091_W_Aya_100K_01
f 36/83/36 37/37/36 59/50/36
usemtl 7968cb6f-d981-4b4f-b65a-e44efaa30619
g 091_W_Aya_100K_01
f 48/55/8 23/90/8 55/65/8
usemtl 7968cb6f-d981-4b4f-b65a-e44efaa30619
g 091_W_Aya_100K_01
f 69/96/54 31/42/54 68/20/54
usemtl 7968cb6f-d981-4b4f-b65a-e44efaa30619
g 091_W_Aya_100K_01
f 3/101/17 70/24/17 40/46/17
usemtl 7968cb6f-d981-4b4f-b65a-e44efaa30619
g 091_W_Aya_100K_01
f 16/36/20 11/39/20 39/92/20
usemtl 7968cb6f-d981-4b4f-b65a-e44efaa30619
g 091_W_Aya_100K_01
f 59/50/4 24/56/4 1/107/4
usemtl 7968cb6f-d981-4b4f-b65a-e44efaa30619
g 091_W_Aya_100K_01
f 2/80/52 30/91/52 65/14/52
usemtl 7968cb6f-d981-4b4f-b65a-e44efaa30619
g 091_W_Aya_100K_01
f 1/107/9 68/20/9 32/98/9
usemtl 7968cb6f-d981-4b4f-b65a-e44efaa30619
g 091_W_Aya_100K_01
f 27/31/49 30/51/49 2/80/49
usemtl 7968cb6f-d981-4b4f-b65a-e44efaa30619
g 091_W_Aya_100K_01
f 40/46/62 4/25/62 6/60/62
usemtl 7968cb6f-d981-4b4f-b65a-e44efaa30619
g 091_W_Aya_100K_01
f 16/36/63 2/80/63 11/39/63
usemtl 7968cb6f-d981-4b4f-b65a-e44efaa30619
g 091_W_Aya_100K_01
f 24/56/7 5/21/7 64/102/7
usemtl 7968cb6f-d981-4b4f-b65a-e44efaa30619
g 091_W_Aya_100K_01
f 8/44/29 43/66/29 48/55/29
usemtl 7968cb6f-d981-4b4f-b65a-e44efaa30619
g 091_W_Aya_100K_01
f 39/92/43 41/22/43 12/57/43
usemtl 7968cb6f-d981-4b4f-b65a-e44efaa30619
g 091_W_Aya_100K_01
f 35/49/59 25/104/59 5/21/59
usemtl 7968cb6f-d981-4b4f-b65a-e44efaa30619
g 091_W_Aya_100K_01
f 48/55/10 43/66/10 10/106/10
usemtl 7968cb6f-d981-4b4f-b65a-e44efaa30619
g 091_W_Aya_100K_01
f 8/44/5 55/40/5 66/75/5
usemtl 7968cb6f-d981-4b4f-b65a-e44efaa30619
g 091_W_Aya_100K_01
f 64/102/16 62/82/16 50/54/16
usemtl 7968cb6f-d981-4b4f-b65a-e44efaa30619
g 091_W_Aya_100K_01
f 39/92/24 12/103/24 49/52/24
usemtl 7968cb6f-d981-4b4f-b65a-e44efaa30619
g 091_W_Aya_100K_01
f 70/24/14 51/81/14 4/25/14
usemtl 7968cb6f-d981-4b4f-b65a-e44efaa30619
g 091_W_Aya_100K_01
f 59/50/21 17/2/21 53/1/21
usemtl 7968cb6f-d981-4b4f-b65a-e44efaa30619
g 091_W_Aya_100K_01
f 8/44/29 58/62/29 43/66/29
usemtl 7968cb6f-d981-4b4f-b65a-e44efaa30619
g 091_W_Aya_100K_01
f 39/92/24 49/52/24 16/36/24
usemtl 7968cb6f-d981-4b4f-b65a-e44efaa30619
g 091_W_Aya_100K_01
f 53/1/31 9/84/31 33/61/31
