mtllib 270.mtl
v 64.05972328006295 658.1892 97.83637107481137
v 65.12159359588232 658.1892 97.42884816417343
v 66.47926047747546 658.1892 96.60123256257272
v 70.82560858229964 660.1985737549585 91.68804149999997
v 65.6324 665.5795 92.281
v 69.7357296583851 658.1892 93.983826552795
v 69.76186348147866 658.1892 93.96083429441461
v 63.48533899999997 663.572555119649 94.90323371587814
v 63.48533899999997 661.2047641422205 96.35689883855682
v 70.02375044523937 661.2588795487655 91.68804149999997
v 71.6816593412493 658.5471347929108 91.68804149999997
v 63.48533899999997 662.2618182720685 95.76102514990427
v 69.39272585761837 662.0222444122924 91.68804149999997
v 71.621993804443 658.1892 91.95275187944263
v 68.33078120623448 658.1892 95.12536913098194
v 65.56965268673892 666.5206856301348 91.68804149999997
v 64.05972328006295 658.1892 97.83637107481137
v 66.47926047747546 658.1892 96.60123256257272
v 70.82560858229964 660.1985737549585 91.68804149999997
v 65.6324 665.5795 92.281
v 66.34165601532743 665.620339428435 91.68804149999997
v 63.48533899999997 668.0366925215603 92.5420061261077
v 63.48533899999997 669.272843397432 91.68804149999997
v 69.7357296583851 658.1892 93.983826552795
v 69.76186348147866 658.1892 93.96083429441461
v 71.88336785179484 658.1892 91.68804149999997
v 63.48533899999997 663.572555119649 94.90323371587814
v 63.48533899999997 661.2047641422205 96.35689883855682
v 70.02375044523937 661.2588795487655 91.68804149999997
v 71.6816593412493 658.5471347929108 91.68804149999997
v 63.48533899999997 658.1892 98.04077816052695
v 69.39272585761837 662.0222444122924 91.68804149999997
v 71.621993804443 658.1892 91.95275187944263
v 68.33078120623448 658.1892 95.12536913098194
vt 0.2832603567788819 0.8413983426305227
vt 0.6633063148302208 0.2264166528591346
vt 0.16890997787601253 0.47880744737084413
vt 0.1689099778760174 0.4788074473708539
vt 0.570524003654175 0.4546520839906757
vt 0.5955554853098564 0.4018157684307807
vt 0.6633063148302135 0.2264166528591346
vt 0.31159573979744476 0.9218750000000016
vt 0.4966104614566474 0.19631721808022806
vt 0.1446681892680416 0.41211638961891794
vt 0.595555485309849 0.4018157684307807
vt 0.6324681871168543 0.33217494374043255
vt 0.49452841949053616 0.19627794486734074
vt 0.649796804561735 0.20265854859386767
vt 0.10958311413127653 0.21563996885303172
vt 0.3942438302337341 0.19972383319802967
vt 0.25894141443194385 0.1966645692127328
vt 0.2832603567788819 0.8413983426305324
vt 0.20123237318855192 0.5643067106111305
vt 0.387310296862665 0.6833965817625648
vt 0.6497968045617277 0.2026585485938579
vt 0.49661046145664983 0.1963172180802184
vt 0.5705240036541799 0.45465208399068546
vt 0.44019151451561556 0.6872659391518011
vt 0.17257220135601273 0.20414068637129235
vt 0.1095831141312741 0.21563996885303172
vt 0.2012323731885568 0.5643067106111401
vt 0.4041975069004595 0.7446127181495684
vt 0.4945284194905338 0.19627794486734074
vt 0.0781250000000009 0.2215286567312459
vt 0.3942438302337341 0.19972383319803944
vt 0.17257220135601517 0.204140686371302
vt 0.6718750000000009 0.20452106988828012
vt 0.25894141443194385 0.19666456921274245
vt 0.4041975069004668 0.7446127181495782
vt 0.6324681871168567 0.33217494374043255
vn 0.5592 0.4623 0.6882
vn 0.6857 0.3554 0.6352
vn 0.4544 0.4878 0.7454
vn 0.3171 0.4657 0.8262
vn 0.6003 0.4546 0.658
vn 0.5406 0.3934 0.7437
vn 0.5511 0.4673 0.6913
vn 0.5909 0.4469 0.6717
vn 0.6605 0.3722 0.6521
vn 0.2968 0.4656 0.8338
vn 0.5496 0.4713 0.6898
usemtl 22a5d4ae-890d-43e0-85ba-874411054b62
g 091_W_Aya_100K_01
f 2/25/3 3/34/3 5/20/3
usemtl 22a5d4ae-890d-43e0-85ba-874411054b62
g 091_W_Aya_100K_01
f 2/25/3 5/20/3 8/19/3
usemtl 22a5d4ae-890d-43e0-85ba-874411054b62
g 091_W_Aya_100K_01
f 2/32/4 12/4/4 9/10/4
usemtl 22a5d4ae-890d-43e0-85ba-874411054b62
g 091_W_Aya_100K_01
f 2/25/3 8/19/3 12/3/3
usemtl 22a5d4ae-890d-43e0-85ba-874411054b62
g 091_W_Aya_100K_01
f 14/21/2 11/7/2 4/36/2
usemtl 22a5d4ae-890d-43e0-85ba-874411054b62
g 091_W_Aya_100K_01
f 6/13/1 13/5/1 15/31/1
usemtl 22a5d4ae-890d-43e0-85ba-874411054b62
g 091_W_Aya_100K_01
f 2/32/4 9/10/4 1/15/4
usemtl 22a5d4ae-890d-43e0-85ba-874411054b62
g 091_W_Aya_100K_01
f 6/13/1 10/11/1 13/5/1
usemtl 22a5d4ae-890d-43e0-85ba-874411054b62
g 091_W_Aya_100K_01
f 14/21/2 4/36/2 7/22/2
usemtl 22a5d4ae-890d-43e0-85ba-874411054b62
g 091_W_Aya_100K_01
f 21/24/11 16/35/11 20/20/11
usemtl 22a5d4ae-890d-43e0-85ba-874411054b62
g 091_W_Aya_100K_01
f 20/20/5 16/28/5 23/8/5
usemtl 22a5d4ae-890d-43e0-85ba-874411054b62
g 091_W_Aya_100K_01
f 28/10/10 31/30/10 17/26/10
usemtl 22a5d4ae-890d-43e0-85ba-874411054b62
g 091_W_Aya_100K_01
f 32/23/7 18/17/7 34/16/7
usemtl 22a5d4ae-890d-43e0-85ba-874411054b62
g 091_W_Aya_100K_01
f 20/20/5 23/8/5 22/18/5
usemtl 22a5d4ae-890d-43e0-85ba-874411054b62
g 091_W_Aya_100K_01
f 29/6/8 25/9/8 19/12/8
usemtl 22a5d4ae-890d-43e0-85ba-874411054b62
g 091_W_Aya_100K_01
f 20/20/6 22/1/6 27/27/6
usemtl 22a5d4ae-890d-43e0-85ba-874411054b62
g 091_W_Aya_100K_01
f 29/6/8 24/29/8 25/9/8
usemtl 22a5d4ae-890d-43e0-85ba-874411054b62
g 091_W_Aya_100K_01
f 30/2/9 33/14/9 26/33/9
usemtl 22a5d4ae-890d-43e0-85ba-874411054b62
g 091_W_Aya_100K_01
f 32/23/7 20/20/7 18/17/7
usemtl 22a5d4ae-890d-43e0-85ba-874411054b62
g 091_W_Aya_100K_01
f 32/23/7 21/24/7 20/20/7
