mtllib 294.mtl
v 126.936 789.4281 50.8867
v 116.84697942223781 788.6750328377775 48.817271999999974
v 138.29522947931602 786.8015085 56.6101783138157
v 139.2373 788.537 55.1763
v 131.8600364045049 786.8015085 54.192732050509356
v 124.32100021645061 790.5246595675972 48.817271999999974
v 135.103 787.113 54.7195
v 135.1869 793.2459 48.9246
v 135.12306082914824 786.8015085 55.06876663213812
v 117.83424633849005 788.8754914410628 48.817271999999974
v 135.12382774167574 793.3411730834173 48.817271999999974
v 128.56902543335679 791.8940895936402 48.817271999999974
v 111.90513856218368 786.9580253623677 48.817271999999974
v 113.24130130679373 786.8015085 49.67078301940857
v 116.9288 788.274 49.2535
v 121.09021553326075 786.8015085 52.27767517028312
v 121.58726855765421 789.8453012502972 48.817271999999974
v 112.79860441945995 787.4740969923564 48.817271999999974
v 125.56873247082571 786.8015085 53.33240314795524
v 127.33102751817685 791.512976178916 48.817271999999974
v 112.50225300125436 786.8015085 49.435807008279056
v 134.3996621911447 786.8015085 54.8365909503843
v 112.52 786.855 49.3675
v 111.54336511994283 786.8015085 48.817271999999974
v 119.85386308666254 786.8015085 51.89846177817943
v 117.19073405360483 788.7294133925126 48.817271999999974
v 122.06322443309796 786.8015085 52.56420079620205
v 129.61827804341814 786.8015085 53.77905649301052
v 112.6187908294726 787.3961743296009 48.817271999999974
v 147.0137 799.4524 51.076
v 139.2373 788.537 55.1763
v 144.8549412467437 786.8015085 61.526408545168096
v 142.2471 790.6444 55.0498
v 135.103 787.113 54.7195
v 149.22687799999997 798.567119505885 54.45102634641635
v 147.90328020424934 786.8015085 64.81204512903982
v 143.6873 798.3528 48.9338
v 139.87989078832686 786.8015085 57.499991748309455
v 149.22687799999997 802.4336321593587 50.64731523428679
v 143.73402309642935 798.5209307222723 48.817271999999974
v 143.67350714727297 798.4651488255515 48.817271999999974
v 138.75706015362036 794.9103992004431 48.817271999999974
v 139.7091706319567 795.4597905807489 48.817271999999974
v 139.1888 793.356 50.3988
v 146.1699 791.14 58.1215
v 149.22687799999997 786.8015085 66.3960322989514
v 148.15219032294814 802.9945376449664 48.817271999999974
v 138.29522947931602 786.8015085 56.6101783138157
v 135.1869 793.2459 48.9246
v 147.34473265588997 802.0609884323778 48.817271999999974
v 135.12382774167574 793.3411730834173 48.817271999999974
v 141.33327962469718 786.8015085 58.53350127556918
v 143.43266230537904 786.8015085 60.2217298951998
v 149.22687799999997 800.8956267413147 52.208029993698894
v 143.61247266494183 798.4219273049786 48.817271999999974
v 144.05297135639748 798.8295794494207 48.817271999999974
v 149.22687799999997 804.3605010364073 48.817271999999974
v 149.22687799999997 792.3993394295029 60.43993409103732
v 135.22480122682995 793.3804931355413 48.817271999999974
vt 0.452332374198636 0.8793500181560481
vt 0.4523323741986341 0.8793500181560443
vt 0.3865310794850685 0.7857963650628284
vt 0.08646758502043478 0.1509330631497905
vt 0.09129171313630002 0.6780735370225
vt 0.12594698213256353 0.23499172953646696
vt 0.18629844731516032 0.37133106419044226
vt 0.06564561562609972 0.16261833163355333
vt 0.22492778239119599 0.45671707689776364
vt 0.07556968993671596 0.8005367206670475
vt 0.44419004897786313 0.9357698020711986
vt 0.06344066635719874 0.339297008182713
vt 0.03906249999999917 0.9609375000000009
vt 0.27854025229184953 0.593173121377861
vt 0.13103828120107114 0.24743253077273752
vt 0.27946040190533755 0.5954412217341504
vt 0.3834580114363072 0.7863791883134539
vt 0.18859583400021415 0.7628613393125451
vt 0.14156013599840028 0.6956674850242374
vt 0.38572992635832737 0.7842965996349318
vt 0.09533980546608808 0.6060901136542515
vt 0.3171430672744017 0.6697230215614063
vt 0.08466715986222198 0.49074264832167447
vt 0.0685339593004633 0.41080159455876886
vt 0.44419004897786313 0.9357698020711949
vt 0.18555106041618344 0.952284358191117
vt 0.09129171313629256 0.6780735370224924
vt 0.0657098443468358 0.14793738023309833
vt 0.2785402522918477 0.5931731213778573
vt 0.329075684587453 0.6907671170257195
vt 0.3857299263583311 0.7842965996349318
vt 0.12347695645161166 0.22852391306483544
vt 0.39310954252247826 0.7953872839938827
vt 0.06300175520620306 0.29484738070611416
vt 0.1310382812010674 0.24743253077273752
vt 0.21493328018467736 0.4313066616861416
vt 0.4692067197806337 0.9012229709626036
vt 0.34314589944088575 0.9436148476286256
vt 0.3431458994408839 0.9436148476286256
vt 0.08450164286694216 0.1475108617437325
vt 0.3875337105360143 0.78729165826115
vt 0.40370144166730804 0.9404049072898681
vt 0.16280098221733066 0.31709974841477595
vt 0.08466715986222384 0.49074264832167447
vt 0.05028571443320329 0.9217190074274686
vt 0.06570984434683766 0.14793738023309833
vt 0.17851675585696913 0.8636521207450065
vt 0.32907568458745484 0.6907671170257195
vt 0.07136643445443616 0.1267115080164053
vt 0.06696574858067192 0.8374048249152896
vt 0.06564561562609972 0.16261833163354955
vt 0.21493328018468108 0.4313066616861416
vt 0.09533980546608996 0.6060901136542551
vt 0.40370144166730987 0.9404049072898645
vt 0.08926923469831657 0.7140399638594026
vt 0.06298815223330045 0.31901922591446563
vt 0.0896422562606135 0.5373411542593877
vt 0.06300175520620306 0.29484738070611793
vt 0.1516392141416453 0.43025176058542536
vt 0.27594784457501564 0.6822287141665773
vt 0.07556968993671223 0.8005367206670438
vt 0.06764689628126072 0.14803757257453087
vt 0.08295696035519269 0.7483618860671504
vt 0.27946040190534127 0.5954412217341504
vt 0.08646758502043665 0.15093306314978672
vt 0.08926923469831284 0.7140399638594026
vt 0.16280098221733066 0.3170997484147722
vt 0.10460351613982956 0.6049557817350246
vt 0.2249277823911941 0.45671707689775987
vt 0.11132290156866145 0.2320298904349174
vt 0.09454996319363068 0.5907625305168623
vt 0.27594784457501564 0.5948767035917759
vt 0.3868177041507222 0.8770908916026703
vt 0.4692067197806337 0.9012229709626074
vt 0.12594698213255978 0.23499172953647074
vt 0.06696574858066631 0.8374048249152859
vt 0.06344066635720247 0.3392970081827168
vt 0.3865310794850647 0.7857963650628284
vt 0.050285714433205154 0.9217190074274686
vt 0.49218749999999917 0.9322840831219192
vt 0.07520646077696298 0.13386338914509355
vt 0.08450164286694216 0.14751086174372885
vt 0.3875337105360068 0.7872916582611388
vt 0.39310954252248015 0.7953872839938827
vt 0.18629844731516218 0.3713310641904497
vn 0.211 -0.7235 -0.6573
vn 0.114 -0.7206 -0.6839
vn 0.2182 -0.73 -0.6477
vn 0.2078 -0.7004 -0.6829
vn 0.3121 -0.7001 -0.6423
vn 0.1498 -0.7144 -0.6835
vn 0.3381 -0.7816 -0.5242
vn 0.3058 -0.7057 -0.6392
vn 0.1866 -0.7508 -0.6336
vn 0.135 -0.668 -0.7318
vn 0.218 -0.708 -0.6717
vn 0.1832 -0.7965 -0.5762
vn 0.1809 -0.6768 -0.7136
vn 0.2321 -0.707 -0.668
vn 0.0782 -0.7009 -0.709
vn 0.1939 -0.7503 -0.6321
vn 0.4197 -0.6837 -0.597
vn 0.1658 -0.7302 -0.6628
vn 0.1529 -0.6927 -0.7048
vn 0.3053 -0.6689 -0.6778
vn 0.4582 -0.6037 -0.6524
vn 0.6344 -0.5363 -0.5567
vn 0.3486 -0.7022 -0.6208
vn 0.546 -0.5809 -0.6036
vn 0.4762 -0.6501 -0.5922
vn 0.5542 -0.5727 -0.6041
vn 0.5848 -0.603 -0.5426
vn 0.2515 -0.6457 -0.721
vn 0.3556 -0.6162 -0.7027
vn 0.6357 -0.5498 -0.5418
vn 0.6339 -0.5636 -0.5297
vn 0.5322 -0.6166 -0.5802
vn 0.4578 -0.6035 -0.6529
vn 0.6586 -0.5182 -0.5456
vn 0.4392 -0.6202 -0.65
vn 0.2796 -0.6455 -0.7108
vn 0.4189 -0.6372 -0.6469
vn 0.532 -0.5772 -0.6195
vn 0.6392 -0.5358 -0.5518
vn 0.5681 -0.5787 -0.5851
vn 0.2749 -0.6623 -0.697
vn 0.4358 -0.6592 -0.6128
vn 0.5708 -0.5639 -0.5969
usemtl 82f3b3bb-f2fa-44f8-9adf-6f0ced973dad
g 091_W_Aya_100K_01
f 1/59/9 16/56/9 17/67/9
usemtl 82f3b3bb-f2fa-44f8-9adf-6f0ced973dad
g 091_W_Aya_100K_01
f 8/72/19 1/59/19 12/69/19
usemtl 82f3b3bb-f2fa-44f8-9adf-6f0ced973dad
g 091_W_Aya_100K_01
f 7/68/5 4/19/5 3/5/5
usemtl 82f3b3bb-f2fa-44f8-9adf-6f0ced973dad
g 091_W_Aya_100K_01
f 1/59/11 20/52/11 12/9/11
usemtl 82f3b3bb-f2fa-44f8-9adf-6f0ced973dad
g 091_W_Aya_100K_01
f 10/35/16 17/43/16 16/56/16
usemtl 82f3b3bb-f2fa-44f8-9adf-6f0ced973dad
g 091_W_Aya_100K_01
f 1/59/9 27/77/9 16/56/9
usemtl 82f3b3bb-f2fa-44f8-9adf-6f0ced973dad
g 091_W_Aya_100K_01
f 1/59/9 17/67/9 6/7/9
usemtl 82f3b3bb-f2fa-44f8-9adf-6f0ced973dad
g 091_W_Aya_100K_01
f 1/59/14 6/85/14 20/36/14
usemtl 82f3b3bb-f2fa-44f8-9adf-6f0ced973dad
g 091_W_Aya_100K_01
f 10/35/16 16/56/16 25/34/16
usemtl 82f3b3bb-f2fa-44f8-9adf-6f0ced973dad
g 091_W_Aya_100K_01
f 15/70/4 23/62/4 18/4/4
usemtl 82f3b3bb-f2fa-44f8-9adf-6f0ced973dad
g 091_W_Aya_100K_01
f 5/57/10 1/59/10 8/72/10
usemtl 82f3b3bb-f2fa-44f8-9adf-6f0ced973dad
g 091_W_Aya_100K_01
f 15/70/4 18/4/4 2/32/4
usemtl 82f3b3bb-f2fa-44f8-9adf-6f0ced973dad
g 091_W_Aya_100K_01
f 7/68/5 3/5/5 9/21/5
usemtl 82f3b3bb-f2fa-44f8-9adf-6f0ced973dad
g 091_W_Aya_100K_01
f 7/68/13 5/57/13 8/72/13
usemtl 82f3b3bb-f2fa-44f8-9adf-6f0ced973dad
g 091_W_Aya_100K_01
f 19/24/6 27/12/6 1/59/6
usemtl 82f3b3bb-f2fa-44f8-9adf-6f0ced973dad
g 091_W_Aya_100K_01
f 8/72/19 12/69/19 11/29/19
usemtl 82f3b3bb-f2fa-44f8-9adf-6f0ced973dad
g 091_W_Aya_100K_01
f 28/23/15 19/24/15 1/59/15
usemtl 82f3b3bb-f2fa-44f8-9adf-6f0ced973dad
g 091_W_Aya_100K_01
f 15/70/2 2/32/2 26/6/2
usemtl 82f3b3bb-f2fa-44f8-9adf-6f0ced973dad
g 091_W_Aya_100K_01
f 13/81/7 23/62/7 21/46/7
usemtl 82f3b3bb-f2fa-44f8-9adf-6f0ced973dad
g 091_W_Aya_100K_01
f 23/62/3 25/58/3 14/8/3
usemtl 82f3b3bb-f2fa-44f8-9adf-6f0ced973dad
g 091_W_Aya_100K_01
f 14/51/12 21/28/12 23/62/12
usemtl 82f3b3bb-f2fa-44f8-9adf-6f0ced973dad
g 091_W_Aya_100K_01
f 13/81/7 21/46/7 24/49/7
usemtl 82f3b3bb-f2fa-44f8-9adf-6f0ced973dad
g 091_W_Aya_100K_01
f 23/62/3 15/70/3 25/58/3
usemtl 82f3b3bb-f2fa-44f8-9adf-6f0ced973dad
g 091_W_Aya_100K_01
f 29/40/17 23/62/17 13/81/17
usemtl 82f3b3bb-f2fa-44f8-9adf-6f0ced973dad
g 091_W_Aya_100K_01
f 7/68/13 22/71/13 5/57/13
usemtl 82f3b3bb-f2fa-44f8-9adf-6f0ced973dad
g 091_W_Aya_100K_01
f 22/71/1 7/68/1 9/53/1
usemtl 82f3b3bb-f2fa-44f8-9adf-6f0ced973dad
g 091_W_Aya_100K_01
f 10/35/16 25/34/16 15/70/16
usemtl 82f3b3bb-f2fa-44f8-9adf-6f0ced973dad
g 091_W_Aya_100K_01
f 10/15/18 15/70/18 26/75/18
usemtl 82f3b3bb-f2fa-44f8-9adf-6f0ced973dad
g 091_W_Aya_100K_01
f 18/65/8 23/62/8 29/82/8
usemtl 82f3b3bb-f2fa-44f8-9adf-6f0ced973dad
g 091_W_Aya_100K_01
f 5/57/10 28/44/10 1/59/10
usemtl 82f3b3bb-f2fa-44f8-9adf-6f0ced973dad
g 091_W_Aya_100K_01
f 30/73/30 50/1/30 47/74/30
usemtl 82f3b3bb-f2fa-44f8-9adf-6f0ced973dad
g 091_W_Aya_100K_01
f 33/18/42 38/55/42 31/19/42
usemtl 82f3b3bb-f2fa-44f8-9adf-6f0ced973dad
g 091_W_Aya_100K_01
f 45/47/43 37/17/43 30/73/43
usemtl 82f3b3bb-f2fa-44f8-9adf-6f0ced973dad
g 091_W_Aya_100K_01
f 30/73/30 47/74/30 39/25/30
usemtl 82f3b3bb-f2fa-44f8-9adf-6f0ced973dad
g 091_W_Aya_100K_01
f 37/17/21 44/60/21 43/30/21
usemtl 82f3b3bb-f2fa-44f8-9adf-6f0ced973dad
g 091_W_Aya_100K_01
f 54/42/22 45/47/22 30/73/22
usemtl 82f3b3bb-f2fa-44f8-9adf-6f0ced973dad
g 091_W_Aya_100K_01
f 37/17/33 33/18/33 44/60/33
usemtl 82f3b3bb-f2fa-44f8-9adf-6f0ced973dad
g 091_W_Aya_100K_01
f 37/17/24 45/47/24 33/18/24
usemtl 82f3b3bb-f2fa-44f8-9adf-6f0ced973dad
g 091_W_Aya_100K_01
f 33/18/37 31/19/37 44/60/37
usemtl 82f3b3bb-f2fa-44f8-9adf-6f0ced973dad
g 091_W_Aya_100K_01
f 43/48/29 44/60/29 42/22/29
usemtl 82f3b3bb-f2fa-44f8-9adf-6f0ced973dad
g 091_W_Aya_100K_01
f 54/42/22 35/39/22 45/47/22
usemtl 82f3b3bb-f2fa-44f8-9adf-6f0ced973dad
g 091_W_Aya_100K_01
f 32/50/32 33/18/32 45/47/32
usemtl 82f3b3bb-f2fa-44f8-9adf-6f0ced973dad
g 091_W_Aya_100K_01
f 30/73/30 39/25/30 54/54/30
usemtl 82f3b3bb-f2fa-44f8-9adf-6f0ced973dad
g 091_W_Aya_100K_01
f 35/38/39 58/26/39 45/47/39
usemtl 82f3b3bb-f2fa-44f8-9adf-6f0ced973dad
g 091_W_Aya_100K_01
f 30/73/40 37/17/40 56/33/40
usemtl 82f3b3bb-f2fa-44f8-9adf-6f0ced973dad
g 091_W_Aya_100K_01
f 39/11/34 47/37/34 57/80/34
usemtl 82f3b3bb-f2fa-44f8-9adf-6f0ced973dad
g 091_W_Aya_100K_01
f 37/17/21 43/30/21 55/20/21
usemtl 82f3b3bb-f2fa-44f8-9adf-6f0ced973dad
g 091_W_Aya_100K_01
f 36/79/31 45/47/31 58/26/31
usemtl 82f3b3bb-f2fa-44f8-9adf-6f0ced973dad
g 091_W_Aya_100K_01
f 41/78/35 37/17/35 55/31/35
usemtl 82f3b3bb-f2fa-44f8-9adf-6f0ced973dad
g 091_W_Aya_100K_01
f 32/50/32 53/10/32 33/18/32
usemtl 82f3b3bb-f2fa-44f8-9adf-6f0ced973dad
g 091_W_Aya_100K_01
f 44/60/36 49/72/36 59/16/36
usemtl 82f3b3bb-f2fa-44f8-9adf-6f0ced973dad
g 091_W_Aya_100K_01
f 59/64/28 49/72/28 51/14/28
usemtl 82f3b3bb-f2fa-44f8-9adf-6f0ced973dad
g 091_W_Aya_100K_01
f 53/61/25 52/63/25 33/18/25
usemtl 82f3b3bb-f2fa-44f8-9adf-6f0ced973dad
g 091_W_Aya_100K_01
f 30/73/40 56/33/40 50/2/40
usemtl 82f3b3bb-f2fa-44f8-9adf-6f0ced973dad
g 091_W_Aya_100K_01
f 40/41/38 37/17/38 41/3/38
usemtl 82f3b3bb-f2fa-44f8-9adf-6f0ced973dad
g 091_W_Aya_100K_01
f 44/60/41 34/68/41 49/72/41
usemtl 82f3b3bb-f2fa-44f8-9adf-6f0ced973dad
g 091_W_Aya_100K_01
f 31/19/20 34/68/20 44/60/20
usemtl 82f3b3bb-f2fa-44f8-9adf-6f0ced973dad
g 091_W_Aya_100K_01
f 38/66/23 48/27/23 31/19/23
usemtl 82f3b3bb-f2fa-44f8-9adf-6f0ced973dad
g 091_W_Aya_100K_01
f 32/76/27 45/47/27 36/45/27
usemtl 82f3b3bb-f2fa-44f8-9adf-6f0ced973dad
g 091_W_Aya_100K_01
f 33/18/42 52/63/42 38/55/42
usemtl 82f3b3bb-f2fa-44f8-9adf-6f0ced973dad
g 091_W_Aya_100K_01
f 36/79/31 58/26/31 46/13/31
usemtl 82f3b3bb-f2fa-44f8-9adf-6f0ced973dad
g 091_W_Aya_100K_01
f 40/83/26 56/84/26 37/17/26
usemtl 82f3b3bb-f2fa-44f8-9adf-6f0ced973dad
g 091_W_Aya_100K_01
f 44/60/36 59/16/36 42/22/36
