mtllib 307.mtl
v 101.57485260117011 957.9261384010766 177.4295805
v 103.06698587779739 958.2845864999999 182.24346133126608
v 106.35610849999996 956.9589583428104 186.82676658929063
v 104.41893650578092 943.4162738580302 177.4295805
v 101.46354359721064 958.2845864999999 177.4295805
v 106.35610849999996 921.553947300375 178.8553021192712
v 103.25954612863157 953.2998057606678 177.4295805
v 104.76118312772626 933.6613419446074 177.4295805
v 106.35610849999996 958.2845864999999 187.61523339171882
v 104.75935529582311 934.5101384657504 177.4295805
v 104.2919 949.5309 178.0505
v 102.38299518970382 955.6610623300335 177.4295805
v 106.35610849999996 943.4437563943233 180.5292399792192
v 105.12316391856359 958.2845864999999 186.01944685799614
v 106.26473520825958 917.6565580637874 177.4295805
v 104.5251 952.7712 180.5532
v 103.0301801986315 958.2845864999999 182.1649901274368
v 105.27269648127148 926.1057274723446 177.4295805
v 106.35610849999996 955.5731948641454 185.78803379844507
v 104.40484210783407 945.1993710510682 177.4295805
v 106.35610849999996 951.019652394284 183.05448244725812
v 104.0344702881178 949.5799572084499 177.4295805
v 106.35610849999996 946.6964644477612 181.17426954854608
v 104.6919 944.4226 177.9723
v 104.56763901823479 938.7511578016291 177.4295805
v 106.1853 949.5223 181.887
v 106.35610849999996 955.7013879369898 185.9007529771231
v 106.35610849999996 948.6488788220267 181.90603351068128
v 104.7070840707826 935.1707110405073 177.4295805
v 106.00194929761906 958.2845864999999 187.21991912648807
v 104.8192839143802 932.5435159597057 177.4295805
v 106.35610849999996 954.6854289401075 185.11642766295853
v 106.35610849999996 922.5458454857298 179.15775884366948
v 106.35610849999996 945.6079165562849 181.01106768417796
v 103.9956212114863 958.2845864999999 183.917336306245
v 106.35610849999996 949.6140550417501 182.19215875106403
v 106.35610849999996 933.211967954618 179.62257229452945
v 103.62494424617717 951.3302733575852 177.4295805
v 106.35610849999996 917.0269253235203 177.4295805
v 106.35610849999996 922.6143983814018 179.1677793081928
v 106.35610849999996 938.312424469881 180.2149916552587
v 103.04317704428016 958.2845864999999 182.2029554339454
v 106.35610849999996 927.5636699420733 179.60583788137055
v 106.35610849999996 956.0444489025609 186.22178291953415
v 102.94034992502795 958.2845864999999 181.8963071953205
vt 0.19841108071334923 0.49155451168769515
vt 0.04102211395252842 0.9105675625697447
vt 0.2371676647957712 0.5741339686523691
vt 0.20347948136302968 0.4769409985729709
vt 0.21377093500428623 0.6669111912569239
vt 0.2212852689799039 0.8858751879995286
vt 0.23716766479576748 0.5741339686523506
vt 0.3175795955389423 0.27823342042242993
vt 0.23364109191337434 0.9339066039541187
vt 0.2923443885525807 0.38646036579816023
vt 0.2037647292977624 0.783191453973938
vt 0.12860217919305098 0.9367524042196824
vt 0.23073449150680847 0.9150036627270396
vt 0.19841108071335292 0.49155451168769515
vt 0.20348936981138963 0.9531468331006296
vt 0.23364109191337434 0.9339066039541224
vt 0.14534322134403055 0.6490991322811428
vt 0.2092998495059704 0.8119036457469708
vt 0.041022113952530276 0.9105675625697485
vt 0.05823530258734621 0.8675968117973127
vt 0.21109744052497315 0.45765874014203134
vt 0.25581514892937396 0.34792171073086176
vt 0.2558151489293776 0.34792171073086176
vt 0.09192656870730828 0.7892056976078454
vt 0.1277629966197681 0.9365620324159017
vt 0.1510627166127356 0.6698972968946177
vt 0.12776299661976992 0.9365620324159017
vt 0.3156641463513761 0.2035309021073891
vt 0.22701950616532518 0.9049115043168955
vt 0.22798313000705575 0.9589632923963889
vt 0.3168165096384589 0.2969023908650864
vt 0.11766881673594504 0.7600608265619533
vt 0.31681650963845337 0.2969023908650864
vt 0.09192656870731014 0.7892056976078492
vt 0.19781417644024274 0.7800971664880291
vt 0.03906249999999979 0.9171882736177276
vt 0.22801193562654956 0.9077694325669696
vt 0.22798313000705575 0.9589632923963927
vt 0.17257315328579959 0.5662561020152816
vt 0.12702587176215338 0.9363873809721163
vt 0.22701950616532704 0.904911504316888
vt 0.13477061937033205 0.6809184214997708
vt 0.13477061937033388 0.6809184214997708
vt 0.20348936981138777 0.953146833100626
vt 0.12199153848333714 0.9353082200652715
vt 0.2590201735941131 0.4838171806816416
vt 0.12702587176215338 0.9363873809721126
vt 0.20522405772256358 0.7644540837809034
vt 0.19377888741691965 0.5027524316742515
vt 0.05823530258734621 0.8675968117973091
vt 0.16231528283453722 0.944829082859902
vt 0.10477797208904012 0.7579123524541382
vt 0.20952998751802124 0.7054860704891419
vt 0.3165506590325957 0.298126948040752
vt 0.22128526897990203 0.8858751879995211
vt 0.3203124999999998 0.1929910432538614
vt 0.259020173594115 0.4838171806816416
vt 0.20522405772256358 0.7644540837808997
vt 0.20929984950597225 0.8119036457469672
vt 0.2923443885525788 0.38646036579815657
vt 0.23073449150680847 0.9150036627270433
vt 0.12860217919305098 0.9367524042196861
vt 0.20347948136302968 0.4769409985729747
vt 0.23752145095795757 0.9609375000000002
vt 0.17257315328580328 0.5662561020152852
vt 0.22801193562655328 0.9077694325669733
vt 0.0790719105675062 0.8252896143479738
vt 0.14438393663737636 0.8301880163032131
vt 0.20562624752768757 0.7254109295833906
vt 0.2137709350042881 0.6669111912569239
vt 0.21109744052497684 0.4576587401420239
vt 0.3175795955389386 0.27823342042242993
vt 0.16231528283453722 0.9448290828598945
vt 0.14534322134402872 0.6490991322811354
vt 0.121991538483339 0.9353082200652715
vt 0.3156641463513742 0.2035309021073891
vn -0.9085 -0.2125 0.3599
vn -0.8059 -0.4045 0.4323
vn -0.8984 -0.3205 0.3003
vn -0.8645 -0.2668 0.426
vn -0.8089 -0.0017 0.5879
vn -0.8434 -0.0328 0.5363
vn -0.805 -0.358 0.4732
vn -0.862 -0.0752 0.5014
vn -0.8247 -0.0653 0.5618
vn -0.6923 -0.3689 0.6202
vn -0.9107 -0.2828 0.3011
vn -0.8848 -0.1635 0.4363
vn -0.8565 -0.253 0.4498
vn -0.8881 -0.007 0.4597
vn -0.7789 -0.328 0.5346
vn -0.9229 -0.1712 0.3449
vn -0.9231 -0.0781 0.3765
vn -0.8926 -0.3314 0.3056
vn -0.9277 -0.1089 0.3572
vn -0.8991 -0.0633 0.4332
vn -0.8419 -0.1534 0.5174
vn -0.8714 -0.0278 0.4898
vn -0.852 -0.1138 0.511
vn -0.8614 -0.0448 0.5059
vn -0.9004 -0.1307 0.4149
vn -0.7516 -0.364 0.5502
vn -0.8043 -0.3924 0.4462
usemtl 30287fc5-778c-44c3-8feb-b1564397b976
g 091_W_Aya_100K_01
f 35/51/2 27/66/2 44/13/2
usemtl 30287fc5-778c-44c3-8feb-b1564397b976
g 091_W_Aya_100K_01
f 4/74/22 25/39/22 24/26/22
usemtl 30287fc5-778c-44c3-8feb-b1564397b976
g 091_W_Aya_100K_01
f 16/68/7 19/29/7 2/62/7
usemtl 30287fc5-778c-44c3-8feb-b1564397b976
g 091_W_Aya_100K_01
f 25/65/6 29/49/6 41/3/6
usemtl 30287fc5-778c-44c3-8feb-b1564397b976
g 091_W_Aya_100K_01
f 12/50/18 42/25/18 17/47/18
usemtl 30287fc5-778c-44c3-8feb-b1564397b976
g 091_W_Aya_100K_01
f 12/20/3 17/40/3 45/75/3
usemtl 30287fc5-778c-44c3-8feb-b1564397b976
g 091_W_Aya_100K_01
f 24/26/14 20/43/14 4/17/14
usemtl 30287fc5-778c-44c3-8feb-b1564397b976
g 091_W_Aya_100K_01
f 45/45/11 5/36/11 1/19/11
usemtl 30287fc5-778c-44c3-8feb-b1564397b976
g 091_W_Aya_100K_01
f 8/4/24 40/54/24 43/60/24
usemtl 30287fc5-778c-44c3-8feb-b1564397b976
g 091_W_Aya_100K_01
f 12/50/18 7/67/18 16/68/18
usemtl 30287fc5-778c-44c3-8feb-b1564397b976
g 091_W_Aya_100K_01
f 24/26/17 11/32/17 22/52/17
usemtl 30287fc5-778c-44c3-8feb-b1564397b976
g 091_W_Aya_100K_01
f 25/65/6 13/70/6 24/26/6
usemtl 30287fc5-778c-44c3-8feb-b1564397b976
g 091_W_Aya_100K_01
f 44/61/26 3/16/26 30/38/26
usemtl 30287fc5-778c-44c3-8feb-b1564397b976
g 091_W_Aya_100K_01
f 11/32/4 26/35/4 16/68/4
usemtl 30287fc5-778c-44c3-8feb-b1564397b976
g 091_W_Aya_100K_01
f 24/26/17 22/52/17 20/42/17
usemtl 30287fc5-778c-44c3-8feb-b1564397b976
g 091_W_Aya_100K_01
f 13/5/23 34/53/23 24/26/23
usemtl 30287fc5-778c-44c3-8feb-b1564397b976
g 091_W_Aya_100K_01
f 23/69/12 28/58/12 26/35/12
usemtl 30287fc5-778c-44c3-8feb-b1564397b976
g 091_W_Aya_100K_01
f 11/32/1 38/34/1 22/52/1
usemtl 30287fc5-778c-44c3-8feb-b1564397b976
g 091_W_Aya_100K_01
f 44/61/26 30/38/26 14/44/26
usemtl 30287fc5-778c-44c3-8feb-b1564397b976
g 091_W_Aya_100K_01
f 16/68/7 2/62/7 42/27/7
usemtl 30287fc5-778c-44c3-8feb-b1564397b976
g 091_W_Aya_100K_01
f 38/24/16 16/68/16 7/67/16
usemtl 30287fc5-778c-44c3-8feb-b1564397b976
g 091_W_Aya_100K_01
f 15/76/19 33/31/19 18/23/19
usemtl 30287fc5-778c-44c3-8feb-b1564397b976
g 091_W_Aya_100K_01
f 26/35/15 36/11/15 21/59/15
usemtl 30287fc5-778c-44c3-8feb-b1564397b976
g 091_W_Aya_100K_01
f 24/26/8 34/53/8 23/69/8
usemtl 30287fc5-778c-44c3-8feb-b1564397b976
g 091_W_Aya_100K_01
f 11/32/1 16/68/1 38/34/1
usemtl 30287fc5-778c-44c3-8feb-b1564397b976
g 091_W_Aya_100K_01
f 28/48/21 36/11/21 26/35/21
usemtl 30287fc5-778c-44c3-8feb-b1564397b976
g 091_W_Aya_100K_01
f 12/20/3 45/75/3 1/2/3
usemtl 30287fc5-778c-44c3-8feb-b1564397b976
g 091_W_Aya_100K_01
f 12/50/18 16/68/18 42/25/18
usemtl 30287fc5-778c-44c3-8feb-b1564397b976
g 091_W_Aya_100K_01
f 43/10/5 10/14/5 8/63/5
usemtl 30287fc5-778c-44c3-8feb-b1564397b976
g 091_W_Aya_100K_01
f 2/12/27 19/41/27 27/37/27
usemtl 30287fc5-778c-44c3-8feb-b1564397b976
g 091_W_Aya_100K_01
f 2/12/27 27/37/27 35/73/27
usemtl 30287fc5-778c-44c3-8feb-b1564397b976
g 091_W_Aya_100K_01
f 24/26/8 23/69/8 11/32/8
usemtl 30287fc5-778c-44c3-8feb-b1564397b976
g 091_W_Aya_100K_01
f 23/69/12 26/35/12 11/32/12
usemtl 30287fc5-778c-44c3-8feb-b1564397b976
g 091_W_Aya_100K_01
f 41/7/9 10/1/9 37/57/9
usemtl 30287fc5-778c-44c3-8feb-b1564397b976
g 091_W_Aya_100K_01
f 43/10/5 37/46/5 10/14/5
usemtl 30287fc5-778c-44c3-8feb-b1564397b976
g 091_W_Aya_100K_01
f 8/4/24 31/71/24 40/54/24
usemtl 30287fc5-778c-44c3-8feb-b1564397b976
g 091_W_Aya_100K_01
f 16/68/13 26/35/13 21/18/13
usemtl 30287fc5-778c-44c3-8feb-b1564397b976
g 091_W_Aya_100K_01
f 41/7/9 29/49/9 10/1/9
usemtl 30287fc5-778c-44c3-8feb-b1564397b976
g 091_W_Aya_100K_01
f 35/51/2 44/13/2 14/15/2
usemtl 30287fc5-778c-44c3-8feb-b1564397b976
g 091_W_Aya_100K_01
f 15/76/19 6/72/19 33/31/19
usemtl 30287fc5-778c-44c3-8feb-b1564397b976
g 091_W_Aya_100K_01
f 30/30/10 3/9/10 9/64/10
usemtl 30287fc5-778c-44c3-8feb-b1564397b976
g 091_W_Aya_100K_01
f 18/22/20 33/33/20 40/54/20
usemtl 30287fc5-778c-44c3-8feb-b1564397b976
g 091_W_Aya_100K_01
f 18/22/20 40/54/20 31/21/20
usemtl 30287fc5-778c-44c3-8feb-b1564397b976
g 091_W_Aya_100K_01
f 16/68/13 21/18/13 32/6/13
usemtl 30287fc5-778c-44c3-8feb-b1564397b976
g 091_W_Aya_100K_01
f 16/68/7 32/55/7 19/29/7
usemtl 30287fc5-778c-44c3-8feb-b1564397b976
g 091_W_Aya_100K_01
f 25/65/6 41/3/6 13/70/6
usemtl 30287fc5-778c-44c3-8feb-b1564397b976
g 091_W_Aya_100K_01
f 15/28/25 39/56/25 6/8/25
