mtllib 85.mtl
v -86.8892 526.9156 270.0253
v -91.25105883835732 529.568790059452 306.04188899999997
v -77.2246 526.0895 294.9727
v -90.77695827543323 529.5768915000001 302.8936295744942
v -87.7687619328551 529.5768915000001 294.6278952757767
v -103.88555508480326 527.8255314865231 263.1711195
v -71.9888 519.3926 266.6542
v -91.6921 528.4327 269.5866
v -107.99773900000004 528.7234730966774 263.1711195
v -90.00887615938119 525.861214154863 263.1711195
v -87.16143140982818 529.5768915000001 289.8909657296562
v -77.3018 524.2572 277.6021
v -104.28474468439337 529.5768915000001 267.12575705345546
v -82.7383 527.136 303.157
v -86.17417965141544 528.2568557777813 306.04188899999997
v -87.0625164653181 529.5768915000001 290.85659147935587
v -96.75999375364374 526.3163795115186 263.1711195
v -107.99773900000004 529.5768915000001 265.42912995492696
v -90.7558993604673 529.5768915000001 300.7643857596177
v -79.23757768415209 525.6518504403953 306.04188899999997
v -83.24444794463383 527.1103350138736 306.04188899999997
v -78.5837 525.4258 304.7126
v -73.00518151940179 522.7624673352483 306.04188899999997
v -89.02218356085203 529.5768915000001 298.0148027608517
v -91.28872080117513 529.5768915000001 306.02356285450963
v -88.60173160759749 528.9855572742033 306.04188899999997
v -98.71903641610703 526.6013645192703 263.1711195
v -84.75316050558267 524.5975036844785 263.1711195
v -82.1243 527.7769 296.4911
v -82.8289 527.8086 285.5759
v -91.2532 526.802 265.1107
v -96.87378150240143 529.5768915000001 270.3102471962835
v -104.00511989371395 529.5768915000001 267.21264864389417
v -107.60450616960489 528.654756129382 263.1711195
v -78.093 525.6099 283.3729
v -107.99773900000004 529.2704513859276 264.6370615156237
v -104.19288839634909 529.5768915000001 267.160100539601
v -73.05626027242474 518.4795616607847 263.1711195
v -83.7556 527.0494 277.6104
v -85.27063064241051 524.7418059461475 263.1711195
v -91.22334806305382 529.5768915000001 276.90061212764186
v -90.26032367759548 529.5768915000001 278.8107877639371
v -96.2827 528.915 268.0212
v -95.19419650568032 529.5768915000001 271.6157362755603
v -89.81564287757665 529.5768915000001 279.9847806179999
v -84.8706 524.9637 264.1199
v -87.5715 528.7195 302.2474
v -77.3452 525.8613 298.6721
v -73.4065 521.4446 273.1196
v -103.1958 528.6964 265.3475
v -74.4375 524.7513 290.8647
v -66.1365 520.8362 301.1154
v -73.001 518.4584 263.1919
v -90.6365545638049 529.5768915000001 277.9971348782549
v -72.99478023626455 518.4406000585321 263.1711195
v -70.39422336844038 521.6441861975231 306.04188899999997
v -87.08052568824716 529.5768915000001 291.30955965502955
v -76.85052380544231 524.5629375014144 306.04188899999997
v -89.4065649740886 529.2012630780355 306.04188899999997
v -88.02442081447609 529.5768915000001 285.2337039194462
v -81.49934885016012 526.5596921369553 306.04188899999997
v -91.25105883835732 529.568790059452 306.04188899999997
v -91.28277052070888 529.5768915000001 306.04188899999997
v -91.28872080117513 529.5768915000001 306.02356285450963
v -67.20235593284727 520.580350961841 306.04188899999997
v -65.12696950000004 514.7741319868294 265.7123398909199
v -71.9888 519.3926 266.6542
v -65.12696950000004 517.471101725168 277.1050703849669
v -77.3018 524.2572 277.6021
v -67.5859 520.9194 287.3104
v -73.05845070903774 518.481768360576 263.1711195
v -65.12696950000004 519.8065249950024 288.6720984388199
v -78.093 525.6099 283.3729
v -72.7957 523.6064 286.5695
v -73.05626027242474 518.4795616607847 263.1711195
v -65.12696950000004 520.4041950595056 301.9329154533602
v -84.8706 524.9637 264.1199
v -73.4065 521.4446 273.1196
v -65.12696950000004 518.9264875434783 284.4620183155923
v -65.12696950000004 514.8739174205922 265.93478232486837
v -74.4375 524.7513 290.8647
v -66.1365 520.8362 301.1154
v -70.39422336844038 521.6441861975231 306.04188899999997
v -72.96299139157382 518.4204332843191 263.1711195
v -65.12696950000004 520.1839327814843 291.92373905341714
v -77.2246 526.0895 294.9727
v -65.12696950000004 520.5288089048676 298.9063335278571
v -72.57551721314104 518.1853946442308 263.1711195
v -65.12696950000004 520.4183363739016 294.0814630143001
v -77.65984087781307 521.0769128290472 263.1711195
v -65.12696950000004 520.5076648988245 297.0497633667778
v -84.75316050558267 524.5975036844785 263.1711195
v -65.12696950000004 513.5774439365534 263.1711195
v -65.12696950000004 516.4795670289034 272.6596878393286
v -73.001 518.4584 263.1919
v -72.99478023626455 518.4406000585321 263.1711195
v -65.12696950000004 520.3965574625907 301.04858791160143
v -65.12696950000004 520.3592014942005 293.32643682471576
v -65.12696950000004 519.8989089271809 306.04188899999997
vt 0.2801354714854569 0.8043400341827517
vt 0.38331643094182666 0.563603475989968
vt 0.7462775855802944 0.2092796118757203
vt 0.9224229927589648 0.8056702663202757
vt 0.1138374139596932 0.8822729648530383
vt 0.3831977508876707 0.4671714390021824
vt 0.5110843971112555 0.17662676840105163
vt 0.5305759829652845 0.3030200453056535
vt 0.48148415979095055 0.9426614445185152
vt 0.5110843971112567 0.17662676840105163
vt 0.043949870745115624 0.8942573470414016
vt 0.7650016386580162 0.2774213622039087
vt 0.7265600252931008 0.21256587192358434
vt 0.7799753743126862 0.3267352390363517
vt 0.5809220673479993 0.15874900816123894
vt 0.4241456689267756 0.1966197189055624
vt 0.9224229927589627 0.8056702663202757
vt 0.41600069668133044 0.2487475412764113
vt 0.11077690707818517 0.9526644329775114
vt 0.7627416946459284 0.833684529147124
vt 0.6149998781218823 0.42362560981507913
vt 0.2832766722468566 0.31704143826405295
vt 0.7906708150021705 0.36370337644667794
vt 0.03906249999999998 0.932372879814563
vt 0.46628390258789815 0.18747060001176152
vt 0.25094908498331225 0.2336066635837002
vt 0.7233587956125507 0.12335210618478532
vt 0.21615710894401996 0.9609374999999992
vt 0.33883453664280166 0.21478002167437038
vt 0.38614190316108526 0.9519373388371909
vt 0.12956248097144493 0.9150932851909872
vt 0.7699220744925735 0.8978549037874451
vt 0.49294336177557396 0.9413111764863992
vt 0.7573861603112089 0.2459399280126091
vt 0.3315768015247325 0.28191407151650305
vt 0.9237033635658879 0.8095476265747875
vt 0.7600726453383883 0.9003406067788242
vt 0.4929433617755736 0.9413111764863958
vt 0.3225875648516158 0.3553261710136252
vt 0.45218236603415807 0.35729254933489574
vt 0.38127944403070757 0.4597078811176599
vt 0.27336808160573417 0.2825708740333296
vt 0.26222860193181297 0.866851059387219
vt 0.7584640727183608 0.9006026426390611
vt 0.11734004740607153 0.8813399148397909
vt 0.8313095970305339 0.490828562791753
vt 0.4814841597909516 0.9426614445185185
vt 0.48534889627424993 0.2065355936981137
vt 0.24972685866576003 0.8279567470039445
vt 0.47630347893604297 0.5442311743245046
vt 0.043113470974440876 0.9066178920540281
vt 0.9453125 0.8536773483886178
vt 0.6283045151863424 0.14706219851907976
vt 0.045981077390959774 0.9340890587320057
vt 0.36411736921761806 0.6564172840429274
vt 0.3833164309418275 0.563603475989968
vt 0.2801354714854567 0.8043400341827484
vt 0.25094908498331225 0.23360666358370352
vt 0.2515097904849609 0.2331778887883238
vt 0.3443008293691808 0.7120612791406888
vt 0.3586130321954232 0.40611133220727524
vt 0.391991584379226 0.2031917787061024
vt 0.8854187998767852 0.6941693898649792
vt 0.7573861603112093 0.2459399280126091
vt 0.2832766722468566 0.3170414382640496
vt 0.7412064457538935 0.19373475990256206
vt 0.6859487711439546 0.1332772328704911
vt 0.3593453103233491 0.6775802497347707
vt 0.7600726453383859 0.9003406067788242
vt 0.7657568337586642 0.45377700094243545
vt 0.7584640727183324 0.9006026426390744
vt 0.27336808160573484 0.2825708740333296
vt 0.38460442721472304 0.4839717974790647
vt 0.43710667047047985 0.824639111808918
vt 0.2537336069565957 0.9606001050634105
vt 0.7608531260755759 0.9001541436324493
vt 0.11200618629439327 0.8829067449497244
vt 0.8854187998767856 0.6941693898649759
vt 0.6859487711439539 0.1332772328704911
vt 0.5727879305435833 0.5653371481136551
vt 0.5809220673479993 0.15874900816123227
vt 0.2967893039671283 0.22393490892049872
vt 0.2509533712017932 0.2332957509046757
vt 0.608969599896411 0.6618215997211949
vt 0.7650016386580152 0.2774213622039087
vt 0.7412064457538939 0.19373475990256872
vt 0.8071302124801489 0.4188394811331818
vt 0.38127944403070735 0.4597078811176565
vt 0.3586130321954232 0.4061113322072819
vt 0.1173400474060734 0.8813399148397909
vt 0.4883640353869857 0.9241387025291932
vt 0.1138374139596934 0.8822729648530417
vt 0.045981077390958934 0.9340890587320057
vt 0.7608531260755774 0.9001541436324493
vt 0.34665249708841067 0.8366996682598626
vt 0.8313095970305336 0.490828562791753
vt 0.7906708150021707 0.36370337644668127
vt 0.8071302124801487 0.41883948113318514
vt 0.28290151550237164 0.22673218978160092
vt 0.24972685866576022 0.8279567470039445
vt 0.3919915843792268 0.2031917787061024
vt 0.6632421039256525 0.4899586702952624
vt 0.3861419031610849 0.9519373388371909
vt 0.35934531032334893 0.6775802497347674
vt 0.7054540515039515 0.7281546602013782
vt 0.3831977508876701 0.46717143900217906
vt 0.7585142635601989 0.9005994897743477
vt 0.3537485099352191 0.6928794387047936
vt 0.3587130535393532 0.9181084243037225
vt 0.6470121049522752 0.9173444735039793
vt 0.4241456689267756 0.19661971890556573
vt 0.04311347097444276 0.9066178920540281
vt 0.3225875648516154 0.3553261710136252
vt 0.6470121049522765 0.9173444735039793
vt 0.2829015155023708 0.22673218978160092
vt 0.2967893039671277 0.22393490892049872
vt 0.3537485099352191 0.692879438704797
vt 0.2537336069565961 0.9606001050634139
vt 0.7829490562467872 0.33968824078575177
vt 0.21615710894401893 0.9609374999999992
vt 0.33883453664280044 0.21478002167437038
vt 0.7462775855802942 0.2092796118757203
vt 0.46628390258789837 0.18747060001176152
vt 0.769922074492579 0.8978549037874417
vt 0.7585142635601987 0.9005994897743477
vt 0.4823337571615142 0.6829275735103454
vt 0.38460442721472327 0.4839717974790614
vt 0.9237033635658869 0.8095476265747842
vt 0.3641173692176176 0.6564172840429274
vt 0.8639754207090251 0.6182936226298985
vt 0.25150979048496136 0.2331778887883238
vt 0.5456516785289627 0.3663379666731016
vt 0.11077690707818351 0.9526644329775114
vt 0.779975374312688 0.3267352390363484
vt 0.759726555533193 0.9000175896273107
vn 0.4079 0.89 -0.2039
vn 0.3786 0.9143 0.1435
vn 0.1953 0.9802 0.0319
vn 0.2891 0.95 0.118
vn 0.3919 0.9062 -0.1587
vn 0.3333 0.933 0.1356
vn 0.3873 0.9181 -0.0838
vn 0.2021 0.971 0.1274
vn 0.3117 0.9288 -0.2004
vn 0.3217 0.9392 0.1199
vn 0.3906 0.9033 -0.1773
vn 0.2189 0.9618 -0.1645
vn 0.3643 0.931 -0.0206
vn 0.333 0.9303 -0.154
vn 0.179 0.9565 -0.2303
vn 0.3868 0.9032 0.1862
vn 0.1086 0.9621 -0.2501
vn 0.4238 0.9051 0.035
vn 0.4664 0.7359 -0.4908
vn 0.4209 0.8871 -0.1893
vn 0.1627 0.9202 -0.356
vn 0.3955 0.9159 0.0694
vn 0.272 0.957 0.1006
vn 0.3471 0.9372 -0.0356
vn 0.3004 0.9519 0.0612
vn 0.1221 0.8915 -0.4363
vn 0.3669 0.9211 -0.1305
vn 0.2171 0.9238 -0.3153
vn 0.3701 0.9276 -0.051
vn 0.3252 0.9437 -0.0603
vn 0.3439 0.9365 0.069
vn 0.2589 0.9659 0.0026
vn 0.4025 0.9013 -0.1603
vn 0.1384 0.9186 -0.3701
vn 0.2054 0.9259 -0.3172
vn 0.2187 0.9257 -0.3087
vn 0.2093 0.8832 -0.4197
vn 0.3724 0.9277 0.0254
vn 0.1616 0.9246 -0.345
vn 0.2855 0.9565 0.0592
vn 0.2544 0.9124 -0.3207
vn 0.3292 0.9442 0.0131
vn 0.3385 0.9322 -0.1282
vn 0.3268 0.9385 -0.1115
vn 0.4145 0.9087 0.0494
vn 0.0616 0.913 -0.4033
vn 0.1203 0.8273 -0.5488
vn 0.2875 0.9577 0.0109
vn 0.3108 0.9358 -0.1663
vn 0.1977 0.8869 -0.4176
vn 0.2467 0.9658 -0.0801
vn 0.3098 0.9437 0.116
vn 0.4704 0.8677 -0.1608
vn 0.4421 0.7288 -0.5229
vn 0.4407 0.8949 -0.0701
vn 0.314 0.9422 0.1169
vn 0.4872 0.7968 -0.3574
vn 0.4278 0.8913 -0.1503
vn 0.4295 0.9027 -0.0272
vn 0.3988 0.917 -0.0079
vn 0.4954 0.8522 -0.1686
vn 0.4269 0.8601 -0.2791
vn 0.4486 0.879 -0.1616
vn 0.4594 0.8146 -0.3541
vn 0.4668 0.7358 -0.4906
vn 0.4611 0.4577 -0.7602
vn 0.4862 0.8554 -0.1788
vn 0.4204 0.9073 -0.0103
vn 0.4884 0.7895 -0.3718
vn 0.4679 0.877 -0.1096
vn 0.5176 0.8351 -0.1863
vn 0.4567 0.8837 -0.1026
vn 0.3996 0.9122 -0.0904
vn 0.4018 0.914 0.0564
vn 0.5246 0.8281 -0.1977
vn 0.4838 0.8592 -0.1666
usemtl 4ee22f76-725e-436e-b18e-9b4d8fd19836
g 091_W_Aya_100K_01
f 30/50/27 35/80/27 39/126/27
usemtl 4ee22f76-725e-436e-b18e-9b4d8fd19836
g 091_W_Aya_100K_01
f 46/91/33 1/74/33 49/105/33
usemtl 4ee22f76-725e-436e-b18e-9b4d8fd19836
g 091_W_Aya_100K_01
f 37/5/26 43/43/26 31/109/26
usemtl 4ee22f76-725e-436e-b18e-9b4d8fd19836
g 091_W_Aya_100K_01
f 59/99/32 26/82/32 47/35/32
usemtl 4ee22f76-725e-436e-b18e-9b4d8fd19836
g 091_W_Aya_100K_01
f 37/5/26 33/45/26 43/43/26
usemtl 4ee22f76-725e-436e-b18e-9b4d8fd19836
g 091_W_Aya_100K_01
f 47/35/13 15/29/13 21/62/13
usemtl 4ee22f76-725e-436e-b18e-9b4d8fd19836
g 091_W_Aya_100K_01
f 46/91/20 49/105/20 7/20/20
usemtl 4ee22f76-725e-436e-b18e-9b4d8fd19836
g 091_W_Aya_100K_01
f 36/51/39 34/93/39 9/24/39
usemtl 4ee22f76-725e-436e-b18e-9b4d8fd19836
g 091_W_Aya_100K_01
f 59/99/32 19/65/32 4/72/32
usemtl 4ee22f76-725e-436e-b18e-9b4d8fd19836
g 091_W_Aya_100K_01
f 30/50/7 51/21/7 35/80/7
usemtl 4ee22f76-725e-436e-b18e-9b4d8fd19836
g 091_W_Aya_100K_01
f 32/49/15 8/95/15 43/43/15
usemtl 4ee22f76-725e-436e-b18e-9b4d8fd19836
g 091_W_Aya_100K_01
f 32/49/15 44/1/15 8/95/15
usemtl 4ee22f76-725e-436e-b18e-9b4d8fd19836
g 091_W_Aya_100K_01
f 22/48/16 23/81/16 56/53/16
usemtl 4ee22f76-725e-436e-b18e-9b4d8fd19836
g 091_W_Aya_100K_01
f 3/132/29 51/21/29 30/50/29
usemtl 4ee22f76-725e-436e-b18e-9b4d8fd19836
g 091_W_Aya_100K_01
f 22/48/18 58/10/18 23/15/18
usemtl 4ee22f76-725e-436e-b18e-9b4d8fd19836
g 091_W_Aya_100K_01
f 48/8/2 22/48/2 52/13/2
usemtl 4ee22f76-725e-436e-b18e-9b4d8fd19836
g 091_W_Aya_100K_01
f 22/48/16 56/53/16 52/13/16
usemtl 4ee22f76-725e-436e-b18e-9b4d8fd19836
g 091_W_Aya_100K_01
f 13/77/21 36/112/21 18/11/21
usemtl 4ee22f76-725e-436e-b18e-9b4d8fd19836
g 091_W_Aya_100K_01
f 40/47/41 46/91/41 28/33/41
usemtl 4ee22f76-725e-436e-b18e-9b4d8fd19836
g 091_W_Aya_100K_01
f 26/116/48 15/121/48 47/35/48
usemtl 4ee22f76-725e-436e-b18e-9b4d8fd19836
g 091_W_Aya_100K_01
f 11/127/24 16/6/24 3/132/24
usemtl 4ee22f76-725e-436e-b18e-9b4d8fd19836
g 091_W_Aya_100K_01
f 60/56/30 11/73/30 30/50/30
usemtl 4ee22f76-725e-436e-b18e-9b4d8fd19836
g 091_W_Aya_100K_01
f 44/57/12 41/60/12 8/95/12
usemtl 4ee22f76-725e-436e-b18e-9b4d8fd19836
g 091_W_Aya_100K_01
f 36/51/39 50/31/39 34/93/39
usemtl 4ee22f76-725e-436e-b18e-9b4d8fd19836
g 091_W_Aya_100K_01
f 39/126/14 1/74/14 54/117/14
usemtl 4ee22f76-725e-436e-b18e-9b4d8fd19836
g 091_W_Aya_100K_01
f 39/126/14 54/117/14 42/68/14
usemtl 4ee22f76-725e-436e-b18e-9b4d8fd19836
g 091_W_Aya_100K_01
f 13/77/34 37/92/34 31/109/34
usemtl 4ee22f76-725e-436e-b18e-9b4d8fd19836
g 091_W_Aya_100K_01
f 8/95/49 41/60/49 54/108/49
usemtl 4ee22f76-725e-436e-b18e-9b4d8fd19836
g 091_W_Aya_100K_01
f 11/127/24 3/132/24 30/50/24
usemtl 4ee22f76-725e-436e-b18e-9b4d8fd19836
g 091_W_Aya_100K_01
f 17/118/46 31/109/46 10/30/46
usemtl 4ee22f76-725e-436e-b18e-9b4d8fd19836
g 091_W_Aya_100K_01
f 59/99/32 47/35/32 19/65/32
usemtl 4ee22f76-725e-436e-b18e-9b4d8fd19836
g 091_W_Aya_100K_01
f 47/35/4 14/18/4 29/40/4
usemtl 4ee22f76-725e-436e-b18e-9b4d8fd19836
g 091_W_Aya_100K_01
f 13/77/34 31/109/34 50/31/34
usemtl 4ee22f76-725e-436e-b18e-9b4d8fd19836
g 091_W_Aya_100K_01
f 14/18/10 48/8/10 29/40/10
usemtl 4ee22f76-725e-436e-b18e-9b4d8fd19836
g 091_W_Aya_100K_01
f 47/35/25 21/101/25 61/111/25
usemtl 4ee22f76-725e-436e-b18e-9b4d8fd19836
g 091_W_Aya_100K_01
f 25/58/3 2/131/3 59/115/3
usemtl 4ee22f76-725e-436e-b18e-9b4d8fd19836
g 091_W_Aya_100K_01
f 50/31/47 31/109/47 17/75/47
usemtl 4ee22f76-725e-436e-b18e-9b4d8fd19836
g 091_W_Aya_100K_01
f 25/58/3 59/115/3 4/42/3
usemtl 4ee22f76-725e-436e-b18e-9b4d8fd19836
g 091_W_Aya_100K_01
f 48/8/22 52/13/22 3/132/22
usemtl 4ee22f76-725e-436e-b18e-9b4d8fd19836
g 091_W_Aya_100K_01
f 50/31/47 17/75/47 27/28/47
usemtl 4ee22f76-725e-436e-b18e-9b4d8fd19836
g 091_W_Aya_100K_01
f 38/107/19 53/135/19 55/69/19
usemtl 4ee22f76-725e-436e-b18e-9b4d8fd19836
g 091_W_Aya_100K_01
f 32/100/17 43/43/17 33/90/17
usemtl 4ee22f76-725e-436e-b18e-9b4d8fd19836
g 091_W_Aya_100K_01
f 29/40/42 16/106/42 57/41/42
usemtl 4ee22f76-725e-436e-b18e-9b4d8fd19836
g 091_W_Aya_100K_01
f 60/2/44 30/50/44 45/129/44
usemtl 4ee22f76-725e-436e-b18e-9b4d8fd19836
g 091_W_Aya_100K_01
f 29/40/42 3/132/42 16/106/42
usemtl 4ee22f76-725e-436e-b18e-9b4d8fd19836
g 091_W_Aya_100K_01
f 50/31/50 6/133/50 34/54/50
usemtl 4ee22f76-725e-436e-b18e-9b4d8fd19836
g 091_W_Aya_100K_01
f 13/77/21 50/31/21 36/112/21
usemtl 4ee22f76-725e-436e-b18e-9b4d8fd19836
g 091_W_Aya_100K_01
f 1/74/11 39/126/11 12/84/11
usemtl 4ee22f76-725e-436e-b18e-9b4d8fd19836
g 091_W_Aya_100K_01
f 47/35/23 5/89/23 24/39/23
usemtl 4ee22f76-725e-436e-b18e-9b4d8fd19836
g 091_W_Aya_100K_01
f 42/104/43 45/55/43 30/50/43
usemtl 4ee22f76-725e-436e-b18e-9b4d8fd19836
g 091_W_Aya_100K_01
f 31/109/36 46/91/36 40/9/36
usemtl 4ee22f76-725e-436e-b18e-9b4d8fd19836
g 091_W_Aya_100K_01
f 12/84/1 49/105/1 1/74/1
usemtl 4ee22f76-725e-436e-b18e-9b4d8fd19836
g 091_W_Aya_100K_01
f 8/95/9 1/74/9 46/91/9
usemtl 4ee22f76-725e-436e-b18e-9b4d8fd19836
g 091_W_Aya_100K_01
f 14/18/6 22/48/6 48/8/6
usemtl 4ee22f76-725e-436e-b18e-9b4d8fd19836
g 091_W_Aya_100K_01
f 19/22/8 47/35/8 24/113/8
usemtl 4ee22f76-725e-436e-b18e-9b4d8fd19836
g 091_W_Aya_100K_01
f 8/95/49 54/108/49 1/74/49
usemtl 4ee22f76-725e-436e-b18e-9b4d8fd19836
g 091_W_Aya_100K_01
f 39/126/5 35/80/5 12/84/5
usemtl 4ee22f76-725e-436e-b18e-9b4d8fd19836
g 091_W_Aya_100K_01
f 31/109/36 40/9/36 10/103/36
usemtl 4ee22f76-725e-436e-b18e-9b4d8fd19836
g 091_W_Aya_100K_01
f 8/95/35 31/109/35 43/43/35
usemtl 4ee22f76-725e-436e-b18e-9b4d8fd19836
g 091_W_Aya_100K_01
f 61/16/38 22/48/38 14/18/38
usemtl 4ee22f76-725e-436e-b18e-9b4d8fd19836
g 091_W_Aya_100K_01
f 29/40/31 48/8/31 3/132/31
usemtl 4ee22f76-725e-436e-b18e-9b4d8fd19836
g 091_W_Aya_100K_01
f 8/95/28 46/91/28 31/109/28
usemtl 4ee22f76-725e-436e-b18e-9b4d8fd19836
g 091_W_Aya_100K_01
f 47/35/23 29/40/23 5/89/23
usemtl 4ee22f76-725e-436e-b18e-9b4d8fd19836
g 091_W_Aya_100K_01
f 22/48/45 20/123/45 58/7/45
usemtl 4ee22f76-725e-436e-b18e-9b4d8fd19836
g 091_W_Aya_100K_01
f 61/16/38 20/25/38 22/48/38
usemtl 4ee22f76-725e-436e-b18e-9b4d8fd19836
g 091_W_Aya_100K_01
f 47/35/25 61/111/25 14/18/25
usemtl 4ee22f76-725e-436e-b18e-9b4d8fd19836
g 091_W_Aya_100K_01
f 50/31/37 27/120/37 6/19/37
usemtl 4ee22f76-725e-436e-b18e-9b4d8fd19836
g 091_W_Aya_100K_01
f 5/61/40 29/40/40 57/88/40
usemtl 4ee22f76-725e-436e-b18e-9b4d8fd19836
g 091_W_Aya_100K_01
f 42/104/43 30/50/43 39/126/43
usemtl 4ee22f76-725e-436e-b18e-9b4d8fd19836
g 091_W_Aya_100K_01
f 63/83/51 62/59/51 64/26/51
usemtl 4ee22f76-725e-436e-b18e-9b4d8fd19836
g 091_W_Aya_100K_01
f 83/53/56 65/67/56 82/13/56
usemtl 4ee22f76-725e-436e-b18e-9b4d8fd19836
g 091_W_Aya_100K_01
f 70/70/61 68/130/61 67/20/61
usemtl 4ee22f76-725e-436e-b18e-9b4d8fd19836
g 091_W_Aya_100K_01
f 67/20/62 90/110/62 92/38/62
usemtl 4ee22f76-725e-436e-b18e-9b4d8fd19836
g 091_W_Aya_100K_01
f 65/79/52 76/66/52 82/13/52
usemtl 4ee22f76-725e-436e-b18e-9b4d8fd19836
g 091_W_Aya_100K_01
f 66/36/69 93/52/69 88/124/69
usemtl 4ee22f76-725e-436e-b18e-9b4d8fd19836
g 091_W_Aya_100K_01
f 74/102/63 78/105/63 69/84/63
usemtl 4ee22f76-725e-436e-b18e-9b4d8fd19836
g 091_W_Aya_100K_01
f 66/36/69 88/124/69 95/135/69
usemtl 4ee22f76-725e-436e-b18e-9b4d8fd19836
g 091_W_Aya_100K_01
f 74/102/53 70/70/53 78/105/53
usemtl 4ee22f76-725e-436e-b18e-9b4d8fd19836
g 091_W_Aya_100K_01
f 78/105/76 70/70/76 67/20/76
usemtl 4ee22f76-725e-436e-b18e-9b4d8fd19836
g 091_W_Aya_100K_01
f 70/70/67 72/98/67 79/46/67
usemtl 4ee22f76-725e-436e-b18e-9b4d8fd19836
g 091_W_Aya_100K_01
f 70/70/61 79/96/61 68/130/61
usemtl 4ee22f76-725e-436e-b18e-9b4d8fd19836
g 091_W_Aya_100K_01
f 81/21/73 74/102/73 73/80/73
usemtl 4ee22f76-725e-436e-b18e-9b4d8fd19836
g 091_W_Aya_100K_01
f 67/20/75 94/63/75 80/17/75
usemtl 4ee22f76-725e-436e-b18e-9b4d8fd19836
g 091_W_Aya_100K_01
f 81/21/68 86/132/68 87/34/68
usemtl 4ee22f76-725e-436e-b18e-9b4d8fd19836
g 091_W_Aya_100K_01
f 85/23/72 72/87/72 70/70/72
usemtl 4ee22f76-725e-436e-b18e-9b4d8fd19836
g 091_W_Aya_100K_01
f 82/13/74 87/64/74 86/132/74
usemtl 4ee22f76-725e-436e-b18e-9b4d8fd19836
g 091_W_Aya_100K_01
f 65/79/52 99/27/52 76/66/52
usemtl 4ee22f76-725e-436e-b18e-9b4d8fd19836
g 091_W_Aya_100K_01
f 82/13/60 76/86/60 97/3/60
usemtl 4ee22f76-725e-436e-b18e-9b4d8fd19836
g 091_W_Aya_100K_01
f 88/32/54 84/94/54 95/135/54
usemtl 4ee22f76-725e-436e-b18e-9b4d8fd19836
g 091_W_Aya_100K_01
f 68/130/71 94/78/71 67/20/71
usemtl 4ee22f76-725e-436e-b18e-9b4d8fd19836
g 091_W_Aya_100K_01
f 98/119/70 70/70/70 74/102/70
usemtl 4ee22f76-725e-436e-b18e-9b4d8fd19836
g 091_W_Aya_100K_01
f 74/102/58 69/84/58 73/80/58
usemtl 4ee22f76-725e-436e-b18e-9b4d8fd19836
g 091_W_Aya_100K_01
f 67/20/57 80/4/57 66/128/57
usemtl 4ee22f76-725e-436e-b18e-9b4d8fd19836
g 091_W_Aya_100K_01
f 67/20/62 92/38/62 77/91/62
usemtl 4ee22f76-725e-436e-b18e-9b4d8fd19836
g 091_W_Aya_100K_01
f 98/119/70 85/97/70 70/70/70
usemtl 4ee22f76-725e-436e-b18e-9b4d8fd19836
g 091_W_Aya_100K_01
f 81/21/59 91/12/59 89/134/59
usemtl 4ee22f76-725e-436e-b18e-9b4d8fd19836
g 091_W_Aya_100K_01
f 95/135/65 84/76/65 96/37/65
usemtl 4ee22f76-725e-436e-b18e-9b4d8fd19836
g 091_W_Aya_100K_01
f 81/21/68 87/34/68 91/85/68
usemtl 4ee22f76-725e-436e-b18e-9b4d8fd19836
g 091_W_Aya_100K_01
f 67/20/64 71/44/64 90/114/64
usemtl 4ee22f76-725e-436e-b18e-9b4d8fd19836
g 091_W_Aya_100K_01
f 81/21/55 89/14/55 98/119/55
usemtl 4ee22f76-725e-436e-b18e-9b4d8fd19836
g 091_W_Aya_100K_01
f 81/21/55 98/119/55 74/102/55
usemtl 4ee22f76-725e-436e-b18e-9b4d8fd19836
g 091_W_Aya_100K_01
f 67/20/64 95/135/64 71/44/64
usemtl 4ee22f76-725e-436e-b18e-9b4d8fd19836
g 091_W_Aya_100K_01
f 95/135/66 75/125/66 71/71/66
usemtl 4ee22f76-725e-436e-b18e-9b4d8fd19836
g 091_W_Aya_100K_01
f 82/13/74 97/122/74 87/64/74
usemtl 4ee22f76-725e-436e-b18e-9b4d8fd19836
g 091_W_Aya_100K_01
f 67/20/57 66/128/57 95/135/57
