mtllib 89.mtl
v -95.6875 530.2321 303.9341
v -87.7687619328551 529.5768915000001 294.6278952757767
v -99.78492260472126 530.5455433450528 306.04188899999997
v -92.5277593030362 529.8673528266661 306.04188899999997
v -107.2246 532.3762 290.5883
v -104.28474468439337 529.5768915000001 267.12575705345546
v -104.1759243907766 530.3285405025059 306.04188899999997
v -100.5598 530.6962 302.2091
v -107.99773900000004 531.4121477948044 278.1378144414769
v -107.99773900000004 530.7144778979725 296.62176204670317
v -87.0625164653181 529.5768915000001 290.85659147935587
v -103.47390858529403 530.4000645517604 306.04188899999997
v -107.99773900000004 529.5768915000001 265.42912995492696
v -90.7558993604673 529.5768915000001 300.7643857596177
v -87.8149 529.8436 290.5418
v -89.02218356085203 529.5768915000001 298.0148027608517
v -107.99773900000004 529.9056794299122 266.73742968252117
v -107.99773900000004 529.6601419869801 265.6443109324339
v -92.3538 529.806 305.5053
v -107.99773900000004 531.153067980854 274.7236001030159
v -104.00511989371395 529.5768915000001 267.21264864389417
v -98.60183601531017 530.4418967469783 306.04188899999997
v -99.8579 531.1451 298.8798
v -90.7769582754333 529.5768915000001 302.893629574494
v -96.16951740016408 530.3555984469028 306.04188899999997
v -107.99773900000004 530.5352258562849 269.6787520098396
v -91.22334806305382 529.5768915000001 276.90061212764186
v -90.26032367759548 529.5768915000001 278.8107877639371
v -104.365 532.7699 289.1371
v -107.99773900000004 530.2218566874421 300.0175594894306
v -107.99773900000004 531.9414311905249 291.49989243630137
v -90.6365545638049 529.5768915000001 277.9971348782549
v -97.5657 530.3517 272.9898
v -107.99773900000004 532.3994354375063 285.2577548739286
v -102.4648 532.6148 284.4369
v -107.99773900000004 532.2928296721789 289.4659719474848
v -91.0911 529.8997 278.9641
v -91.9448 529.897 300.2107
v -87.08052568824716 529.5768915000001 291.30955965502955
v -100.9775 532.5121 292.0779
v -88.02442081447609 529.5768915000001 285.2337039194462
v -104.3179 529.6037 267.1799
v -107.99773900000004 530.8161769668026 295.79342744516464
v -99.6785 532.6763 287.1191
v -91.28872080117492 529.5768915000001 306.02356285450975
v -87.16143140982818 529.5768915000001 289.8909657296562
v -94.7224 531.7632 289.6128
v -90.9153 530.5608 285.0433
v -97.2092 532.1304 284.3664
v -95.54303027139412 530.3426224657039 306.04188899999997
v -104.1928883963491 529.5768915000001 267.160100539601
v -104.3657 531.0171 298.3359
v -107.99773900000004 529.948299936168 306.04188899999997
v -107.99773900000004 529.9385605867367 303.0417136474134
v -107.99773900000004 530.7385899388601 296.16992873294674
v -107.99773900000004 530.2776606813584 298.43953482216324
v -107.1462 532.5204 285.3436
v -96.87378150240143 529.5768915000001 270.3102471962835
v -107.99773900000004 532.2244880296874 283.68072102639746
v -90.491 530.445 293.7293
v -92.27863885182079 529.8313077743795 306.04188899999997
v -107.99773900000004 530.7493101449174 271.8482691806591
v -106.228 531.2307 295.9224
v -95.19419650568032 529.5768915000001 271.6157362755603
v -89.81564287757665 529.5768915000001 279.9847806179999
v -97.4473 532.1504 292.2267
v -107.99773900000004 532.2387879946797 290.37275142850035
v -104.8093 531.6505 278.4303
v -103.76327927778813 530.4009922483511 306.04188899999997
v -100.1865 531.6917 279.2558
v -105.8152 530.6748 271.4301
v -91.28872080117492 529.5768915000001 306.02356285450975
v -91.2827705207087 529.5768915000001 306.04188899999997
v -92.27863885182079 529.8313077743795 306.04188899999997
v -92.3538 529.806 305.5053
vt 0.2606390790770708 0.29121159761103677
vt 0.4423614733549511 0.1714157581069864
vt 0.1588122991739426 0.8339205694646905
vt 0.1563128672534083 0.7753715393085002
vt 0.15096298133568042 0.9342697813777423
vt 0.5339164595164901 0.7257716703754972
vt 0.2223562148600337 0.15076862319022144
vt 0.5842750452853678 0.5341528124910575
vt 0.13634765461203874 0.578649497436278
vt 0.12832029872309797 0.3768296319577287
vt 0.24097149534928208 0.944264589902042
vt 0.5533348140705794 0.6812659904232315
vt 0.0872548130444709 0.38742717664898696
vt 0.34236538458981897 0.4196386491310724
vt 0.06841477063032739 0.30833937308805537
vt 0.5461108590111621 0.7010131041133012
vt 0.3855853207035981 0.11395246429055594
vt 0.08725481304447062 0.38742717664898696
vt 0.3908763308235993 0.11259231112794787
vt 0.1563128672534091 0.7753715393085002
vt 0.13337976227742118 0.16962413516753239
vt 0.1391219664211537 0.6064580987530552
vt 0.24920344871193517 0.1457208360957405
vt 0.4163082324346861 0.46244766630441625
vt 0.5841218614449203 0.4096851428980376
vt 0.06841477063032711 0.30833937308805537
vt 0.20615487540190552 0.5013649546438201
vt 0.4941428091134938 0.3612627166219645
vt 0.20615487540190552 0.8477288208645146
vt 0.08547867197556648 0.38097559583651974
vt 0.5330600974528974 0.6803844810050752
vt 0.3031718620694359 0.1343660961583174
vt 0.322906740420117 0.6881679386729593
vt 0.08327553551283653 0.37171090886564917
vt 0.14624463335043977 0.9609375
vt 0.07388673432373481 0.3371551697371362
vt 0.22561351957160744 0.22894393626799314
vt 0.1509629813356807 0.9342697813777423
vt 0.5523896411288484 0.33087306513568915
vt 0.5594942509992585 0.6539503274587128
vt 0.5841218614449195 0.40968514289803326
vt 0.5174931821171359 0.5480657006511038
vt 0.4551507830550869 0.2159079303494713
vt 0.4118470507876842 0.875361363302541
vt 0.3929578594310437 0.8165949901929908
vt 0.22172179073766693 0.7076265828426591
vt 0.07388673432373644 0.3371551697371362
vt 0.4423614733549522 0.1714157581069864
vt 0.14928431267835507 0.7116508871792873
vt 0.1492843126783545 0.7116508871792915
vt 0.1465379186464573 0.9566032495254255
vt 0.5058905096539932 0.2653231622078879
vt 0.3773909440952823 0.5791995313226277
vt 0.12217534056416203 0.5035727350936036
vt 0.1361037563909787 0.48190631047411603
vt 0.4510963427393155 0.8448785766672882
vt 0.3167390625127953 0.1308689700473571
vt 0.4134246142843533 0.10821620992260106
vt 0.3908763308235993 0.11259231112794355
vt 0.23645054322457973 0.9454689050279143
vt 0.5461108590111621 0.701013104113297
vt 0.2409714953492845 0.944264589902042
vt 0.43187514777044755 0.2328356651019331
vt 0.15514547481637672 0.8725795544831023
vt 0.5058905096539926 0.2653231622078879
vt 0.139121966421154 0.6064580987530552
vt 0.559494250999258 0.6539503274587128
vt 0.5816458462998627 0.4000517089711281
vt 0.08327553551283587 0.3717109088656535
vt 0.1124774388291956 0.4683032791506667
vt 0.1191847653419402 0.4877628842987838
vt 0.5859374999999998 0.4313698602727183
vt 0.12402174461325109 0.17174266806077365
vt 0.23339697723948816 0.9450220417130221
vt 0.568085656958361 0.4196386491310724
vt 0.4134301466327548 0.10781490577292308
vt 0.5859375 0.43136986027271396
vt 0.15881229917394152 0.8339205694646861
vt 0.41342461428435356 0.10821620992260106
vt 0.31673906251279504 0.1308689700473571
vt 0.32679846925405726 0.1744597325928252
vt 0.13992735877861998 0.1682495723729559
vt 0.4551507830550869 0.21590793034946698
vt 0.12402174461325083 0.17174266806077365
vt 0.05282063824846241 0.24961887814726147
vt 0.41184705078768447 0.875361363302541
vt 0.5842750452853689 0.5341528124910575
vt 0.11918476534193925 0.4877628842987838
vt 0.13992735877861956 0.1682495723729559
vt 0.14653791864645796 0.9566032495254255
vt 0.15945412939462095 0.32234542828256063
vt 0.3929578594310437 0.12386725775160157
vt 0.2606390790770708 0.5869829889905076
vt 0.23645054322458 0.9454689050279099
vt 0.5533348140705796 0.6812659904232359
vt 0.15514547481637658 0.8725795544831068
vt 0.2492034487119349 0.1457208360957405
vt 0.38558532070359836 0.11395246429055594
vt 0.5816458462998624 0.40005170897112374
vt 0.1333797622774205 0.16962413516753672
vt 0.1555624005606806 0.5753078024886877
vt 0.08547867197556824 0.3809755958365241
vt 0.12217534056416283 0.5035727350936079
vt 0.5523896411288484 0.3308730651356978
vt 0.4510963427393152 0.8448785766672839
vt 0.1363476546120378 0.578649497436278
vt 0.03906249999999997 0.18946415364358515
vt 0.23408692375625934 0.9462869436604335
vt 0.26842253674495176 0.4313138356328923
vt 0.31512328275223633 0.5286070564813997
vt 0.3031718620694362 0.1343660961583174
vn -0.0525 0.9773 0.2051
vn -0.0394 0.9981 0.0472
vn 0.0891 0.9866 -0.1366
vn -0.099 0.9951 -0.0032
vn 0.0792 0.9729 -0.2173
vn 0.1953 0.9802 0.0319
vn -0.058 0.9865 0.1533
vn 0.0072 0.9903 -0.1391
vn 0.333 0.9303 -0.154
vn 0.0872 0.996 0.0215
vn -0.0288 0.9986 -0.0446
vn 0.0162 0.99 -0.1403
vn -0.1722 0.9808 0.0919
vn 0.2198 0.9718 0.0852
vn -0.1879 0.955 0.2295
vn -0.1984 0.9795 0.0346
vn 0.0032 0.9968 0.0795
vn 0.272 0.957 0.1006
vn 0.2126 0.9644 -0.1574
vn 0.3471 0.9372 -0.0356
vn 0.1221 0.8915 -0.4363
vn 0.1058 0.9702 -0.2179
vn -0.1431 0.9894 0.0251
vn 0.1429 0.9875 -0.0666
vn 0.3385 0.9322 -0.1282
vn 0.1253 0.9796 -0.1571
vn -0.129 0.9856 -0.1093
vn 0.0385 0.9983 0.0431
vn 0.1147 0.9931 0.0259
vn 0.2627 0.9641 0.0387
vn -0.1904 0.98 0.0584
vn -0.2047 0.9484 0.2419
vn -0.0432 0.9913 0.1246
vn 0.1554 0.9859 -0.0623
vn 0.1673 0.9855 0.0284
vn 0.2097 0.9692 0.129
vn -0.2609 0.964 0.0515
vn -0.2361 0.9396 0.2479
vn 0.0354 0.9981 -0.0504
vn 0.2021 0.971 0.1274
vn 0.2189 0.9618 -0.1645
vn -0.238 0.9395 0.2462
vn 0.179 0.9565 -0.2303
vn 0.192 0.9811 -0.0223
vn 0.0207 0.9983 -0.0538
vn 0.1086 0.9621 -0.2501
vn 0.2467 0.9679 -0.0492
vn 0.0993 0.9933 0.0589
vn 0.146 0.9876 0.0579
vn 0.1627 0.9202 -0.356
vn 0.0896 0.9892 -0.1158
vn -0.0606 0.9876 -0.1447
vn -0.1237 0.992 0.0254
vn -0.0682 0.9781 0.1967
vn 0.2518 0.9613 -0.1118
vn 0.007 0.9995 -0.0302
vn -0.0471 0.989 -0.1404
vn 0.1048 0.9725 -0.2081
vn -0.2372 0.9515 0.1961
vn 0.0152 0.9951 -0.0982
vn 0.3252 0.9437 -0.0603
vn 0.0724 0.9811 -0.1795
vn 0.2589 0.9659 0.0026
vn 0.1384 0.9186 -0.3701
vn 0.0209 0.9858 -0.1664
vn 0.0437 0.9888 0.1426
vn 0.2855 0.9565 0.0592
vn 0.3292 0.9442 0.0131
vn 0.3268 0.9385 -0.1115
vn -0.0674 0.9949 -0.0755
vn 0.1215 0.974 0.1912
vn 0.3108 0.9358 -0.1663
vn 0.0927 0.979 0.1815
vn 0.2711 0.9622 -0.0273
vn 0.2467 0.9658 -0.0801
usemtl 73aca05f-7b73-4723-8ff4-20bd65e2fb72
g 091_W_Aya_100K_01
f 50/57/34 4/17/34 19/92/34
usemtl 73aca05f-7b73-4723-8ff4-20bd65e2fb72
g 091_W_Aya_100K_01
f 68/46/12 70/33/12 71/29/12
usemtl 73aca05f-7b73-4723-8ff4-20bd65e2fb72
g 091_W_Aya_100K_01
f 25/111/39 1/81/39 22/97/39
usemtl 73aca05f-7b73-4723-8ff4-20bd65e2fb72
g 091_W_Aya_100K_01
f 52/91/33 8/37/33 23/1/33
usemtl 73aca05f-7b73-4723-8ff4-20bd65e2fb72
g 091_W_Aya_100K_01
f 5/55/23 34/9/23 36/103/23
usemtl 73aca05f-7b73-4723-8ff4-20bd65e2fb72
g 091_W_Aya_100K_01
f 49/53/19 37/31/19 33/45/19
usemtl 73aca05f-7b73-4723-8ff4-20bd65e2fb72
g 091_W_Aya_100K_01
f 35/93/57 68/46/57 57/101/57
usemtl 73aca05f-7b73-4723-8ff4-20bd65e2fb72
g 091_W_Aya_100K_01
f 4/98/24 61/19/24 19/92/24
usemtl 73aca05f-7b73-4723-8ff4-20bd65e2fb72
g 091_W_Aya_100K_01
f 10/34/15 56/47/15 52/91/15
usemtl 73aca05f-7b73-4723-8ff4-20bd65e2fb72
g 091_W_Aya_100K_01
f 33/45/46 58/86/46 21/62/46
usemtl 73aca05f-7b73-4723-8ff4-20bd65e2fb72
g 091_W_Aya_100K_01
f 47/24/44 49/53/44 44/110/44
usemtl 73aca05f-7b73-4723-8ff4-20bd65e2fb72
g 091_W_Aya_100K_01
f 48/42/61 15/75/61 46/72/61
usemtl 73aca05f-7b73-4723-8ff4-20bd65e2fb72
g 091_W_Aya_100K_01
f 10/34/15 52/91/15 63/10/15
usemtl 73aca05f-7b73-4723-8ff4-20bd65e2fb72
g 091_W_Aya_100K_01
f 70/33/26 49/53/26 33/45/26
usemtl 73aca05f-7b73-4723-8ff4-20bd65e2fb72
g 091_W_Aya_100K_01
f 35/93/3 49/53/3 70/33/3
usemtl 73aca05f-7b73-4723-8ff4-20bd65e2fb72
g 091_W_Aya_100K_01
f 69/21/17 8/37/17 52/91/17
usemtl 73aca05f-7b73-4723-8ff4-20bd65e2fb72
g 091_W_Aya_100K_01
f 33/45/41 27/6/41 64/105/41
usemtl 73aca05f-7b73-4723-8ff4-20bd65e2fb72
g 091_W_Aya_100K_01
f 24/48/63 14/83/63 38/63/63
usemtl 73aca05f-7b73-4723-8ff4-20bd65e2fb72
g 091_W_Aya_100K_01
f 5/55/23 57/101/23 34/9/23
usemtl 73aca05f-7b73-4723-8ff4-20bd65e2fb72
g 091_W_Aya_100K_01
f 66/14/35 47/24/35 44/110/35
usemtl 73aca05f-7b73-4723-8ff4-20bd65e2fb72
g 091_W_Aya_100K_01
f 42/74/21 21/11/21 51/94/21
usemtl 73aca05f-7b73-4723-8ff4-20bd65e2fb72
g 091_W_Aya_100K_01
f 30/26/13 54/85/13 7/84/13
usemtl 73aca05f-7b73-4723-8ff4-20bd65e2fb72
g 091_W_Aya_100K_01
f 28/95/9 32/16/9 37/31/9
usemtl 73aca05f-7b73-4723-8ff4-20bd65e2fb72
g 091_W_Aya_100K_01
f 70/33/62 33/45/62 71/29/62
usemtl 73aca05f-7b73-4723-8ff4-20bd65e2fb72
g 091_W_Aya_100K_01
f 30/15/16 52/91/16 56/36/16
usemtl 73aca05f-7b73-4723-8ff4-20bd65e2fb72
g 091_W_Aya_100K_01
f 38/63/40 14/43/40 16/65/40
usemtl 73aca05f-7b73-4723-8ff4-20bd65e2fb72
g 091_W_Aya_100K_01
f 42/74/50 13/35/50 18/90/50
usemtl 73aca05f-7b73-4723-8ff4-20bd65e2fb72
g 091_W_Aya_100K_01
f 33/45/43 64/56/43 58/44/43
usemtl 73aca05f-7b73-4723-8ff4-20bd65e2fb72
g 091_W_Aya_100K_01
f 17/5/22 42/74/22 18/51/22
usemtl 73aca05f-7b73-4723-8ff4-20bd65e2fb72
g 091_W_Aya_100K_01
f 48/42/61 46/72/61 41/87/61
usemtl 73aca05f-7b73-4723-8ff4-20bd65e2fb72
g 091_W_Aya_100K_01
f 66/14/36 38/63/36 60/28/36
usemtl 73aca05f-7b73-4723-8ff4-20bd65e2fb72
g 091_W_Aya_100K_01
f 71/29/58 42/74/58 17/38/58
usemtl 73aca05f-7b73-4723-8ff4-20bd65e2fb72
g 091_W_Aya_100K_01
f 30/26/13 7/84/13 69/100/13
usemtl 73aca05f-7b73-4723-8ff4-20bd65e2fb72
g 091_W_Aya_100K_01
f 16/52/18 2/104/18 60/28/18
usemtl 73aca05f-7b73-4723-8ff4-20bd65e2fb72
g 091_W_Aya_100K_01
f 30/26/13 69/100/13 52/91/13
usemtl 73aca05f-7b73-4723-8ff4-20bd65e2fb72
g 091_W_Aya_100K_01
f 1/81/49 38/63/49 23/1/49
usemtl 73aca05f-7b73-4723-8ff4-20bd65e2fb72
g 091_W_Aya_100K_01
f 47/24/74 15/75/74 48/42/74
usemtl 73aca05f-7b73-4723-8ff4-20bd65e2fb72
g 091_W_Aya_100K_01
f 5/55/42 31/70/42 43/13/42
usemtl 73aca05f-7b73-4723-8ff4-20bd65e2fb72
g 091_W_Aya_100K_01
f 68/46/52 9/49/52 59/66/52
usemtl 73aca05f-7b73-4723-8ff4-20bd65e2fb72
g 091_W_Aya_100K_01
f 23/1/71 38/63/71 66/14/71
usemtl 73aca05f-7b73-4723-8ff4-20bd65e2fb72
g 091_W_Aya_100K_01
f 1/81/29 19/92/29 38/63/29
usemtl 73aca05f-7b73-4723-8ff4-20bd65e2fb72
g 091_W_Aya_100K_01
f 5/55/42 43/13/42 63/10/42
usemtl 73aca05f-7b73-4723-8ff4-20bd65e2fb72
g 091_W_Aya_100K_01
f 60/28/30 15/75/30 47/24/30
usemtl 73aca05f-7b73-4723-8ff4-20bd65e2fb72
g 091_W_Aya_100K_01
f 71/29/5 33/45/5 42/74/5
usemtl 73aca05f-7b73-4723-8ff4-20bd65e2fb72
g 091_W_Aya_100K_01
f 71/29/58 17/38/58 26/64/58
usemtl 73aca05f-7b73-4723-8ff4-20bd65e2fb72
g 091_W_Aya_100K_01
f 40/109/48 66/14/48 44/110/48
usemtl 73aca05f-7b73-4723-8ff4-20bd65e2fb72
g 091_W_Aya_100K_01
f 50/57/34 19/92/34 1/81/34
usemtl 73aca05f-7b73-4723-8ff4-20bd65e2fb72
g 091_W_Aya_100K_01
f 62/3/8 68/46/8 71/29/8
usemtl 73aca05f-7b73-4723-8ff4-20bd65e2fb72
g 091_W_Aya_100K_01
f 69/21/17 12/89/17 8/37/17
usemtl 73aca05f-7b73-4723-8ff4-20bd65e2fb72
g 091_W_Aya_100K_01
f 42/74/50 6/108/50 13/35/50
usemtl 73aca05f-7b73-4723-8ff4-20bd65e2fb72
g 091_W_Aya_100K_01
f 39/68/68 11/41/68 15/75/68
usemtl 73aca05f-7b73-4723-8ff4-20bd65e2fb72
g 091_W_Aya_100K_01
f 57/101/27 59/22/27 34/106/27
usemtl 73aca05f-7b73-4723-8ff4-20bd65e2fb72
g 091_W_Aya_100K_01
f 60/28/67 39/99/67 15/75/67
usemtl 73aca05f-7b73-4723-8ff4-20bd65e2fb72
g 091_W_Aya_100K_01
f 29/27/56 44/110/56 35/93/56
usemtl 73aca05f-7b73-4723-8ff4-20bd65e2fb72
g 091_W_Aya_100K_01
f 12/82/2 3/7/2 8/37/2
usemtl 73aca05f-7b73-4723-8ff4-20bd65e2fb72
g 091_W_Aya_100K_01
f 31/70/38 5/55/38 67/71/38
usemtl 73aca05f-7b73-4723-8ff4-20bd65e2fb72
g 091_W_Aya_100K_01
f 15/75/20 11/25/20 46/77/20
usemtl 73aca05f-7b73-4723-8ff4-20bd65e2fb72
g 091_W_Aya_100K_01
f 8/37/10 22/23/10 1/81/10
usemtl 73aca05f-7b73-4723-8ff4-20bd65e2fb72
g 091_W_Aya_100K_01
f 42/74/64 51/60/64 6/108/64
usemtl 73aca05f-7b73-4723-8ff4-20bd65e2fb72
g 091_W_Aya_100K_01
f 63/10/32 52/91/32 5/55/32
usemtl 73aca05f-7b73-4723-8ff4-20bd65e2fb72
g 091_W_Aya_100K_01
f 8/37/66 1/81/66 23/1/66
usemtl 73aca05f-7b73-4723-8ff4-20bd65e2fb72
g 091_W_Aya_100K_01
f 52/91/54 40/109/54 5/55/54
usemtl 73aca05f-7b73-4723-8ff4-20bd65e2fb72
g 091_W_Aya_100K_01
f 8/37/10 3/7/10 22/23/10
usemtl 73aca05f-7b73-4723-8ff4-20bd65e2fb72
g 091_W_Aya_100K_01
f 55/30/59 63/10/59 43/18/59
usemtl 73aca05f-7b73-4723-8ff4-20bd65e2fb72
g 091_W_Aya_100K_01
f 29/27/11 35/93/11 57/101/11
usemtl 73aca05f-7b73-4723-8ff4-20bd65e2fb72
g 091_W_Aya_100K_01
f 37/31/25 65/40/25 28/12/25
usemtl 73aca05f-7b73-4723-8ff4-20bd65e2fb72
g 091_W_Aya_100K_01
f 62/3/8 20/20/8 68/46/8
usemtl 73aca05f-7b73-4723-8ff4-20bd65e2fb72
g 091_W_Aya_100K_01
f 27/6/72 37/31/72 32/61/72
usemtl 73aca05f-7b73-4723-8ff4-20bd65e2fb72
g 091_W_Aya_100K_01
f 29/27/28 40/109/28 44/110/28
usemtl 73aca05f-7b73-4723-8ff4-20bd65e2fb72
g 091_W_Aya_100K_01
f 19/92/6 24/2/6 38/63/6
usemtl 73aca05f-7b73-4723-8ff4-20bd65e2fb72
g 091_W_Aya_100K_01
f 52/91/1 23/1/1 40/109/1
usemtl 73aca05f-7b73-4723-8ff4-20bd65e2fb72
g 091_W_Aya_100K_01
f 68/46/52 59/66/52 57/101/52
usemtl 73aca05f-7b73-4723-8ff4-20bd65e2fb72
g 091_W_Aya_100K_01
f 62/78/60 71/29/60 26/96/60
usemtl 73aca05f-7b73-4723-8ff4-20bd65e2fb72
g 091_W_Aya_100K_01
f 67/88/31 5/55/31 36/54/31
usemtl 73aca05f-7b73-4723-8ff4-20bd65e2fb72
g 091_W_Aya_100K_01
f 35/93/65 70/33/65 68/46/65
usemtl 73aca05f-7b73-4723-8ff4-20bd65e2fb72
g 091_W_Aya_100K_01
f 38/63/40 16/65/40 60/28/40
usemtl 73aca05f-7b73-4723-8ff4-20bd65e2fb72
g 091_W_Aya_100K_01
f 49/53/55 48/42/55 37/31/55
usemtl 73aca05f-7b73-4723-8ff4-20bd65e2fb72
g 091_W_Aya_100K_01
f 44/110/51 49/53/51 35/93/51
usemtl 73aca05f-7b73-4723-8ff4-20bd65e2fb72
g 091_W_Aya_100K_01
f 19/92/6 45/58/6 24/2/6
usemtl 73aca05f-7b73-4723-8ff4-20bd65e2fb72
g 091_W_Aya_100K_01
f 53/107/4 7/73/4 54/85/4
usemtl 73aca05f-7b73-4723-8ff4-20bd65e2fb72
g 091_W_Aya_100K_01
f 5/55/7 40/109/7 29/27/7
usemtl 73aca05f-7b73-4723-8ff4-20bd65e2fb72
g 091_W_Aya_100K_01
f 47/24/47 48/42/47 49/53/47
usemtl 73aca05f-7b73-4723-8ff4-20bd65e2fb72
g 091_W_Aya_100K_01
f 23/1/73 66/14/73 40/109/73
usemtl 73aca05f-7b73-4723-8ff4-20bd65e2fb72
g 091_W_Aya_100K_01
f 10/69/37 63/10/37 55/102/37
usemtl 73aca05f-7b73-4723-8ff4-20bd65e2fb72
g 091_W_Aya_100K_01
f 66/14/14 60/28/14 47/24/14
usemtl 73aca05f-7b73-4723-8ff4-20bd65e2fb72
g 091_W_Aya_100K_01
f 60/28/67 2/39/67 39/99/67
usemtl 73aca05f-7b73-4723-8ff4-20bd65e2fb72
g 091_W_Aya_100K_01
f 48/42/69 65/67/69 37/31/69
usemtl 73aca05f-7b73-4723-8ff4-20bd65e2fb72
g 091_W_Aya_100K_01
f 9/50/70 68/46/70 20/4/70
usemtl 73aca05f-7b73-4723-8ff4-20bd65e2fb72
g 091_W_Aya_100K_01
f 25/32/45 50/80/45 1/81/45
usemtl 73aca05f-7b73-4723-8ff4-20bd65e2fb72
g 091_W_Aya_100K_01
f 48/42/69 41/8/69 65/67/69
usemtl 73aca05f-7b73-4723-8ff4-20bd65e2fb72
g 091_W_Aya_100K_01
f 33/45/46 21/62/46 42/74/46
usemtl 73aca05f-7b73-4723-8ff4-20bd65e2fb72
g 091_W_Aya_100K_01
f 33/45/41 37/31/41 27/6/41
usemtl 73aca05f-7b73-4723-8ff4-20bd65e2fb72
g 091_W_Aya_100K_01
f 5/55/53 29/27/53 57/101/53
usemtl 73aca05f-7b73-4723-8ff4-20bd65e2fb72
g 091_W_Aya_100K_01
f 74/59/75 73/76/75 72/79/75
usemtl 73aca05f-7b73-4723-8ff4-20bd65e2fb72
g 091_W_Aya_100K_01
f 74/59/75 72/79/75 75/92/75
