mtllib 109.mtl
v -92.56406702994441 659.3689165874888 -122.66580600000003
v -94.89091129940685 658.1892 -121.9372011157621
v -92.6584612903752 658.1892 -122.59913542333555
v -95.1074 665.7279 -122.1202
v -92.96346658651515 662.9805859838182 -122.66580600000003
v -104.9614 662.4856 -121.008
v -96.08479061621405 658.1892 -121.6886427152188
v -105.70016267727854 658.1892 -120.8659114247147
v -100.2979218723074 658.1892 -121.05610936852318
v -92.45758987872827 658.1892 -122.66580600000003
v -99.26079374915244 658.1892 -121.17288581373272
v -99.4119 664.2114 -121.3663
v -104.64705891044628 658.1892 -120.83485146261107
v -94.65432438761337 694.4927940828621 -122.66580600000003
v -98.9065980853051 712.5928428104019 -122.66580600000003
v -96.5308 684.6415 -121.9749
v -95.1074 665.7279 -122.1202
v -102.87430563169573 743.930739 -122.21601325523953
v -107.99773900000004 696.2225488079888 -122.07057478355563
v -107.99773900000004 658.1892 -121.06655566275882
v -107.99773900000004 660.7638203529898 -121.19036307098573
v -107.7893 710.5298 -122.3686
v -107.99773900000004 690.2201836767847 -121.73739950596004
v -100.32145193686159 736.8543452877891 -122.66580600000003
v -106.10031087913579 743.930739 -121.9355302864628
v -107.99773900000004 683.0067580514864 -121.4671394498067
v -93.1228561541538 666.3802153847957 -122.66580600000003
v -104.9614 662.4856 -121.008
v -98.74372668111981 711.758384331517 -122.66580600000003
v -107.99773900000004 709.354063388939 -122.36407008511922
v -103.8887 725.4301 -122.2969
v -107.99773900000004 737.4967994034122 -122.16669663058524
v -96.08479061621405 658.1892 -121.6886427152188
v -106.2576 688.0298 -121.382
v -101.9001 688.4348 -121.3581
v -101.1665 696.9448 -121.8742
v -107.99773900000004 710.9054384297912 -122.40177386339928
v -99.26079374915244 658.1892 -121.17288581373272
v -105.9849188689999 743.930739 -121.92824797795515
v -99.4119 664.2114 -121.3663
v -103.60335345800864 743.930739 -122.11558043731688
v -93.98118688941278 686.7429989620373 -122.66580600000003
v -107.01969397558356 743.930739 -121.99361827765564
v -98.63075852463396 711.4645383637829 -122.66580600000003
v -92.96346658651515 662.9805859838182 -122.66580600000003
v -103.1155 741.1482 -122.1454
v -107.2805 731.4658 -122.2041
v -106.3999 697.6696 -121.9362
v -99.89336116480753 717.5683337199497 -122.66580600000003
v -96.23366888746858 702.5860126027574 -122.66580600000003
v -98.90048782123151 712.0084620356489 -122.66580600000003
v -107.99773900000004 732.2919251795263 -122.301099328806
v -100.6538 675.8442 -121.2116
v -103.9375 675.9964 -120.9674
v -101.4356879704622 726.6937169282545 -122.66580600000003
v -97.125 697.9476 -122.3059
v -106.9766 675.178 -121.064
v -105.70016267727854 658.1892 -120.8659114247147
v -107.99773900000004 669.7879230915373 -121.14794447628128
v -107.99773900000004 743.930739 -122.06833824345371
v -105.9841 743.1786 -121.926
v -95.25996770239455 697.9755365516103 -122.66580600000003
v -103.6987 711.0291 -122.2999
v -107.99773900000004 675.8603424945737 -121.23292667276925
v -100.61148894974289 743.930739 -122.66580600000003
v -107.99773900000004 712.3907936414948 -122.38958247774245
vt 0.3341858883697343 0.5502690156189756
vt 0.093641197485758 0.13439787518926272
vt 0.493186782393598 0.7243842097317319
vt 0.7269305768340107 0.941397557889982
vt 0.7027194271308935 0.8632406618682412
vt 0.704715244870715 0.9581688579772156
vt 0.5140252343676295 0.5837246782812426
vt 0.7367934471477849 0.9339200665656648
vt 0.7218753714316558 0.9339200665656671
vt 0.22941415203369922 0.4625327305019533
vt 0.3855183565745429 0.39605460724082464
vt 0.2170713570281116 0.30594387264766043
vt 0.04277427853353304 0.17309330330165718
vt 0.3160129438512065 0.42103918793166695
vt 0.3569530554885222 0.6030888433345676
vt 0.6263283240658293 0.9120061068369995
vt 0.24937881394993933 0.2857517120715186
vt 0.7027194271308913 0.863240661868239
vt 0.48562709269079646 0.6330568739811566
vt 0.05682341854178387 0.23487621496741617
vt 0.5344009114659276 0.6135913342422223
vt 0.6676180252462112 0.8113808389326929
vt 0.09591839357126097 0.2473866069768491
vt 0.3543780489458761 0.38671251495222525
vt 0.2392827336618673 0.42305840398928096
vt 0.6814910502793723 0.9339200665656671
vt 0.7460937500000003 0.926892551828016
vt 0.7367934471477872 0.9339200665656693
vt 0.1445386935899619 0.09649994990538124
vt 0.569539607628042 0.8030420886036675
vt 0.31738292942333407 0.5646715518587451
vt 0.35695305548852446 0.6030888433345676
vt 0.2878927335695559 0.25478331278215105
vt 0.7280046137855318 0.9405776918810871
vt 0.05415159012326258 0.16439542609965563
vt 0.31738292942333407 0.5646715518587473
vt 0.13447228989072516 0.10362670911982319
vt 0.4406307314955576 0.6741321058017533
vt 0.6263283240658271 0.9120061068369995
vt 0.4261789961617719 0.45578158308694694
vt 0.09364119748576248 0.13439787518926716
vt 0.04277427853353304 0.1730933033016595
vt 0.569539607628042 0.8030420886036698
vt 0.5845686795138914 0.7723827819565329
vt 0.3664933452915598 0.5119039105243061
vt 0.6978678045760086 0.9635038807789463
vt 0.02853820420474253 0.20136886971490442
vt 0.273609406641309 0.25546347120730495
vt 0.05415159012326034 0.1643954260996534
vt 0.08406478266128159 0.14139636884036277
vt 0.12620663443547475 0.20094463765172144
vt 0.4406307314955553 0.6741321058017488
vt 0.44372144032829064 0.676261138422986
vt 0.45089335205597114 0.6832658969845875
vt 0.1664822842295799 0.08041472319159626
vt 0.4261789961617741 0.45578158308694694
vt 0.49318678239359576 0.7243842097317319
vt 0.524491393487431 0.5989184795578695
vt 0.021447196321847647 0.18883818455197898
vt 0.5344009114659254 0.6135913342422201
vt 0.42101217884714326 0.4816156696600923
vt 0.33657759150971317 0.32487934701607624
vt 0.7047152448707128 0.9581688579772134
vt 0.18392527360222533 0.10602345529220225
vt 0.028538204204744774 0.20136886971490675
vt 0.0816827160198418 0.26710005319769203
vt 0.6765055993798483 0.9804687499999997
vt 0.33657759150971095 0.324879347016074
vt 0.24622506801764316 0.1950774937294787
vt 0.1665909555877583 0.14440658803852624
vt 0.7280046137855342 0.9405776918810871
vt 0.5199537656702381 0.596710984944101
vt 0.44689350051373533 0.6776005049847768
vt 0.22941415203369922 0.46253273050195554
vt 0.01953125000000034 0.19032837350339638
vt 0.2462250680176454 0.1950774937294787
vt 0.4437214403282884 0.6762611384229882
vt 0.5244913934874333 0.5989184795578717
vt 0.6552412415303887 0.8087286709935885
vt 0.28844228534747013 0.5347846578201977
vt 0.1344722898907274 0.10362670911982319
vn -0.2841 -0.0314 -0.9583
vn 0.0295 -0.0381 -0.9988
vn -0.0508 -0.0439 -0.9977
vn -0.2037 -0.0296 -0.9786
vn -0.1118 -0.0347 -0.9931
vn -0.3149 -0.0284 -0.9487
vn 0.0085 -0.0328 -0.9994
vn 0.0108 -0.0572 -0.9983
vn -0.1654 -0.0447 -0.9852
vn -0.2451 -0.0213 -0.9693
vn 0.063 -0.0029 -0.998
vn -0.0739 0.0054 -0.9972
vn 0.1551 -0.037 -0.9872
vn 0.0869 -0.0478 -0.9951
vn -0.1602 -0.0357 -0.9864
vn -0.1497 -0.0297 -0.9883
vn 0.0159 0.0075 -0.9998
vn -0.0276 -2.0E-4 -0.9996
vn 0.133 -0.0549 -0.9896
vn -0.1354 -0.0307 -0.9903
vn 0.1627 0.0255 -0.9863
vn 0.0573 0.0047 -0.9983
vn 0.139 0.0044 -0.9903
vn 0.0034 -0.0608 -0.9981
vn -0.2613 -0.0123 -0.9652
vn -0.075 -0.019 -0.997
vn -0.0672 0.0129 -0.9977
vn -0.1364 -0.0133 -0.9906
vn 0.039 -0.0269 -0.9989
vn -0.2533 -0.0107 -0.9673
vn -0.097 -0.0373 -0.9946
vn 0.1714 0.0081 -0.9852
vn -0.1949 -0.008 -0.9808
vn 0.142 -0.0324 -0.9893
vn -0.0759 -8.0E-4 -0.9971
vn -0.1707 -0.0053 -0.9853
vn 0.1146 -0.0241 -0.9931
vn 0.1038 -0.0222 -0.9944
vn 0.0316 6.0E-4 -0.9995
vn -0.1574 0.0173 -0.9874
vn -0.1713 -0.0052 -0.9852
vn -0.0674 -0.0422 -0.9968
vn 0.0124 0.0224 -0.9997
vn 0.0078 -0.0288 -0.9996
vn 0.1542 -0.0138 -0.9879
vn -0.1889 -0.0329 -0.9814
vn 0.0762 0.0152 -0.997
vn -0.0784 -0.0031 -0.9969
vn -0.0932 -0.0523 -0.9943
vn -0.1888 -0.0399 -0.9812
vn -0.137 -0.0232 -0.9903
vn -0.1312 -0.0245 -0.9911
vn 0.0206 -0.0314 -0.9993
vn -0.0669 0.0081 -0.9977
usemtl 6dd0b528-d1ea-4af9-b7a3-d34c8ce64c55
g 091_W_Aya_100K_01
f 3/59/1 2/13/1 4/23/1
usemtl 6dd0b528-d1ea-4af9-b7a3-d34c8ce64c55
g 091_W_Aya_100K_01
f 3/59/1 5/20/1 1/65/1
usemtl 6dd0b528-d1ea-4af9-b7a3-d34c8ce64c55
g 091_W_Aya_100K_01
f 3/59/1 4/23/1 5/20/1
usemtl 6dd0b528-d1ea-4af9-b7a3-d34c8ce64c55
g 091_W_Aya_100K_01
f 2/42/4 7/49/4 4/23/4
usemtl 6dd0b528-d1ea-4af9-b7a3-d34c8ce64c55
g 091_W_Aya_100K_01
f 10/75/6 3/59/6 1/47/6
usemtl 6dd0b528-d1ea-4af9-b7a3-d34c8ce64c55
g 091_W_Aya_100K_01
f 9/41/3 6/70/3 12/51/3
usemtl 6dd0b528-d1ea-4af9-b7a3-d34c8ce64c55
g 091_W_Aya_100K_01
f 11/50/5 9/2/5 12/51/5
usemtl 6dd0b528-d1ea-4af9-b7a3-d34c8ce64c55
g 091_W_Aya_100K_01
f 9/41/3 13/37/3 6/70/3
usemtl 6dd0b528-d1ea-4af9-b7a3-d34c8ce64c55
g 091_W_Aya_100K_01
f 13/81/2 8/29/2 6/70/2
usemtl 6dd0b528-d1ea-4af9-b7a3-d34c8ce64c55
g 091_W_Aya_100K_01
f 35/14/24 48/61/24 36/45/24
usemtl 6dd0b528-d1ea-4af9-b7a3-d34c8ce64c55
g 091_W_Aya_100K_01
f 57/48/34 26/62/34 34/24/34
usemtl 6dd0b528-d1ea-4af9-b7a3-d34c8ce64c55
g 091_W_Aya_100K_01
f 56/1/31 36/45/31 29/53/31
usemtl 6dd0b528-d1ea-4af9-b7a3-d34c8ce64c55
g 091_W_Aya_100K_01
f 50/32/9 56/1/9 44/52/9
usemtl 6dd0b528-d1ea-4af9-b7a3-d34c8ce64c55
g 091_W_Aya_100K_01
f 57/48/22 28/70/22 21/64/22
usemtl 6dd0b528-d1ea-4af9-b7a3-d34c8ce64c55
g 091_W_Aya_100K_01
f 17/23/15 33/35/15 38/50/15
usemtl 6dd0b528-d1ea-4af9-b7a3-d34c8ce64c55
g 091_W_Aya_100K_01
f 35/14/49 36/45/49 56/1/49
usemtl 6dd0b528-d1ea-4af9-b7a3-d34c8ce64c55
g 091_W_Aya_100K_01
f 57/48/22 21/64/22 59/69/22
usemtl 6dd0b528-d1ea-4af9-b7a3-d34c8ce64c55
g 091_W_Aya_100K_01
f 22/72/23 52/22/23 47/79/23
usemtl 6dd0b528-d1ea-4af9-b7a3-d34c8ce64c55
g 091_W_Aya_100K_01
f 42/10/30 27/66/30 16/25/30
usemtl 6dd0b528-d1ea-4af9-b7a3-d34c8ce64c55
g 091_W_Aya_100K_01
f 16/25/52 53/12/52 35/14/52
usemtl 6dd0b528-d1ea-4af9-b7a3-d34c8ce64c55
g 091_W_Aya_100K_01
f 53/12/26 54/17/26 35/14/26
usemtl 6dd0b528-d1ea-4af9-b7a3-d34c8ce64c55
g 091_W_Aya_100K_01
f 56/1/20 16/25/20 35/14/20
usemtl 6dd0b528-d1ea-4af9-b7a3-d34c8ce64c55
g 091_W_Aya_100K_01
f 47/79/21 52/22/21 32/18/21
usemtl 6dd0b528-d1ea-4af9-b7a3-d34c8ce64c55
g 091_W_Aya_100K_01
f 49/3/51 31/44/51 55/30/51
usemtl 6dd0b528-d1ea-4af9-b7a3-d34c8ce64c55
g 091_W_Aya_100K_01
f 63/19/17 22/72/17 47/79/17
usemtl 6dd0b528-d1ea-4af9-b7a3-d34c8ce64c55
g 091_W_Aya_100K_01
f 24/39/40 31/44/40 46/26/40
usemtl 6dd0b528-d1ea-4af9-b7a3-d34c8ce64c55
g 091_W_Aya_100K_01
f 46/26/48 39/4/48 41/6/48
usemtl 6dd0b528-d1ea-4af9-b7a3-d34c8ce64c55
g 091_W_Aya_100K_01
f 47/79/47 32/5/47 60/27/47
usemtl 6dd0b528-d1ea-4af9-b7a3-d34c8ce64c55
g 091_W_Aya_100K_01
f 35/14/8 34/24/8 48/61/8
usemtl 6dd0b528-d1ea-4af9-b7a3-d34c8ce64c55
g 091_W_Aya_100K_01
f 51/73/42 36/45/42 63/19/42
usemtl 6dd0b528-d1ea-4af9-b7a3-d34c8ce64c55
g 091_W_Aya_100K_01
f 24/39/40 55/43/40 31/44/40
usemtl 6dd0b528-d1ea-4af9-b7a3-d34c8ce64c55
g 091_W_Aya_100K_01
f 17/23/15 38/50/15 40/51/15
usemtl 6dd0b528-d1ea-4af9-b7a3-d34c8ce64c55
g 091_W_Aya_100K_01
f 35/14/7 54/17/7 34/24/7
usemtl 6dd0b528-d1ea-4af9-b7a3-d34c8ce64c55
g 091_W_Aya_100K_01
f 16/25/46 56/1/46 62/31/46
usemtl 6dd0b528-d1ea-4af9-b7a3-d34c8ce64c55
g 091_W_Aya_100K_01
f 40/51/41 53/12/41 16/25/41
usemtl 6dd0b528-d1ea-4af9-b7a3-d34c8ce64c55
g 091_W_Aya_100K_01
f 34/24/13 26/68/13 23/11/13
usemtl 6dd0b528-d1ea-4af9-b7a3-d34c8ce64c55
g 091_W_Aya_100K_01
f 22/72/23 66/21/23 52/22/23
usemtl 6dd0b528-d1ea-4af9-b7a3-d34c8ce64c55
g 091_W_Aya_100K_01
f 48/61/53 22/72/53 63/19/53
usemtl 6dd0b528-d1ea-4af9-b7a3-d34c8ce64c55
g 091_W_Aya_100K_01
f 48/61/38 19/56/38 30/7/38
usemtl 6dd0b528-d1ea-4af9-b7a3-d34c8ce64c55
g 091_W_Aya_100K_01
f 48/61/19 34/24/19 23/11/19
usemtl 6dd0b528-d1ea-4af9-b7a3-d34c8ce64c55
g 091_W_Aya_100K_01
f 42/74/10 16/25/10 14/80/10
usemtl 6dd0b528-d1ea-4af9-b7a3-d34c8ce64c55
g 091_W_Aya_100K_01
f 24/16/33 46/26/33 18/46/33
usemtl 6dd0b528-d1ea-4af9-b7a3-d34c8ce64c55
g 091_W_Aya_100K_01
f 40/51/54 28/70/54 54/17/54
usemtl 6dd0b528-d1ea-4af9-b7a3-d34c8ce64c55
g 091_W_Aya_100K_01
f 46/26/27 31/44/27 61/9/27
usemtl 6dd0b528-d1ea-4af9-b7a3-d34c8ce64c55
g 091_W_Aya_100K_01
f 28/70/14 58/29/14 20/55/14
usemtl 6dd0b528-d1ea-4af9-b7a3-d34c8ce64c55
g 091_W_Aya_100K_01
f 36/45/44 48/61/44 63/19/44
usemtl 6dd0b528-d1ea-4af9-b7a3-d34c8ce64c55
g 091_W_Aya_100K_01
f 46/26/48 61/9/48 39/4/48
usemtl 6dd0b528-d1ea-4af9-b7a3-d34c8ce64c55
g 091_W_Aya_100K_01
f 62/36/50 56/1/50 50/15/50
usemtl 6dd0b528-d1ea-4af9-b7a3-d34c8ce64c55
g 091_W_Aya_100K_01
f 46/26/28 41/63/28 18/46/28
usemtl 6dd0b528-d1ea-4af9-b7a3-d34c8ce64c55
g 091_W_Aya_100K_01
f 17/23/25 16/25/25 27/66/25
usemtl 6dd0b528-d1ea-4af9-b7a3-d34c8ce64c55
g 091_W_Aya_100K_01
f 24/16/33 18/46/33 65/67/33
usemtl 6dd0b528-d1ea-4af9-b7a3-d34c8ce64c55
g 091_W_Aya_100K_01
f 28/70/14 20/55/14 21/64/14
usemtl 6dd0b528-d1ea-4af9-b7a3-d34c8ce64c55
g 091_W_Aya_100K_01
f 15/54/35 51/73/35 63/19/35
usemtl 6dd0b528-d1ea-4af9-b7a3-d34c8ce64c55
g 091_W_Aya_100K_01
f 16/25/46 62/31/46 14/80/46
usemtl 6dd0b528-d1ea-4af9-b7a3-d34c8ce64c55
g 091_W_Aya_100K_01
f 49/57/16 15/54/16 31/44/16
usemtl 6dd0b528-d1ea-4af9-b7a3-d34c8ce64c55
g 091_W_Aya_100K_01
f 57/48/34 64/33/34 26/62/34
usemtl 6dd0b528-d1ea-4af9-b7a3-d34c8ce64c55
g 091_W_Aya_100K_01
f 17/23/25 27/66/25 45/20/25
usemtl 6dd0b528-d1ea-4af9-b7a3-d34c8ce64c55
g 091_W_Aya_100K_01
f 17/23/36 40/51/36 16/25/36
usemtl 6dd0b528-d1ea-4af9-b7a3-d34c8ce64c55
g 091_W_Aya_100K_01
f 54/17/12 53/12/12 40/51/12
usemtl 6dd0b528-d1ea-4af9-b7a3-d34c8ce64c55
g 091_W_Aya_100K_01
f 61/9/11 43/28/11 25/34/11
usemtl 6dd0b528-d1ea-4af9-b7a3-d34c8ce64c55
g 091_W_Aya_100K_01
f 48/61/19 23/11/19 19/40/19
usemtl 6dd0b528-d1ea-4af9-b7a3-d34c8ce64c55
g 091_W_Aya_100K_01
f 31/44/43 47/79/43 61/9/43
usemtl 6dd0b528-d1ea-4af9-b7a3-d34c8ce64c55
g 091_W_Aya_100K_01
f 63/19/18 47/79/18 31/44/18
usemtl 6dd0b528-d1ea-4af9-b7a3-d34c8ce64c55
g 091_W_Aya_100K_01
f 61/9/11 25/71/11 39/4/11
usemtl 6dd0b528-d1ea-4af9-b7a3-d34c8ce64c55
g 091_W_Aya_100K_01
f 15/54/35 63/19/35 31/44/35
usemtl 6dd0b528-d1ea-4af9-b7a3-d34c8ce64c55
g 091_W_Aya_100K_01
f 22/72/32 37/78/32 66/60/32
usemtl 6dd0b528-d1ea-4af9-b7a3-d34c8ce64c55
g 091_W_Aya_100K_01
f 47/79/47 60/27/47 43/8/47
usemtl 6dd0b528-d1ea-4af9-b7a3-d34c8ce64c55
g 091_W_Aya_100K_01
f 47/79/47 43/8/47 61/9/47
usemtl 6dd0b528-d1ea-4af9-b7a3-d34c8ce64c55
g 091_W_Aya_100K_01
f 57/48/45 59/76/45 64/33/45
usemtl 6dd0b528-d1ea-4af9-b7a3-d34c8ce64c55
g 091_W_Aya_100K_01
f 22/72/37 30/7/37 37/58/37
usemtl 6dd0b528-d1ea-4af9-b7a3-d34c8ce64c55
g 091_W_Aya_100K_01
f 28/70/39 57/48/39 54/17/39
usemtl 6dd0b528-d1ea-4af9-b7a3-d34c8ce64c55
g 091_W_Aya_100K_01
f 54/17/29 57/48/29 34/24/29
usemtl 6dd0b528-d1ea-4af9-b7a3-d34c8ce64c55
g 091_W_Aya_100K_01
f 48/61/38 30/7/38 22/72/38
usemtl 6dd0b528-d1ea-4af9-b7a3-d34c8ce64c55
g 091_W_Aya_100K_01
f 56/1/31 29/53/31 44/38/31
usemtl 6dd0b528-d1ea-4af9-b7a3-d34c8ce64c55
g 091_W_Aya_100K_01
f 51/73/42 29/77/42 36/45/42
