mtllib 110.mtl
v -107.99773900000004 787.6156745179301 -122.10694832928925
v -107.99773900000004 774.8810737387449 -122.13182016412968
v -100.1418 786.2122 -122.5225
v -107.99773900000004 778.694364490047 -122.11564550331754
v -106.2798 820.8282 -122.3444
v -107.99773900000004 815.5349569914569 -122.45532397170892
v -107.99773900000004 824.8100715436947 -122.28858869030736
v -106.18247558007883 829.6722780000001 -122.14296200058985
v -107.99773900000004 776.3753986171271 -122.14406789005524
v -103.33782299258885 809.5427939050486 -122.66580600000003
v -101.03784160825685 805.1260928224775 -122.66580600000003
v -101.9551 821.9146 -122.6596
v -107.99773900000004 792.7154452278888 -122.16319808618114
v -100.61148894974286 743.9307390000001 -122.66580600000003
v -101.79262545409831 829.6722780000001 -122.66580600000003
v -101.92392222067647 821.9212756748792 -122.66580600000003
v -107.99773900000004 757.5547067104046 -122.095058599873
v -106.81880077501718 829.6722780000001 -122.14693560470559
v -103.60335345800866 743.9307390000001 -122.11558043731688
v -105.5237 800.365 -122.1274
v -106.1245 829.1051 -122.1448
v -101.89176782531159 821.6054007076631 -122.66580600000003
v -99.62344831238296 786.4222668666293 -122.66580600000003
v -100.73079874614062 746.841688484161 -122.66580600000003
v -105.9849188689999 743.9307390000001 -121.92824797795515
v -107.99773900000004 756.2112561083093 -122.09113562796666
v -102.16657024286339 817.4414049550768 -122.66580600000003
v -107.99773900000004 806.8863776580467 -122.39150931032407
v -101.4346 775.3312 -122.4841
v -102.43811005792116 813.9114842936974 -122.66580600000003
v -105.9998 757.5992 -121.9691
v -99.68558681746781 784.5119611829148 -122.66580600000003
v -102.87430563169572 743.9307390000001 -122.21601325523953
v -105.3181 809.6428 -122.4783
v -100.43011005421295 801.70088811473 -122.66580600000003
v -107.99773900000004 810.4296771044986 -122.52604569060681
v -104.7221844896856 829.6722780000001 -122.30123714477399
v -104.3733 775.7 -122.1003
v -101.21795859638985 752.6444735640562 -122.66580600000003
v -106.10031087913582 743.9307390000001 -121.9355302864628
v -103.4548 785.9103 -122.0251
v -101.2576 801.7624 -122.4741
v -102.15475066995242 829.6722780000001 -122.5934618523687
v -101.02396281396547 756.578799086504 -122.66580600000003
v -100.40281354760188 799.3638622159982 -122.66580600000003
v -101.09779401117362 750.6874941412678 -122.66580600000003
v -106.0703358962957 829.6722780000001 -122.15473350688134
v -106.33298689170783 829.6722780000001 -122.14029461429833
v -107.4358 785.9702 -122.0184
v -100.78821957478503 766.4712253706946 -122.66580600000003
v -102.1936 751.7837 -122.4153
v -107.99773900000004 744.641080913881 -122.0574789427232
v -107.99773900000004 783.913849387207 -122.10912728308885
v -107.99773900000004 743.9307390000001 -122.0683382434537
v -107.01969397558375 743.9307390000001 -121.99361827765566
v -100.6596724164048 775.0781274830962 -122.66580600000003
v -107.99773900000004 829.6722780000001 -122.17338154881334
v -102.6138 763.0909 -122.2516
v -107.99773900000004 786.5975518363081 -122.1004880998308
vt 0.040932663203158116 0.13589023362387298
vt 0.5269917970403781 0.8127622165649884
vt 0.09664837632900823 0.058426174748232196
vt 0.5500284037076623 0.8513678416483698
vt 0.6742152995673903 0.9473297654008362
vt 0.17334658477827464 0.28872311753494784
vt 0.45203295840598695 0.7328780174216816
vt 0.4224267906416441 0.7024586602620078
vt 0.2466228847558648 0.42271406606540185
vt 0.5500284037076646 0.8513678416483721
vt 0.636816249311546 0.9777020871604353
vt 0.16706575906591037 0.20707238327420296
vt 0.5795066475112085 0.9000568202051378
vt 0.23713519451753257 0.4262280254129356
vt 0.23713519451753023 0.42622802541293325
vt 0.07292760525397582 0.06532908212602417
vt 0.33232126886834146 0.4079625596095149
vt 0.07181399833777775 0.06617915386384166
vt 0.6573278893499197 0.8843553040891381
vt 0.071027509012624 0.17279047918736945
vt 0.4312568461641296 0.5528278830134831
vt 0.6755945680304252 0.9462058166577584
vt 0.6605974724200492 0.9583086216185106
vt 0.1860375579334366 0.19189494418018238
vt 0.29305351289925047 0.5303516756087948
vt 0.08575401877523409 0.19208734024413532
vt 0.5550951316252678 0.7351799262155871
vt 0.08575401877523642 0.19208734024413765
vt 0.04168048743349132 0.0890999239787692
vt 0.09664837632901056 0.058426174748232196
vt 0.2780270133176908 0.40387158892830677
vt 0.43086043898523774 0.696976788838672
vt 0.4601709589762733 0.650917400281327
vt 0.5918519580875544 0.7881806181168776
vt 0.34083527044134054 0.5169264517508753
vt 0.5303280121925619 0.6989879737813758
vt 0.3055660853158468 0.3686560972324633
vt 0.17862183521807068 0.33751918410306503
vt 0.5918519580875521 0.7881806181168729
vt 0.08204023923143364 0.05842617474823453
vt 0.5038873968730552 0.7608604082710646
vt 0.3785202247155308 0.48761593175983964
vt 0.40536261324106787 0.6786614492196199
vt 0.5038873968730597 0.7608604082710646
vt 0.6801412540917041 0.9426868086235191
vt 0.36951130614530164 0.46227834828107117
vt 0.6573278893499244 0.8843553040891404
vt 0.048780203006227936 0.08356834680012304
vt 0.633415815411828 0.9804687500000003
vt 0.07292760525397582 0.0653290821260265
vt 0.3159578143014544 0.3839080094631667
vt 0.522979216099923 0.7472233945375908
vt 0.0916831863984259 0.051139750380417404
vt 0.42242679064164645 0.7024586602620078
vt 0.3055660853158491 0.3686560972324656
vt 0.3094311418795145 0.5441433631711228
vt 0.6731905793450267 0.9481430816529932
vt 0.6731905793450244 0.9481430816529886
vt 0.6130043846438226 0.8560910402185832
vt 0.6368162493115483 0.9777020871604376
vt 0.305783230629991 0.5503167514395502
vt 0.3881524525414755 0.48997047633951485
vt 0.041680487433493646 0.0890999239787692
vt 0.17862183521807298 0.33751918410306503
vt 0.17668953411016602 0.17803600484913107
vt 0.5269917970403758 0.8127622165649884
vt 0.5303280121925595 0.6989879737813758
vt 0.6742152995673927 0.9473297654008386
vt 0.6695318160551057 0.9419289916209043
vt 0.1114661922806242 0.23397212226939534
vt 0.31595781430145675 0.38390800946316905
vt 0.3057832306299887 0.5503167514395455
vt 0.5792615844950056 0.9003631489753943
vt 0.5767274101228939 0.8972775828168186
vt 0.019531249999999677 0.10668981757612472
vt 0.0710275090126333 0.17279047918737644
vt 0.08204023923143364 0.058426174748229864
vt 0.5792615844950033 0.9003631489753919
vt 0.048780203006227936 0.08356834680012537
vt 0.08960224194674171 0.17566825471237923
vt 0.3953619727172532 0.5004577646111511
vt 0.38815245254147085 0.48997047633951263
vt 0.04093266320316044 0.13589023362387298
vt 0.6914062499999997 0.9341170478738297
vt 0.3953619727172532 0.5004577646111534
vt 0.5550951316252655 0.7351799262155871
vt 0.3323212688683391 0.40796255960951255
vt 0.5767274101228915 0.8972775828168209
vn -0.108 -0.0071 -0.9941
vn 0.063 -0.0021 -0.998
vn 0.063 -0.0029 -0.998
vn 0.0224 0.0237 -0.9995
vn -0.0967 -0.0503 -0.994
vn -0.0836 3.0E-4 -0.9965
vn -0.1959 0.0033 -0.9806
vn -0.2592 0.0128 -0.9657
vn -0.2366 -0.0145 -0.9715
vn 0.0092 0.018 -0.9998
vn -0.0733 0.0056 -0.9973
vn -0.0739 0.0049 -0.9973
vn 0.0641 -0.0161 -0.9978
vn -0.0016 0.0075 -1.0
vn -0.1131 0.0056 -0.9936
vn -0.1364 -0.0133 -0.9906
vn -0.1272 0.0187 -0.9917
vn -0.0752 -0.0178 -0.997
vn -0.2697 0.0088 -0.9629
vn 0.1243 -0.0109 -0.9922
vn 0.0219 0.0138 -0.9997
vn -0.2272 0.0034 -0.9738
vn 0.148 0.0032 -0.989
vn -0.1949 -0.008 -0.9808
vn 0.0144 0.0123 -0.9998
vn -0.0177 0.0014 -0.9998
vn 0.0137 0.013 -0.9998
vn -0.1303 -0.0063 -0.9915
vn -0.2284 -0.0405 -0.9727
vn -0.0018 -0.0073 -1.0
vn -0.2605 -0.0157 -0.9653
vn 0.1376 -0.0063 -0.9905
vn 0.155 0.0012 -0.9879
vn 0.0106 -0.0082 -0.9999
vn -0.1498 0.0143 -0.9886
vn -0.1044 -0.0074 -0.9945
vn -0.0933 0.0192 -0.9955
vn -0.245 -0.0234 -0.9693
vn -0.1003 0.0107 -0.9949
vn -0.1912 -0.0195 -0.9814
vn 0.0762 0.0152 -0.997
vn -0.2259 -0.0026 -0.9741
vn -0.0692 -0.0362 -0.9969
vn -0.0784 -0.0031 -0.9969
vn 0.0067 -0.0379 -0.9993
vn -0.231 0.0055 -0.9729
vn -0.2212 0.0228 -0.975
vn -0.1478 -0.0075 -0.989
vn -0.079 0.0255 -0.9965
usemtl c8e72612-20fa-4213-98a2-a3c6079b08c5
g 091_W_Aya_100K_01
f 49/42/20 1/85/20 13/21/20
usemtl c8e72612-20fa-4213-98a2-a3c6079b08c5
g 091_W_Aya_100K_01
f 6/34/10 7/47/10 5/59/10
usemtl c8e72612-20fa-4213-98a2-a3c6079b08c5
g 091_W_Aya_100K_01
f 3/56/31 42/32/31 45/43/31
usemtl c8e72612-20fa-4213-98a2-a3c6079b08c5
g 091_W_Aya_100K_01
f 5/59/4 18/45/4 21/69/4
usemtl c8e72612-20fa-4213-98a2-a3c6079b08c5
g 091_W_Aya_100K_01
f 42/32/5 10/44/5 11/7/5
usemtl c8e72612-20fa-4213-98a2-a3c6079b08c5
g 091_W_Aya_100K_01
f 22/74/12 27/10/12 5/59/12
usemtl c8e72612-20fa-4213-98a2-a3c6079b08c5
g 091_W_Aya_100K_01
f 33/63/16 31/12/16 51/80/16
usemtl c8e72612-20fa-4213-98a2-a3c6079b08c5
g 091_W_Aya_100K_01
f 22/88/40 12/13/40 16/78/40
usemtl c8e72612-20fa-4213-98a2-a3c6079b08c5
g 091_W_Aya_100K_01
f 49/42/23 53/46/23 59/82/23
usemtl c8e72612-20fa-4213-98a2-a3c6079b08c5
g 091_W_Aya_100K_01
f 24/1/24 14/75/24 33/29/24
usemtl c8e72612-20fa-4213-98a2-a3c6079b08c5
g 091_W_Aya_100K_01
f 51/80/46 58/6/46 50/38/46
usemtl c8e72612-20fa-4213-98a2-a3c6079b08c5
g 091_W_Aya_100K_01
f 20/33/45 28/36/45 36/27/45
usemtl c8e72612-20fa-4213-98a2-a3c6079b08c5
g 091_W_Aya_100K_01
f 27/4/11 30/66/11 34/52/11
usemtl c8e72612-20fa-4213-98a2-a3c6079b08c5
g 091_W_Aya_100K_01
f 29/9/17 38/31/17 41/35/17
usemtl c8e72612-20fa-4213-98a2-a3c6079b08c5
g 091_W_Aya_100K_01
f 34/52/21 6/39/21 5/59/21
usemtl c8e72612-20fa-4213-98a2-a3c6079b08c5
g 091_W_Aya_100K_01
f 40/16/3 52/3/3 26/65/3
usemtl c8e72612-20fa-4213-98a2-a3c6079b08c5
g 091_W_Aya_100K_01
f 45/43/42 42/32/42 35/8/42
usemtl c8e72612-20fa-4213-98a2-a3c6079b08c5
g 091_W_Aya_100K_01
f 16/73/7 12/13/7 43/11/7
usemtl c8e72612-20fa-4213-98a2-a3c6079b08c5
g 091_W_Aya_100K_01
f 25/18/3 40/50/3 26/65/3
usemtl c8e72612-20fa-4213-98a2-a3c6079b08c5
g 091_W_Aya_100K_01
f 4/87/33 53/46/33 49/42/33
usemtl c8e72612-20fa-4213-98a2-a3c6079b08c5
g 091_W_Aya_100K_01
f 40/16/3 55/40/3 52/3/3
usemtl c8e72612-20fa-4213-98a2-a3c6079b08c5
g 091_W_Aya_100K_01
f 27/4/11 34/52/11 5/59/11
usemtl c8e72612-20fa-4213-98a2-a3c6079b08c5
g 091_W_Aya_100K_01
f 3/56/19 23/72/19 32/25/19
usemtl c8e72612-20fa-4213-98a2-a3c6079b08c5
g 091_W_Aya_100K_01
f 5/59/4 57/84/4 18/45/4
usemtl c8e72612-20fa-4213-98a2-a3c6079b08c5
g 091_W_Aya_100K_01
f 39/26/9 46/20/9 51/80/9
usemtl c8e72612-20fa-4213-98a2-a3c6079b08c5
g 091_W_Aya_100K_01
f 17/24/2 2/37/2 31/12/2
usemtl c8e72612-20fa-4213-98a2-a3c6079b08c5
g 091_W_Aya_100K_01
f 31/12/34 9/71/34 38/31/34
usemtl c8e72612-20fa-4213-98a2-a3c6079b08c5
g 091_W_Aya_100K_01
f 58/6/28 38/31/28 29/9/28
usemtl c8e72612-20fa-4213-98a2-a3c6079b08c5
g 091_W_Aya_100K_01
f 12/13/15 37/23/15 43/60/15
usemtl c8e72612-20fa-4213-98a2-a3c6079b08c5
g 091_W_Aya_100K_01
f 35/54/29 42/32/29 11/7/29
usemtl c8e72612-20fa-4213-98a2-a3c6079b08c5
g 091_W_Aya_100K_01
f 58/6/6 31/12/6 38/31/6
usemtl c8e72612-20fa-4213-98a2-a3c6079b08c5
g 091_W_Aya_100K_01
f 41/35/18 20/33/18 42/32/18
usemtl c8e72612-20fa-4213-98a2-a3c6079b08c5
g 091_W_Aya_100K_01
f 33/63/16 19/48/16 31/12/16
usemtl c8e72612-20fa-4213-98a2-a3c6079b08c5
g 091_W_Aya_100K_01
f 56/15/22 50/64/22 58/6/22
usemtl c8e72612-20fa-4213-98a2-a3c6079b08c5
g 091_W_Aya_100K_01
f 31/12/34 2/55/34 9/71/34
usemtl c8e72612-20fa-4213-98a2-a3c6079b08c5
g 091_W_Aya_100K_01
f 3/56/31 45/43/31 23/61/31
usemtl c8e72612-20fa-4213-98a2-a3c6079b08c5
g 091_W_Aya_100K_01
f 41/35/30 49/42/30 20/33/30
usemtl c8e72612-20fa-4213-98a2-a3c6079b08c5
g 091_W_Aya_100K_01
f 12/13/15 21/69/15 37/23/15
usemtl c8e72612-20fa-4213-98a2-a3c6079b08c5
g 091_W_Aya_100K_01
f 38/31/25 9/51/25 4/17/25
usemtl c8e72612-20fa-4213-98a2-a3c6079b08c5
g 091_W_Aya_100K_01
f 47/57/36 21/69/36 8/5/36
usemtl c8e72612-20fa-4213-98a2-a3c6079b08c5
g 091_W_Aya_100K_01
f 21/69/26 48/22/26 8/68/26
usemtl c8e72612-20fa-4213-98a2-a3c6079b08c5
g 091_W_Aya_100K_01
f 51/80/39 31/12/39 58/6/39
usemtl c8e72612-20fa-4213-98a2-a3c6079b08c5
g 091_W_Aya_100K_01
f 34/52/21 36/86/21 6/39/21
usemtl c8e72612-20fa-4213-98a2-a3c6079b08c5
g 091_W_Aya_100K_01
f 24/1/24 33/29/24 51/80/24
usemtl c8e72612-20fa-4213-98a2-a3c6079b08c5
g 091_W_Aya_100K_01
f 21/69/27 18/45/27 48/22/27
usemtl c8e72612-20fa-4213-98a2-a3c6079b08c5
g 091_W_Aya_100K_01
f 12/13/49 5/59/49 21/69/49
usemtl c8e72612-20fa-4213-98a2-a3c6079b08c5
g 091_W_Aya_100K_01
f 10/41/37 34/52/37 30/2/37
usemtl c8e72612-20fa-4213-98a2-a3c6079b08c5
g 091_W_Aya_100K_01
f 41/35/14 38/31/14 49/42/14
usemtl c8e72612-20fa-4213-98a2-a3c6079b08c5
g 091_W_Aya_100K_01
f 22/74/12 5/59/12 12/13/12
usemtl c8e72612-20fa-4213-98a2-a3c6079b08c5
g 091_W_Aya_100K_01
f 38/31/25 4/17/25 49/42/25
usemtl c8e72612-20fa-4213-98a2-a3c6079b08c5
g 091_W_Aya_100K_01
f 42/32/5 34/52/5 10/44/5
usemtl c8e72612-20fa-4213-98a2-a3c6079b08c5
g 091_W_Aya_100K_01
f 20/33/13 13/21/13 28/67/13
usemtl c8e72612-20fa-4213-98a2-a3c6079b08c5
g 091_W_Aya_100K_01
f 20/33/45 36/27/45 34/52/45
usemtl c8e72612-20fa-4213-98a2-a3c6079b08c5
g 091_W_Aya_100K_01
f 5/59/4 7/19/4 57/84/4
usemtl c8e72612-20fa-4213-98a2-a3c6079b08c5
g 091_W_Aya_100K_01
f 42/32/43 20/33/43 34/52/43
usemtl c8e72612-20fa-4213-98a2-a3c6079b08c5
g 091_W_Aya_100K_01
f 24/83/38 51/80/38 46/76/38
usemtl c8e72612-20fa-4213-98a2-a3c6079b08c5
g 091_W_Aya_100K_01
f 56/15/22 58/6/22 29/9/22
usemtl c8e72612-20fa-4213-98a2-a3c6079b08c5
g 091_W_Aya_100K_01
f 3/56/48 41/35/48 42/32/48
usemtl c8e72612-20fa-4213-98a2-a3c6079b08c5
g 091_W_Aya_100K_01
f 32/25/47 29/9/47 3/56/47
usemtl c8e72612-20fa-4213-98a2-a3c6079b08c5
g 091_W_Aya_100K_01
f 16/73/7 43/11/7 15/49/7
usemtl c8e72612-20fa-4213-98a2-a3c6079b08c5
g 091_W_Aya_100K_01
f 20/33/13 49/42/13 13/21/13
usemtl c8e72612-20fa-4213-98a2-a3c6079b08c5
g 091_W_Aya_100K_01
f 49/42/32 59/62/32 1/81/32
usemtl c8e72612-20fa-4213-98a2-a3c6079b08c5
g 091_W_Aya_100K_01
f 51/80/46 50/38/46 44/70/46
usemtl c8e72612-20fa-4213-98a2-a3c6079b08c5
g 091_W_Aya_100K_01
f 29/9/35 41/35/35 3/56/35
usemtl c8e72612-20fa-4213-98a2-a3c6079b08c5
g 091_W_Aya_100K_01
f 44/70/8 39/28/8 51/80/8
usemtl c8e72612-20fa-4213-98a2-a3c6079b08c5
g 091_W_Aya_100K_01
f 25/18/3 26/65/3 17/24/3
usemtl c8e72612-20fa-4213-98a2-a3c6079b08c5
g 091_W_Aya_100K_01
f 54/53/41 52/30/41 55/77/41
usemtl c8e72612-20fa-4213-98a2-a3c6079b08c5
g 091_W_Aya_100K_01
f 32/25/47 56/14/47 29/9/47
usemtl c8e72612-20fa-4213-98a2-a3c6079b08c5
g 091_W_Aya_100K_01
f 25/18/3 17/24/3 31/12/3
usemtl c8e72612-20fa-4213-98a2-a3c6079b08c5
g 091_W_Aya_100K_01
f 19/79/44 25/18/44 31/12/44
usemtl c8e72612-20fa-4213-98a2-a3c6079b08c5
g 091_W_Aya_100K_01
f 37/23/1 21/69/1 47/58/1
