mtllib 122.mtl
v -104.70749975740029 894.3435447075562 -122.66580600000003
v -107.99773900000004 889.4704604597946 -122.1499206313698
v -106.9202 882.7269 -122.3013
v -104.1719 849.5517 -122.5029
v -105.30738083848412 915.413817 -122.66580600000003
v -102.1812 830.7 -122.5847
v -107.99773900000004 834.2011515591124 -122.10431944922153
v -106.697 912.2279 -122.4162
v -106.9496013665527 915.413817 -122.34360971781979
v -106.07033589629572 829.672278 -122.15473350688134
v -106.18247558007882 829.672278 -122.14296200058985
v -101.83879481791452 831.4825341798522 -122.66580600000003
v -101.79262545409833 829.672278 -122.66580600000003
v -107.99773900000004 882.2909143715447 -122.21391229588045
v -107.99773900000004 830.635358913388 -122.15056190919992
v -104.58636608327714 885.5085532424449 -122.66580600000003
v -107.99773900000004 855.6488164963246 -122.14695825633115
v -22.256200000000035 915.413817 -121.55909675097048
v -101.78693276993053 830.0083411748265 -122.66580600000003
v -22.256200000000035 913.4398935473205 -121.89038760476748
v -107.99773900000004 879.6210111085119 -122.18432020752736
v -107.99773900000004 898.8451407925254 -122.16967259605498
v -103.26427621845704 849.8224577598166 -122.66580600000003
v -101.86440608919258 832.5058229778654 -122.66580600000003
v -102.15475066995242 829.672278 -122.5934618523687
v -105.36493653649117 911.015950278711 -122.66580600000003
v -30.551575057477237 915.413817 -122.66580600000003
v -104.29685146167616 875.6558348720299 -122.66580600000003
v -104.72218448968589 829.672278 -122.30123714477396
v -107.99773900000004 869.533959862037 -122.17304127328207
v -28.270569309045264 913.6006209945452 -122.66580600000003
v -106.3329868917078 829.672278 -122.14029461429833
v -105.43059681791856 912.0697330089462 -122.66580600000003
v -107.99773900000004 883.9902451417523 -122.18838703693517
v -104.9345283468206 904.9551153895945 -122.66580600000003
v -104.71864062694993 880.385821467421 -122.66580600000003
v -107.99773900000004 907.8783998551494 -122.19969312934303
v -107.99773900000004 915.413817 -122.14258740268697
v -103.30541836160955 853.292666026347 -122.66580600000003
v -107.99773900000004 829.672278 -122.17338154881334
v -107.99773900000004 847.4310908412768 -122.08541271707165
v -106.81880077501704 829.672278 -122.14693560470559
v -22.256200000000035 913.4398935473205 -121.89038760476748
v -23.756961877320855 909.2981497400023 -122.66580600000003
v -22.256200000000035 908.160786369569 -122.66580600000003
v -28.270569309045264 913.6006209945452 -122.66580600000003
v -22.256200000000035 910.1981691895143 -122.34149237708431
vt 0.8382089212204971 0.9804687499999999
vt 0.7999442827905622 0.936458890363482
vt 0.7367320682587938 0.9680237641286914
vt 0.6949430927600098 0.9459441482737792
vt 0.6057273829126141 0.7943317047776584
vt 0.022975485488888746 0.12381855952334175
vt 0.8714222103185767 0.9278228104775486
vt 0.48689315450112963 0.6417169491367103
vt 0.062253314574789484 0.09191658000185143
vt 0.46923473430210216 0.6835344252198883
vt 0.6057273829126141 0.7943317047776607
vt 0.18970880009427987 0.31448637263972345
vt 0.11128751761098804 0.12650659919792817
vt 0.4736345049001342 0.624326679111197
vt 0.1831674021195036 0.3241263275499211
vt 0.022975485488888746 0.1238185595233442
vt 0.021909480538053267 0.13013876794806034
vt 0.2703464254722724 0.3497653337425931
vt 0.062253314574791836 0.09191658000185376
vt 0.059818359686877966 0.09387879924937648
vt 0.20938897050303393 0.26433594749052236
vt 0.11128751761098568 0.12650659919792817
vt 0.060856279511271094 0.0930550065270459
vt 0.07826866961027021 0.07967209365379069
vt 0.45322807041192126 0.5968404517337094
vt 0.033293840353097584 0.14495270324971177
vt 0.7851562499999991 0.9191861229178857
vt 0.9023437499999991 0.9289015023631662
vt 0.08510568527992367 0.08965560857397015
vt 0.019531249999999167 0.12662086023520458
vt 0.46923473430210455 0.6835344252198906
vt 0.04706303872916788 0.10417528332920634
vt 0.20938897050303393 0.26433594749052003
vt 0.7460937499999992 0.9603359465758279
vt 0.06685856730162391 0.08835224300409006
vt 0.5408775203836129 0.773515699521437
vt 0.4736345049001318 0.6243266791111945
vt 0.6949430927600098 0.9459441482737838
vt 0.060856279511268735 0.09305500652704357
vt 0.42967196346908454 0.6291293295121025
vt 0.530836794845616 0.6978573538145882
vt 0.530836794845616 0.6978573538145858
vt 0.6852632825185172 0.9358534274402386
vt 0.8714222103185786 0.9278228104775486
vt 0.06685856730162391 0.0883522430040925
vt 0.6852632825185148 0.9358534274402363
vt 0.1831674021195036 0.32412632754991866
vt 0.4675043494015369 0.6368140329046321
vt 0.6814133438049699 0.8847891662753594
vt 0.6814133438049675 0.8847891662753594
vt 0.4868931545011367 0.641716949136715
vt 0.210212044832914 0.359993574376692
vt 0.04111641875549688 0.15532571897539005
vt 0.6316596881338818 0.8781039889445251
vt 0.03066554667409326 0.1342373520968455
vt 0.8237450107937115 0.9638579031416896
vt 0.2703464254722771 0.3497653337425979
vt 0.3895497728020082 0.5839781532093955
vt 0.8237450107937174 0.9638579031416877
vt 0.3895497728020106 0.5839781532093955
vt 0.7226959795114113 0.9804687499999997
vt 0.7071295178879489 0.9379359260468495
vt 0.059818359686875607 0.09387879924937415
vt 0.04706303872917023 0.10417528332920867
vt 0.3763677126274679 0.49297187124917563
vt 0.45322807041192364 0.5968404517337118
vt 0.08510568527992367 0.08965560857396782
vt 0.8049387459596405 0.9195211457031308
vt 0.7367320682587915 0.9680237641286914
vt 0.7999442827905622 0.9364588903634838
vt 0.5408775203836153 0.773515699521437
vn -0.108 -0.0071 -0.9941
vn -0.0956 -0.0019 -0.9954
vn -0.2141 -0.0075 -0.9768
vn 0.0224 0.0237 -0.9995
vn -0.0961 0.007 -0.9953
vn -0.1959 0.0033 -0.9806
vn -0.1535 -0.0033 -0.9881
vn -0.1048 -0.0011 -0.9945
vn -0.1131 0.0056 -0.9936
vn -0.1519 -0.0021 -0.9884
vn 0.1305 0.1641 -0.9778
vn -0.1799 -0.016 -0.9836
vn -0.1559 -0.0069 -0.9878
vn -0.0868 0.015 -0.9961
vn -0.1883 0.0074 -0.9821
vn -0.1591 0.0041 -0.9873
vn -0.1726 -0.014 -0.9849
vn -0.0177 0.0014 -0.9998
vn 0.0137 0.013 -0.9998
vn -0.1925 0.0071 -0.9813
vn -0.1964 -0.0139 -0.9804
vn -0.1948 -0.0121 -0.9808
vn -0.2186 -0.0055 -0.9758
vn -0.0764 -0.0111 -0.997
vn -0.1761 -0.0021 -0.9844
vn -0.1044 -0.0074 -0.9945
vn 0.1303 0.1366 -0.982
vn 0.1183 0.1561 -0.9806
usemtl 4634afb6-54ec-4bad-b0df-5136e27847d1
g 091_W_Aya_100K_01
f 1/71/10 3/48/10 2/42/10
usemtl 4634afb6-54ec-4bad-b0df-5136e27847d1
g 091_W_Aya_100K_01
f 4/12/26 11/39/26 41/21/26
usemtl 4634afb6-54ec-4bad-b0df-5136e27847d1
g 091_W_Aya_100K_01
f 38/34/15 9/69/15 8/62/15
usemtl 4634afb6-54ec-4bad-b0df-5136e27847d1
g 091_W_Aya_100K_01
f 11/23/18 7/13/18 41/33/18
usemtl 4634afb6-54ec-4bad-b0df-5136e27847d1
g 091_W_Aya_100K_01
f 4/12/26 10/20/26 11/39/26
usemtl 4634afb6-54ec-4bad-b0df-5136e27847d1
g 091_W_Aya_100K_01
f 6/55/1 10/63/1 4/12/1
usemtl 4634afb6-54ec-4bad-b0df-5136e27847d1
g 091_W_Aya_100K_01
f 21/66/24 14/37/24 3/48/24
usemtl 4634afb6-54ec-4bad-b0df-5136e27847d1
g 091_W_Aya_100K_01
f 28/58/12 3/48/12 36/40/12
usemtl 4634afb6-54ec-4bad-b0df-5136e27847d1
g 091_W_Aya_100K_01
f 19/17/3 6/55/3 12/26/3
usemtl 4634afb6-54ec-4bad-b0df-5136e27847d1
g 091_W_Aya_100K_01
f 35/54/7 1/36/7 22/11/7
usemtl 4634afb6-54ec-4bad-b0df-5136e27847d1
g 091_W_Aya_100K_01
f 28/60/13 39/52/13 4/12/13
usemtl 4634afb6-54ec-4bad-b0df-5136e27847d1
g 091_W_Aya_100K_01
f 26/46/22 8/62/22 33/4/22
usemtl 4634afb6-54ec-4bad-b0df-5136e27847d1
g 091_W_Aya_100K_01
f 40/24/4 15/29/4 42/45/4
usemtl 4634afb6-54ec-4bad-b0df-5136e27847d1
g 091_W_Aya_100K_01
f 26/43/21 35/54/21 8/62/21
usemtl 4634afb6-54ec-4bad-b0df-5136e27847d1
g 091_W_Aya_100K_01
f 12/26/23 6/55/23 24/53/23
usemtl 4634afb6-54ec-4bad-b0df-5136e27847d1
g 091_W_Aya_100K_01
f 1/71/10 2/42/10 22/5/10
usemtl 4634afb6-54ec-4bad-b0df-5136e27847d1
g 091_W_Aya_100K_01
f 6/55/17 4/12/17 23/47/17
usemtl 4634afb6-54ec-4bad-b0df-5136e27847d1
g 091_W_Aya_100K_01
f 36/40/16 3/48/16 16/10/16
usemtl 4634afb6-54ec-4bad-b0df-5136e27847d1
g 091_W_Aya_100K_01
f 3/48/14 14/14/14 34/8/14
usemtl 4634afb6-54ec-4bad-b0df-5136e27847d1
g 091_W_Aya_100K_01
f 27/28/11 18/1/11 20/59/11
usemtl 4634afb6-54ec-4bad-b0df-5136e27847d1
g 091_W_Aya_100K_01
f 6/55/1 29/64/1 10/63/1
usemtl 4634afb6-54ec-4bad-b0df-5136e27847d1
g 091_W_Aya_100K_01
f 32/9/19 42/35/19 15/67/19
usemtl 4634afb6-54ec-4bad-b0df-5136e27847d1
g 091_W_Aya_100K_01
f 28/60/13 4/12/13 3/48/13
usemtl 4634afb6-54ec-4bad-b0df-5136e27847d1
g 091_W_Aya_100K_01
f 4/12/2 30/65/2 3/48/2
usemtl 4634afb6-54ec-4bad-b0df-5136e27847d1
g 091_W_Aya_100K_01
f 6/55/17 23/47/17 24/53/17
usemtl 4634afb6-54ec-4bad-b0df-5136e27847d1
g 091_W_Aya_100K_01
f 38/34/15 8/62/15 37/49/15
usemtl 4634afb6-54ec-4bad-b0df-5136e27847d1
g 091_W_Aya_100K_01
f 25/6/9 29/32/9 6/55/9
usemtl 4634afb6-54ec-4bad-b0df-5136e27847d1
g 091_W_Aya_100K_01
f 35/54/7 37/50/7 8/62/7
usemtl 4634afb6-54ec-4bad-b0df-5136e27847d1
g 091_W_Aya_100K_01
f 19/17/6 25/16/6 6/55/6
usemtl 4634afb6-54ec-4bad-b0df-5136e27847d1
g 091_W_Aya_100K_01
f 30/65/8 21/25/8 3/48/8
usemtl 4634afb6-54ec-4bad-b0df-5136e27847d1
g 091_W_Aya_100K_01
f 1/71/10 16/31/10 3/48/10
usemtl 4634afb6-54ec-4bad-b0df-5136e27847d1
g 091_W_Aya_100K_01
f 4/12/2 17/57/2 30/65/2
usemtl 4634afb6-54ec-4bad-b0df-5136e27847d1
g 091_W_Aya_100K_01
f 19/17/6 13/30/6 25/16/6
usemtl 4634afb6-54ec-4bad-b0df-5136e27847d1
g 091_W_Aya_100K_01
f 23/15/25 4/12/25 39/52/25
usemtl 4634afb6-54ec-4bad-b0df-5136e27847d1
g 091_W_Aya_100K_01
f 35/54/7 22/11/7 37/50/7
usemtl 4634afb6-54ec-4bad-b0df-5136e27847d1
g 091_W_Aya_100K_01
f 27/28/11 20/59/11 31/44/11
usemtl 4634afb6-54ec-4bad-b0df-5136e27847d1
g 091_W_Aya_100K_01
f 32/9/19 15/67/19 7/22/19
usemtl 4634afb6-54ec-4bad-b0df-5136e27847d1
g 091_W_Aya_100K_01
f 11/23/18 32/19/18 7/13/18
usemtl 4634afb6-54ec-4bad-b0df-5136e27847d1
g 091_W_Aya_100K_01
f 4/12/26 41/21/26 17/18/26
usemtl 4634afb6-54ec-4bad-b0df-5136e27847d1
g 091_W_Aya_100K_01
f 33/38/20 9/3/20 5/61/20
usemtl 4634afb6-54ec-4bad-b0df-5136e27847d1
g 091_W_Aya_100K_01
f 33/38/20 8/62/20 9/3/20
usemtl 4634afb6-54ec-4bad-b0df-5136e27847d1
g 091_W_Aya_100K_01
f 3/48/5 34/51/5 2/41/5
usemtl 4634afb6-54ec-4bad-b0df-5136e27847d1
g 091_W_Aya_100K_01
f 43/56/27 44/68/27 46/7/27
usemtl 4634afb6-54ec-4bad-b0df-5136e27847d1
g 091_W_Aya_100K_01
f 43/56/27 47/70/27 44/68/27
usemtl 4634afb6-54ec-4bad-b0df-5136e27847d1
g 091_W_Aya_100K_01
f 45/27/28 44/68/28 47/2/28
