mtllib 13.mtl
v -167.4918785132201 395.6266397050002 -36.92426700000003
v -167.62000924217566 395.77637353905817 -36.92426700000003
v -158.6223070822549 400.964583 -49.07076673066369
v -169.17785499886952 398.25369953344057 -36.92426700000003
v -158.5933 400.5768 -48.6363
v -161.59307142139207 391.6753335494559 -36.92426700000003
v -169.147864265328 400.964583 -40.65044507209062
v -158.76144890598144 400.964583 -49.122313657958074
v -163.4864093386967 392.1461545214329 -36.92426700000003
v -155.65661375135164 394.83468724445305 -36.92426700000003
v -157.0537 399.4536 -45.806
v -164.819613224562 400.964583 -47.88004375527487
v -163.91126758731923 392.3195170564271 -36.92426700000003
v -164.43483275244301 392.7051322448112 -36.92426700000003
v -156.907342736828 400.964583 -47.13075976588939
v -153.23212666118843 400.964583 -36.92426700000003
v -161.8191 396.5927 -44.4332
v -154.44922713627838 396.7859153156962 -36.92426700000003
v -153.47527952514056 399.3994148803849 -36.92426700000003
v -153.3233852775957 400.964583 -37.26020642721489
v -157.33770179429874 393.1601671969555 -36.92426700000003
v -159.2588 395.5144 -42.5704
v -153.43938270812194 399.5336175327112 -36.92426700000003
v -160.87830864465812 400.964583 -49.60339694220086
v -155.64820723698196 400.964583 -44.93038066366971
v -156.49302145361193 400.964583 -46.662506625245996
v -157.1651355173309 400.964583 -47.49530635548395
v -159.19649438471532 392.00922165218896 -36.92426700000003
v -164.4330603279781 400.964583 -48.29694386302078
v -167.32664031061194 400.964583 -44.5579543285954
v -163.13881705553024 400.964583 -49.08118770959304
v -161.51496680629387 391.67974960666794 -36.92426700000003
v -159.6768 398.2222 -46.4353
v -153.53934585448258 400.964583 -38.29577251609496
v -154.24588257744415 397.2249887095112 -36.92426700000003
v -168.7152585414222 400.964583 -41.57975142145947
v -153.65147934645293 400.964583 -39.02094972243019
v -160.10563604112872 400.964583 -49.601388904832184
v -158.53944282228872 400.964583 -48.98072556634069
v -154.7401677620433 400.964583 -42.61086155912397
v -154.78954632439056 396.26035979459147 -36.92426700000003
v -154.12087161402013 400.964583 -40.67541621569611
v -153.42893285435574 399.6669970637154 -36.92426700000003
v -170.41351245407685 400.964583 -36.92426700000003
v -163.7048 397.3188 -44.3697
v -162.20827587103832 400.964583 -49.547685921848085
v -167.71730076288156 395.93093003905466 -36.92426700000003
v -157.40854662963153 393.10466433307664 -36.92426700000003
v -166.57605557845383 400.964583 -45.768535358540895
v -165.5449 397.1502 -42.1672
v -153.3492477962982 400.25580649669485 -36.92426700000003
v -165.76001461921237 393.534326225575 -36.92426700000003
vt 0.5470220962470561 0.9218749999999976
vt 0.35130536073236407 0.39773778855376773
vt 0.6422616162132176 0.8801836588922114
vt 0.5041460727743865 0.3659992744608904
vt 0.6909228526214652 0.8356617172841063
vt 0.31835199066770853 0.8374976058521807
vt 0.24814928744760176 0.7855436551483225
vt 0.11136892727901429 0.6078645700776057
vt 0.4930276087379519 0.9193219500385109
vt 0.6171424453790123 0.9022134161297888
vt 0.837953450641872 0.5823521827272837
vt 0.10525385663152033 0.6150303837391577
vt 0.48718602383347576 0.9193833230393219
vt 0.29207053198695027 0.4335880547094656
vt 0.6492493290047662 0.5902509670968832
vt 0.43560108104560397 0.3701744401824929
vt 0.5422076228640422 0.3679335774199939
vt 0.10838330818472745 0.611523919018703
vt 0.17177622120843994 0.5409373281090138
vt 0.5909103118347172 0.6719255911349491
vt 0.5041460727743994 0.3659992744609033
vt 0.1717762212084464 0.5409373281090203
vt 0.7439325227759772 0.7577673868459456
vt 0.1171571568879538 0.682199006614753
vt 0.5960613000483929 0.3746994813263267
vt 0.5422076228640454 0.36793357742000043
vt 0.13954859530947944 0.6996771597430045
vt 0.6872939096252384 0.3945931239058885
vt 0.6938297202975005 0.3963848474132988
vt 0.29207053198695676 0.4335880547094656
vt 0.678056359960095 0.8508043214975699
vt 0.3183519906676923 0.8374976058521743
vt 0.24814928744760498 0.785543655148329
vt 0.43560108104560075 0.3701744401824929
vt 0.642261616213221 0.8801836588922114
vt 0.22755276899890256 0.48450178213375406
vt 0.7946886158490688 0.4265987774731984
vt 0.4930276087379486 0.9193219500385109
vt 0.18926120651087255 0.7384486852604231
vt 0.3867237517395458 0.8119392323430641
vt 0.0883750273050596 0.6551861766633631
vt 0.18575390591457214 0.5254503031883142
vt 0.10525385663151385 0.6150303837391577
vt 0.07812499999999925 0.6477005575385053
vt 0.8212112935124776 0.6128710177646133
vt 0.6872939096252352 0.3945931239058821
vt 0.4330310570991942 0.3709167386025727
vt 0.8906249999999993 0.4612106309959796
vt 0.48718602383347254 0.9193833230393219
vt 0.7680722425754481 0.716799943560243
vt 0.5738055363812941 0.9146279069370359
vt 0.693829720297494 0.3963848474132923
vt 0.37410802120455205 0.8750178850180489
vt 0.4823776688287095 0.9179396750348549
vt 0.4121486602338768 0.8904248194342672
vt 0.6909228526214685 0.8356617172841063
vt 0.22755276899890578 0.4845017821337475
vt 0.433031057099191 0.3709167386025727
vt 0.48237766882871597 0.9179396750348549
vt 0.4121486602338801 0.8904248194342672
vt 0.09335783418301677 0.6292755808979844
vt 0.4800661792116235 0.8994477580981408
vt 0.5960613000483961 0.37469948132633313
vt 0.48590008092862774 0.7827697237580429
vt 0.16171658045252607 0.553255755099069
vt 0.5187568644566601 0.3652734397782116
vt 0.8379534506418753 0.5823521827272902
vt 0.6780563599600983 0.8508043214975763
vt 0.7000989491764631 0.39799427781362373
vt 0.8212112935124776 0.6128710177646197
vt 0.16171658045252932 0.553255755099069
vt 0.5738055363812941 0.9146279069370424
vt 0.13954859530947297 0.6996771597429916
vt 0.5470220962470593 0.9218749999999976
vt 0.3961635957297643 0.8839180427684775
vt 0.6171424453790123 0.9022134161297953
vt 0.7000989491764599 0.39799427781362373
vt 0.1083833081847242 0.6115239190186901
vt 0.3741080212045359 0.8750178850180423
vt 0.4217271620415745 0.6252543773989152
vt 0.2896991033011663 0.4352553031117026
vt 0.526737392947664 0.6777594928519535
vt 0.7439325227759772 0.757767386845952
vt 0.2896991033011631 0.4352553031117026
vn 0.953 -0.1575 -0.2589
vn -0.4536 -0.7249 -0.5185
vn 0.4601 -0.703 -0.5423
vn -0.0272 -0.7609 -0.6483
vn 0.0017 -0.7558 -0.6548
vn 0.792 -0.4817 -0.3751
vn 0.461 -0.7099 -0.5325
vn -0.7872 -0.4955 -0.3671
vn 0.1198 -0.8429 -0.5246
vn -0.6873 -0.5882 -0.4262
vn -0.5508 -0.6602 -0.5107
vn 0.8551 -0.396 -0.3347
vn 0.4606 -0.7518 -0.4718
vn 0.0781 -0.8125 -0.5777
vn 0.9024 -0.3198 -0.2888
vn -0.5181 -0.7034 -0.4867
vn -0.6968 -0.5768 -0.4264
vn 0.9317 -0.2492 -0.2643
vn 0.6269 -0.5471 -0.5547
vn 0.2333 -0.7192 -0.6545
vn -0.5969 -0.6302 -0.4965
vn 0.7768 -0.503 -0.3789
vn 0.0472 -0.835 -0.5482
vn 0.9705 -0.1313 -0.2024
vn -0.8694 -0.3963 -0.2953
vn 0.2427 -0.7157 -0.655
vn 0.5431 -0.6932 -0.4738
vn -0.3036 -0.7355 -0.6056
vn -0.7876 -0.4952 -0.3666
vn -0.3193 -0.7826 -0.5344
vn 0.5999 -0.5763 -0.555
vn -0.3619 -0.7157 -0.5973
vn 0.6018 -0.5754 -0.5538
vn 0.7046 -0.5052 -0.4983
vn 0.9853 -0.0772 -0.1524
vn 0.6364 -0.6389 -0.4323
vn -0.2043 -0.8217 -0.532
usemtl e53d0b4c-3972-4c48-8a97-9614a48a6b63
g 091_W_Aya_100K_01
f 52/25/17 1/46/17 50/15/17
usemtl e53d0b4c-3972-4c48-8a97-9614a48a6b63
g 091_W_Aya_100K_01
f 9/21/30 45/20/30 17/82/30
usemtl e53d0b4c-3972-4c48-8a97-9614a48a6b63
g 091_W_Aya_100K_01
f 39/54/33 5/62/33 3/49/33
usemtl e53d0b4c-3972-4c48-8a97-9614a48a6b63
g 091_W_Aya_100K_01
f 10/36/6 11/40/6 41/42/6
usemtl e53d0b4c-3972-4c48-8a97-9614a48a6b63
g 091_W_Aya_100K_01
f 9/21/30 13/66/30 45/20/30
usemtl e53d0b4c-3972-4c48-8a97-9614a48a6b63
g 091_W_Aya_100K_01
f 44/48/25 7/67/25 4/37/25
usemtl e53d0b4c-3972-4c48-8a97-9614a48a6b63
g 091_W_Aya_100K_01
f 34/24/24 51/61/24 43/43/24
usemtl e53d0b4c-3972-4c48-8a97-9614a48a6b63
g 091_W_Aya_100K_01
f 7/11/29 47/69/29 4/37/29
usemtl e53d0b4c-3972-4c48-8a97-9614a48a6b63
g 091_W_Aya_100K_01
f 11/40/22 25/6/22 18/22/22
usemtl e53d0b4c-3972-4c48-8a97-9614a48a6b63
g 091_W_Aya_100K_01
f 22/80/3 33/64/3 11/40/3
usemtl e53d0b4c-3972-4c48-8a97-9614a48a6b63
g 091_W_Aya_100K_01
f 28/2/9 32/58/9 22/80/9
usemtl e53d0b4c-3972-4c48-8a97-9614a48a6b63
g 091_W_Aya_100K_01
f 22/80/14 17/82/14 33/64/14
usemtl e53d0b4c-3972-4c48-8a97-9614a48a6b63
g 091_W_Aya_100K_01
f 11/40/22 18/22/22 41/42/22
usemtl e53d0b4c-3972-4c48-8a97-9614a48a6b63
g 091_W_Aya_100K_01
f 30/50/8 47/77/8 36/45/8
usemtl e53d0b4c-3972-4c48-8a97-9614a48a6b63
g 091_W_Aya_100K_01
f 48/30/13 28/2/13 22/80/13
usemtl e53d0b4c-3972-4c48-8a97-9614a48a6b63
g 091_W_Aya_100K_01
f 22/80/23 6/34/23 17/82/23
usemtl e53d0b4c-3972-4c48-8a97-9614a48a6b63
g 091_W_Aya_100K_01
f 12/56/21 50/15/21 49/83/21
usemtl e53d0b4c-3972-4c48-8a97-9614a48a6b63
g 091_W_Aya_100K_01
f 33/64/20 38/74/20 8/9/20
usemtl e53d0b4c-3972-4c48-8a97-9614a48a6b63
g 091_W_Aya_100K_01
f 17/82/37 6/16/37 9/4/37
usemtl e53d0b4c-3972-4c48-8a97-9614a48a6b63
g 091_W_Aya_100K_01
f 21/84/27 48/14/27 22/80/27
usemtl e53d0b4c-3972-4c48-8a97-9614a48a6b63
g 091_W_Aya_100K_01
f 20/41/1 16/44/1 51/61/1
usemtl e53d0b4c-3972-4c48-8a97-9614a48a6b63
g 091_W_Aya_100K_01
f 50/15/10 1/28/10 2/52/10
usemtl e53d0b4c-3972-4c48-8a97-9614a48a6b63
g 091_W_Aya_100K_01
f 45/20/11 50/15/11 12/5/11
usemtl e53d0b4c-3972-4c48-8a97-9614a48a6b63
g 091_W_Aya_100K_01
f 13/66/16 14/17/16 50/15/16
usemtl e53d0b4c-3972-4c48-8a97-9614a48a6b63
g 091_W_Aya_100K_01
f 26/53/19 11/40/19 15/75/19
usemtl e53d0b4c-3972-4c48-8a97-9614a48a6b63
g 091_W_Aya_100K_01
f 11/40/31 39/59/31 27/55/31
usemtl e53d0b4c-3972-4c48-8a97-9614a48a6b63
g 091_W_Aya_100K_01
f 11/40/34 27/60/34 15/75/34
usemtl e53d0b4c-3972-4c48-8a97-9614a48a6b63
g 091_W_Aya_100K_01
f 40/7/15 19/8/15 35/71/15
usemtl e53d0b4c-3972-4c48-8a97-9614a48a6b63
g 091_W_Aya_100K_01
f 11/40/7 33/64/7 5/62/7
usemtl e53d0b4c-3972-4c48-8a97-9614a48a6b63
g 091_W_Aya_100K_01
f 35/65/12 18/19/12 25/32/12
usemtl e53d0b4c-3972-4c48-8a97-9614a48a6b63
g 091_W_Aya_100K_01
f 45/20/11 12/5/11 29/31/11
usemtl e53d0b4c-3972-4c48-8a97-9614a48a6b63
g 091_W_Aya_100K_01
f 33/64/5 24/51/5 38/1/5
usemtl e53d0b4c-3972-4c48-8a97-9614a48a6b63
g 091_W_Aya_100K_01
f 35/65/12 25/32/12 40/33/12
usemtl e53d0b4c-3972-4c48-8a97-9614a48a6b63
g 091_W_Aya_100K_01
f 50/15/10 30/50/10 49/23/10
usemtl e53d0b4c-3972-4c48-8a97-9614a48a6b63
g 091_W_Aya_100K_01
f 11/40/31 5/62/31 39/59/31
usemtl e53d0b4c-3972-4c48-8a97-9614a48a6b63
g 091_W_Aya_100K_01
f 23/18/18 19/8/18 42/39/18
usemtl e53d0b4c-3972-4c48-8a97-9614a48a6b63
g 091_W_Aya_100K_01
f 43/12/35 37/73/35 34/24/35
usemtl e53d0b4c-3972-4c48-8a97-9614a48a6b63
g 091_W_Aya_100K_01
f 31/35/32 45/20/32 29/68/32
usemtl e53d0b4c-3972-4c48-8a97-9614a48a6b63
g 091_W_Aya_100K_01
f 52/63/2 50/15/2 14/26/2
usemtl e53d0b4c-3972-4c48-8a97-9614a48a6b63
g 091_W_Aya_100K_01
f 22/80/23 32/47/23 6/34/23
usemtl e53d0b4c-3972-4c48-8a97-9614a48a6b63
g 091_W_Aya_100K_01
f 7/11/29 36/70/29 47/69/29
usemtl e53d0b4c-3972-4c48-8a97-9614a48a6b63
g 091_W_Aya_100K_01
f 30/50/8 2/29/8 47/77/8
usemtl e53d0b4c-3972-4c48-8a97-9614a48a6b63
g 091_W_Aya_100K_01
f 40/7/15 42/39/15 19/8/15
usemtl e53d0b4c-3972-4c48-8a97-9614a48a6b63
g 091_W_Aya_100K_01
f 50/15/10 2/52/10 30/50/10
usemtl e53d0b4c-3972-4c48-8a97-9614a48a6b63
g 091_W_Aya_100K_01
f 17/82/4 24/72/4 33/64/4
usemtl e53d0b4c-3972-4c48-8a97-9614a48a6b63
g 091_W_Aya_100K_01
f 33/64/20 8/9/20 5/62/20
usemtl e53d0b4c-3972-4c48-8a97-9614a48a6b63
g 091_W_Aya_100K_01
f 34/24/24 20/41/24 51/61/24
usemtl e53d0b4c-3972-4c48-8a97-9614a48a6b63
g 091_W_Aya_100K_01
f 5/62/26 8/38/26 3/13/26
usemtl e53d0b4c-3972-4c48-8a97-9614a48a6b63
g 091_W_Aya_100K_01
f 17/82/4 46/10/4 24/72/4
usemtl e53d0b4c-3972-4c48-8a97-9614a48a6b63
g 091_W_Aya_100K_01
f 11/40/22 26/79/22 25/6/22
usemtl e53d0b4c-3972-4c48-8a97-9614a48a6b63
g 091_W_Aya_100K_01
f 21/84/27 22/80/27 11/40/27
usemtl e53d0b4c-3972-4c48-8a97-9614a48a6b63
g 091_W_Aya_100K_01
f 45/20/28 46/76/28 17/82/28
usemtl e53d0b4c-3972-4c48-8a97-9614a48a6b63
g 091_W_Aya_100K_01
f 13/66/16 50/15/16 45/20/16
usemtl e53d0b4c-3972-4c48-8a97-9614a48a6b63
g 091_W_Aya_100K_01
f 11/40/36 10/57/36 21/81/36
usemtl e53d0b4c-3972-4c48-8a97-9614a48a6b63
g 091_W_Aya_100K_01
f 23/18/18 42/39/18 37/27/18
usemtl e53d0b4c-3972-4c48-8a97-9614a48a6b63
g 091_W_Aya_100K_01
f 43/12/35 23/78/35 37/73/35
usemtl e53d0b4c-3972-4c48-8a97-9614a48a6b63
g 091_W_Aya_100K_01
f 45/20/28 31/3/28 46/76/28
