mtllib 246.mtl
v 37.66794077160414 661.6729386661546 -122.66580600000003
v 49.271161186133924 658.1892 -115.49840822776
v 42.068832732454965 658.1892 -120.18510596544739
v 54.21835306573614 658.1892 -112.57178298402653
v 39.43514142653606 658.1892 -121.90930943665046
v 44.4956 671.2039 -117.0841
v 61.91610789240784 658.1892 -108.69164574519843
v 48.1879 664.4202 -115.4629
v 57.65086361896789 658.1892 -110.6747399091072
v 59.4944 668.5708 -108.9199
v 40.83023874424175 658.1892 -120.99402996326886
v 37.10960048214573 664.8402272960703 -122.66580600000003
v 30.7168 705.8697 -122.3539
v 31.2449 717.3513 -121.629
v 29.4988576183936 712.568333297462 -122.66580600000003
v 28.043481512302172 724.9135644751316 -122.66580600000003
v 26.357117984426253 743.930739 -122.66580600000003
v 27.021186380665906 734.6948616068461 -122.66580600000003
v 30.332913882556998 705.056603464982 -122.66580600000003
v 27.730679753499675 743.930739 -122.20419286698359
v 30.039083135516577 707.2453622055338 -122.66580600000003
v 26.598856609433877 740.8107004449498 -122.66580600000003
v 56.8708 715.1866 -109.1592
v 63.48533899999997 736.4568932055329 -104.47025306970039
v 63.48533899999997 673.2037459457833 -106.9894092844817
v 45.9575 702.3786 -114.8133
v 49.0107 692.0096 -113.6732
v 37.66794077160414 661.6729386661546 -122.66580600000003
v 31.2449 717.3513 -121.629
v 36.5724654269677 667.3480614721248 -122.66580600000003
v 35.2505 687.9268 -121.1456
v 56.74784492490194 658.1892 -111.14091214962211
v 63.48533899999997 666.6196881379108 -107.2414101024849
v 63.48533899999997 743.930739 -104.19995266132563
v 45.0454 733.402 -115.4366
v 55.85449619232182 743.930739 -108.74383703667154
v 45.027326226346354 743.930739 -115.2490046009863
v 38.15246371676608 743.930739 -118.44140794189391
v 41.4904 734.1166 -117.1331
v 63.48533899999997 717.4834652802962 -105.1426988162079
v 63.48533899999997 721.9533785556266 -104.87626593329925
v 40.7106 681.2584 -118.355
v 63.48533899999997 697.3506370109102 -106.82197455957025
v 55.0278 694.4332 -110.8251
v 33.74122865452008 683.201680479356 -122.66580600000003
v 62.2332 723.7155 -105.5831
v 63.48533899999997 705.0980464826614 -106.50395774423482
v 51.13828740920124 743.930739 -111.73615125130169
v 43.0423458735642 743.930739 -116.32149988320543
v 26.598856609433877 740.8107004449498 -122.66580600000003
v 53.6099 720.8082 -110.7894
v 42.068832732454965 658.1892 -120.18510596544739
v 34.52762692967366 677.9160448402097 -122.66580600000003
v 50.3613 733.871 -112.5556
v 63.061 735.5686 -104.7974
v 57.0723 730.9966 -108.5376
v 63.48533899999997 703.0523040533786 -106.62643354296291
v 38.33617250833804 658.1892 -122.66580600000003
v 30.7168 705.8697 -122.3539
v 63.48533899999997 674.6049030754 -106.95112644038115
v 41.767031238695175 743.930739 -116.93189654465712
v 63.48533899999997 693.8938960137098 -106.8913658922207
v 54.21835306573614 658.1892 -112.57178298402653
v 52.491 711.2908 -111.5816
v 63.04007428729746 743.930739 -104.50952198096361
v 63.48533899999997 712.3595589662202 -105.72806590051863
v 47.7675 716.5797 -113.8043
v 36.1641 726.5292 -119.3273
v 37.2069 677.692 -120.8476
v 61.9983 717.0753 -106.1312
v 63.48533899999997 677.9256850327394 -106.98217678782801
v 26.69867621156454 738.1447222092863 -122.66580600000003
v 63.48533899999997 658.1892 -107.96575107648438
v 62.6943 704.8954 -107.0081
v 29.4988576183936 712.568333297462 -122.66580600000003
v 63.48533899999997 685.7497101326304 -106.94602353040933
v 28.043481512302172 724.9135644751316 -122.66580600000003
v 39.43514142653606 658.1892 -121.90930943665046
v 37.54372554199862 743.930739 -118.6882067202249
v 44.4956 671.2039 -117.0841
v 48.2543 684.0065 -114.1512
v 63.48533899999997 733.8840988524031 -104.5401740812391
v 47.0457 676.7599 -115.1282
v 63.48533899999997 724.2204425932698 -104.72139544555172
v 32.179564147727795 692.2713485115291 -122.66580600000003
v 49.218600099123606 743.930739 -112.91353090898733
v 61.3927 687.395 -107.9762
v 61.91610789240784 658.1892 -108.69164574519843
v 27.021186380665906 734.6948616068461 -122.66580600000003
v 63.48533899999997 698.8095244716158 -106.81964358078604
v 30.332913882556998 705.056603464982 -122.66580600000003
v 27.730679753499675 743.930739 -122.20419286698359
v 61.96386989913776 743.930739 -105.15214485850606
v 48.1879 664.4202 -115.4629
v 57.65086361896789 658.1892 -110.6747399091072
v 59.4944 668.5708 -108.9199
v 56.9272 678.0567 -109.8211
v 62.5055 699.4149 -107.3688
v 32.08839259588198 743.930739 -120.59318284897495
v 40.5979 689.1058 -117.9578
v 55.049 671.9172 -110.9559
v 35.5658 704.5417 -119.8275
v 28.963113438277013 718.8622344986678 -122.66580600000003
v 38.7242 715.7199 -118.1906
v 40.83023874424175 658.1892 -120.99402996326886
v 37.10960048214573 664.8402272960703 -122.66580600000003
vt 0.30165759316277146 0.09199282994188174
vt 0.8457438956409973 0.6425601077557457
vt 0.3752646491898321 0.7558129749314522
vt 0.2779449319647311 0.5888299151453068
vt 0.019531249999999632 0.23673684610433232
vt 0.23963057401123866 0.05137275413601916
vt 0.41548196234282114 0.8145661034904603
vt 0.5109382114096221 0.29442784942920364
vt 0.8457438956409973 0.6425601077557477
vt 0.7511937078219315 0.8021557982385699
vt 0.22627042141669385 0.0625781433120357
vt 0.4252262608523539 0.6822278310252625
vt 0.17556644725016415 0.2960633711369832
vt 0.7885867427572075 0.7700884603004367
vt 0.7207614806446484 0.8279763325727207
vt 0.8367676883742531 0.730182013060652
vt 0.18461751526161216 0.4780036078103518
vt 0.6533327092514772 0.7414995853336956
vt 0.06825134934275742 0.3126631620940029
vt 0.41265346448389867 0.33378176024234996
vt 0.30847886600240865 0.6373249868522077
vt 0.18461751526161216 0.4780036078103538
vt 0.22627042141668588 0.06257814331202971
vt 0.6730899606876226 0.5026164543330391
vt 0.40235493119465704 0.1872525266283196
vt 0.115611955302652 0.38185227782443054
vt 0.30213101278903876 0.6456260256696883
vt 0.6053660492698214 0.39168118337834346
vt 0.14730497345386137 0.13025854068457865
vt 0.6594086211415444 0.44854752798136743
vt 0.41548196234282314 0.8145661034904603
vt 0.6053660492698194 0.39168118337834146
vt 0.8867187499999997 0.6877607909075321
vt 0.2897904717541114 0.6277634828181952
vt 0.30213101278903876 0.6456260256696903
vt 0.2504615144202809 0.04241007180438572
vt 0.27737819957388476 0.06823871449379648
vt 0.7497139386891476 0.5419639024959864
vt 0.033282062242626434 0.22541922850123952
vt 0.26471220104453524 0.5913746710915004
vt 0.6628949946957634 0.8777672429380577
vt 0.6892549845899218 0.7199462201306293
vt 0.7034103230803147 0.4971036611707309
vt 0.1025666986705602 0.1678173679869075
vt 0.07973820197966429 0.18696659959826067
vt 0.6163273807804488 0.9172207085472412
vt 0.36415839277699874 0.26732555086622667
vt 0.2560428870306811 0.5786089608427514
vt 0.21451338050722768 0.07259088458090401
vt 0.23505881202685913 0.5485627948982978
vt 0.3016575931627705 0.09199282994188374
vt 0.26471220104453325 0.5913746710914984
vt 0.1025666986705592 0.1678173679869056
vt 0.5471713849492464 0.9765426931305442
vt 0.6213204549244984 0.4081347141169497
vt 0.3752646491898311 0.7558129749314522
vt 0.5575913744718186 0.9676021435935146
vt 0.6594086211415434 0.44854752798136543
vt 0.19532369868630853 0.3643156942800265
vt 0.5471713849492464 0.9765426931305422
vt 0.49168247022847716 0.705577309995251
vt 0.27737819957389076 0.06823871449380248
vt 0.6066337513114993 0.40203408338539526
vt 0.2779449319647311 0.27810223346776086
vt 0.2897904717541114 0.6277634828181932
vt 0.7511937078219335 0.8021557982385699
vt 0.07973820197966429 0.18696659959825868
vt 0.7831371222570969 0.7747108004364808
vt 0.2560428870306811 0.5786089608427494
vt 0.4781439323568245 0.8963260620982991
vt 0.2689643631301199 0.20805379655779355
vt 0.07129142621458168 0.1941307196010612
vt 0.14730497345386037 0.13025854068457865
vt 0.8367676883742551 0.730182013060652
vt 0.6811787418874756 0.8622262808183011
vt 0.6048376375445773 0.7881985432736746
vt 0.8746415987043731 0.6977634454746023
vt 0.44139128475465417 0.6157716216491393
vt 0.7497139386891476 0.5419639024959844
vt 0.07129142621458366 0.1941307196010612
vt 0.7034103230803166 0.4971036611707309
vt 0.6163273807804508 0.9172207085472452
vt 0.3211842890184032 0.11019980087653436
vt 0.5222164042661547 0.8187324773113531
vt 0.5958570687099661 0.5457231847391719
vt 0.4934785839953992 0.9067420518905408
vt 0.13613487124113108 0.41009727748196656
vt 0.6811787418874736 0.8622262808182991
vt 0.5575913744718176 0.9676021435935146
vt 0.23505881202685816 0.5485627948982978
vt 0.21451338050722968 0.07259088458090401
vt 0.8640591774093299 0.6637156552209871
vt 0.4947824424044596 0.9179179811110567
vt 0.3211842890184022 0.11019980087653436
vt 0.4781439323568285 0.8963260620983051
vt 0.06825134934275842 0.3126631620940049
vt 0.8640591774093299 0.6637156552209891
vt 0.5186241767323106 0.6229560767168294
vt 0.40221875091884796 0.794373723888505
vt 0.40235493119465704 0.1872525266283176
vt 0.6874588708229998 0.6175677354160614
vt 0.37493507537853193 0.20805379655779355
vt 0.3102749797693317 0.3499467841446503
vt 0.5527503383038324 0.4289757898892278
vt 0.19352758491938649 0.17751986252011498
vt 0.3138672073031758 0.49004365796458293
vt 0.45576019489003244 0.281694461001605
vt 0.7207614806446484 0.8279763325727187
vt 0.35338171017546455 0.42358744858846165
vt 0.8209536807103227 0.6160264920203523
vt 0.11449857917480799 0.3014517124377494
vt 0.10706486647637245 0.36984186926335116
vt 0.11561195530265399 0.38185227782443454
vt 0.4252262608523539 0.7989752258752068
vt 0.23963057401123766 0.05137275413601916
vt 0.44191710518423427 0.22718729528502857
vt 0.5425786528494815 0.9804687500000003
vt 0.6213204549244994 0.4081347141169477
vt 0.44191710518423527 0.22718729528502857
vt 0.5109382114096201 0.29442784942919964
vt 0.7399883974551609 0.8119795450726914
vt 0.6628949946957674 0.8777672429380637
vt 0.7885867427572055 0.7700884603004386
vt 0.8746415987043731 0.6977634454746043
vt 0.3452856126762215 0.7100738160785169
vt 0.34528561267621954 0.7100738160785149
vt 0.4947824424044596 0.9179179811110587
vt 0.8209536807103207 0.6160264920203523
vt 0.44498351228849825 0.49004365796458293
vt 0.21328483635553086 0.4756747478292066
vt 0.10706486647637345 0.36984186926335116
vt 0.3875078717469872 0.7397034715667736
vn 0.5069 0.093 -0.8569
vn 0.546 0.0963 -0.8322
vn 0.4203 0.0782 -0.904
vn 0.5427 0.0991 -0.834
vn 0.5332 0.0716 -0.8429
vn 0.5008 0.0508 -0.8641
vn 0.3185 0.0247 -0.9476
vn 0.3947 0.0413 -0.9179
vn 0.4955 0.0772 -0.8652
vn 0.3699 0.0346 -0.9284
vn 0.5069 0.0392 -0.8611
vn 0.3297 0.0085 -0.9441
vn 0.5626 0.0155 -0.8266
vn 0.4938 0.0692 -0.8668
vn 0.4317 0.0444 -0.9009
vn 0.4816 0.0903 -0.8718
vn 0.5056 0.0434 -0.8617
vn 0.4364 0.0327 -0.8991
vn 0.4896 0.0014 -0.872
vn 0.5178 0.0131 -0.8554
vn 0.5146 0.0172 -0.8572
vn 0.4691 0.0341 -0.8825
vn 0.513 0.0154 -0.8583
vn 0.5452 0.0939 -0.833
vn 0.4458 0.0221 -0.8949
vn 0.4376 -0.0164 -0.899
vn 0.5275 0.0508 -0.8481
vn 0.581 0.0221 -0.8136
vn 0.4183 0.0036 -0.9083
vn 0.5171 0.087 -0.8515
vn 0.5063 0.0702 -0.8595
vn 0.48 0.0381 -0.8765
vn 0.5644 0.1092 -0.8182
vn 0.436 0.0086 -0.8999
vn 0.4296 -0.0055 -0.903
vn 0.4019 0.035 -0.915
vn 0.4524 0.0105 -0.8917
vn 0.4819 0.0512 -0.8747
vn 0.4336 0.0369 -0.9004
vn 0.5354 0.037 -0.8438
vn 0.4186 0.0777 -0.9049
vn 0.4499 0.0684 -0.8905
vn 0.4576 0.0686 -0.8865
vn 0.5256 0.0758 -0.8473
vn 0.4403 0.0619 -0.8957
vn 0.4202 0.0141 -0.9073
vn 0.5442 0.0971 -0.8333
vn 0.4395 0.0307 -0.8977
vn 0.4118 0.0249 -0.911
vn 0.4765 -4.0E-4 -0.8792
vn 0.4997 0.0681 -0.8635
vn 0.4929 0.0543 -0.8684
vn 0.5186 0.0908 -0.8502
vn 0.4443 0.0041 -0.8959
vn 0.4649 0.0059 -0.8854
vn 0.5267 0.0761 -0.8466
vn 0.5065 0.034 -0.8616
vn 0.5343 0.1144 -0.8375
vn 0.5326 0.0961 -0.8409
vn 0.5183 0.0205 -0.8549
vn 0.4154 0.0075 -0.9096
vn 0.4716 0.0179 -0.8816
vn 0.5706 0.0297 -0.8207
vn 0.3854 0.0081 -0.9227
vn 0.4753 0.0165 -0.8797
vn 0.4911 0.0725 -0.8681
vn 0.5031 0.0509 -0.8627
vn 0.5503 0.0569 -0.833
vn 0.5124 0.0308 -0.8582
vn 0.4866 0.0242 -0.8733
vn 0.5434 0.05 -0.838
vn 0.4187 0.0223 -0.9079
vn 0.3994 -0.0099 -0.9167
vn 0.4717 0.0471 -0.8805
vn 0.4509 0.0107 -0.8925
vn 0.4436 0.0361 -0.8955
vn 0.4317 0.0063 -0.902
vn 0.4286 -0.0125 -0.9034
vn 0.3757 0.0042 -0.9267
vn 0.4594 0.0236 -0.8879
vn 0.4647 -0.0107 -0.8854
vn 0.4198 0.0239 -0.9073
vn 0.4338 0.0087 -0.901
vn 0.5637 0.1081 -0.8189
vn 0.3971 -0.0086 -0.9177
vn 0.5226 0.029 -0.8521
vn 0.3467 0.013 -0.9379
vn 0.5643 0.084 -0.8213
vn 0.3873 -0.0052 -0.922
vn 0.4357 0.0084 -0.9
vn 0.4667 0.0413 -0.8834
vn 0.4082 0.0205 -0.9127
usemtl b24ae667-e34e-46a6-9650-b078c4207db8
g 091_W_Aya_100K_01
f 11/11/2 1/62/2 12/1/2
usemtl b24ae667-e34e-46a6-9650-b078c4207db8
g 091_W_Aya_100K_01
f 4/53/1 2/29/1 8/105/1
usemtl b24ae667-e34e-46a6-9650-b078c4207db8
g 091_W_Aya_100K_01
f 11/11/2 5/6/2 1/62/2
usemtl b24ae667-e34e-46a6-9650-b078c4207db8
g 091_W_Aya_100K_01
f 11/11/2 12/1/2 6/71/2
usemtl b24ae667-e34e-46a6-9650-b078c4207db8
g 091_W_Aya_100K_01
f 3/91/4 8/105/4 2/73/4
usemtl b24ae667-e34e-46a6-9650-b078c4207db8
g 091_W_Aya_100K_01
f 7/39/3 9/80/3 10/111/3
usemtl b24ae667-e34e-46a6-9650-b078c4207db8
g 091_W_Aya_100K_01
f 13/63/5 19/28/5 21/118/5
usemtl b24ae667-e34e-46a6-9650-b078c4207db8
g 091_W_Aya_100K_01
f 16/38/8 18/110/8 14/24/8
usemtl b24ae667-e34e-46a6-9650-b078c4207db8
g 091_W_Aya_100K_01
f 13/63/6 21/55/6 15/58/6
usemtl b24ae667-e34e-46a6-9650-b078c4207db8
g 091_W_Aya_100K_01
f 22/97/7 17/33/7 20/124/7
usemtl b24ae667-e34e-46a6-9650-b078c4207db8
g 091_W_Aya_100K_01
f 100/20/67 42/47/67 31/107/67
usemtl b24ae667-e34e-46a6-9650-b078c4207db8
g 091_W_Aya_100K_01
f 27/109/76 100/20/76 102/104/76
usemtl b24ae667-e34e-46a6-9650-b078c4207db8
g 091_W_Aya_100K_01
f 31/107/56 91/32/56 59/63/56
usemtl b24ae667-e34e-46a6-9650-b078c4207db8
g 091_W_Aya_100K_01
f 35/18/26 67/98/26 104/85/26
usemtl b24ae667-e34e-46a6-9650-b078c4207db8
g 091_W_Aya_100K_01
f 100/20/51 31/107/51 59/63/51
usemtl b24ae667-e34e-46a6-9650-b078c4207db8
g 091_W_Aya_100K_01
f 33/19/41 88/39/41 96/111/41
usemtl b24ae667-e34e-46a6-9650-b078c4207db8
g 091_W_Aya_100K_01
f 82/70/13 84/31/13 46/114/13
usemtl b24ae667-e34e-46a6-9650-b078c4207db8
g 091_W_Aya_100K_01
f 39/42/79 68/101/79 79/14/79
usemtl b24ae667-e34e-46a6-9650-b078c4207db8
g 091_W_Aya_100K_01
f 100/20/74 59/63/74 102/104/74
usemtl b24ae667-e34e-46a6-9650-b078c4207db8
g 091_W_Aya_100K_01
f 46/114/71 40/3/71 70/132/71
usemtl b24ae667-e34e-46a6-9650-b078c4207db8
g 091_W_Aya_100K_01
f 96/111/43 95/72/43 32/45/43
usemtl b24ae667-e34e-46a6-9650-b078c4207db8
g 091_W_Aya_100K_01
f 31/107/56 85/8/56 91/32/56
usemtl b24ae667-e34e-46a6-9650-b078c4207db8
g 091_W_Aya_100K_01
f 31/107/88 53/25/88 45/116/88
usemtl b24ae667-e34e-46a6-9650-b078c4207db8
g 091_W_Aya_100K_01
f 49/121/65 37/15/65 54/76/65
usemtl b24ae667-e34e-46a6-9650-b078c4207db8
g 091_W_Aya_100K_01
f 104/85/89 68/101/89 39/42/89
usemtl b24ae667-e34e-46a6-9650-b078c4207db8
g 091_W_Aya_100K_01
f 44/106/82 27/109/82 26/129/82
usemtl b24ae667-e34e-46a6-9650-b078c4207db8
g 091_W_Aya_100K_01
f 31/107/88 69/102/88 53/25/88
usemtl b24ae667-e34e-46a6-9650-b078c4207db8
g 091_W_Aya_100K_01
f 97/59/35 27/109/35 44/106/35
usemtl b24ae667-e34e-46a6-9650-b078c4207db8
g 091_W_Aya_100K_01
f 33/19/41 73/5/41 88/39/41
usemtl b24ae667-e34e-46a6-9650-b078c4207db8
g 091_W_Aya_100K_01
f 46/114/23 51/61/23 56/84/23
usemtl b24ae667-e34e-46a6-9650-b078c4207db8
g 091_W_Aya_100K_01
f 24/127/28 82/95/28 55/86/28
usemtl b24ae667-e34e-46a6-9650-b078c4207db8
g 091_W_Aya_100K_01
f 76/17/54 71/87/54 87/130/54
usemtl b24ae667-e34e-46a6-9650-b078c4207db8
g 091_W_Aya_100K_01
f 87/130/73 97/59/73 44/106/73
usemtl b24ae667-e34e-46a6-9650-b078c4207db8
g 091_W_Aya_100K_01
f 87/130/61 44/106/61 98/4/61
usemtl b24ae667-e34e-46a6-9650-b078c4207db8
g 091_W_Aya_100K_01
f 70/132/16 74/21/16 23/12/16
usemtl b24ae667-e34e-46a6-9650-b078c4207db8
g 091_W_Aya_100K_01
f 83/64/38 42/47/38 100/20/38
usemtl b24ae667-e34e-46a6-9650-b078c4207db8
g 091_W_Aya_100K_01
f 46/114/17 23/12/17 51/61/17
usemtl b24ae667-e34e-46a6-9650-b078c4207db8
g 091_W_Aya_100K_01
f 69/102/58 80/71/58 106/51/58
usemtl b24ae667-e34e-46a6-9650-b078c4207db8
g 091_W_Aya_100K_01
f 26/129/90 104/85/90 67/98/90
usemtl b24ae667-e34e-46a6-9650-b078c4207db8
g 091_W_Aya_100K_01
f 96/111/43 32/45/43 101/13/43
usemtl b24ae667-e34e-46a6-9650-b078c4207db8
g 091_W_Aya_100K_01
f 101/13/66 32/67/66 63/44/66
usemtl b24ae667-e34e-46a6-9650-b078c4207db8
g 091_W_Aya_100K_01
f 31/107/24 45/119/24 85/120/24
usemtl b24ae667-e34e-46a6-9650-b078c4207db8
g 091_W_Aya_100K_01
f 56/84/40 48/41/40 36/46/40
usemtl b24ae667-e34e-46a6-9650-b078c4207db8
g 091_W_Aya_100K_01
f 44/106/72 26/129/72 64/78/72
usemtl b24ae667-e34e-46a6-9650-b078c4207db8
g 091_W_Aya_100K_01
f 46/114/52 70/132/52 23/12/52
usemtl b24ae667-e34e-46a6-9650-b078c4207db8
g 091_W_Aya_100K_01
f 81/103/80 97/59/80 101/13/80
usemtl b24ae667-e34e-46a6-9650-b078c4207db8
g 091_W_Aya_100K_01
f 56/84/20 51/61/20 54/76/20
usemtl b24ae667-e34e-46a6-9650-b078c4207db8
g 091_W_Aya_100K_01
f 68/101/87 72/9/87 50/92/87
usemtl b24ae667-e34e-46a6-9650-b078c4207db8
g 091_W_Aya_100K_01
f 76/17/54 87/130/54 98/4/54
usemtl b24ae667-e34e-46a6-9650-b078c4207db8
g 091_W_Aya_100K_01
f 71/87/85 60/26/85 97/59/85
usemtl b24ae667-e34e-46a6-9650-b078c4207db8
g 091_W_Aya_100K_01
f 25/112/36 33/96/36 96/111/36
usemtl b24ae667-e34e-46a6-9650-b078c4207db8
g 091_W_Aya_100K_01
f 79/123/12 68/101/12 99/74/12
usemtl b24ae667-e34e-46a6-9650-b078c4207db8
g 091_W_Aya_100K_01
f 60/113/49 96/111/49 97/59/49
usemtl b24ae667-e34e-46a6-9650-b078c4207db8
g 091_W_Aya_100K_01
f 57/65/11 90/40/11 98/4/11
usemtl b24ae667-e34e-46a6-9650-b078c4207db8
g 091_W_Aya_100K_01
f 80/71/47 94/105/47 52/49/47
usemtl b24ae667-e34e-46a6-9650-b078c4207db8
g 091_W_Aya_100K_01
f 102/104/48 26/129/48 27/109/48
usemtl b24ae667-e34e-46a6-9650-b078c4207db8
g 091_W_Aya_100K_01
f 101/13/66 63/44/66 94/105/66
usemtl b24ae667-e34e-46a6-9650-b078c4207db8
g 091_W_Aya_100K_01
f 56/84/57 36/82/57 93/57/57
usemtl b24ae667-e34e-46a6-9650-b078c4207db8
g 091_W_Aya_100K_01
f 68/101/87 50/92/87 92/77/87
usemtl b24ae667-e34e-46a6-9650-b078c4207db8
g 091_W_Aya_100K_01
f 29/24/39 59/63/39 75/30/39
usemtl b24ae667-e34e-46a6-9650-b078c4207db8
g 091_W_Aya_100K_01
f 46/114/71 41/99/71 40/3/71
usemtl b24ae667-e34e-46a6-9650-b078c4207db8
g 091_W_Aya_100K_01
f 80/71/47 52/49/47 105/23/47
usemtl b24ae667-e34e-46a6-9650-b078c4207db8
g 091_W_Aya_100K_01
f 98/4/92 44/106/92 64/78/92
usemtl b24ae667-e34e-46a6-9650-b078c4207db8
g 091_W_Aya_100K_01
f 56/84/86 86/88/86 48/122/86
usemtl b24ae667-e34e-46a6-9650-b078c4207db8
g 091_W_Aya_100K_01
f 69/102/33 30/83/33 53/100/33
usemtl b24ae667-e34e-46a6-9650-b078c4207db8
g 091_W_Aya_100K_01
f 43/69/21 62/50/21 98/4/21
usemtl b24ae667-e34e-46a6-9650-b078c4207db8
g 091_W_Aya_100K_01
f 57/65/11 98/4/11 74/21/11
usemtl b24ae667-e34e-46a6-9650-b078c4207db8
g 091_W_Aya_100K_01
f 68/101/10 89/128/10 72/2/10
usemtl b24ae667-e34e-46a6-9650-b078c4207db8
g 091_W_Aya_100K_01
f 80/71/30 69/102/30 42/47/30
usemtl b24ae667-e34e-46a6-9650-b078c4207db8
g 091_W_Aya_100K_01
f 62/90/55 76/22/55 98/4/55
usemtl b24ae667-e34e-46a6-9650-b078c4207db8
g 091_W_Aya_100K_01
f 35/18/77 39/42/77 61/66/77
usemtl b24ae667-e34e-46a6-9650-b078c4207db8
g 091_W_Aya_100K_01
f 29/24/39 75/30/39 103/43/39
usemtl b24ae667-e34e-46a6-9650-b078c4207db8
g 091_W_Aya_100K_01
f 101/13/14 94/105/14 83/64/14
usemtl b24ae667-e34e-46a6-9650-b078c4207db8
g 091_W_Aya_100K_01
f 104/85/34 26/129/34 102/104/34
usemtl b24ae667-e34e-46a6-9650-b078c4207db8
g 091_W_Aya_100K_01
f 23/12/45 74/21/45 64/78/45
usemtl b24ae667-e34e-46a6-9650-b078c4207db8
g 091_W_Aya_100K_01
f 69/102/58 106/51/58 30/94/58
usemtl b24ae667-e34e-46a6-9650-b078c4207db8
g 091_W_Aya_100K_01
f 29/24/22 102/104/22 59/63/22
usemtl b24ae667-e34e-46a6-9650-b078c4207db8
g 091_W_Aya_100K_01
f 66/125/59 70/132/59 40/56/59
usemtl b24ae667-e34e-46a6-9650-b078c4207db8
g 091_W_Aya_100K_01
f 34/117/63 24/93/63 55/86/63
usemtl b24ae667-e34e-46a6-9650-b078c4207db8
g 091_W_Aya_100K_01
f 28/37/84 78/115/84 58/36/84
usemtl b24ae667-e34e-46a6-9650-b078c4207db8
g 091_W_Aya_100K_01
f 71/87/85 97/59/85 87/130/85
usemtl b24ae667-e34e-46a6-9650-b078c4207db8
g 091_W_Aya_100K_01
f 68/101/10 29/24/10 89/128/10
usemtl b24ae667-e34e-46a6-9650-b078c4207db8
g 091_W_Aya_100K_01
f 51/61/25 64/78/25 67/98/25
usemtl b24ae667-e34e-46a6-9650-b078c4207db8
g 091_W_Aya_100K_01
f 60/113/49 25/131/49 96/111/49
usemtl b24ae667-e34e-46a6-9650-b078c4207db8
g 091_W_Aya_100K_01
f 104/85/29 29/24/29 68/101/29
usemtl b24ae667-e34e-46a6-9650-b078c4207db8
g 091_W_Aya_100K_01
f 81/103/32 101/13/32 83/64/32
usemtl b24ae667-e34e-46a6-9650-b078c4207db8
g 091_W_Aya_100K_01
f 81/103/91 83/64/91 100/20/91
usemtl b24ae667-e34e-46a6-9650-b078c4207db8
g 091_W_Aya_100K_01
f 35/18/78 104/85/78 39/42/78
usemtl b24ae667-e34e-46a6-9650-b078c4207db8
g 091_W_Aya_100K_01
f 96/111/18 101/13/18 97/59/18
usemtl b24ae667-e34e-46a6-9650-b078c4207db8
g 091_W_Aya_100K_01
f 66/126/53 74/21/53 70/132/53
usemtl b24ae667-e34e-46a6-9650-b078c4207db8
g 091_W_Aya_100K_01
f 49/121/65 54/76/65 35/18/65
usemtl b24ae667-e34e-46a6-9650-b078c4207db8
g 091_W_Aya_100K_01
f 97/59/37 81/103/37 27/109/37
usemtl b24ae667-e34e-46a6-9650-b078c4207db8
g 091_W_Aya_100K_01
f 34/117/63 55/86/63 65/60/63
usemtl b24ae667-e34e-46a6-9650-b078c4207db8
g 091_W_Aya_100K_01
f 81/103/75 100/20/75 27/109/75
usemtl b24ae667-e34e-46a6-9650-b078c4207db8
g 091_W_Aya_100K_01
f 46/114/60 56/84/60 55/86/60
usemtl b24ae667-e34e-46a6-9650-b078c4207db8
g 091_W_Aya_100K_01
f 35/18/77 61/66/77 49/121/77
usemtl b24ae667-e34e-46a6-9650-b078c4207db8
g 091_W_Aya_100K_01
f 29/24/42 103/81/42 77/79/42
usemtl b24ae667-e34e-46a6-9650-b078c4207db8
g 091_W_Aya_100K_01
f 98/4/15 64/78/15 74/21/15
usemtl b24ae667-e34e-46a6-9650-b078c4207db8
g 091_W_Aya_100K_01
f 93/89/69 55/86/69 56/84/69
usemtl b24ae667-e34e-46a6-9650-b078c4207db8
g 091_W_Aya_100K_01
f 61/10/64 39/42/64 38/68/64
usemtl b24ae667-e34e-46a6-9650-b078c4207db8
g 091_W_Aya_100K_01
f 64/78/83 26/129/83 67/98/83
usemtl b24ae667-e34e-46a6-9650-b078c4207db8
g 091_W_Aya_100K_01
f 102/104/46 29/24/46 104/85/46
usemtl b24ae667-e34e-46a6-9650-b078c4207db8
g 091_W_Aya_100K_01
f 47/27/27 57/34/27 74/21/27
usemtl b24ae667-e34e-46a6-9650-b078c4207db8
g 091_W_Aya_100K_01
f 82/70/13 46/114/13 55/86/13
usemtl b24ae667-e34e-46a6-9650-b078c4207db8
g 091_W_Aya_100K_01
f 80/71/9 42/47/9 83/64/9
usemtl b24ae667-e34e-46a6-9650-b078c4207db8
g 091_W_Aya_100K_01
f 39/42/79 79/14/79 38/68/79
usemtl b24ae667-e34e-46a6-9650-b078c4207db8
g 091_W_Aya_100K_01
f 93/89/69 65/54/69 55/86/69
usemtl b24ae667-e34e-46a6-9650-b078c4207db8
g 091_W_Aya_100K_01
f 43/48/19 98/4/19 90/52/19
usemtl b24ae667-e34e-46a6-9650-b078c4207db8
g 091_W_Aya_100K_01
f 66/126/53 47/35/53 74/21/53
usemtl b24ae667-e34e-46a6-9650-b078c4207db8
g 091_W_Aya_100K_01
f 42/47/44 69/102/44 31/107/44
usemtl b24ae667-e34e-46a6-9650-b078c4207db8
g 091_W_Aya_100K_01
f 83/64/31 94/105/31 80/71/31
usemtl b24ae667-e34e-46a6-9650-b078c4207db8
g 091_W_Aya_100K_01
f 23/12/62 64/78/62 51/61/62
usemtl b24ae667-e34e-46a6-9650-b078c4207db8
g 091_W_Aya_100K_01
f 54/76/70 37/108/70 86/75/70
usemtl b24ae667-e34e-46a6-9650-b078c4207db8
g 091_W_Aya_100K_01
f 51/61/50 35/18/50 54/76/50
usemtl b24ae667-e34e-46a6-9650-b078c4207db8
g 091_W_Aya_100K_01
f 68/101/87 92/77/87 99/16/87
usemtl b24ae667-e34e-46a6-9650-b078c4207db8
g 091_W_Aya_100K_01
f 41/99/68 46/114/68 84/7/68
usemtl b24ae667-e34e-46a6-9650-b078c4207db8
g 091_W_Aya_100K_01
f 51/61/81 67/98/81 35/18/81
usemtl b24ae667-e34e-46a6-9650-b078c4207db8
g 091_W_Aya_100K_01
f 56/84/86 54/76/86 86/88/86
