mtllib 266.mtl
v 69.86100851152835 486.70612200000005 316.54640483255184
v 69.975 488.719 308.9753
v 67.8894 489.1925 318.1388
v 70.834380979753 488.95070445023816 306.04188899999997
v 63.48533899999997 495.1678606451059 319.3598556263702
v 69.90269809787785 486.70612200000005 314.57976427464433
v 63.48533899999997 495.12263796743525 320.12396842269885
v 69.2372 487.5665 314.3406
v 70.67521286816236 486.70612200000005 310.28562682512376
v 71.5069995923058 487.3934625057636 306.04188899999997
v 71.8838868814226 486.70612200000005 306.04188899999997
v 70.05427005375239 486.70612200000005 312.9907295283567
v 63.6133 495.6735 316.5838
v 67.4988 491.1454 312.7224
v 71.09593602615273 486.70612200000005 308.91256072130165
v 69.86100851152835 486.70612200000005 316.54640483255184
v 67.8894 489.1925 318.1388
v 64.1677 489.4901 344.2311
v 63.48533899999997 490.09660606831443 344.6097863316569
v 63.48533899999997 489.91223591859676 344.76147874483354
v 71.13579111456707 486.70612200000005 333.8367459625493
v 63.48533899999997 495.4236817412201 322.19557336830974
v 70.99853403592483 486.70612200000005 329.70482184590304
v 70.95617452075341 486.70612200000005 327.7298292132336
v 63.48533899999997 495.12263796743525 320.12396842269885
v 63.48533899999997 494.98565677670354 335.9213070448963
v 70.09706847248366 486.70612200000005 320.00649733526427
v 66.05210833258454 486.70612200000005 343.21001744606406
v 65.2001 490.8978 341.4501
v 70.65837354383372 486.70612200000005 336.50215866428033
v 69.171 487.9559 338.0237
v 71.09240102542948 486.70612200000005 334.7759794820228
v 68.08083501740069 486.70612200000005 341.013467671623
v 69.55278995902684 486.70612200000005 338.85862529818917
v 63.48533899999997 491.92297877089123 342.8755269993994
v 70.25108616338945 486.70612200000005 337.63309981306816
v 63.48533899999997 487.8399877932664 345.6336961476643
v 63.48533899999997 488.9895035004725 345.1870503067976
v 67.35213942253775 486.70612200000005 341.9854177796533
v 70.0426 487.6841 326.7397
v 64.71141019462452 486.70612200000005 344.7060951070376
v 63.48533899999997 495.0566008489841 334.5201756042834
v 63.48533899999997 486.70612200000005 345.7432411685381
v 70.82238597897005 486.70612200000005 326.66168766821704
v 66.8861 491.4722 331.6976
v 66.4475 499.0921 307.0162
v 63.48533899999997 498.36777783890494 313.22729900063734
v 63.48533899999997 495.86782906072995 316.57894390718633
v 69.975 488.719 308.9753
v 70.834380979753 488.95070445023816 306.04188899999997
v 63.48533899999997 496.206739874555 316.10132613564247
v 64.12405564994309 503.4882601652927 306.04188899999997
v 69.28595950951188 493.48562360822666 306.04188899999997
v 66.6054182802699 499.4986528827946 306.04188899999997
v 63.48533899999997 503.9167005434736 306.9248087472166
v 63.6133 495.6735 316.5838
v 67.4988 491.1454 312.7224
v 63.48533899999997 497.47542644696114 314.087759237004
v 67.60426844292476 497.427441230063 306.04188899999997
v 68.78120662640214 494.76619787977876 306.04188899999997
v 63.48533899999997 503.6107761894823 307.3761095651938
v 63.48533899999997 504.483947190745 306.04188899999997
v 63.48533899999997 495.86782906072995 316.57894390718633
v 70.0426 487.6841 326.7397
v 64.3707 494.562 325.7257
v 63.48533899999997 495.8302331513952 316.6557212231577
v 63.48533899999997 492.8366246607348 341.5897992522361
v 63.48533899999997 494.98565677670354 335.9213070448963
v 64.1677 489.4901 344.2311
v 63.48533899999997 495.56679936678097 325.9860730682505
v 63.48533899999997 495.1678606451059 319.3598556263702
v 63.48533899999997 493.10214870903167 341.0996012913514
v 63.48533899999997 490.09660606831443 344.6097863316569
v 63.48533899999997 491.92297877089123 342.8755269993994
v 63.48533899999997 495.5468106205964 324.1545667235407
v 63.48533899999997 489.91223591859676 344.76147874483354
v 63.48533899999997 494.3891395628058 338.3461489467733
v 69.2372 487.5665 314.3406
v 63.48533899999997 495.4236817412201 322.19557336830974
v 63.48533899999997 495.7980824917492 316.87127673917087
v 65.2001 490.8978 341.4501
v 63.48533899999997 495.0566008489841 334.5201756042834
v 63.48533899999997 492.47254333393295 342.1718409735505
v 70.65837354383372 486.70612200000005 336.50215866428033
v 69.171 487.9559 338.0237
v 63.48533899999997 495.4167615581272 330.2700240636155
v 63.48533899999997 494.7616829621317 336.70874550318155
v 63.48533899999997 493.76916174171197 339.62566393096444
v 63.6133 495.6735 316.5838
v 71.09240102542948 486.70612200000005 334.7759794820228
v 66.8861 491.4722 331.6976
vt 0.6523531949982118 0.960937499999999
vt 0.07701672431231134 0.11341453908434851
vt 0.042135332609998334 0.1586881681977561
vt 0.7452985870744075 0.814184249975557
vt 0.4629878609258673 0.30165392272644975
vt 0.3137291271792407 0.3593411502417032
vt 0.2434259577468173 0.16110915907443568
vt 0.04085193397331568 0.10381776541323962
vt 0.11901783866819672 0.22953362456767468
vt 0.7917891862700515 0.7339936467552655
vt 0.7798953458059421 0.5488745164449822
vt 0.7256782727596905 0.5186195950828848
vt 0.2434259577468184 0.16110915907443124
vt 0.07701672431231191 0.11341453908435306
vt 0.4771441865704758 0.6234063226050204
vt 0.5208287153566085 0.6702337160369243
vt 0.5219144018070836 0.671895114699389
vt 0.076192648048559 0.2589234612674298
vt 0.5972578782991683 0.4198482970533953
vt 0.555011895751706 0.7342028911632819
vt 0.047588977223502416 0.18714098551005165
vt 0.06679242700714563 0.24084913042757095
vt 0.2981454419353079 0.18234994541777738
vt 0.1747455698320168 0.3835425745355484
vt 0.6406172671915498 0.9394185305975211
vt 0.08457308571527859 0.27330716477867256
vt 0.7256782727596894 0.5186195950828848
vt 0.27272717073035374 0.16988736150389971
vt 0.2741123848662447 0.47232223017135555
vt 0.11414761106159062 0.3147626076832869
vt 0.7775396052195184 0.7596503893912037
vt 0.6962274541444007 0.4983463307034226
vt 0.5171715063615424 0.666831004070594
vt 0.1332908076001799 0.3416626867248346
vt 0.06679242700714563 0.2408491304275664
vt 0.04563923480825267 0.18167887826647522
vt 0.4629878609258645 0.30165392272644975
vt 0.3532119526174404 0.21659555058051994
vt 0.1614534082249422 0.13481260688238572
vt 0.8415604529741317 0.6411346430839766
vt 0.07619264804855731 0.2589234612674298
vt 0.6593133126307522 0.4705030199278878
vt 0.24476887916491233 0.19302525797185344
vt 0.3526722083837544 0.5338271979737166
vt 0.374576404838942 0.513487586979614
vt 0.6406172671915481 0.9394185305975211
vt 0.42249833826620514 0.5869831671969157
vt 0.3354206925760164 0.2034756266327904
vt 0.48103456044368287 0.3178704391811755
vt 0.7802249225702835 0.6067867460578215
vt 0.528027132701088 0.6844379052252697
vt 0.6593133126307522 0.47050301992789234
vt 0.8580643757185675 0.6109942840658344
vt 0.5550118957517071 0.7342028911632819
vt 0.12183370676016014 0.12495248689203287
vt 0.6962274541444036 0.4983463307034226
vt 0.11414761106159005 0.3147626076832869
vt 0.6706998227828215 0.6148997164124475
vt 0.09157010090177431 0.2844291001005218
vt 0.3354206925760113 0.2034756266327904
vt 0.666560686947396 0.9394185305975211
vt 0.29814544193530673 0.18234994541777283
vt 0.8580643757185686 0.6109942840658389
vt 0.5972578782991678 0.4198482970533953
vt 0.09157010090177319 0.28442910010051725
vt 0.20009538263158214 0.40479464806076915
vt 0.8671874999999999 0.5964135166027642
vt 0.04758897722350072 0.1871409855100472
vt 0.4224983382662068 0.5869831671969201
vt 0.5639169163761146 0.761427267860818
vt 0.5171715063615435 0.666831004070594
vt 0.18764748744022494 0.14354891833736472
vt 0.4638190787398369 0.3390587243551384
vt 0.04213533260999777 0.1586881681977561
vt 0.6665606869473949 0.9394185305975211
vt 0.520828715356604 0.6702337160369288
vt 0.7917891862700509 0.7339936467552655
vt 0.6869257634920751 0.5216005573342402
vt 0.8082305296212052 0.5647783354814406
vt 0.42688096644245804 0.2744170278347272
vt 0.4810345604436834 0.3178704391811755
vt 0.5246663563995383 0.667634023717525
vt 0.2741123848662458 0.47232223017135555
vt 0.1747455698320151 0.3835425745355484
vt 0.4771441865704713 0.6234063226050204
vt 0.039062500000000416 0.13058430722563774
vt 0.20009538263158155 0.4047946480607646
vt 0.42688096644245693 0.2744170278347182
vt 0.1218337067601607 0.12495248689203287
vt 0.7452985870744047 0.814184249975557
vt 0.16141901817646218 0.36865532219751895
vt 0.08457308571528084 0.27330716477867256
vt 0.04563923480824985 0.18167887826647977
vt 0.18764748744022605 0.14354891833736472
vt 0.38656301166147483 0.5601021690672452
vt 0.35267220838375385 0.533827197973721
vt 0.7200017073489257 0.8563216219772932
vt 0.27272717073035485 0.16988736150390427
vt 0.7031517042013287 0.8380064011646878
vt 0.7200017073489239 0.8563216219772932
vt 0.521914401807083 0.671895114699389
vt 0.8082305296212036 0.5647783354814406
vt 0.1614534082249422 0.13481260688238117
vt 0.6343877267316738 0.9284853188879159
vt 0.4630982901494132 0.6117259274482674
vt 0.5895701192365531 0.5053746166249882
vt 0.7775396052195195 0.7596503893912037
vt 0.06628353136312191 0.17679931726260156
vt 0.5280271327010887 0.6844379052252743
vt 0.03906249999999985 0.1305843072256332
vn 0.8278 0.5089 0.2362
vn 0.8525 0.4674 0.234
vn 0.8471 0.4637 0.2596
vn 0.8079 0.5883 0.0348
vn 0.7787 0.623 0.0743
vn 0.8792 0.3798 0.2876
vn 0.8451 0.4982 0.194
vn 0.7886 0.6146 0.0167
vn 0.736 0.4534 0.5027
vn 0.7758 0.6253 -0.0845
vn 0.7851 0.6129 -0.0891
vn 0.7122 0.4834 0.5091
vn 0.7682 0.5774 0.2766
vn 0.7383 0.6736 0.0341
vn 0.7659 0.6408 -0.0523
vn 0.6944 0.3014 0.6535
vn 0.7463 0.512 0.4253
vn 0.7386 0.6739 -0.0158
vn 0.7517 0.659 -0.025
vn 0.7209 0.251 0.646
vn 0.7744 0.6252 -0.097
vn 0.6727 0.1934 0.7142
vn 0.7347 0.3961 0.5508
vn 0.6441 0.0736 0.7614
vn 0.7995 0.4972 0.3371
vn 0.8014 0.4152 0.4306
vn 0.8507 0.3762 0.3672
vn 0.8561 0.4128 0.311
vn 0.7952 0.5101 0.3277
vn 0.7727 0.4728 0.4236
vn 0.7725 0.5179 0.3675
vn 0.8704 0.3431 0.353
vn 0.9058 0.3093 0.2898
vn 0.8347 0.4659 0.2936
vn 0.7359 0.6168 0.2792
vn 0.7185 0.6116 0.3313
vn 0.7913 0.6047 0.0902
vn 0.7218 0.6228 0.3018
vn 0.753 0.6576 0.023
vn 0.7447 0.6508 0.1481
vn 0.7047 0.4508 0.5479
vn 0.8313 0.5389 0.1365
vn 0.7493 0.6622 -0.0072
vn 0.7712 0.6366 0.0046
vn 0.803 0.5353 0.2621
vn 0.7363 0.6509 0.1851
vn 0.7077 0.5989 0.3747
vn 0.701 0.5621 0.439
vn 0.7738 0.6322 -0.0398
vn 0.746 0.6635 0.0562
usemtl 8fde6238-33d9-43f8-ad2c-8f8e303eee7d
g 091_W_Aya_100K_01
f 8/78/8 1/52/8 6/32/8
usemtl 8fde6238-33d9-43f8-ad2c-8f8e303eee7d
g 091_W_Aya_100K_01
f 2/50/2 11/67/2 10/53/2
usemtl 8fde6238-33d9-43f8-ad2c-8f8e303eee7d
g 091_W_Aya_100K_01
f 8/78/4 7/105/4 3/106/4
usemtl 8fde6238-33d9-43f8-ad2c-8f8e303eee7d
g 091_W_Aya_100K_01
f 8/78/4 5/15/4 7/105/4
usemtl 8fde6238-33d9-43f8-ad2c-8f8e303eee7d
g 091_W_Aya_100K_01
f 8/78/8 3/106/8 1/52/8
usemtl 8fde6238-33d9-43f8-ad2c-8f8e303eee7d
g 091_W_Aya_100K_01
f 2/50/2 15/79/2 11/67/2
usemtl 8fde6238-33d9-43f8-ad2c-8f8e303eee7d
g 091_W_Aya_100K_01
f 2/50/3 14/58/3 9/11/3
usemtl 8fde6238-33d9-43f8-ad2c-8f8e303eee7d
g 091_W_Aya_100K_01
f 4/40/6 2/50/6 10/63/6
usemtl 8fde6238-33d9-43f8-ad2c-8f8e303eee7d
g 091_W_Aya_100K_01
f 2/50/3 9/11/3 15/102/3
usemtl 8fde6238-33d9-43f8-ad2c-8f8e303eee7d
g 091_W_Aya_100K_01
f 14/58/1 13/82/1 8/78/1
usemtl 8fde6238-33d9-43f8-ad2c-8f8e303eee7d
g 091_W_Aya_100K_01
f 8/78/5 6/56/5 12/12/5
usemtl 8fde6238-33d9-43f8-ad2c-8f8e303eee7d
g 091_W_Aya_100K_01
f 14/58/7 8/78/7 12/27/7
usemtl 8fde6238-33d9-43f8-ad2c-8f8e303eee7d
g 091_W_Aya_100K_01
f 14/58/7 12/27/7 9/11/7
usemtl 8fde6238-33d9-43f8-ad2c-8f8e303eee7d
g 091_W_Aya_100K_01
f 29/9/9 18/108/9 33/72/9
usemtl 8fde6238-33d9-43f8-ad2c-8f8e303eee7d
g 091_W_Aya_100K_01
f 39/39/23 33/94/23 18/108/23
usemtl 8fde6238-33d9-43f8-ad2c-8f8e303eee7d
g 091_W_Aya_100K_01
f 29/9/12 35/35/12 19/21/12
usemtl 8fde6238-33d9-43f8-ad2c-8f8e303eee7d
g 091_W_Aya_100K_01
f 17/106/15 27/19/15 16/42/15
usemtl 8fde6238-33d9-43f8-ad2c-8f8e303eee7d
g 091_W_Aya_100K_01
f 29/9/12 19/21/12 18/108/12
usemtl 8fde6238-33d9-43f8-ad2c-8f8e303eee7d
g 091_W_Aya_100K_01
f 29/9/9 33/72/9 34/7/9
usemtl 8fde6238-33d9-43f8-ad2c-8f8e303eee7d
g 091_W_Aya_100K_01
f 31/43/17 29/9/17 34/13/17
usemtl 8fde6238-33d9-43f8-ad2c-8f8e303eee7d
g 091_W_Aya_100K_01
f 17/106/10 44/81/10 27/64/10
usemtl 8fde6238-33d9-43f8-ad2c-8f8e303eee7d
g 091_W_Aya_100K_01
f 30/23/13 31/43/13 36/98/13
usemtl 8fde6238-33d9-43f8-ad2c-8f8e303eee7d
g 091_W_Aya_100K_01
f 40/73/19 21/38/19 23/80/19
usemtl 8fde6238-33d9-43f8-ad2c-8f8e303eee7d
g 091_W_Aya_100K_01
f 41/14/24 37/110/24 43/8/24
usemtl 8fde6238-33d9-43f8-ad2c-8f8e303eee7d
g 091_W_Aya_100K_01
f 17/106/11 25/105/11 22/69/11
usemtl 8fde6238-33d9-43f8-ad2c-8f8e303eee7d
g 091_W_Aya_100K_01
f 41/2/20 18/108/20 38/3/20
usemtl 8fde6238-33d9-43f8-ad2c-8f8e303eee7d
g 091_W_Aya_100K_01
f 17/106/10 40/73/10 44/81/10
usemtl 8fde6238-33d9-43f8-ad2c-8f8e303eee7d
g 091_W_Aya_100K_01
f 40/73/19 45/6/19 21/38/19
usemtl 8fde6238-33d9-43f8-ad2c-8f8e303eee7d
g 091_W_Aya_100K_01
f 40/73/21 24/5/21 44/49/21
usemtl 8fde6238-33d9-43f8-ad2c-8f8e303eee7d
g 091_W_Aya_100K_01
f 45/6/14 42/66/14 26/24/14
usemtl 8fde6238-33d9-43f8-ad2c-8f8e303eee7d
g 091_W_Aya_100K_01
f 18/108/22 28/55/22 39/103/22
usemtl 8fde6238-33d9-43f8-ad2c-8f8e303eee7d
g 091_W_Aya_100K_01
f 41/2/20 28/89/20 18/108/20
usemtl 8fde6238-33d9-43f8-ad2c-8f8e303eee7d
g 091_W_Aya_100K_01
f 31/43/17 34/13/17 36/28/17
usemtl 8fde6238-33d9-43f8-ad2c-8f8e303eee7d
g 091_W_Aya_100K_01
f 45/6/14 32/48/14 21/38/14
usemtl 8fde6238-33d9-43f8-ad2c-8f8e303eee7d
g 091_W_Aya_100K_01
f 17/106/11 22/69/11 40/73/11
usemtl 8fde6238-33d9-43f8-ad2c-8f8e303eee7d
g 091_W_Aya_100K_01
f 38/74/16 18/108/16 20/36/16
usemtl 8fde6238-33d9-43f8-ad2c-8f8e303eee7d
g 091_W_Aya_100K_01
f 40/73/18 23/88/18 24/37/18
usemtl 8fde6238-33d9-43f8-ad2c-8f8e303eee7d
g 091_W_Aya_100K_01
f 45/6/14 26/24/14 32/48/14
usemtl 8fde6238-33d9-43f8-ad2c-8f8e303eee7d
g 091_W_Aya_100K_01
f 41/2/20 38/3/20 37/86/20
usemtl 8fde6238-33d9-43f8-ad2c-8f8e303eee7d
g 091_W_Aya_100K_01
f 60/107/27 59/4/27 46/99/27
usemtl 8fde6238-33d9-43f8-ad2c-8f8e303eee7d
g 091_W_Aya_100K_01
f 46/99/26 58/20/26 57/58/26
usemtl 8fde6238-33d9-43f8-ad2c-8f8e303eee7d
g 091_W_Aya_100K_01
f 60/107/27 46/99/27 57/58/27
usemtl 8fde6238-33d9-43f8-ad2c-8f8e303eee7d
g 091_W_Aya_100K_01
f 46/99/28 59/90/28 54/97/28
usemtl 8fde6238-33d9-43f8-ad2c-8f8e303eee7d
g 091_W_Aya_100K_01
f 53/10/33 49/50/33 50/40/33
usemtl 8fde6238-33d9-43f8-ad2c-8f8e303eee7d
g 091_W_Aya_100K_01
f 53/77/32 57/58/32 49/50/32
usemtl 8fde6238-33d9-43f8-ad2c-8f8e303eee7d
g 091_W_Aya_100K_01
f 51/51/31 48/101/31 56/82/31
usemtl 8fde6238-33d9-43f8-ad2c-8f8e303eee7d
g 091_W_Aya_100K_01
f 58/54/34 51/109/34 56/82/34
usemtl 8fde6238-33d9-43f8-ad2c-8f8e303eee7d
g 091_W_Aya_100K_01
f 54/100/25 52/75/25 55/25/25
usemtl 8fde6238-33d9-43f8-ad2c-8f8e303eee7d
g 091_W_Aya_100K_01
f 54/100/25 61/104/25 46/99/25
usemtl 8fde6238-33d9-43f8-ad2c-8f8e303eee7d
g 091_W_Aya_100K_01
f 53/77/32 60/31/32 57/58/32
usemtl 8fde6238-33d9-43f8-ad2c-8f8e303eee7d
g 091_W_Aya_100K_01
f 58/54/34 56/82/34 57/58/34
usemtl 8fde6238-33d9-43f8-ad2c-8f8e303eee7d
g 091_W_Aya_100K_01
f 46/99/26 47/70/26 58/20/26
usemtl 8fde6238-33d9-43f8-ad2c-8f8e303eee7d
g 091_W_Aya_100K_01
f 62/1/29 55/46/29 52/61/29
usemtl 8fde6238-33d9-43f8-ad2c-8f8e303eee7d
g 091_W_Aya_100K_01
f 54/100/25 55/25/25 61/104/25
usemtl 8fde6238-33d9-43f8-ad2c-8f8e303eee7d
g 091_W_Aya_100K_01
f 61/104/30 47/70/30 46/99/30
usemtl 8fde6238-33d9-43f8-ad2c-8f8e303eee7d
g 091_W_Aya_100K_01
f 79/47/49 75/95/49 65/45/49
usemtl 8fde6238-33d9-43f8-ad2c-8f8e303eee7d
g 091_W_Aya_100K_01
f 68/84/46 85/43/46 84/62/46
usemtl 8fde6238-33d9-43f8-ad2c-8f8e303eee7d
g 091_W_Aya_100K_01
f 67/26/47 83/18/47 81/9/47
usemtl 8fde6238-33d9-43f8-ad2c-8f8e303eee7d
g 091_W_Aya_100K_01
f 65/45/39 86/83/39 91/6/39
usemtl 8fde6238-33d9-43f8-ad2c-8f8e303eee7d
g 091_W_Aya_100K_01
f 70/96/43 65/45/43 75/95/43
usemtl 8fde6238-33d9-43f8-ad2c-8f8e303eee7d
g 091_W_Aya_100K_01
f 68/84/46 87/91/46 85/43/46
usemtl 8fde6238-33d9-43f8-ad2c-8f8e303eee7d
g 091_W_Aya_100K_01
f 73/68/41 76/93/41 69/108/41
usemtl 8fde6238-33d9-43f8-ad2c-8f8e303eee7d
g 091_W_Aya_100K_01
f 68/84/46 84/62/46 90/60/46
usemtl 8fde6238-33d9-43f8-ad2c-8f8e303eee7d
g 091_W_Aya_100K_01
f 66/16/37 80/33/37 89/82/37
usemtl 8fde6238-33d9-43f8-ad2c-8f8e303eee7d
g 091_W_Aya_100K_01
f 72/65/36 67/92/36 81/9/36
usemtl 8fde6238-33d9-43f8-ad2c-8f8e303eee7d
g 091_W_Aya_100K_01
f 83/41/48 74/22/48 81/9/48
usemtl 8fde6238-33d9-43f8-ad2c-8f8e303eee7d
g 091_W_Aya_100K_01
f 79/47/49 65/45/49 64/73/49
usemtl 8fde6238-33d9-43f8-ad2c-8f8e303eee7d
g 091_W_Aya_100K_01
f 87/91/40 77/34/40 85/43/40
usemtl 8fde6238-33d9-43f8-ad2c-8f8e303eee7d
g 091_W_Aya_100K_01
f 88/57/35 72/59/35 81/9/35
usemtl 8fde6238-33d9-43f8-ad2c-8f8e303eee7d
g 091_W_Aya_100K_01
f 89/82/42 80/71/42 71/85/42
usemtl 8fde6238-33d9-43f8-ad2c-8f8e303eee7d
g 091_W_Aya_100K_01
f 77/34/38 81/9/38 85/43/38
usemtl 8fde6238-33d9-43f8-ad2c-8f8e303eee7d
g 091_W_Aya_100K_01
f 65/45/39 70/44/39 86/83/39
usemtl 8fde6238-33d9-43f8-ad2c-8f8e303eee7d
g 091_W_Aya_100K_01
f 89/82/42 71/85/42 78/78/42
usemtl 8fde6238-33d9-43f8-ad2c-8f8e303eee7d
g 091_W_Aya_100K_01
f 77/34/38 88/30/38 81/9/38
usemtl 8fde6238-33d9-43f8-ad2c-8f8e303eee7d
g 091_W_Aya_100K_01
f 63/17/45 66/76/45 89/82/45
usemtl 8fde6238-33d9-43f8-ad2c-8f8e303eee7d
g 091_W_Aya_100K_01
f 86/29/50 82/87/50 91/6/50
usemtl 8fde6238-33d9-43f8-ad2c-8f8e303eee7d
g 091_W_Aya_100K_01
f 65/45/44 91/6/44 64/73/44
