mtllib 319.mtl
v 154.83113767374522 921.7159911500966 48.817271999999974
v 150.33453560656446 915.4138170000001 56.84424863195497
v 149.22687799999997 937.0911765097717 48.817271999999974
v 158.38681373779897 915.4138170000001 49.221238439029406
v 149.22687799999997 927.5903645943303 51.04289028691102
v 152.60219207884973 925.4858190030367 48.817271999999974
v 155.98421347673005 920.0561877440502 48.817271999999974
v 149.22687799999997 936.4006895105124 49.20252783042354
v 149.22687799999997 934.6888175782561 49.983704098325006
v 149.22687799999997 923.7726901303256 52.208739716008736
v 150.347995738738 935.9414475864074 48.817271999999974
v 153.3940645791882 915.4138170000001 54.08722398726614
v 158.8059764910714 915.4138170000001 48.817271999999974
v 149.22687799999997 925.1778378107856 51.54137837195615
v 149.22687799999997 932.0561571811032 50.6492454369326
v 149.22687799999997 930.3601436652507 50.881222034775746
v 152.8425 923.0496 49.7908
v 149.22687799999997 918.6600258192664 55.200828348046045
v 149.22687799999997 915.4138170000001 57.71867540835692
v 150.4474441374293 935.7600114858529 48.817271999999974
v 154.41502933814965 915.4138170000001 53.21143553255307
v 151.61036641579574 932.1923167460313 48.817271999999974
v 152.52485009241713 925.8205091986981 48.817271999999974
v 153.2886 918.2238 52.3327
v 157.58547595073998 917.4057626857984 48.817271999999974
v 153.3655593605977 924.2582803752972 48.817271999999974
v 155.74960887658057 920.3626903638052 48.817271999999974
v 149.22687799999997 926.3104303117682 51.334510137423145
v 149.22687799999997 935.5705912289854 49.67184194726921
v 151.91054651515154 927.969697077975 48.817271999999974
v 149.22687799999997 920.8827073899147 53.768631102296915
v 149.22687799999997 922.6812204249625 52.697716649858194
v 150.04447572057833 936.2502589008745 48.817271999999974
v 151.5381065812112 932.5942469611656 48.817271999999974
v 152.00017457385732 940.5403519459041 134.558811
v 152.60787417369326 915.4138170000001 134.558811
v 150.19317544166665 930.2063329916668 134.558811
v 149.22687799999997 965.9611320697744 134.44499669234804
v 149.40986370794215 968.9175637464538 134.558811
v 152.60110380742418 916.4841242636807 134.558811
v 151.40986525740675 951.2726066664343 134.558811
v 150.7643 923.1559 133.6252
v 149.22687799999997 944.6707873352138 133.19661245919335
v 149.22687799999997 930.0751226058394 133.93627068148638
v 149.22687799999997 927.6232132972243 134.02874517749436
v 151.6615 920.2078 133.7831
v 149.22687799999997 932.5322720381535 133.48833045860354
v 150.1332415582542 927.7891373787448 134.558811
v 150.0679847597102 928.0508247265152 134.558811
v 151.95562037601985 924.2844844420007 134.558811
v 151.3444598553519 935.71396883274 134.558811
v 151.09778377012276 957.7952136272548 134.558811
v 150.4851772680756 932.218658141268 134.558811
v 149.22687799999997 971.7685616185857 134.4658256426556
v 149.22687799999997 919.8564721909811 132.5354726153551
v 150.55887924400565 927.1172208455156 134.558811
v 149.22687799999997 950.053670024079 133.42435697876007
v 150.24763249667905 915.4138170000001 133.03466762289654
v 150.8403 943.3461 133.6719
v 149.22687799999997 972.7837675709015 134.558811
v 149.22687799999997 951.3783708336276 133.5578143532937
v 149.22687799999997 926.5978669126255 133.88573917581712
v 150.18675164064777 931.1826932222501 134.558811
v 149.22687799999997 934.7490078309023 133.05148048464582
v 150.7599 938.2074 133.8351
v 152.3639407264471 915.4138170000001 134.37350278539606
v 149.22687799999997 938.9680693608129 133.15470606801605
v 150.0532 931.0923 134.4345
v 149.39560688936882 971.7760147285817 134.558811
v 150.4883 957.5031 134.1407
v 149.22687799999997 961.8977449895865 133.97113574326846
v 151.27827021032664 955.4732970008516 134.558811
v 149.22687799999997 956.5238623840867 133.66224770631118
v 149.22687799999997 935.8440463784527 132.92942626473595
v 149.22687799999997 940.8324000438714 133.08310656882188
v 151.8924930056231 947.3185605661138 134.558811
v 150.58341896362515 960.647402248987 134.558811
v 152.62708607040673 920.4927915883051 134.558811
v 149.22687799999997 968.5030197211149 134.4568518386407
v 149.9359 951.3122 133.7111
v 149.22687799999997 919.6782792191444 132.52944666036592
v 149.43499425421405 965.9721516406057 134.558811
v 152.35405942976755 922.4867768747935 134.558811
v 149.22687799999997 919.8007115885983 132.53000318044502
v 151.50197704135934 936.791689607745 134.558811
v 149.22687799999997 923.5063657169316 133.0921656918603
v 149.22687799999997 952.97240334549 133.52660312223364
v 152.1504153946383 942.9038974460872 134.558811
v 149.22687799999997 915.4138170000001 132.51725025728663
v 151.50064831365341 915.4138170000001 133.67864090232493
v 149.22687799999997 930.6884198947066 133.9018580849657
vt 0.14651762357924955 0.7626158779161445
vt 0.853307591183299 0.9669495387321845
vt 0.14651762357925954 0.7626158779161559
vt 0.3840329006713861 0.35785651959600595
vt 0.36035751359649215 0.36707156986499934
vt 0.401468474060248 0.3206745557610744
vt 0.08825323675982581 0.891967745767452
vt 0.6341286058299997 0.8396111830026761
vt 0.767515260342329 0.9651156090764134
vt 0.441791552698202 0.12480948737565478
vt 0.182210137701787 0.7623582854730004
vt 0.8466638070886539 0.9501567547457066
vt 0.25446965179223535 0.5379589424041735
vt 0.3062015630225606 0.44798124479875756
vt 0.47041543680302866 0.20068584429769998
vt 0.1637334583586203 0.7284764635519931
vt 0.029540602043487386 0.9673089562953614
vt 0.36744064250864095 0.35239659045202776
vt 0.34975296122366745 0.4525728937596334
vt 0.28217686434113876 0.5870237269159528
vt 0.31203461528717674 0.5281222374954374
vt 0.22784644359826067 0.6871134123342744
vt 0.06597478734833923 0.926618381475904
vt 0.18221013770178274 0.762358285472989
vt 0.32560117862077365 0.49995334605995656
vt 0.5429687499999999 0.9804687500000001
vt 0.7309618091128021 0.959098915717376
vt 0.08825323675982723 0.8919677457674491
vt 0.5539760055636213 0.9001096716863786
vt 0.8439984261178652 0.948582278452957
vt 0.8275533476954202 0.9687407616804654
vt 0.7135209933280543 0.8965746253008626
vt 0.5732705805721175 0.7997213137689256
vt 0.6777707758712052 0.9586993098582786
vt 0.21364938698230745 0.7108408734965057
vt 0.714414347122496 0.9573226833228617
vt 0.8275533476954202 0.9687407616804709
vt 0.633620137995867 0.9637800182822758
vt 0.5732705805721148 0.799721313768923
vt 0.7144143471224933 0.9573226833228617
vt 0.6386392455266845 0.8432738051514119
vt 0.3795344706167478 0.3673467992184499
vt 0.46950209845833857 0.11619416786444225
vt 0.4403284719058268 0.2577699250891502
vt 0.7955362525647727 0.9254192034279556
vt 0.6735292985254702 0.8950771496722403
vt 0.05951384547035456 0.9298488524148985
vt 0.48760138306190853 0.12468055837251801
vt 0.360357513596495 0.36707156986501355
vt 0.5039062500000003 0.1319216940248551
vt 0.6336201379958684 0.9637800182822758
vt 0.4536818575630075 0.10987747661520575
vt 0.8009326927772009 0.9269827882981244
vt 0.23919844130311882 0.6672003276138501
vt 0.4101614606194486 0.30471731255741796
vt 0.309466383999362 0.47736463358997494
vt 0.7955362525647671 0.9254192034279528
vt 0.3497529612236703 0.4525728937596334
vt 0.27389288310221394 0.5033606534763551
vt 0.21956224098277793 0.6802911278274079
vt 0.470852998438325 0.19982857700790135
vt 0.5539760055636267 0.9001096716863786
vt 0.5977987704473163 0.9685738118487964
vt 0.3497932280794414 0.3817105827455509
vt 0.3566988185174297 0.4348689181899482
vt 0.12575240897059686 0.8066783671029136
vt 0.029540602043487386 0.9673089562953643
vt 0.4403284719058268 0.2577699250891531
vt 0.019531250000000413 0.98046875
vt 0.6386392455266817 0.8432738051514119
vt 0.35669881851742824 0.434868918189954
vt 0.41016146061944714 0.30471731255741796
vt 0.32560117862077503 0.49995334605995656
vt 0.2544696517922368 0.5379589424041735
vt 0.47173191910302065 0.19792423818277216
vt 0.38479726523547214 0.3206745557610716
vt 0.09105778048806229 0.894171315839638
vt 0.39332146755718733 0.24955229168143322
vt 0.6984409598834147 0.9560385551803918
vt 0.34979322807944 0.38171058274554803
vt 0.6922345863517704 0.8833863447808047
vt 0.36919337107193817 0.398147278987769
vt 0.31563669951866447 0.4319359096900368
vt 0.4536818575630089 0.10987747661519998
vt 0.38403290067138474 0.35785651959600595
vt 0.7906710422528438 0.9664506749302758
vt 0.8009326927772036 0.926982788298119
vt 0.43276349442210643 0.18967137593690653
vt 0.31563669951866447 0.43193590969003404
vt 0.66158210500338 0.9607867140437566
vt 0.16373345835862171 0.728476463551996
vt 0.6003850653133204 0.8121487859419746
vt 0.7089418168781079 0.8947835560446922
vt 0.8632812499999999 0.965730173755193
vt 0.40203103537901236 0.21930624715703095
vt 0.6575374538494383 0.8587320481358078
vt 0.8512651619753187 0.9543545586163213
vt 0.3795344706167478 0.3673467992184527
vt 0.42248873522021085 0.24104517194638309
vt 0.6003850653133204 0.8121487859419718
vt 0.8439984261178626 0.948582278452957
vt 0.40203103537901236 0.21930624715703384
vt 0.23919844130311882 0.6672003276138473
vt 0.46950209845834 0.11619416786444225
vt 0.8533075911832976 0.9669495387321873
vt 0.840696505755174 0.9685176819256427
vt 0.44940979836604383 0.10807869512265977
vt 0.574973703511084 0.7917224404632609
vt 0.1980578769821733 0.6663765393564296
vt 0.441791552698202 0.12480948737565767
vt 0.36919337107193817 0.3981472789877719
vt 0.6575374538494356 0.8587320481358023
vt 0.85126516197532 0.9543545586163186
vt 0.13102739090775162 0.8389952021180961
vt 0.03154678607639769 0.9692196077552757
vt 0.5453789281448407 0.9599898338526635
vt 0.3634088698093136 0.3669109721696011
vt 0.4014684740602508 0.32067455576106874
vt 0.22305839762713142 0.6035969572224288
vt 0.36744064250864095 0.35239659045202487
vt 0.06597478734834064 0.9266183814759011
vt 0.7135209933280515 0.8965746253008599
vt 0.8406965057551725 0.9685176819256399
vt 0.15791368577140716 0.7650578912430435
vt 0.22784644359825926 0.6871134123342771
vt 0.8466638070886512 0.9501567547457066
vt 0.48760138306190853 0.1246805583725209
vt 0.3062015630225606 0.44798124479876333
vt 0.3847972652354764 0.3206745557610716
vt 0.5992687036908507 0.8950771496722403
vt 0.4704154368030273 0.2006858442976971
vt 0.38667455870018824 0.3027251426197548
vt 0.6777707758712066 0.958699309858284
vt 0.031546786076394835 0.9692196077552757
vt 0.5453789281448407 0.9599898338526607
vt 0.41305987914935954 0.1870442272338717
vt 0.7089418168781064 0.8947835560446895
vt 0.2738928831022111 0.5033606534763551
vt 0.7402930951257213 0.9107458881958831
vt 0.22305839762713142 0.6035969572224231
vt 0.3860037189468211 0.3160856615798312
vt 0.5977987704473204 0.9685738118487992
vt 0.3120346152871753 0.5281222374954346
vt 0.27093603699225455 0.5544253276041899
vt 0.05951384547035313 0.9298488524148957
vt 0.3860037189468197 0.3160856615798283
vt 0.55594251650094 0.880836575557997
vt 0.6615821050033759 0.9607867140437538
vt 0.38667455870018824 0.30272514261975203
vt 0.6341286058299984 0.8396111830026733
vt 0.6922345863517689 0.8833863447808047
vt 0.47085299843832357 0.19982857700789847
vt 0.7402930951257226 0.9107458881958885
vt 0.13102739090775306 0.838995202118099
vt 0.4717319191030221 0.19792423818276927
vt 0.3933214675571888 0.24955229168143322
vt 0.09105778048806372 0.894171315839638
vt 0.6984409598834134 0.9560385551803973
vn 0.5197 0.2849 0.8054
vn 0.6014 0.4393 0.6674
vn 0.6339 0.0451 0.7721
vn 0.6087 0.4131 0.6774
vn 0.587 0.3384 0.7355
vn 0.6138 0.1419 0.7766
vn 0.5383 0.4312 0.7241
vn 0.4477 0.4401 0.7784
vn 0.448 0.4356 0.7807
vn 0.5797 0.1997 0.79
vn 0.5679 0.3531 0.7435
vn 0.546 0.4538 0.7042
vn 0.5691 0.3362 0.7504
vn 0.5827 0.446 0.6793
vn 0.6137 0.1754 0.7698
vn 0.6019 0.1082 0.7912
vn 0.5293 0.52 0.6704
vn 0.6386 0.3913 0.6626
vn 0.6515 0.3936 0.6485
vn 0.4797 0.0041 -0.8774
vn 0.5572 -0.0465 -0.8291
vn 0.4732 0.102 -0.875
vn 0.612 -0.0813 -0.7866
vn 0.3529 0.1411 -0.925
vn 0.4521 0.0026 -0.8919
vn 0.6182 -0.152 -0.7712
vn 0.5397 0.1196 -0.8333
vn 0.4571 0.004 -0.8894
vn 0.4988 0.0156 -0.8666
vn 0.5443 -0.0316 -0.8383
vn 0.4784 0.0801 -0.8745
vn 0.4989 0.0609 -0.8645
vn 0.3907 -0.0353 -0.9198
vn 0.3037 0.0282 -0.9524
vn 0.568 0.0332 -0.8224
vn 0.3298 0.036 -0.9433
vn 0.5521 -0.0351 -0.833
vn 0.5315 0.0958 -0.8416
vn 0.4846 0.1208 -0.8664
vn 0.4826 0.0024 -0.8759
vn 0.3125 0.0401 -0.9491
vn 0.4443 0.0875 -0.8916
vn 0.4315 0.0649 -0.8998
vn 0.3169 0.0544 -0.9469
vn 0.6049 0.0038 -0.7963
vn 0.627 -0.0041 -0.779
vn 0.2096 -0.0191 -0.9776
vn 0.5927 -0.1763 -0.7859
vn 0.219 0.0978 -0.9708
vn 0.5511 0.0428 -0.8333
vn 0.6797 0.0045 -0.7335
vn 0.739 -0.2129 -0.6392
vn 0.604 -0.0883 -0.7921
vn 0.609 0.0834 -0.7888
vn 0.3654 0.2314 -0.9016
vn 0.4589 0.2263 -0.8592
usemtl 5eb7eff9-4ab6-4ec9-ba50-14d97c0e5a4b
g 091_W_Aya_100K_01
f 17/46/11 6/137/11 14/79/11
usemtl 5eb7eff9-4ab6-4ec9-ba50-14d97c0e5a4b
g 091_W_Aya_100K_01
f 7/8/14 27/70/14 24/130/14
usemtl 5eb7eff9-4ab6-4ec9-ba50-14d97c0e5a4b
g 091_W_Aya_100K_01
f 17/46/11 14/79/11 10/34/11
usemtl 5eb7eff9-4ab6-4ec9-ba50-14d97c0e5a4b
g 091_W_Aya_100K_01
f 2/116/2 12/29/2 24/130/2
usemtl 5eb7eff9-4ab6-4ec9-ba50-14d97c0e5a4b
g 091_W_Aya_100K_01
f 14/158/6 6/93/6 23/122/6
usemtl 5eb7eff9-4ab6-4ec9-ba50-14d97c0e5a4b
g 091_W_Aya_100K_01
f 7/8/14 12/62/14 21/147/14
usemtl 5eb7eff9-4ab6-4ec9-ba50-14d97c0e5a4b
g 091_W_Aya_100K_01
f 7/8/14 24/130/14 12/62/14
usemtl 5eb7eff9-4ab6-4ec9-ba50-14d97c0e5a4b
g 091_W_Aya_100K_01
f 16/9/3 5/27/3 30/153/3
usemtl 5eb7eff9-4ab6-4ec9-ba50-14d97c0e5a4b
g 091_W_Aya_100K_01
f 17/46/4 24/130/4 27/41/4
usemtl 5eb7eff9-4ab6-4ec9-ba50-14d97c0e5a4b
g 091_W_Aya_100K_01
f 22/45/16 15/86/16 16/9/16
usemtl 5eb7eff9-4ab6-4ec9-ba50-14d97c0e5a4b
g 091_W_Aya_100K_01
f 34/87/10 20/101/10 9/31/10
usemtl 5eb7eff9-4ab6-4ec9-ba50-14d97c0e5a4b
g 091_W_Aya_100K_01
f 17/46/7 31/38/7 24/130/7
usemtl 5eb7eff9-4ab6-4ec9-ba50-14d97c0e5a4b
g 091_W_Aya_100K_01
f 16/9/3 30/153/3 22/57/3
usemtl 5eb7eff9-4ab6-4ec9-ba50-14d97c0e5a4b
g 091_W_Aya_100K_01
f 24/130/12 31/51/12 18/142/12
usemtl 5eb7eff9-4ab6-4ec9-ba50-14d97c0e5a4b
g 091_W_Aya_100K_01
f 22/45/16 34/53/16 15/86/16
usemtl 5eb7eff9-4ab6-4ec9-ba50-14d97c0e5a4b
g 091_W_Aya_100K_01
f 33/113/9 3/94/9 8/2/9
usemtl 5eb7eff9-4ab6-4ec9-ba50-14d97c0e5a4b
g 091_W_Aya_100K_01
f 24/130/17 19/26/17 2/135/17
usemtl 5eb7eff9-4ab6-4ec9-ba50-14d97c0e5a4b
g 091_W_Aya_100K_01
f 26/81/5 17/46/5 1/112/5
usemtl 5eb7eff9-4ab6-4ec9-ba50-14d97c0e5a4b
g 091_W_Aya_100K_01
f 23/32/15 5/27/15 28/36/15
usemtl 5eb7eff9-4ab6-4ec9-ba50-14d97c0e5a4b
g 091_W_Aya_100K_01
f 17/46/4 27/41/4 1/96/4
usemtl 5eb7eff9-4ab6-4ec9-ba50-14d97c0e5a4b
g 091_W_Aya_100K_01
f 23/32/15 30/139/15 5/27/15
usemtl 5eb7eff9-4ab6-4ec9-ba50-14d97c0e5a4b
g 091_W_Aya_100K_01
f 17/46/11 26/151/11 6/137/11
usemtl 5eb7eff9-4ab6-4ec9-ba50-14d97c0e5a4b
g 091_W_Aya_100K_01
f 25/92/18 4/33/18 13/108/18
usemtl 5eb7eff9-4ab6-4ec9-ba50-14d97c0e5a4b
g 091_W_Aya_100K_01
f 9/37/1 20/30/1 11/126/1
usemtl 5eb7eff9-4ab6-4ec9-ba50-14d97c0e5a4b
g 091_W_Aya_100K_01
f 17/46/7 32/148/7 31/38/7
usemtl 5eb7eff9-4ab6-4ec9-ba50-14d97c0e5a4b
g 091_W_Aya_100K_01
f 4/39/19 7/150/19 21/147/19
usemtl 5eb7eff9-4ab6-4ec9-ba50-14d97c0e5a4b
g 091_W_Aya_100K_01
f 14/158/6 23/122/6 28/40/6
usemtl 5eb7eff9-4ab6-4ec9-ba50-14d97c0e5a4b
g 091_W_Aya_100K_01
f 4/39/19 25/100/19 7/150/19
usemtl 5eb7eff9-4ab6-4ec9-ba50-14d97c0e5a4b
g 091_W_Aya_100K_01
f 24/130/17 18/63/17 19/26/17
usemtl 5eb7eff9-4ab6-4ec9-ba50-14d97c0e5a4b
g 091_W_Aya_100K_01
f 17/46/13 10/133/13 32/90/13
usemtl 5eb7eff9-4ab6-4ec9-ba50-14d97c0e5a4b
g 091_W_Aya_100K_01
f 11/12/8 8/105/8 29/106/8
usemtl 5eb7eff9-4ab6-4ec9-ba50-14d97c0e5a4b
g 091_W_Aya_100K_01
f 9/37/1 11/126/1 29/123/1
usemtl 5eb7eff9-4ab6-4ec9-ba50-14d97c0e5a4b
g 091_W_Aya_100K_01
f 34/87/10 9/31/10 15/86/10
usemtl 5eb7eff9-4ab6-4ec9-ba50-14d97c0e5a4b
g 091_W_Aya_100K_01
f 11/12/8 33/97/8 8/105/8
usemtl 5eb7eff9-4ab6-4ec9-ba50-14d97c0e5a4b
g 091_W_Aya_100K_01
f 70/124/22 71/154/22 38/157/22
usemtl 5eb7eff9-4ab6-4ec9-ba50-14d97c0e5a4b
g 091_W_Aya_100K_01
f 65/56/43 74/58/43 67/73/43
usemtl 5eb7eff9-4ab6-4ec9-ba50-14d97c0e5a4b
g 091_W_Aya_100K_01
f 65/56/53 64/71/53 74/19/53
usemtl 5eb7eff9-4ab6-4ec9-ba50-14d97c0e5a4b
g 091_W_Aya_100K_01
f 70/124/22 82/28/22 77/66/22
usemtl 5eb7eff9-4ab6-4ec9-ba50-14d97c0e5a4b
g 091_W_Aya_100K_01
f 80/60/36 73/11/36 70/124/36
usemtl 5eb7eff9-4ab6-4ec9-ba50-14d97c0e5a4b
g 091_W_Aya_100K_01
f 45/118/39 49/76/39 48/141/39
usemtl 5eb7eff9-4ab6-4ec9-ba50-14d97c0e5a4b
g 091_W_Aya_100K_01
f 46/88/27 42/99/27 50/156/27
usemtl 5eb7eff9-4ab6-4ec9-ba50-14d97c0e5a4b
g 091_W_Aya_100K_01
f 42/99/56 56/149/56 50/78/56
usemtl 5eb7eff9-4ab6-4ec9-ba50-14d97c0e5a4b
g 091_W_Aya_100K_01
f 72/16/29 41/109/29 80/60/29
usemtl 5eb7eff9-4ab6-4ec9-ba50-14d97c0e5a4b
g 091_W_Aya_100K_01
f 70/124/22 38/157/22 82/28/22
usemtl 5eb7eff9-4ab6-4ec9-ba50-14d97c0e5a4b
g 091_W_Aya_100K_01
f 46/88/42 55/131/42 42/99/42
usemtl 5eb7eff9-4ab6-4ec9-ba50-14d97c0e5a4b
g 091_W_Aya_100K_01
f 78/136/54 46/88/54 83/95/54
usemtl 5eb7eff9-4ab6-4ec9-ba50-14d97c0e5a4b
g 091_W_Aya_100K_01
f 68/117/26 47/82/26 64/65/26
usemtl 5eb7eff9-4ab6-4ec9-ba50-14d97c0e5a4b
g 091_W_Aya_100K_01
f 65/56/53 51/83/53 64/71/53
usemtl 5eb7eff9-4ab6-4ec9-ba50-14d97c0e5a4b
g 091_W_Aya_100K_01
f 78/136/46 40/110/46 66/52/46
usemtl 5eb7eff9-4ab6-4ec9-ba50-14d97c0e5a4b
g 091_W_Aya_100K_01
f 72/91/50 70/124/50 52/3/50
usemtl 5eb7eff9-4ab6-4ec9-ba50-14d97c0e5a4b
g 091_W_Aya_100K_01
f 68/117/26 64/65/26 51/89/26
usemtl 5eb7eff9-4ab6-4ec9-ba50-14d97c0e5a4b
g 091_W_Aya_100K_01
f 78/136/46 90/43/46 46/88/46
usemtl 5eb7eff9-4ab6-4ec9-ba50-14d97c0e5a4b
g 091_W_Aya_100K_01
f 45/118/39 48/141/39 62/55/39
usemtl 5eb7eff9-4ab6-4ec9-ba50-14d97c0e5a4b
g 091_W_Aya_100K_01
f 52/1/38 70/124/38 77/66/38
usemtl 5eb7eff9-4ab6-4ec9-ba50-14d97c0e5a4b
g 091_W_Aya_100K_01
f 42/99/55 86/68/55 62/72/55
usemtl 5eb7eff9-4ab6-4ec9-ba50-14d97c0e5a4b
g 091_W_Aya_100K_01
f 87/35/47 80/60/47 61/125/47
usemtl 5eb7eff9-4ab6-4ec9-ba50-14d97c0e5a4b
g 091_W_Aya_100K_01
f 46/88/28 58/127/28 81/75/28
usemtl 5eb7eff9-4ab6-4ec9-ba50-14d97c0e5a4b
g 091_W_Aya_100K_01
f 47/111/48 68/117/48 91/42/48
usemtl 5eb7eff9-4ab6-4ec9-ba50-14d97c0e5a4b
g 091_W_Aya_100K_01
f 76/140/35 88/13/35 59/144/35
usemtl 5eb7eff9-4ab6-4ec9-ba50-14d97c0e5a4b
g 091_W_Aya_100K_01
f 46/88/28 90/104/28 58/127/28
usemtl 5eb7eff9-4ab6-4ec9-ba50-14d97c0e5a4b
g 091_W_Aya_100K_01
f 78/136/46 66/52/46 90/43/46
usemtl 5eb7eff9-4ab6-4ec9-ba50-14d97c0e5a4b
g 091_W_Aya_100K_01
f 46/88/27 50/156/27 83/102/27
usemtl 5eb7eff9-4ab6-4ec9-ba50-14d97c0e5a4b
g 091_W_Aya_100K_01
f 80/60/36 87/35/36 73/11/36
usemtl 5eb7eff9-4ab6-4ec9-ba50-14d97c0e5a4b
g 091_W_Aya_100K_01
f 79/23/40 69/67/40 39/145/40
usemtl 5eb7eff9-4ab6-4ec9-ba50-14d97c0e5a4b
g 091_W_Aya_100K_01
f 35/59/23 85/128/23 65/56/23
usemtl 5eb7eff9-4ab6-4ec9-ba50-14d97c0e5a4b
g 091_W_Aya_100K_01
f 68/117/30 37/18/30 49/129/30
usemtl 5eb7eff9-4ab6-4ec9-ba50-14d97c0e5a4b
g 091_W_Aya_100K_01
f 88/74/37 35/138/37 65/56/37
usemtl 5eb7eff9-4ab6-4ec9-ba50-14d97c0e5a4b
g 091_W_Aya_100K_01
f 59/144/33 65/56/33 67/25/33
usemtl 5eb7eff9-4ab6-4ec9-ba50-14d97c0e5a4b
g 091_W_Aya_100K_01
f 68/117/30 49/129/30 45/6/30
usemtl 5eb7eff9-4ab6-4ec9-ba50-14d97c0e5a4b
g 091_W_Aya_100K_01
f 80/60/41 43/20/41 57/54/41
usemtl 5eb7eff9-4ab6-4ec9-ba50-14d97c0e5a4b
g 091_W_Aya_100K_01
f 68/117/26 51/89/26 53/80/26
usemtl 5eb7eff9-4ab6-4ec9-ba50-14d97c0e5a4b
g 091_W_Aya_100K_01
f 65/56/53 85/14/53 51/83/53
usemtl 5eb7eff9-4ab6-4ec9-ba50-14d97c0e5a4b
g 091_W_Aya_100K_01
f 70/124/44 73/24/44 71/114/44
usemtl 5eb7eff9-4ab6-4ec9-ba50-14d97c0e5a4b
g 091_W_Aya_100K_01
f 42/99/24 55/15/24 86/44/24
usemtl 5eb7eff9-4ab6-4ec9-ba50-14d97c0e5a4b
g 091_W_Aya_100K_01
f 46/88/42 84/61/42 55/131/42
usemtl 5eb7eff9-4ab6-4ec9-ba50-14d97c0e5a4b
g 091_W_Aya_100K_01
f 61/22/49 80/60/49 57/103/49
usemtl 5eb7eff9-4ab6-4ec9-ba50-14d97c0e5a4b
g 091_W_Aya_100K_01
f 39/47/20 38/77/20 79/121/20
usemtl 5eb7eff9-4ab6-4ec9-ba50-14d97c0e5a4b
g 091_W_Aya_100K_01
f 39/47/20 82/7/20 38/77/20
usemtl 5eb7eff9-4ab6-4ec9-ba50-14d97c0e5a4b
g 091_W_Aya_100K_01
f 88/74/37 65/56/37 59/144/37
usemtl 5eb7eff9-4ab6-4ec9-ba50-14d97c0e5a4b
g 091_W_Aya_100K_01
f 42/99/55 48/146/55 56/132/55
usemtl 5eb7eff9-4ab6-4ec9-ba50-14d97c0e5a4b
g 091_W_Aya_100K_01
f 42/99/55 62/72/55 48/146/55
usemtl 5eb7eff9-4ab6-4ec9-ba50-14d97c0e5a4b
g 091_W_Aya_100K_01
f 40/10/45 36/107/45 66/84/45
usemtl 5eb7eff9-4ab6-4ec9-ba50-14d97c0e5a4b
g 091_W_Aya_100K_01
f 60/69/31 69/17/31 54/134/31
usemtl 5eb7eff9-4ab6-4ec9-ba50-14d97c0e5a4b
g 091_W_Aya_100K_01
f 68/117/21 44/85/21 91/98/21
usemtl 5eb7eff9-4ab6-4ec9-ba50-14d97c0e5a4b
g 091_W_Aya_100K_01
f 63/5/51 37/120/51 68/117/51
usemtl 5eb7eff9-4ab6-4ec9-ba50-14d97c0e5a4b
g 091_W_Aya_100K_01
f 72/16/29 80/60/29 70/124/29
usemtl 5eb7eff9-4ab6-4ec9-ba50-14d97c0e5a4b
g 091_W_Aya_100K_01
f 46/88/28 81/75/28 84/152/28
usemtl 5eb7eff9-4ab6-4ec9-ba50-14d97c0e5a4b
g 091_W_Aya_100K_01
f 63/49/52 68/117/52 53/64/52
usemtl 5eb7eff9-4ab6-4ec9-ba50-14d97c0e5a4b
g 091_W_Aya_100K_01
f 59/144/32 41/109/32 76/119/32
usemtl 5eb7eff9-4ab6-4ec9-ba50-14d97c0e5a4b
g 091_W_Aya_100K_01
f 59/144/34 75/21/34 43/20/34
usemtl 5eb7eff9-4ab6-4ec9-ba50-14d97c0e5a4b
g 091_W_Aya_100K_01
f 59/144/32 80/60/32 41/109/32
usemtl 5eb7eff9-4ab6-4ec9-ba50-14d97c0e5a4b
g 091_W_Aya_100K_01
f 80/60/41 59/144/41 43/20/41
usemtl 5eb7eff9-4ab6-4ec9-ba50-14d97c0e5a4b
g 091_W_Aya_100K_01
f 79/23/40 54/115/40 69/67/40
usemtl 5eb7eff9-4ab6-4ec9-ba50-14d97c0e5a4b
g 091_W_Aya_100K_01
f 81/155/25 58/48/25 89/50/25
usemtl 5eb7eff9-4ab6-4ec9-ba50-14d97c0e5a4b
g 091_W_Aya_100K_01
f 59/144/33 67/25/33 75/143/33
usemtl 5eb7eff9-4ab6-4ec9-ba50-14d97c0e5a4b
g 091_W_Aya_100K_01
f 68/117/30 45/6/30 44/4/30
