mtllib 326.mtl
v 73.6792 1094.9272 115.9235
v 70.886 1101.0969 120.5849
v 77.2766 1092.5387 117.0152
v 69.4983 1097.2556 122.5379
v 85.0823 1088.1444 122.5409
v 80.8484 1091.3551 120.3177
v 71.7446 1087.8297 115.3575
v 75.8406 1096.1852 117.8653
v 69.6019 1092.423 123.3547
v 70.5425 1087.8281 116.4279
v 74.8662 1095.0339 125.9882
v 70.8807 1100.6603 121.9059
v 70.6108 1095.4998 115.7821
v 71.43698318556314 1086.896895 123.72980424095039
v 83.55486038987195 1086.896895 117.40276066115798
v 76.7065 1088.6196 115.3538
v 68.1079 1098.9 118.6709
v 71.17766096766817 1086.896895 123.14533835382449
v 68.7928 1091.0818 117.878
v 72.26955745288433 1086.896895 115.39604321444224
v 70.25945011250039 1086.896895 118.72557820196461
v 71.6423 1090.675 115.4756
v 72.0275 1090.6022 125.4661
v 71.40735857082151 1086.896895 123.67657062401013
v 70.6851129075603 1086.896895 117.25240160045321
v 85.85716229344945 1086.896895 123.69187071962027
v 78.8438 1094.7634 120.7922
v 70.0493023913204 1086.896895 120.1713110406553
v 72.83758672178918 1086.896895 115.16350417332505
v 77.8476653728732 1086.896895 114.90569156172155
v 83.50264536654076 1086.896895 117.35181585603702
v 74.3297 1100.054 121.4194
v 71.0729 1099.4882 117.8265
v 76.6055 1095.863 125.2115
v 75.33995268118196 1086.896895 114.88394856940126
v 67.8688 1094.6804 119.0674
v 75.86900170939282 1086.896895 114.81174590648075
v 79.06188449187192 1086.896895 115.15019963512827
v 83.06541857845193 1086.896895 117.13492350696282
v 80.8818 1092.1697 122.719
v 80.229 1090.394 118.5157
v 71.889 1093.8538 125.2145
v 69.0186 1099.9279 120.0348
v 75.3436 1087.3479 114.9183
v 84.2595 1088.3071 119.937
v 69.807 1087.4379 120.4243
v 69.6155 1100.2257 118.5537
v 73.64677864266227 1086.896895 125.67685111360899
v 73.4149 1090.9252 114.8682
v 71.06513804892641 1086.896895 116.48303315224462
v 85.66278711165043 1086.896895 124.13679592233008
v 68.4545 1091.9569 121.0464
v 73.0303 1101.017 121.9116
v 68.3823 1097.8846 117.33
v 85.56095784781424 1086.896895 124.37418995812176
v 73.553 1099.7544 123.9608
v 70.12027069733126 1086.896895 120.68992351565635
v 72.0649 1100.2051 118.887
v 71.49308939682459 1086.896895 123.79105131398607
v 72.3264 1098.7717 124.1235
v 74.4504 1099.7725 123.5318
v 80.6423 1091.5532 124.7463
v 71.23590290985766 1086.896895 116.31570662650603
v 68.0786 1095.6172 120.8457
v 69.5747 1092.3955 116.4475
v 69.4983 1097.2556 122.5379
v 69.6019 1092.423 123.3547
v 74.8662 1095.0339 125.9882
v 80.44623824086555 1086.896895 126.7770141899368
v 79.9877 1087.5459 126.6829
v 75.6909086702269 1086.896895 126.47232340085822
v 81.1046 1088.7219 126.0894
v 79.14143247898213 1086.896895 126.75786270733924
v 77.35525298654167 1086.896895 126.74936900278115
v 73.64677864266227 1086.896895 125.67685111360899
v 73.788 1092.2444 126.3852
v 76.0269 1090.8982 126.8769
v 72.0275 1090.6022 125.4661
v 77.9444024945426 1086.896895 126.84136215008775
v 76.6055 1095.863 125.2115
v 74.0216 1089.3538 126.4345
v 71.889 1093.8538 125.2145
v 73.83404734131908 1086.896895 125.79286790073364
v 73.553 1099.7544 123.9608
v 81.87793325011975 1086.896895 126.4661174478433
v 76.9786 1092.9801 126.3667
v 72.3264 1098.7717 124.1235
v 80.6423 1091.5532 124.7463
v 85.0823 1088.1444 122.5409
v 80.8484 1091.3551 120.3177
v 80.8818 1092.1697 122.719
v 85.58276345570962 1086.896895 120.07492752285708
v 83.55486038987195 1086.896895 117.40276066115798
v 84.2595 1088.3071 119.937
v 86.10979397612107 1086.896895 122.11027374477924
v 85.33314655325893 1086.896895 119.53993635731153
v 84.18085744866562 1086.896895 125.56052318653781
v 86.12064259912925 1086.896895 122.4313169657095
v 85.56095784781424 1086.896895 124.37418995812176
v 85.85716229344945 1086.896895 123.69187071962027
v 83.7127298416088 1086.896895 117.56583498629627
v 80.6423 1091.5532 124.7463
v 82.27227088483308 1086.896895 126.43337991974768
v 84.18085744866562 1086.896895 125.56052318653781
v 81.1046 1088.7219 126.0894
v 81.87793325011975 1086.896895 126.4661174478433
v 80.6423 1091.5532 124.7463
v 82.95678879691528 1086.896895 126.17497249950952
vt 0.5594057142350263 0.6034410656822415
vt 0.861176815572614 0.42926525823926653
vt 0.3224177156725377 0.5931372396577868
vt 0.5903171923083906 0.18613611169177713
vt 0.6778997135162678 0.2737186328996486
vt 0.6360523219045203 0.625984185585033
vt 0.23118423041837718 0.8441523391518799
vt 0.8302328119640396 0.4876402444361294
vt 0.3526971173317241 0.7482882429590634
vt 0.6418363224306702 0.4797951533887671
vt 0.626380583393988 0.052186373373847905
vt 0.7601148765394986 0.5537192497067833
vt 0.3893925848314995 0.6961754999023461
vt 0.14210076024456186 0.4179721972420326
vt 0.38783924594318664 0.7287956165568993
vt 0.8611768155726084 0.4292652582392722
vt 0.819373082379598 0.5004240523927536
vt 0.318337273788134 0.7714139741435637
vt 0.20907562940352364 0.3767568931442078
vt 0.3064822017139825 0.780904493804643
vt 0.7860029094640753 0.16605032349673066
vt 0.7601148765394986 0.5537192497067891
vt 0.8577066674766539 0.4373722407044961
vt 0.5130384971249741 0.22219950277736888
vt 0.40484832386818737 0.4849470664009945
vt 0.23413195803998924 0.841361558708935
vt 0.15755649928124402 0.5622257615844168
vt 0.3526971173317356 0.7482882429590634
vt 0.7757860607485996 0.4694913273643123
vt 0.23118423041836575 0.8441523391518799
vt 0.4155009637881025 0.7135810858734091
vt 0.6360523219045203 0.6259841855850387
vt 0.24681045966287724 0.8308421893206764
vt 0.2708985855502581 0.39221263218089575
vt 0.6048786851836153 0.6395058357449241
vt 0.3018100636236281 0.763150369061308
vt 0.826909086930138 0.24690227830667988
vt 0.20392371639129625 0.6601121088167486
vt 0.46680272650858246 0.6913047337574568
vt 0.7480997996125042 0.560984896472307
vt 0.15956023302774736 0.9609375000000002
vt 0.22968328145243322 0.4643394143520849
vt 0.5516482250909897 0.6618433424786994
vt 0.6212286703817607 0.12431315554504274
vt 0.3275696286847651 0.28402245892410904
vt 0.780937973760827 0.19643993771623192
vt 0.4460636279660065 0.5879853266455537
vt 0.5516482250910067 0.6618433424787166
vt 0.38783924594318664 0.7287956165568936
vt 0.8406856138897021 0.27828044688551135
vt 0.03906250000000259 0.8043656731591328
vt 0.4509443778265781 0.6959043367506845
vt 0.7668166481131962 0.1331366693469549
vt 0.23289971497725928 0.8424627047494602
vt 0.5336461491738836 0.6549601958045213
vt 0.2554428465135759 0.1552246336184071
vt 0.4668027265085882 0.6913047337574568
vt 0.049366326024457376 0.7116312389390282
vt 0.7665244717506956 0.5482148338465329
vt 0.7558634639188467 0.1169278136362829
vt 0.1866935540091467 0.9070873770130174
vt 0.19877180337906888 0.2994781979607912
vt 0.5336461491738836 0.08824976445944532
vt 0.8671874999999969 0.38117103220565696
vt 0.8554523148409374 0.32191148183063134
vt 0.7615863690176153 0.5521154740366028
vt 0.8055238255420281 0.2034644667965776
vt 0.4409117149537791 0.4179721972420326
vt 0.8406856138896907 0.2782804468854999
vt 0.7480997996125098 0.560984896472307
vt 0.39969641085596 0.6137448917066963
vt 0.36363301977036255 0.3046301109730186
vt 0.8302328119640396 0.487640244436118
vt 0.4155009637881082 0.7135810858734204
vt 0.2915062375991676 0.6395044567678334
vt 0.8666858795251633 0.3726066246186004
vt 0.49758275808828617 0.1655284596428619
vt 0.14210076024456186 0.6961754999023461
vt 0.43060788892932433 0.6755678478534308
vt 0.40936910910081 0.716776290555075
vt 0.8326063125646678 0.2586010554946462
vt 0.7665244717506899 0.5482148338465271
vt 0.43060788892932433 0.08824976445944532
vt 0.36363301977036255 0.23250332880182945
vt 0.23289971497724785 0.8424627047494545
vt 0.8671875000000027 0.38117103220565696
vt 0.2915062375991676 0.3613011541075256
vt 0.8170013648464244 0.4076683712175778
vt 0.23413195803998924 0.8413615587089236
vt 0.18846797735460838 0.44373176230317535
vt 0.45094437782656666 0.6959043367506789
vt 0.652140148455125 0.4128202842298052
vt 0.08542971711004911 0.5416181095355073
vt 0.8666858795251576 0.37260662461859473
vt 0.7668166481131962 0.13313666934694346
vt 0.7615863690176097 0.5521154740366085
vt 0.18669355400914098 0.9070873770130117
vt 0.8269090869301265 0.24690227830667988
vt 0.5363563418582715 0.6676077616649887
vt 0.31833727378812826 0.771413974143558
vt 0.2605947595258033 0.3046301109730186
vt 0.11634119518341918 0.7992137601468996
vt 0.5542538012227989 0.366453067119753
vt 0.21422754241575104 0.5673776745966441
vt 0.24681045966288867 0.8308421893206821
vt 0.2760504985624855 0.2685667198874212
vt 0.5284942361616563 0.49009897941322755
vt 0.8193730823795923 0.5004240523927592
vt 0.10603736915896439 0.8816443683425493
vt 0.6048786851836268 0.6395058357449184
vt 0.8326063125646678 0.2586010554946405
vt 0.8554523148409088 0.32191148183060847
vt 0.3064822017139768 0.780904493804643
vt 0.7558634639188353 0.11692781363627713
vt 0.3224177156725377 0.5055547184499097
vt 0.7654822347241448 0.24280715482628423
vt 0.1822970474621964 0.9130454123497652
vt 0.8055238255420281 0.20346446679657182
vt 0.38424067181927213 0.253110980850739
vt 0.8577066674766483 0.4373722407044961
vt 0.6572920614673524 0.33554158904638864
vt 0.7254969979658004 0.07002732799677358
vt 0.34817728073368037 0.2015918507284593
vt 0.4093691091008042 0.7167762905550692
vt 0.8670016545797242 0.39433496062203355
vt 0.5363563418582658 0.6676077616649772
vn -0.1565 0.938 0.3094
vn -0.3674 -0.2438 -0.8975
vn 0.3679 0.5383 -0.7582
vn 0.2948 0.2254 -0.9286
vn -0.5681 0.5959 -0.5675
vn -0.8987 -0.0888 -0.4295
vn -0.9263 -0.3519 -0.1347
vn 0.611 0.7885 0.0702
vn 0.7488 0.6043 0.2722
vn 0.0908 0.2483 -0.9644
vn -0.1595 0.3518 0.9224
vn -0.6398 -0.2381 0.7307
vn -0.323 -0.0089 -0.9464
vn -0.8836 -0.4523 0.1209
vn 0.0902 0.7839 -0.6143
vn -0.566 0.7834 0.2567
vn -0.7924 -0.4679 -0.3914
vn -0.3657 0.5773 0.73
vn 0.6276 0.7346 -0.2579
vn -0.5219 0.8521 -0.039
vn 0.1233 0.4413 -0.8888
vn 0.2149 0.1023 -0.9713
vn -0.2972 -0.1734 -0.9389
vn -0.4095 0.0231 -0.912
vn -0.1142 0.4636 -0.8787
vn -0.8942 -0.3657 -0.2584
vn 0.7625 0.6456 0.0424
vn -0.1348 0.0763 -0.9879
vn 0.4501 0.2922 -0.8438
vn 0.6682 0.6843 0.2919
vn -0.9821 -0.0918 0.1643
vn -0.9708 -0.2366 -0.0383
vn 0.4021 0.5387 -0.7404
vn -0.8881 -0.0663 0.4549
vn -0.1162 0.037 -0.9925
vn -0.598 0.3744 0.7087
vn -0.6609 0.7412 -0.1173
vn -0.8718 -0.3128 0.3769
vn 0.5212 0.6656 -0.5341
vn 0.6663 0.5726 0.4777
vn -0.8015 0.0829 0.5922
vn 0.6766 0.6237 -0.3913
vn -0.5627 0.0107 -0.8266
vn 0.7652 0.6415 0.0542
vn -0.7934 -0.1656 -0.5857
vn 0.0455 0.2796 -0.959
vn -0.9738 0.034 -0.2251
vn 0.7168 0.4872 -0.4988
vn -0.1107 0.0763 -0.9909
vn -0.4522 -0.0401 -0.891
vn 0.4614 0.8089 -0.3644
vn -0.9586 -0.2836 -0.024
vn 0.6699 0.6846 0.2873
vn 0.3576 0.5281 0.7703
vn -0.8503 0.2704 0.4516
vn 0.2092 0.8555 0.4737
vn -0.9944 0.0642 0.0835
vn 0.63 0.4029 -0.6639
vn 0.5771 0.6632 -0.4766
vn -0.6418 -0.399 -0.6549
vn -0.7234 0.3984 0.564
vn 0.7113 0.4887 -0.5051
vn 0.8351 0.5172 -0.1871
vn -0.6587 -0.1364 -0.7399
vn -0.8822 0.2655 0.3889
vn 0.2327 0.9182 -0.3207
vn -0.1387 0.827 0.5449
vn 0.4886 0.376 -0.7874
vn -0.1554 0.5207 -0.8395
vn -0.7232 -0.1952 0.6625
vn -0.8463 -0.249 0.471
vn 0.0658 0.9015 -0.4278
vn -0.6161 -0.3753 -0.6925
vn -0.5658 0.2262 0.7929
vn -0.8702 -0.3199 0.3747
vn 0.1842 0.3599 -0.9146
vn 0.5755 0.2468 -0.7797
vn -0.8347 -0.0941 -0.5426
vn 0.3616 0.5812 -0.729
vn 0.3616 0.5806 -0.7294
vn 0.0399 0.2206 0.9745
vn 0.4484 0.3819 0.8081
vn -0.2149 -7.0E-4 0.9766
vn -0.6676 0.1101 0.7363
vn -0.4957 0.046 0.8673
vn -0.6425 0.0319 0.7656
vn 0.2479 0.2385 0.939
vn -0.4473 -0.0209 0.8941
vn 0.2104 0.1409 0.9674
vn 0.1884 0.4314 0.8823
vn -0.0146 0.1334 0.991
vn 0.2038 0.28 0.9381
vn -0.1634 -0.0959 0.9819
vn -0.3357 -0.214 0.9173
vn -0.1537 -0.0824 0.9847
vn 0.2158 0.3871 0.8964
vn -0.3072 0.2494 0.9184
vn 0.5428 0.4306 0.721
vn -0.36 0.2324 0.9035
vn -0.5182 -0.1789 0.8364
vn 0.0695 0.0245 0.9973
vn -0.1063 0.1803 0.9778
vn 0.552 0.5318 0.6422
vn 0.7045 0.6289 -0.3287
vn 0.6133 0.6087 -0.5034
vn 0.6781 0.7151 -0.1696
vn 0.7672 0.6409 -0.0259
vn 0.7656 0.6232 0.16
vn 0.7254 0.6623 -0.1878
vn 0.5364 0.6652 -0.5193
vn 0.3277 0.3732 0.868
vn 0.4017 0.4452 0.8003
vn 0.0804 0.2341 0.9689
usemtl 30378b77-0288-41c3-ac02-b7c3b9df3bd8
g 091_W_Aya_100K_01
f 54/42/25 33/34/25 13/115/25
usemtl 30378b77-0288-41c3-ac02-b7c3b9df3bd8
g 091_W_Aya_100K_01
f 49/47/10 13/115/10 1/25/10
usemtl 30378b77-0288-41c3-ac02-b7c3b9df3bd8
g 091_W_Aya_100K_01
f 37/43/28 35/99/28 44/55/28
usemtl 30378b77-0288-41c3-ac02-b7c3b9df3bd8
g 091_W_Aya_100K_01
f 6/92/19 40/121/19 45/29/19
usemtl 30378b77-0288-41c3-ac02-b7c3b9df3bd8
g 091_W_Aya_100K_01
f 46/36/7 19/75/7 21/28/7
usemtl 30378b77-0288-41c3-ac02-b7c3b9df3bd8
g 091_W_Aya_100K_01
f 40/121/53 55/76/53 51/86/53
usemtl 30378b77-0288-41c3-ac02-b7c3b9df3bd8
g 091_W_Aya_100K_01
f 40/121/53 62/5/53 55/76/53
usemtl 30378b77-0288-41c3-ac02-b7c3b9df3bd8
g 091_W_Aya_100K_01
f 12/106/18 60/123/18 56/84/18
usemtl 30378b77-0288-41c3-ac02-b7c3b9df3bd8
g 091_W_Aya_100K_01
f 20/91/73 10/13/73 7/79/73
usemtl 30378b77-0288-41c3-ac02-b7c3b9df3bd8
g 091_W_Aya_100K_01
f 40/121/30 26/125/30 5/88/30
usemtl 30378b77-0288-41c3-ac02-b7c3b9df3bd8
g 091_W_Aya_100K_01
f 44/55/22 49/47/22 16/1/22
usemtl 30378b77-0288-41c3-ac02-b7c3b9df3bd8
g 091_W_Aya_100K_01
f 13/115/43 65/3/43 54/42/43
usemtl 30378b77-0288-41c3-ac02-b7c3b9df3bd8
g 091_W_Aya_100K_01
f 10/13/45 19/75/45 65/3/45
usemtl 30378b77-0288-41c3-ac02-b7c3b9df3bd8
g 091_W_Aya_100K_01
f 19/75/52 46/36/52 52/38/52
usemtl 30378b77-0288-41c3-ac02-b7c3b9df3bd8
g 091_W_Aya_100K_01
f 44/55/23 22/71/23 49/47/23
usemtl 30378b77-0288-41c3-ac02-b7c3b9df3bd8
g 091_W_Aya_100K_01
f 44/55/35 7/79/35 22/71/35
usemtl 30378b77-0288-41c3-ac02-b7c3b9df3bd8
g 091_W_Aya_100K_01
f 65/3/78 19/75/78 54/42/78
usemtl 30378b77-0288-41c3-ac02-b7c3b9df3bd8
g 091_W_Aya_100K_01
f 43/62/16 12/106/16 2/101/16
usemtl 30378b77-0288-41c3-ac02-b7c3b9df3bd8
g 091_W_Aya_100K_01
f 58/87/59 32/72/59 8/68/59
usemtl 30378b77-0288-41c3-ac02-b7c3b9df3bd8
g 091_W_Aya_100K_01
f 4/56/61 12/106/61 43/62/61
usemtl 30378b77-0288-41c3-ac02-b7c3b9df3bd8
g 091_W_Aya_100K_01
f 40/121/30 51/64/30 26/125/30
usemtl 30378b77-0288-41c3-ac02-b7c3b9df3bd8
g 091_W_Aya_100K_01
f 8/68/68 3/107/68 1/25/68
usemtl 30378b77-0288-41c3-ac02-b7c3b9df3bd8
g 091_W_Aya_100K_01
f 2/101/66 53/45/66 58/87/66
usemtl 30378b77-0288-41c3-ac02-b7c3b9df3bd8
g 091_W_Aya_100K_01
f 56/84/54 34/24/54 61/119/54
usemtl 30378b77-0288-41c3-ac02-b7c3b9df3bd8
g 091_W_Aya_100K_01
f 49/47/13 22/71/13 13/115/13
usemtl 30378b77-0288-41c3-ac02-b7c3b9df3bd8
g 091_W_Aya_100K_01
f 52/38/71 24/89/71 14/54/71
usemtl 30378b77-0288-41c3-ac02-b7c3b9df3bd8
g 091_W_Aya_100K_01
f 12/106/1 53/45/1 2/101/1
usemtl 30378b77-0288-41c3-ac02-b7c3b9df3bd8
g 091_W_Aya_100K_01
f 3/107/29 16/1/29 1/25/29
usemtl 30378b77-0288-41c3-ac02-b7c3b9df3bd8
g 091_W_Aya_100K_01
f 18/33/38 24/26/38 52/38/38
usemtl 30378b77-0288-41c3-ac02-b7c3b9df3bd8
g 091_W_Aya_100K_01
f 10/13/26 25/15/26 21/9/26
usemtl 30378b77-0288-41c3-ac02-b7c3b9df3bd8
g 091_W_Aya_100K_01
f 53/45/67 12/106/67 56/84/67
usemtl 30378b77-0288-41c3-ac02-b7c3b9df3bd8
g 091_W_Aya_100K_01
f 52/38/71 14/54/71 9/78/71
usemtl 30378b77-0288-41c3-ac02-b7c3b9df3bd8
g 091_W_Aya_100K_01
f 64/27/31 36/104/31 52/38/31
usemtl 30378b77-0288-41c3-ac02-b7c3b9df3bd8
g 091_W_Aya_100K_01
f 7/79/24 65/3/24 22/71/24
usemtl 30378b77-0288-41c3-ac02-b7c3b9df3bd8
g 091_W_Aya_100K_01
f 60/123/36 12/106/36 4/56/36
usemtl 30378b77-0288-41c3-ac02-b7c3b9df3bd8
g 091_W_Aya_100K_01
f 43/14/37 47/19/37 17/90/37
usemtl 30378b77-0288-41c3-ac02-b7c3b9df3bd8
g 091_W_Aya_100K_01
f 20/91/73 63/31/73 10/13/73
usemtl 30378b77-0288-41c3-ac02-b7c3b9df3bd8
g 091_W_Aya_100K_01
f 9/78/70 14/85/70 59/7/70
usemtl 30378b77-0288-41c3-ac02-b7c3b9df3bd8
g 091_W_Aya_100K_01
f 13/115/50 22/71/50 65/3/50
usemtl 30378b77-0288-41c3-ac02-b7c3b9df3bd8
g 091_W_Aya_100K_01
f 47/19/5 54/42/5 17/90/5
usemtl 30378b77-0288-41c3-ac02-b7c3b9df3bd8
g 091_W_Aya_100K_01
f 65/3/64 7/79/64 10/13/64
usemtl 30378b77-0288-41c3-ac02-b7c3b9df3bd8
g 091_W_Aya_100K_01
f 41/10/79 31/22/79 39/70/79
usemtl 30378b77-0288-41c3-ac02-b7c3b9df3bd8
g 091_W_Aya_100K_01
f 61/119/40 34/24/40 62/5/40
usemtl 30378b77-0288-41c3-ac02-b7c3b9df3bd8
g 091_W_Aya_100K_01
f 50/124/17 25/49/17 10/13/17
usemtl 30378b77-0288-41c3-ac02-b7c3b9df3bd8
g 091_W_Aya_100K_01
f 53/45/51 32/72/51 58/87/51
usemtl 30378b77-0288-41c3-ac02-b7c3b9df3bd8
g 091_W_Aya_100K_01
f 30/35/46 37/48/46 44/55/46
usemtl 30378b77-0288-41c3-ac02-b7c3b9df3bd8
g 091_W_Aya_100K_01
f 43/14/65 17/90/65 64/27/65
usemtl 30378b77-0288-41c3-ac02-b7c3b9df3bd8
g 091_W_Aya_100K_01
f 44/55/49 35/126/49 29/57/49
usemtl 30378b77-0288-41c3-ac02-b7c3b9df3bd8
g 091_W_Aya_100K_01
f 61/119/9 62/5/9 40/121/9
usemtl 30378b77-0288-41c3-ac02-b7c3b9df3bd8
g 091_W_Aya_100K_01
f 47/19/69 33/34/69 54/42/69
usemtl 30378b77-0288-41c3-ac02-b7c3b9df3bd8
g 091_W_Aya_100K_01
f 53/45/8 61/119/8 32/72/8
usemtl 30378b77-0288-41c3-ac02-b7c3b9df3bd8
g 091_W_Aya_100K_01
f 58/87/15 33/34/15 47/19/15
usemtl 30378b77-0288-41c3-ac02-b7c3b9df3bd8
g 091_W_Aya_100K_01
f 9/78/70 59/7/70 23/102/70
usemtl 30378b77-0288-41c3-ac02-b7c3b9df3bd8
g 091_W_Aya_100K_01
f 60/123/11 11/77/11 56/84/11
usemtl 30378b77-0288-41c3-ac02-b7c3b9df3bd8
g 091_W_Aya_100K_01
f 29/39/2 20/52/2 7/79/2
usemtl 30378b77-0288-41c3-ac02-b7c3b9df3bd8
g 091_W_Aya_100K_01
f 16/1/80 39/40/80 38/6/80
usemtl 30378b77-0288-41c3-ac02-b7c3b9df3bd8
g 091_W_Aya_100K_01
f 64/27/34 52/38/34 9/78/34
usemtl 30378b77-0288-41c3-ac02-b7c3b9df3bd8
g 091_W_Aya_100K_01
f 4/56/74 42/83/74 60/123/74
usemtl 30378b77-0288-41c3-ac02-b7c3b9df3bd8
g 091_W_Aya_100K_01
f 63/74/60 50/80/60 10/13/60
usemtl 30378b77-0288-41c3-ac02-b7c3b9df3bd8
g 091_W_Aya_100K_01
f 18/33/38 52/38/38 46/36/38
usemtl 30378b77-0288-41c3-ac02-b7c3b9df3bd8
g 091_W_Aya_100K_01
f 30/110/76 16/1/76 38/32/76
usemtl 30378b77-0288-41c3-ac02-b7c3b9df3bd8
g 091_W_Aya_100K_01
f 9/78/41 4/93/41 64/27/41
usemtl 30378b77-0288-41c3-ac02-b7c3b9df3bd8
g 091_W_Aya_100K_01
f 41/10/77 16/1/77 3/107/77
usemtl 30378b77-0288-41c3-ac02-b7c3b9df3bd8
g 091_W_Aya_100K_01
f 18/105/75 46/36/75 57/113/75
usemtl 30378b77-0288-41c3-ac02-b7c3b9df3bd8
g 091_W_Aya_100K_01
f 30/35/46 44/55/46 16/1/46
usemtl 30378b77-0288-41c3-ac02-b7c3b9df3bd8
g 091_W_Aya_100K_01
f 1/25/4 16/1/4 49/47/4
usemtl 30378b77-0288-41c3-ac02-b7c3b9df3bd8
g 091_W_Aya_100K_01
f 59/30/12 48/97/12 23/102/12
usemtl 30378b77-0288-41c3-ac02-b7c3b9df3bd8
g 091_W_Aya_100K_01
f 36/104/47 17/90/47 54/42/47
usemtl 30378b77-0288-41c3-ac02-b7c3b9df3bd8
g 091_W_Aya_100K_01
f 52/38/32 36/104/32 19/75/32
usemtl 30378b77-0288-41c3-ac02-b7c3b9df3bd8
g 091_W_Aya_100K_01
f 8/68/58 41/10/58 3/107/58
usemtl 30378b77-0288-41c3-ac02-b7c3b9df3bd8
g 091_W_Aya_100K_01
f 36/104/6 54/42/6 19/75/6
usemtl 30378b77-0288-41c3-ac02-b7c3b9df3bd8
g 091_W_Aya_100K_01
f 47/19/20 43/62/20 2/101/20
usemtl 30378b77-0288-41c3-ac02-b7c3b9df3bd8
g 091_W_Aya_100K_01
f 46/36/7 21/28/7 28/100/7
usemtl 30378b77-0288-41c3-ac02-b7c3b9df3bd8
g 091_W_Aya_100K_01
f 57/20/14 46/36/14 28/18/14
usemtl 30378b77-0288-41c3-ac02-b7c3b9df3bd8
g 091_W_Aya_100K_01
f 10/13/26 21/9/26 19/75/26
usemtl 30378b77-0288-41c3-ac02-b7c3b9df3bd8
g 091_W_Aya_100K_01
f 8/68/42 32/72/42 27/103/42
usemtl 30378b77-0288-41c3-ac02-b7c3b9df3bd8
g 091_W_Aya_100K_01
f 2/101/72 58/87/72 47/19/72
usemtl 30378b77-0288-41c3-ac02-b7c3b9df3bd8
g 091_W_Aya_100K_01
f 64/27/57 17/90/57 36/104/57
usemtl 30378b77-0288-41c3-ac02-b7c3b9df3bd8
g 091_W_Aya_100K_01
f 27/103/44 61/119/44 40/121/44
usemtl 30378b77-0288-41c3-ac02-b7c3b9df3bd8
g 091_W_Aya_100K_01
f 6/92/39 31/12/39 41/10/39
usemtl 30378b77-0288-41c3-ac02-b7c3b9df3bd8
g 091_W_Aya_100K_01
f 41/10/79 39/70/79 16/1/79
usemtl 30378b77-0288-41c3-ac02-b7c3b9df3bd8
g 091_W_Aya_100K_01
f 58/87/3 8/68/3 1/25/3
usemtl 30378b77-0288-41c3-ac02-b7c3b9df3bd8
g 091_W_Aya_100K_01
f 27/103/63 40/121/63 6/92/63
usemtl 30378b77-0288-41c3-ac02-b7c3b9df3bd8
g 091_W_Aya_100K_01
f 27/103/62 6/92/62 41/10/62
usemtl 30378b77-0288-41c3-ac02-b7c3b9df3bd8
g 091_W_Aya_100K_01
f 1/25/21 13/115/21 33/34/21
usemtl 30378b77-0288-41c3-ac02-b7c3b9df3bd8
g 091_W_Aya_100K_01
f 27/103/48 41/10/48 8/68/48
usemtl 30378b77-0288-41c3-ac02-b7c3b9df3bd8
g 091_W_Aya_100K_01
f 6/92/39 15/66/39 31/12/39
usemtl 30378b77-0288-41c3-ac02-b7c3b9df3bd8
g 091_W_Aya_100K_01
f 44/55/49 29/57/49 7/79/49
usemtl 30378b77-0288-41c3-ac02-b7c3b9df3bd8
g 091_W_Aya_100K_01
f 27/103/27 32/72/27 61/119/27
usemtl 30378b77-0288-41c3-ac02-b7c3b9df3bd8
g 091_W_Aya_100K_01
f 64/27/55 4/93/55 43/14/55
usemtl 30378b77-0288-41c3-ac02-b7c3b9df3bd8
g 091_W_Aya_100K_01
f 33/34/33 58/87/33 1/25/33
usemtl 30378b77-0288-41c3-ac02-b7c3b9df3bd8
g 091_W_Aya_100K_01
f 56/84/56 61/119/56 53/45/56
usemtl 30378b77-0288-41c3-ac02-b7c3b9df3bd8
g 091_W_Aya_100K_01
f 79/53/101 70/46/101 77/44/101
usemtl 30378b77-0288-41c3-ac02-b7c3b9df3bd8
g 091_W_Aya_100K_01
f 83/117/94 71/41/94 81/109/94
usemtl 30378b77-0288-41c3-ac02-b7c3b9df3bd8
g 091_W_Aya_100K_01
f 79/53/101 73/21/101 70/46/101
usemtl 30378b77-0288-41c3-ac02-b7c3b9df3bd8
g 091_W_Aya_100K_01
f 81/11/95 74/114/95 79/95/95
usemtl 30378b77-0288-41c3-ac02-b7c3b9df3bd8
g 091_W_Aya_100K_01
f 77/44/81 86/4/81 68/77/81
usemtl 30378b77-0288-41c3-ac02-b7c3b9df3bd8
g 091_W_Aya_100K_01
f 81/11/95 79/95/95 77/44/95
usemtl 30378b77-0288-41c3-ac02-b7c3b9df3bd8
g 091_W_Aya_100K_01
f 81/11/83 77/44/83 76/63/83
usemtl 30378b77-0288-41c3-ac02-b7c3b9df3bd8
g 091_W_Aya_100K_01
f 78/102/100 83/117/100 81/109/100
usemtl 30378b77-0288-41c3-ac02-b7c3b9df3bd8
g 091_W_Aya_100K_01
f 82/58/84 66/93/84 67/78/84
usemtl 30378b77-0288-41c3-ac02-b7c3b9df3bd8
g 091_W_Aya_100K_01
f 77/44/89 72/116/89 86/4/89
usemtl 30378b77-0288-41c3-ac02-b7c3b9df3bd8
g 091_W_Aya_100K_01
f 76/63/102 77/44/102 68/77/102
usemtl 30378b77-0288-41c3-ac02-b7c3b9df3bd8
g 091_W_Aya_100K_01
f 82/58/86 67/78/86 78/102/86
usemtl 30378b77-0288-41c3-ac02-b7c3b9df3bd8
g 091_W_Aya_100K_01
f 72/116/92 70/46/92 69/67/92
usemtl 30378b77-0288-41c3-ac02-b7c3b9df3bd8
g 091_W_Aya_100K_01
f 80/24/90 84/84/90 68/77/90
usemtl 30378b77-0288-41c3-ac02-b7c3b9df3bd8
g 091_W_Aya_100K_01
f 70/46/91 73/21/91 69/118/91
usemtl 30378b77-0288-41c3-ac02-b7c3b9df3bd8
g 091_W_Aya_100K_01
f 80/24/96 68/77/96 86/4/96
usemtl 30378b77-0288-41c3-ac02-b7c3b9df3bd8
g 091_W_Aya_100K_01
f 70/46/87 72/116/87 77/44/87
usemtl 30378b77-0288-41c3-ac02-b7c3b9df3bd8
g 091_W_Aya_100K_01
f 72/116/82 80/24/82 86/4/82
usemtl 30378b77-0288-41c3-ac02-b7c3b9df3bd8
g 091_W_Aya_100K_01
f 81/11/93 71/122/93 74/60/93
usemtl 30378b77-0288-41c3-ac02-b7c3b9df3bd8
g 091_W_Aya_100K_01
f 68/77/97 87/123/97 76/63/97
usemtl 30378b77-0288-41c3-ac02-b7c3b9df3bd8
g 091_W_Aya_100K_01
f 78/102/88 81/109/88 76/51/88
usemtl 30378b77-0288-41c3-ac02-b7c3b9df3bd8
g 091_W_Aya_100K_01
f 88/5/98 80/24/98 72/116/98
usemtl 30378b77-0288-41c3-ac02-b7c3b9df3bd8
g 091_W_Aya_100K_01
f 82/58/85 78/102/85 76/51/85
usemtl 30378b77-0288-41c3-ac02-b7c3b9df3bd8
g 091_W_Aya_100K_01
f 78/102/100 75/61/100 83/117/100
usemtl 30378b77-0288-41c3-ac02-b7c3b9df3bd8
g 091_W_Aya_100K_01
f 82/83/99 76/63/99 87/123/99
usemtl 30378b77-0288-41c3-ac02-b7c3b9df3bd8
g 091_W_Aya_100K_01
f 72/116/92 69/67/92 85/98/92
usemtl 30378b77-0288-41c3-ac02-b7c3b9df3bd8
g 091_W_Aya_100K_01
f 95/23/109 94/29/109 89/88/109
usemtl 30378b77-0288-41c3-ac02-b7c3b9df3bd8
g 091_W_Aya_100K_01
f 89/88/108 100/125/108 98/2/108
usemtl 30378b77-0288-41c3-ac02-b7c3b9df3bd8
g 091_W_Aya_100K_01
f 94/29/110 93/96/110 90/92/110
usemtl 30378b77-0288-41c3-ac02-b7c3b9df3bd8
g 091_W_Aya_100K_01
f 94/29/106 91/121/106 89/88/106
usemtl 30378b77-0288-41c3-ac02-b7c3b9df3bd8
g 091_W_Aya_100K_01
f 95/120/107 89/88/107 98/16/107
usemtl 30378b77-0288-41c3-ac02-b7c3b9df3bd8
g 091_W_Aya_100K_01
f 95/23/109 92/73/109 94/29/109
usemtl 30378b77-0288-41c3-ac02-b7c3b9df3bd8
g 091_W_Aya_100K_01
f 94/29/104 92/8/104 96/17/104
usemtl 30378b77-0288-41c3-ac02-b7c3b9df3bd8
g 091_W_Aya_100K_01
f 94/29/105 96/108/105 101/59/105
usemtl 30378b77-0288-41c3-ac02-b7c3b9df3bd8
g 091_W_Aya_100K_01
f 94/29/110 101/82/110 93/96/110
usemtl 30378b77-0288-41c3-ac02-b7c3b9df3bd8
g 091_W_Aya_100K_01
f 99/94/103 102/5/103 97/65/103
usemtl 30378b77-0288-41c3-ac02-b7c3b9df3bd8
g 091_W_Aya_100K_01
f 106/37/113 103/111/113 105/116/113
usemtl 30378b77-0288-41c3-ac02-b7c3b9df3bd8
g 091_W_Aya_100K_01
f 108/69/112 104/112/112 107/5/112
usemtl 30378b77-0288-41c3-ac02-b7c3b9df3bd8
g 091_W_Aya_100K_01
f 108/69/112 107/5/112 105/116/112
usemtl 30378b77-0288-41c3-ac02-b7c3b9df3bd8
g 091_W_Aya_100K_01
f 103/81/111 108/50/111 105/116/111
